<?xml version="1.0" encoding="UTF-8"?>
<!DOCTYPE svg PUBLIC "-//W3C//DTD SVG 1.1//EN" "http://www.w3.org/Graphics/SVG/1.1/DTD/svg11.dtd">
<svg xmlns="http://www.w3.org/2000/svg" version="1.1" width="200px" height="200px" style="shape-rendering:geometricPrecision; text-rendering:geometricPrecision; image-rendering:optimizeQuality; fill-rule:evenodd; clip-rule:evenodd" xmlns:xlink="http://www.w3.org/1999/xlink">
<g><path style="opacity:0.506" fill="#c6e510" d="M 110.5,-0.5 C 112.167,-0.5 113.833,-0.5 115.5,-0.5C 122.09,1.2203 128.757,3.05363 135.5,5C 136.598,6.7805 136.598,8.61383 135.5,10.5C 129.749,9.58427 124.082,8.25094 118.5,6.5C 117.558,6.60816 116.725,6.94149 116,7.5C 114.167,10.5 112.333,13.5 110.5,16.5C 104.528,17.6636 98.5276,17.8303 92.5,17C 89.9426,14.1078 87.776,10.9411 86,7.5C 79.4277,6.87309 72.9277,7.70642 66.5,10C 65.5442,13.3936 65.2108,16.8936 65.5,20.5C 65.1412,22.371 64.1412,23.871 62.5,25C 58.2704,27.0316 54.1037,29.1983 50,31.5C 46.155,29.2442 42.155,27.2442 38,25.5C 32.7428,28.5873 28.2428,32.5873 24.5,37.5C 26.6334,40.9346 28.6334,44.4346 30.5,48C 25.6721,53.6909 21.6721,59.8575 18.5,66.5C 15.8797,66.009 13.5463,64.8423 11.5,63C 12.8802,61.6764 13.2135,60.3431 12.5,59C 13.8333,57.6667 15.1667,56.3333 16.5,55C 16.8346,53.836 16.8346,52.5026 16.5,51C 17.448,50.5172 18.448,50.3505 19.5,50.5C 18.9648,47.7615 19.9648,45.9282 22.5,45C 21.3413,43.1733 20.008,41.5067 18.5,40C 18.9574,39.586 19.2907,39.086 19.5,38.5C 17.9604,37.4679 17.4604,36.1346 18,34.5C 20.869,28.248 25.0357,23.0813 30.5,19C 32.556,18.6892 34.556,18.1892 36.5,17.5C 39.9701,19.927 43.4701,22.2603 47,24.5C 48.3333,23.1667 49.6667,21.8333 51,20.5C 51.3333,20.8333 51.6667,21.1667 52,21.5C 52.3333,20.5 52.6667,19.5 53,18.5C 54.904,19.1016 56.7373,18.6016 58.5,17C 57.9026,15.1114 57.5693,13.2781 57.5,11.5C 58.0933,9.61826 58.7599,7.78493 59.5,6C 67.7032,1.78107 76.3699,0.114406 85.5,1C 87.625,4.08227 89.625,7.24893 91.5,10.5C 94.5,9.16667 97.5,9.16667 100.5,10.5C 105.163,8.1651 108.496,4.49844 110.5,-0.5 Z"/></g>
<g><path style="opacity:1" fill="#5a7089" d="M 135.5,10.5 C 136.404,11.209 136.737,12.209 136.5,13.5C 135.549,14.9187 135.216,16.5853 135.5,18.5C 119.313,18.9895 103.146,18.9895 87,18.5C 79.8659,19.5705 72.6992,20.2372 65.5,20.5C 65.2108,16.8936 65.5442,13.3936 66.5,10C 72.9277,7.70642 79.4277,6.87309 86,7.5C 87.776,10.9411 89.9426,14.1078 92.5,17C 98.5276,17.8303 104.528,17.6636 110.5,16.5C 112.333,13.5 114.167,10.5 116,7.5C 116.725,6.94149 117.558,6.60816 118.5,6.5C 124.082,8.25094 129.749,9.58427 135.5,10.5 Z"/></g>
<g><path style="opacity:0.327" fill="#c5e411" d="M 136.5,13.5 C 137.314,15.631 137.814,17.9644 138,20.5C 139.418,17.999 140.418,18.3323 141,21.5C 142.16,19.203 143.16,19.5363 144,22.5C 146.562,22.2616 148.896,23.2616 151,25.5C 152.016,24.3659 152.683,24.6992 153,26.5C 155.993,23.6639 159.493,21.6639 163.5,20.5C 170.667,24.5006 176.333,30.0006 180.5,37C 179.906,37.4643 179.239,37.631 178.5,37.5C 178.167,36.1667 177.833,36.1667 177.5,37.5C 174.117,34.1133 170.45,31.1133 166.5,28.5C 162.274,30.6279 157.941,32.1279 153.5,33C 148.41,30.5238 143.41,27.8571 138.5,25C 137.074,22.9546 136.074,20.7879 135.5,18.5C 135.216,16.5853 135.549,14.9187 136.5,13.5 Z"/></g>
<g><path style="opacity:1" fill="#a4aeba" d="M 135.5,18.5 C 136.074,20.7879 137.074,22.9546 138.5,25C 143.41,27.8571 148.41,30.5238 153.5,33C 157.941,32.1279 162.274,30.6279 166.5,28.5C 170.45,31.1133 174.117,34.1133 177.5,37.5C 177.833,37.5 178.167,37.5 178.5,37.5C 178.953,38.4584 179.619,39.2917 180.5,40C 178.599,43.6441 176.599,47.1441 174.5,50.5C 173.147,52.1284 173.481,53.4617 175.5,54.5C 175.328,55.4916 175.662,56.1583 176.5,56.5C 176.932,57.7095 177.599,58.7095 178.5,59.5C 179.479,60.7653 180.479,62.0986 181.5,63.5C 179.276,65.434 176.942,67.1006 174.5,68.5C 169.489,68.3341 164.489,68.5007 159.5,69C 157.509,69.3736 155.842,70.207 154.5,71.5C 153.5,70.8333 152.5,70.1667 151.5,69.5C 150.222,69.2178 149.222,68.5511 148.5,67.5C 139.937,56.716 128.937,49.716 115.5,46.5C 113.626,45.7148 111.626,45.0482 109.5,44.5C 110.206,42.6945 109.873,40.8612 108.5,39C 90.125,36.0942 73.4583,40.0942 58.5,51C 58.8333,51.1667 59.1667,51.3333 59.5,51.5C 61.8989,49.4612 64.5656,48.2946 67.5,48C 68.6405,48.7412 68.6405,49.5745 67.5,50.5C 61.3708,53.1759 61.3708,54.5092 67.5,54.5C 65.369,55.3138 63.0356,55.8138 60.5,56C 58.5905,58.3768 56.5905,60.5435 54.5,62.5C 53.8333,62.8333 53.1667,63.1667 52.5,63.5C 46.5168,69.8261 42.1835,77.1594 39.5,85.5C 37.6736,93.6255 37.0069,101.959 37.5,110.5C 36.5,110.5 35.5,110.5 34.5,110.5C 33.8003,104.841 33.6336,99.1747 34,93.5C 35.2172,86.6277 37.0506,79.961 39.5,73.5C 42.7104,69.8222 45.2104,65.8222 47,61.5C 44.425,64.319 42.0917,67.319 40,70.5C 39.6905,69.2341 39.1905,68.0674 38.5,67C 34.9961,65.0823 31.6628,62.9157 28.5,60.5C 26.8624,61.7046 26.5291,63.0379 27.5,64.5C 23.7909,65.1883 20.4576,66.6883 17.5,69C 13.5138,69.4988 9.51383,69.6655 5.5,69.5C 5.31299,71.5643 4.81299,73.5643 4,75.5C 3.46256,72.8128 3.96256,70.3128 5.5,68C 10.0195,67.8247 14.3528,67.3247 18.5,66.5C 21.6721,59.8575 25.6721,53.6909 30.5,48C 28.6334,44.4346 26.6334,40.9346 24.5,37.5C 28.2428,32.5873 32.7428,28.5873 38,25.5C 42.155,27.2442 46.155,29.2442 50,31.5C 54.1037,29.1983 58.2704,27.0316 62.5,25C 64.1412,23.871 65.1412,22.371 65.5,20.5C 72.6992,20.2372 79.8659,19.5705 87,18.5C 103.146,18.9895 119.313,18.9895 135.5,18.5 Z"/></g>
<g><path style="opacity:1" fill="#c9d7dc" d="M 109.5,44.5 C 95.3461,43.4066 82.0128,46.2399 69.5,53C 75.1569,53.4994 80.8236,53.6661 86.5,53.5C 80.3554,54.4902 74.0221,54.8235 67.5,54.5C 61.3708,54.5092 61.3708,53.1759 67.5,50.5C 68.6405,49.5745 68.6405,48.7412 67.5,48C 64.5656,48.2946 61.8989,49.4612 59.5,51.5C 59.1667,51.3333 58.8333,51.1667 58.5,51C 73.4583,40.0942 90.125,36.0942 108.5,39C 109.873,40.8612 110.206,42.6945 109.5,44.5 Z"/></g>
<g><path style="opacity:0.004" fill="#c4e300" d="M 176.5,50.5 C 177.833,51.1667 177.833,51.1667 176.5,50.5 Z"/></g>
<g><path style="opacity:0.044" fill="#c5e322" d="M 174.5,50.5 C 174.409,52.6977 175.075,53.0311 176.5,51.5C 178.086,53.6705 179.42,56.0038 180.5,58.5C 179.508,58.3284 178.842,58.6618 178.5,59.5C 177.599,58.7095 176.932,57.7095 176.5,56.5C 175.662,56.1583 175.328,55.4916 175.5,54.5C 173.481,53.4617 173.147,52.1284 174.5,50.5 Z"/></g>
<g><path style="opacity:0.584" fill="#3c757d" d="M 113.5,54.5 C 117.962,55.1534 122.295,56.3201 126.5,58C 118.285,56.7655 109.952,56.2655 101.5,56.5C 105.5,55.8333 109.5,55.1667 113.5,54.5 Z"/></g>
<g><path style="opacity:1" fill="#65e7e9" d="M 109.5,44.5 C 111.626,45.0482 113.626,45.7148 115.5,46.5C 121.034,48.9393 126.368,51.9393 131.5,55.5C 129.663,55.6395 129.33,56.3061 130.5,57.5C 134.944,60.441 138.944,63.941 142.5,68C 143.437,68.6917 144.103,68.525 144.5,67.5C 145.961,68.6857 147.295,68.6857 148.5,67.5C 149.222,68.5511 150.222,69.2178 151.5,69.5C 152.758,71.6869 153.758,74.0202 154.5,76.5C 152.77,77.3786 151.437,78.712 150.5,80.5C 152.652,88.0954 154.486,95.762 156,103.5C 157.049,101.616 158.549,100.282 160.5,99.5C 160.5,102.833 160.5,106.167 160.5,109.5C 160.149,112.903 159.482,116.237 158.5,119.5C 155.163,118.516 153.663,116.183 154,112.5C 152.569,114.364 151.403,116.364 150.5,118.5C 149.4,119.605 148.733,120.938 148.5,122.5C 146.193,125.638 143.359,128.305 140,130.5C 139.805,131.819 139.972,133.153 140.5,134.5C 130.813,135.049 121.146,135.882 111.5,137C 108.281,142.611 104.948,148.111 101.5,153.5C 100.475,153.897 100.308,154.563 101,155.5C 103.183,157.907 105.35,160.24 107.5,162.5C 105.716,164.48 103.383,165.48 100.5,165.5C 82.8487,164.57 65.182,164.236 47.5,164.5C 47.6716,163.508 47.3382,162.842 46.5,162.5C 46.2969,160.956 45.6302,159.622 44.5,158.5C 44.7093,157.914 45.0426,157.414 45.5,157C 51.5488,155.806 56.8821,153.306 61.5,149.5C 68.8776,145.951 74.0443,140.285 77,132.5C 82.1702,116.578 81.5035,100.911 75,85.5C 71.8404,77.8387 67.6737,70.8387 62.5,64.5C 64.1897,62.4807 65.8564,60.4807 67.5,58.5C 68.609,58.5569 69.609,58.8902 70.5,59.5C 79.9507,72.0715 86.4507,86.0715 90,101.5C 90.747,108.882 90.4137,116.215 89,123.5C 87.0645,130.678 84.3978,137.344 81,143.5C 89.5046,136.337 96.5046,128.004 102,118.5C 105.902,96.6224 102.069,76.2891 90.5,57.5C 90.5,57.1667 90.5,56.8333 90.5,56.5C 94.1667,56.5 97.8333,56.5 101.5,56.5C 109.952,56.2655 118.285,56.7655 126.5,58C 122.295,56.3201 117.962,55.1534 113.5,54.5C 104.682,53.5067 95.6822,53.1734 86.5,53.5C 80.8236,53.6661 75.1569,53.4994 69.5,53C 82.0128,46.2399 95.3461,43.4066 109.5,44.5 Z"/></g>
<g><path style="opacity:0.663" fill="#426661" d="M 131.5,55.5 C 137.113,58.1129 141.446,62.1129 144.5,67.5C 144.103,68.525 143.437,68.6917 142.5,68C 138.944,63.941 134.944,60.441 130.5,57.5C 129.33,56.3061 129.663,55.6395 131.5,55.5 Z"/></g>
<g><path style="opacity:0.004" fill="#c0e300" d="M 180.5,58.5 C 181.525,58.8966 181.692,59.5632 181,60.5C 180.536,59.9056 180.369,59.2389 180.5,58.5 Z"/></g>
<g><path style="opacity:1" fill="#e8e3e2" d="M 122.5,59.5 C 134.833,64.5 143.5,73.1667 148.5,85.5C 149.958,92.1236 151.291,98.7903 152.5,105.5C 152.101,107.197 151.601,108.863 151,110.5C 149.161,99.7952 145.494,89.7952 140,80.5C 131.671,72.417 122.838,64.917 113.5,58C 116.488,58.1621 119.488,58.6621 122.5,59.5 Z"/></g>
<g><path style="opacity:0.953" fill="#aff282" d="M 115.5,46.5 C 128.937,49.716 139.937,56.716 148.5,67.5C 147.295,68.6857 145.961,68.6857 144.5,67.5C 141.446,62.1129 137.113,58.1129 131.5,55.5C 126.368,51.9393 121.034,48.9393 115.5,46.5 Z"/></g>
<g><path style="opacity:1" fill="#aba5ad" d="M 122.5,59.5 C 137.125,62.1253 145.792,70.7919 148.5,85.5C 143.5,73.1667 134.833,64.5 122.5,59.5 Z"/></g>
<g><path style="opacity:0.351" fill="#8df5fa" d="M 56.5,66.5 C 60.717,70.7287 63.717,75.7287 65.5,81.5C 65.8726,84.5739 66.5392,87.5739 67.5,90.5C 59.1667,90.5 50.8333,90.5 42.5,90.5C 43.0436,86.3268 44.2103,82.3268 46,78.5C 48.8131,75.5541 51.1465,72.2208 53,68.5C 53.8159,67.1772 54.9826,66.5106 56.5,66.5 Z"/></g>
<g><path style="opacity:0.012" fill="#c2ecec" d="M 174.5,68.5 C 175.239,68.369 175.906,68.5357 176.5,69C 175.563,69.6917 174.897,69.525 174.5,68.5 Z"/></g>
<g><path style="opacity:1" fill="#787b7a" d="M 90.5,56.5 C 90.5,56.8333 90.5,57.1667 90.5,57.5C 86.1539,57.3343 81.8206,57.501 77.5,58C 81.5408,58.1735 85.5408,58.6735 89.5,59.5C 100.676,78.5559 103.842,98.8892 99,120.5C 97.483,122.24 95.983,123.906 94.5,125.5C 96.9977,120.004 98.331,114.17 98.5,108C 97.7961,92.2234 94.4628,77.0568 88.5,62.5C 85.5,61.1667 82.5,61.1667 79.5,62.5C 82.7439,69.6485 85.4106,76.9818 87.5,84.5C 82.3231,76.1486 77.6564,67.4819 73.5,58.5C 72.209,58.2627 71.209,58.596 70.5,59.5C 69.609,58.8902 68.609,58.5569 67.5,58.5C 67.6107,57.8826 67.944,57.3826 68.5,57C 75.8258,56.5003 83.1591,56.3337 90.5,56.5 Z"/></g>
<g><path style="opacity:1" fill="#adba94" d="M 52.5,63.5 C 48.1561,70.9158 43.8228,78.2491 39.5,85.5C 42.1835,77.1594 46.5168,69.8261 52.5,63.5 Z"/></g>
<g><path style="opacity:1" fill="#c2c8cf" d="M 39.5,73.5 C 36.5727,77.6946 34.4061,82.3612 33,87.5C 32.1074,86.9186 31.1074,86.5852 30,86.5C 24.839,87.1995 19.6723,87.8661 14.5,88.5C 13.0055,88.2908 11.8388,87.6241 11,86.5C 9.22448,87.5361 7.39114,87.5361 5.5,86.5C 3.5,85.8333 1.5,85.1667 -0.5,84.5C -0.5,83.1667 -0.5,81.8333 -0.5,80.5C 1.04069,76.0545 2.70735,71.5545 4.5,67C 9.1548,66.5008 13.8215,66.3342 18.5,66.5C 14.3528,67.3247 10.0195,67.8247 5.5,68C 3.96256,70.3128 3.46256,72.8128 4,75.5C 4.81299,73.5643 5.31299,71.5643 5.5,69.5C 9.51383,69.6655 13.5138,69.4988 17.5,69C 20.4576,66.6883 23.7909,65.1883 27.5,64.5C 26.5291,63.0379 26.8624,61.7046 28.5,60.5C 31.6628,62.9157 34.9961,65.0823 38.5,67C 39.1905,68.0674 39.6905,69.2341 40,70.5C 42.0917,67.319 44.425,64.319 47,61.5C 45.2104,65.8222 42.7104,69.8222 39.5,73.5 Z"/></g>
<g><path style="opacity:1" fill="#accecf" d="M 154.5,76.5 C 158.766,83.4646 160.766,91.1313 160.5,99.5C 158.549,100.282 157.049,101.616 156,103.5C 154.486,95.762 152.652,88.0954 150.5,80.5C 151.437,78.712 152.77,77.3786 154.5,76.5 Z"/></g>
<g><path style="opacity:1" fill="#a0c3c5" d="M 123.5,88.5 C 126.288,94.2157 126.788,100.216 125,106.5C 122.319,109.924 118.819,111.924 114.5,112.5C 113.755,105.594 112.755,98.5943 111.5,91.5C 115.916,91.1182 119.916,90.1182 123.5,88.5 Z"/></g>
<g><path style="opacity:0.966" fill="#dfe1e2" d="M 39.5,73.5 C 37.0506,79.961 35.2172,86.6277 34,93.5C 33.6336,99.1747 33.8003,104.841 34.5,110.5C 35.5,110.5 36.5,110.5 37.5,110.5C 37.5,110.833 37.5,111.167 37.5,111.5C 30.1381,110.828 22.8047,109.828 15.5,108.5C 13.8857,108.197 12.5523,107.53 11.5,106.5C 11.666,101.156 11.4994,95.8229 11,90.5C 8.833,89.5119 6.99966,88.1786 5.5,86.5C 7.39114,87.5361 9.22448,87.5361 11,86.5C 11.8388,87.6241 13.0055,88.2908 14.5,88.5C 19.6723,87.8661 24.839,87.1995 30,86.5C 31.1074,86.5852 32.1074,86.9186 33,87.5C 34.4061,82.3612 36.5727,77.6946 39.5,73.5 Z"/></g>
<g><path style="opacity:0.384" fill="#243439" d="M 158.5,119.5 C 159.482,116.237 160.149,112.903 160.5,109.5C 161.324,105.688 161.824,101.688 162,97.5C 163.17,105.813 162.17,113.813 159,121.5C 158.536,120.906 158.369,120.239 158.5,119.5 Z"/></g>
<g><path style="opacity:1" fill="#242929" d="M 114.5,112.5 C 118.819,111.924 122.319,109.924 125,106.5C 126.788,100.216 126.288,94.2157 123.5,88.5C 122.243,85.5726 120.243,83.2393 117.5,81.5C 120.19,80.3977 122.857,80.5644 125.5,82C 133.853,90.1483 135.687,99.6483 131,110.5C 125.737,114.808 120.237,115.474 114.5,112.5 Z"/></g>
<g><path style="opacity:1" fill="#48696b" d="M 70.5,92.5 C 71.6005,94.2774 72.4338,96.2774 73,98.5C 73.8223,106.345 73.6557,114.011 72.5,121.5C 72.5,116.833 72.5,112.167 72.5,107.5C 68.6983,108.12 65.365,107.286 62.5,105C 64.5217,101.466 67.5217,99.9656 71.5,100.5C 71.1667,97.8333 70.8333,95.1667 70.5,92.5 Z"/></g>
<g><path style="opacity:1" fill="#93af21" d="M 11.5,106.5 C 12.5523,107.53 13.8857,108.197 15.5,108.5C 22.8047,109.828 30.1381,110.828 37.5,111.5C 40.4239,112.753 42.7573,114.753 44.5,117.5C 43.5,117.5 42.5,117.5 41.5,117.5C 39.1578,116.992 36.9912,115.992 35,114.5C 33.9887,115.337 32.8221,115.67 31.5,115.5C 28.3711,114.456 25.3711,114.122 22.5,114.5C 22.1344,113.305 21.301,112.639 20,112.5C 18.2341,113.233 16.4008,113.567 14.5,113.5C 15.1593,118.287 15.9926,122.954 17,127.5C 12.7289,133.221 7.89561,133.887 2.5,129.5C 2.5,129.167 2.5,128.833 2.5,128.5C 5.32725,128.665 7.82725,127.332 10,124.5C 10.1594,121.118 9.65944,117.785 8.5,114.5C 8.25284,113.287 7.58617,112.62 6.5,112.5C 6.61071,111.883 6.94404,111.383 7.5,111C 6.04392,110.577 5.54392,109.744 6,108.5C 7.76126,106.637 9.59459,105.97 11.5,106.5 Z"/></g>
<g><path style="opacity:1" fill="#a8ced1" d="M 54.5,62.5 C 54.7329,64.0618 55.3995,65.3951 56.5,66.5C 54.9826,66.5106 53.8159,67.1772 53,68.5C 51.1465,72.2208 48.8131,75.5541 46,78.5C 44.2103,82.3268 43.0436,86.3268 42.5,90.5C 50.8333,90.5 59.1667,90.5 67.5,90.5C 66.5392,87.5739 65.8726,84.5739 65.5,81.5C 67.5335,84.9798 69.2002,88.6465 70.5,92.5C 70.8333,95.1667 71.1667,97.8333 71.5,100.5C 67.5217,99.9656 64.5217,101.466 62.5,105C 65.365,107.286 68.6983,108.12 72.5,107.5C 72.5,112.167 72.5,116.833 72.5,121.5C 71.0149,123.249 70.0149,125.249 69.5,127.5C 62.6866,126.509 55.6866,126.175 48.5,126.5C 46.8921,123.618 45.5587,120.618 44.5,117.5C 42.7573,114.753 40.4239,112.753 37.5,111.5C 37.5,111.167 37.5,110.833 37.5,110.5C 37.0069,101.959 37.6736,93.6255 39.5,85.5C 43.8228,78.2491 48.1561,70.9158 52.5,63.5C 53.1667,63.1667 53.8333,62.8333 54.5,62.5 Z"/></g>
<g><path style="opacity:1" fill="#4c7072" d="M 41.5,97.5 C 49.1963,96.1841 54.863,98.8507 58.5,105.5C 58.1822,106.647 57.5156,107.481 56.5,108C 52.1126,108.226 47.7793,108.726 43.5,109.5C 42.6143,108.675 42.281,107.675 42.5,106.5C 46.5138,106.666 50.5138,106.499 54.5,106C 53.0542,103.306 51.0542,102.473 48.5,103.5C 47.8076,102.975 47.3076,102.308 47,101.5C 45.3333,102.167 43.6667,102.833 42,103.5C 41.5045,101.527 41.3379,99.5273 41.5,97.5 Z"/></g>
<g><path style="opacity:0.929" fill="#c5e404" d="M 22.5,114.5 C 24.6509,116.289 27.1509,117.622 30,118.5C 31.0386,117.756 31.5386,116.756 31.5,115.5C 32.8221,115.67 33.9887,115.337 35,114.5C 36.9912,115.992 39.1578,116.992 41.5,117.5C 46.2599,127.355 51.2599,137.022 56.5,146.5C 54.6838,148.137 52.6838,149.637 50.5,151C 46.1536,152.664 41.8203,154.164 37.5,155.5C 36.7321,156.263 36.2321,157.263 36,158.5C 33.2913,155.622 30.458,152.956 27.5,150.5C 26.2867,150.747 25.62,151.414 25.5,152.5C 25.1667,152.5 24.8333,152.5 24.5,152.5C 24.1667,151.167 23.8333,151.167 23.5,152.5C 19.6364,151.43 15.8031,151.763 12,153.5C 10.0164,153.259 8.18308,152.592 6.5,151.5C 3.58021,146.336 1.24688,141.003 -0.5,135.5C -0.5,134.833 -0.5,134.167 -0.5,133.5C 0.833333,133.167 0.833333,132.833 -0.5,132.5C -0.5,131.833 -0.5,131.167 -0.5,130.5C 0.634763,129.897 1.63476,129.564 2.5,129.5C 7.89561,133.887 12.7289,133.221 17,127.5C 15.9926,122.954 15.1593,118.287 14.5,113.5C 16.4008,113.567 18.2341,113.233 20,112.5C 21.301,112.639 22.1344,113.305 22.5,114.5 Z"/></g>
<g><path style="opacity:1" fill="#e5e2e9" d="M 31.5,115.5 C 31.5386,116.756 31.0386,117.756 30,118.5C 27.1509,117.622 24.6509,116.289 22.5,114.5C 25.3711,114.122 28.3711,114.456 31.5,115.5 Z"/></g>
<g><path style="opacity:1" fill="#aab4ba" d="M 6.5,112.5 C 7.58617,112.62 8.25284,113.287 8.5,114.5C 9.65944,117.785 10.1594,121.118 10,124.5C 7.82725,127.332 5.32725,128.665 2.5,128.5C 1.66929,125.341 0.669289,122.341 -0.5,119.5C -0.5,118.167 -0.5,116.833 -0.5,115.5C 1.71283,114.227 4.04616,113.227 6.5,112.5 Z"/></g>
<g><path style="opacity:1" fill="#294d4f" d="M 50.5,120.5 C 52.1667,120.5 53.8333,120.5 55.5,120.5C 55.6602,122.199 55.4935,123.866 55,125.5C 53.3333,121.5 51.6667,121.5 50,125.5C 49.3603,123.735 49.5269,122.068 50.5,120.5 Z"/></g>
<g><path style="opacity:1" fill="#14181a" d="M 90.5,57.5 C 102.069,76.2891 105.902,96.6224 102,118.5C 96.5046,128.004 89.5046,136.337 81,143.5C 84.3978,137.344 87.0645,130.678 89,123.5C 90.4137,116.215 90.747,108.882 90,101.5C 86.4507,86.0715 79.9507,72.0715 70.5,59.5C 71.209,58.596 72.209,58.2627 73.5,58.5C 77.6564,67.4819 82.3231,76.1486 87.5,84.5C 91.6556,95.7721 93.3222,107.439 92.5,119.5C 91.3539,123.959 89.6872,128.292 87.5,132.5C 87.6667,132.833 87.8333,133.167 88,133.5C 90.1267,131.886 91.6267,129.886 92.5,127.5C 93.5,127.167 94.1667,126.5 94.5,125.5C 95.983,123.906 97.483,122.24 99,120.5C 103.842,98.8892 100.676,78.5559 89.5,59.5C 85.5408,58.6735 81.5408,58.1735 77.5,58C 81.8206,57.501 86.1539,57.3343 90.5,57.5 Z"/></g>
<g><path style="opacity:1" fill="#f3f4f4" d="M 94.5,125.5 C 94.1667,126.5 93.5,127.167 92.5,127.5C 92.1949,125.081 92.1949,122.414 92.5,119.5C 93.3222,107.439 91.6556,95.7721 87.5,84.5C 85.4106,76.9818 82.7439,69.6485 79.5,62.5C 82.5,61.1667 85.5,61.1667 88.5,62.5C 94.4628,77.0568 97.7961,92.2234 98.5,108C 98.331,114.17 96.9977,120.004 94.5,125.5 Z"/></g>
<g><path style="opacity:1" fill="#416566" d="M 58.5,121.5 C 61.7861,122.207 65.1194,122.54 68.5,122.5C 68.5,123.5 68.5,124.5 68.5,125.5C 64.8333,125.5 61.1667,125.5 57.5,125.5C 57.4326,124.041 57.7659,122.708 58.5,121.5 Z"/></g>
<g><path style="opacity:0.139" fill="#9ea09f" d="M 151.5,69.5 C 152.5,70.1667 153.5,70.8333 154.5,71.5C 155.906,71.9731 156.573,72.9731 156.5,74.5C 159.225,81.6758 161.558,89.0092 163.5,96.5C 171.444,95.5315 179.444,95.1981 187.5,95.5C 190.518,95.6646 193.518,95.498 196.5,95C 197.554,93.6124 197.72,92.1124 197,90.5C 190.444,82.8113 182.278,78.1446 172.5,76.5C 168.156,75.0314 163.823,75.3647 159.5,77.5C 158.702,77.0431 158.369,76.3764 158.5,75.5C 175.464,71.9391 189.131,76.9391 199.5,90.5C 199.5,90.8333 199.5,91.1667 199.5,91.5C 198.167,91.8333 198.167,92.1667 199.5,92.5C 199.5,93.5 199.5,94.5 199.5,95.5C 198.527,95.9867 197.527,96.4867 196.5,97C 187.631,97.7915 178.798,97.6249 170,96.5C 168.128,97.0682 166.295,97.7349 164.5,98.5C 163.671,103.467 163.171,108.467 163,113.5C 162.79,116.234 161.956,118.734 160.5,121C 161.672,121.419 162.672,122.085 163.5,123C 171.079,123.184 178.579,123.684 186,124.5C 186.414,124.043 186.914,123.709 187.5,123.5C 189.709,124.106 191.876,124.773 194,125.5C 196.537,124.493 198.037,125.493 198.5,128.5C 197.436,130.959 196.102,133.292 194.5,135.5C 188.71,140.544 182.044,143.877 174.5,145.5C 173.833,145.5 173.167,145.5 172.5,145.5C 165.241,145.981 158.241,144.981 151.5,142.5C 151.5,141.833 151.833,141.5 152.5,141.5C 155.876,141.952 159.209,142.618 162.5,143.5C 164.24,141.789 166.24,140.956 168.5,141C 167.449,142.385 166.116,143.385 164.5,144C 166.464,144.624 168.131,144.124 169.5,142.5C 172.902,145.358 175.402,144.691 177,140.5C 177.667,141.167 178.333,141.833 179,142.5C 179.078,140.343 179.245,138.343 179.5,136.5C 180.065,138.51 181.065,140.176 182.5,141.5C 187.09,139.238 191.09,136.238 194.5,132.5C 193.234,131.638 191.901,130.971 190.5,130.5C 190.199,127.641 188.533,126.307 185.5,126.5C 181.941,125.385 178.608,125.385 175.5,126.5C 173.87,124.139 172.203,124.139 170.5,126.5C 168.806,126.446 167.14,126.446 165.5,126.5C 164.45,126.905 164.45,127.571 165.5,128.5C 165.043,129.298 164.376,129.631 163.5,129.5C 162.243,126.573 160.243,124.239 157.5,122.5C 156.145,119.482 153.812,118.149 150.5,118.5C 151.403,116.364 152.569,114.364 154,112.5C 153.663,116.183 155.163,118.516 158.5,119.5C 158.369,120.239 158.536,120.906 159,121.5C 162.17,113.813 163.17,105.813 162,97.5C 161.824,101.688 161.324,105.688 160.5,109.5C 160.5,106.167 160.5,102.833 160.5,99.5C 160.766,91.1313 158.766,83.4646 154.5,76.5C 153.758,74.0202 152.758,71.6869 151.5,69.5 Z"/></g>
<g><path style="opacity:1" fill="#cdcdcd" d="M 156.5,74.5 C 157.167,74.8333 157.833,75.1667 158.5,75.5C 158.369,76.3764 158.702,77.0431 159.5,77.5C 163.823,75.3647 168.156,75.0314 172.5,76.5C 171.761,76.369 171.094,76.5357 170.5,77C 172.044,77.2896 173.377,77.9563 174.5,79C 173.289,80.1131 173.289,81.2798 174.5,82.5C 173.336,82.1654 172.003,82.1654 170.5,82.5C 171.098,83.7946 171.598,85.1279 172,86.5C 174.043,87.5794 175.376,89.246 176,91.5C 178.771,92.3885 181.771,92.3885 185,91.5C 186.595,92.3557 187.428,93.6891 187.5,95.5C 179.444,95.1981 171.444,95.5315 163.5,96.5C 161.558,89.0092 159.225,81.6758 156.5,74.5 Z"/></g>
<g><path style="opacity:1" fill="#e8e8e8" d="M 172.5,76.5 C 182.278,78.1446 190.444,82.8113 197,90.5C 197.72,92.1124 197.554,93.6124 196.5,95C 193.518,95.498 190.518,95.6646 187.5,95.5C 187.428,93.6891 186.595,92.3557 185,91.5C 181.771,92.3885 178.771,92.3885 176,91.5C 175.376,89.246 174.043,87.5794 172,86.5C 171.598,85.1279 171.098,83.7946 170.5,82.5C 172.003,82.1654 173.336,82.1654 174.5,82.5C 173.289,81.2798 173.289,80.1131 174.5,79C 173.377,77.9563 172.044,77.2896 170.5,77C 171.094,76.5357 171.761,76.369 172.5,76.5 Z"/></g>
<g><path style="opacity:1" fill="#252928" d="M 157.5,122.5 C 160.243,124.239 162.243,126.573 163.5,129.5C 160.412,129.623 157.745,128.623 155.5,126.5C 156.63,125.378 157.297,124.044 157.5,122.5 Z"/></g>
<g><path style="opacity:0.837" fill="#192121" d="M 86.5,53.5 C 95.6822,53.1734 104.682,53.5067 113.5,54.5C 109.5,55.1667 105.5,55.8333 101.5,56.5C 97.8333,56.5 94.1667,56.5 90.5,56.5C 83.1591,56.3337 75.8258,56.5003 68.5,57C 67.944,57.3826 67.6107,57.8826 67.5,58.5C 65.8564,60.4807 64.1897,62.4807 62.5,64.5C 67.6737,70.8387 71.8404,77.8387 75,85.5C 81.5035,100.911 82.1702,116.578 77,132.5C 74.0443,140.285 68.8776,145.951 61.5,149.5C 64.0176,147.643 64.0176,145.81 61.5,144C 62.2524,143.329 62.5858,142.496 62.5,141.5C 65.3606,137.112 67.6939,132.446 69.5,127.5C 70.0149,125.249 71.0149,123.249 72.5,121.5C 73.6557,114.011 73.8223,106.345 73,98.5C 72.4338,96.2774 71.6005,94.2774 70.5,92.5C 69.2002,88.6465 67.5335,84.9798 65.5,81.5C 63.717,75.7287 60.717,70.7287 56.5,66.5C 55.3995,65.3951 54.7329,64.0618 54.5,62.5C 56.5905,60.5435 58.5905,58.3768 60.5,56C 63.0356,55.8138 65.369,55.3138 67.5,54.5C 74.0221,54.8235 80.3554,54.4902 86.5,53.5 Z"/></g>
<g><path style="opacity:1" fill="#505050" d="M 190.5,130.5 C 186.007,133.135 182.007,132.302 178.5,128C 176.765,127.349 175.098,127.515 173.5,128.5C 172.261,128.058 171.261,127.391 170.5,126.5C 172.203,124.139 173.87,124.139 175.5,126.5C 178.608,125.385 181.941,125.385 185.5,126.5C 188.533,126.307 190.199,127.641 190.5,130.5 Z"/></g>
<g><path style="opacity:0.35" fill="#91f6f6" d="M 48.5,126.5 C 55.6866,126.175 62.6866,126.509 69.5,127.5C 67.6939,132.446 65.3606,137.112 62.5,141.5C 61.8333,141.833 61.1667,142.167 60.5,142.5C 55.052,138.279 51.052,132.945 48.5,126.5 Z"/></g>
<g><path style="opacity:1" fill="#858583" d="M 92.5,119.5 C 92.1949,122.414 92.1949,125.081 92.5,127.5C 91.6267,129.886 90.1267,131.886 88,133.5C 87.8333,133.167 87.6667,132.833 87.5,132.5C 89.6872,128.292 91.3539,123.959 92.5,119.5 Z"/></g>
<g><path style="opacity:1" fill="#bebebe" d="M 165.5,126.5 C 167.14,126.446 168.806,126.446 170.5,126.5C 171.261,127.391 172.261,128.058 173.5,128.5C 175.098,127.515 176.765,127.349 178.5,128C 182.007,132.302 186.007,133.135 190.5,130.5C 191.901,130.971 193.234,131.638 194.5,132.5C 191.09,136.238 187.09,139.238 182.5,141.5C 181.065,140.176 180.065,138.51 179.5,136.5C 179.245,138.343 179.078,140.343 179,142.5C 178.333,141.833 177.667,141.167 177,140.5C 175.402,144.691 172.902,145.358 169.5,142.5C 168.131,144.124 166.464,144.624 164.5,144C 166.116,143.385 167.449,142.385 168.5,141C 166.24,140.956 164.24,141.789 162.5,143.5C 159.209,142.618 155.876,141.952 152.5,141.5C 156.518,134.2 156.018,133.867 151,140.5C 151.899,137.368 153.399,134.368 155.5,131.5C 158.717,131.342 162.05,131.175 165.5,131C 166.801,129.384 166.801,127.884 165.5,126.5 Z"/></g>
<g><path style="opacity:1" fill="#6a7979" d="M 150.5,118.5 C 153.812,118.149 156.145,119.482 157.5,122.5C 157.297,124.044 156.63,125.378 155.5,126.5C 157.745,128.623 160.412,129.623 163.5,129.5C 164.376,129.631 165.043,129.298 165.5,128.5C 164.45,127.571 164.45,126.905 165.5,126.5C 166.801,127.884 166.801,129.384 165.5,131C 162.05,131.175 158.717,131.342 155.5,131.5C 153.399,134.368 151.899,137.368 151,140.5C 156.018,133.867 156.518,134.2 152.5,141.5C 151.833,141.5 151.5,141.833 151.5,142.5C 151.167,142.5 150.833,142.5 150.5,142.5C 150.5,141.833 150.167,141.5 149.5,141.5C 148.609,142.11 147.609,142.443 146.5,142.5C 149.395,138.39 152.062,134.056 154.5,129.5C 151.938,127.576 149.938,125.242 148.5,122.5C 148.733,120.938 149.4,119.605 150.5,118.5 Z"/></g>
<g><path style="opacity:0.349" fill="#91f8f8" d="M 140.5,134.5 C 141.167,134.5 141.5,134.833 141.5,135.5C 140.022,135.238 138.689,135.571 137.5,136.5C 136.21,138.792 134.543,140.792 132.5,142.5C 127.799,144.368 123.466,146.868 119.5,150C 113.557,151.481 107.557,152.648 101.5,153.5C 104.948,148.111 108.281,142.611 111.5,137C 121.146,135.882 130.813,135.049 140.5,134.5 Z"/></g>
<g><path style="opacity:1" fill="#a2c9c8" d="M 148.5,122.5 C 149.938,125.242 151.938,127.576 154.5,129.5C 152.062,134.056 149.395,138.39 146.5,142.5C 145.833,142.167 145.167,141.833 144.5,141.5C 145.21,138.914 144.21,136.914 141.5,135.5C 141.5,134.833 141.167,134.5 140.5,134.5C 139.972,133.153 139.805,131.819 140,130.5C 143.359,128.305 146.193,125.638 148.5,122.5 Z"/></g>
<g><path style="opacity:1" fill="#b0e959" d="M 41.5,117.5 C 42.5,117.5 43.5,117.5 44.5,117.5C 45.5587,120.618 46.8921,123.618 48.5,126.5C 51.052,132.945 55.052,138.279 60.5,142.5C 59.674,144.264 58.3407,145.598 56.5,146.5C 51.2599,137.022 46.2599,127.355 41.5,117.5 Z"/></g>
<g><path style="opacity:1" fill="#8c9eb5" d="M 144.5,141.5 C 145.167,141.833 145.833,142.167 146.5,142.5C 147.048,144.394 148.048,146.06 149.5,147.5C 144.716,151.948 139.383,155.614 133.5,158.5C 132.482,157.807 131.482,157.141 130.5,156.5C 129.942,155.21 128.942,154.377 127.5,154C 133.911,150.8 139.578,146.633 144.5,141.5 Z"/></g>
<g><path style="opacity:0.086" fill="#27d2fa" d="M 172.5,145.5 C 173.167,145.5 173.833,145.5 174.5,145.5C 173.565,147.861 172.232,150.028 170.5,152C 172.379,154.523 173.379,157.023 173.5,159.5C 167.474,155.136 167.141,150.47 172.5,145.5 Z"/></g>
<g><path style="opacity:1" fill="#383e06" d="M 62.5,141.5 C 62.5858,142.496 62.2524,143.329 61.5,144C 64.0176,145.81 64.0176,147.643 61.5,149.5C 56.8821,153.306 51.5488,155.806 45.5,157C 45.0426,157.414 44.7093,157.914 44.5,158.5C 45.6302,159.622 46.2969,160.956 46.5,162.5C 40.8555,163.519 37.8555,161.186 37.5,155.5C 41.8203,154.164 46.1536,152.664 50.5,151C 52.6838,149.637 54.6838,148.137 56.5,146.5C 58.3407,145.598 59.674,144.264 60.5,142.5C 61.1667,142.167 61.8333,141.833 62.5,141.5 Z"/></g>
<g><path style="opacity:0.963" fill="#b0e95e" d="M 141.5,135.5 C 144.21,136.914 145.21,138.914 144.5,141.5C 139.578,146.633 133.911,150.8 127.5,154C 128.942,154.377 129.942,155.21 130.5,156.5C 126.855,157.987 123.188,159.487 119.5,161C 115.534,161.828 111.534,162.328 107.5,162.5C 105.35,160.24 103.183,157.907 101,155.5C 100.308,154.563 100.475,153.897 101.5,153.5C 107.557,152.648 113.557,151.481 119.5,150C 123.466,146.868 127.799,144.368 132.5,142.5C 134.543,140.792 136.21,138.792 137.5,136.5C 138.689,135.571 140.022,135.238 141.5,135.5 Z"/></g>
<g><path style="opacity:0.004" fill="#c8eb00" d="M 20.5,152.5 C 21.8333,153.167 21.8333,153.167 20.5,152.5 Z"/></g>
<g><path style="opacity:0.866" fill="#a3adb3" d="M 23.5,152.5 C 23.8333,152.5 24.1667,152.5 24.5,152.5C 24.8333,152.5 25.1667,152.5 25.5,152.5C 28.7974,155.296 31.9641,158.296 35,161.5C 35.383,164.473 34.883,167.306 33.5,170C 34.056,170.383 34.3893,170.883 34.5,171.5C 33.8333,171.5 33.1667,171.5 32.5,171.5C 27.8769,168.711 24.0435,165.045 21,160.5C 20.9516,157.587 21.7849,154.921 23.5,152.5 Z"/></g>
<g><path style="opacity:1" fill="#7f971c" d="M 37.5,155.5 C 37.8555,161.186 40.8555,163.519 46.5,162.5C 47.3382,162.842 47.6716,163.508 47.5,164.5C 45.5,164.5 43.5,164.5 41.5,164.5C 41.3369,168.788 39.0036,171.121 34.5,171.5C 34.3893,170.883 34.056,170.383 33.5,170C 34.883,167.306 35.383,164.473 35,161.5C 31.9641,158.296 28.7974,155.296 25.5,152.5C 25.62,151.414 26.2867,150.747 27.5,150.5C 30.458,152.956 33.2913,155.622 36,158.5C 36.2321,157.263 36.7321,156.263 37.5,155.5 Z"/></g>
<g><path style="opacity:1" fill="#ada69a" d="M 85.5,148.5 C 86.7759,149.386 86.7759,150.386 85.5,151.5C 80.0665,153.028 76.0665,156.194 73.5,161C 70.1426,162.011 66.8093,162.677 63.5,163C 65.3772,161.815 67.3772,160.815 69.5,160C 71.9017,154.931 75.9017,152.264 81.5,152C 83.5444,151.502 84.8777,150.335 85.5,148.5 Z"/></g>
<g><path style="opacity:1" fill="#5a6d83" d="M 81.5,183.5 C 80.0222,183.238 78.6888,183.571 77.5,184.5C 78.3094,186.071 78.6427,187.738 78.5,189.5C 77.1573,187.302 75.824,184.969 74.5,182.5C 71.2138,181.245 67.8804,180.245 64.5,179.5C 61.5309,181.992 58.5309,184.492 55.5,187C 54.552,187.483 53.552,187.649 52.5,187.5C 52.5,186.833 52.1667,186.5 51.5,186.5C 47.995,183.486 44.1616,180.819 40,178.5C 39.161,175.86 39.661,173.527 41.5,171.5C 54.3031,175.636 67.3031,179.136 80.5,182C 81.056,182.383 81.3893,182.883 81.5,183.5 Z"/></g>
<g><path style="opacity:1" fill="#c6e419" d="M 149.5,141.5 C 150.167,141.5 150.5,141.833 150.5,142.5C 152.961,144.153 155.128,146.153 157,148.5C 157.333,148.167 157.667,147.833 158,147.5C 159.731,149.617 161.898,151.117 164.5,152C 164.167,152.333 163.833,152.667 163.5,153C 165.635,153.759 166.968,155.259 167.5,157.5C 166.167,158.5 166.167,159.5 167.5,160.5C 166.975,161.192 166.308,161.692 165.5,162C 169.285,162.215 172.952,162.381 176.5,162.5C 172.719,167.735 168.053,172.068 162.5,175.5C 159.647,174.809 157.147,173.476 155,171.5C 153.887,172.305 152.721,172.972 151.5,173.5C 150.29,176.93 150.624,180.263 152.5,183.5C 153.791,184.542 153.791,185.708 152.5,187C 145.898,190.215 139.565,193.048 133.5,195.5C 131.556,194.811 129.556,194.311 127.5,194C 128.696,193.346 128.696,192.846 127.5,192.5C 119.92,196.529 114.253,194.862 110.5,187.5C 109.265,188.34 108.265,189.34 107.5,190.5C 99.0944,187.563 90.4277,185.23 81.5,183.5C 81.3893,182.883 81.056,182.383 80.5,182C 67.3031,179.136 54.3031,175.636 41.5,171.5C 39.661,173.527 39.161,175.86 40,178.5C 44.1616,180.819 47.995,183.486 51.5,186.5C 50.8333,186.5 50.5,186.833 50.5,187.5C 46.4146,188.298 42.9146,186.965 40,183.5C 39.6667,183.833 39.3333,184.167 39,184.5C 37.7203,181.751 35.887,180.584 33.5,181C 34.4506,180.282 34.6172,179.449 34,178.5C 33,179.833 32,179.833 31,178.5C 30.654,176.782 30.154,175.115 29.5,173.5C 30.6016,172.824 31.6016,172.158 32.5,171.5C 33.1667,171.5 33.8333,171.5 34.5,171.5C 39.0036,171.121 41.3369,168.788 41.5,164.5C 43.5,164.5 45.5,164.5 47.5,164.5C 65.182,164.236 82.8487,164.57 100.5,165.5C 103.383,165.48 105.716,164.48 107.5,162.5C 111.534,162.328 115.534,161.828 119.5,161C 123.188,159.487 126.855,157.987 130.5,156.5C 131.482,157.141 132.482,157.807 133.5,158.5C 139.383,155.614 144.716,151.948 149.5,147.5C 148.048,146.06 147.048,144.394 146.5,142.5C 147.609,142.443 148.609,142.11 149.5,141.5 Z"/></g>
<g><path style="opacity:1" fill="#c6c5bc" d="M 142.5,186.5 C 141.063,187.725 139.396,188.725 137.5,189.5C 134.349,186.85 131.349,184.016 128.5,181C 121.691,180.635 115.024,181.468 108.5,183.5C 109.058,182.21 110.058,181.377 111.5,181C 117.452,179.67 123.452,179.337 129.5,180C 131.833,182.333 134.167,184.667 136.5,187C 138.488,187.18 140.488,187.014 142.5,186.5 Z"/></g>
<g><path style="opacity:1" fill="#d6d8c1" d="M 131.5,163.5 C 118.01,170.762 103.677,172.262 88.5,168C 75.8333,167.333 63.1667,167.333 50.5,168C 49.8333,168.333 49.1667,168.667 48.5,169C 62.2571,171.454 74.9238,175.288 86.5,180.5C 72.6844,176.196 58.6844,172.529 44.5,169.5C 46.1128,168.573 47.7795,167.739 49.5,167C 68.2164,166.078 86.8831,166.578 105.5,168.5C 114.415,168.104 123.082,166.438 131.5,163.5 Z"/></g>
<g><path style="opacity:1" fill="#f3f9c2" d="M 142.5,186.5 C 140.488,187.014 138.488,187.18 136.5,187C 134.167,184.667 131.833,182.333 129.5,180C 123.452,179.337 117.452,179.67 111.5,181C 110.058,181.377 109.058,182.21 108.5,183.5C 107.504,184.665 106.171,185.332 104.5,185.5C 98.2102,184.431 92.2102,182.764 86.5,180.5C 74.9238,175.288 62.2571,171.454 48.5,169C 49.1667,168.667 49.8333,168.333 50.5,168C 63.1667,167.333 75.8333,167.333 88.5,168C 103.677,172.262 118.01,170.762 131.5,163.5C 136.939,159.941 142.606,156.608 148.5,153.5C 153.561,160.424 160.228,164.591 168.5,166C 164.78,170.21 160.28,171.377 155,169.5C 152.516,169.826 150.349,170.826 148.5,172.5C 148.346,176.479 148.013,180.479 147.5,184.5C 145.925,185.456 144.258,186.123 142.5,186.5 Z"/></g>
<g><path style="opacity:0.267" fill="#898972" d="M 151.5,173.5 C 153.707,176.598 154.04,179.932 152.5,183.5C 150.624,180.263 150.29,176.93 151.5,173.5 Z"/></g>
<g><path style="opacity:0.934" fill="#c5e30d" d="M 64.5,179.5 C 67.8804,180.245 71.2138,181.245 74.5,182.5C 75.824,184.969 77.1573,187.302 78.5,189.5C 78.5,190.833 78.5,192.167 78.5,193.5C 80.6208,193.675 82.6208,193.341 84.5,192.5C 84.2865,194.144 84.6198,195.644 85.5,197C 87.7078,197.191 89.7078,197.691 91.5,198.5C 89.2646,198.205 87.2646,198.539 85.5,199.5C 84.1667,199.5 82.8333,199.5 81.5,199.5C 81.5594,197.235 80.7261,196.902 79,198.5C 75.7885,197.328 75.2885,195.828 77.5,194C 73.4038,193.143 69.4038,191.976 65.5,190.5C 64.5108,186.893 64.1774,183.226 64.5,179.5 Z"/></g>
<g><path style="opacity:1" fill="#4b6714" d="M 81.5,183.5 C 83.2591,186.185 84.2591,189.185 84.5,192.5C 82.6208,193.341 80.6208,193.675 78.5,193.5C 78.5,192.167 78.5,190.833 78.5,189.5C 78.6427,187.738 78.3094,186.071 77.5,184.5C 78.6888,183.571 80.0222,183.238 81.5,183.5 Z"/></g>
<g><path style="opacity:1" fill="#3f5821" d="M 124.5,185.5 C 125.601,184.402 126.934,184.235 128.5,185C 129.453,186.955 130.787,188.622 132.5,190C 128.785,190.467 126.119,188.967 124.5,185.5 Z"/></g>
<g><path style="opacity:0.004" fill="#c5e608" d="M 51.5,186.5 C 52.1667,186.5 52.5,186.833 52.5,187.5C 51.4523,189.933 50.7856,189.933 50.5,187.5C 51.1667,187.5 51.5,187.167 51.5,186.5 Z"/></g>
<g><path style="opacity:0.86" fill="#596e85" d="M 81.5,183.5 C 90.4277,185.23 99.0944,187.563 107.5,190.5C 106.923,193.922 105.589,196.922 103.5,199.5C 100.167,199.5 96.8333,199.5 93.5,199.5C 93.1583,198.662 92.4916,198.328 91.5,198.5C 89.7078,197.691 87.7078,197.191 85.5,197C 84.6198,195.644 84.2865,194.144 84.5,192.5C 84.2591,189.185 83.2591,186.185 81.5,183.5 Z"/></g>
</svg>
