<svg id="svg" version="1.1" xmlns="http://www.w3.org/2000/svg" xmlns:xlink="http://www.w3.org/1999/xlink" width="400" height="400" viewBox="0, 0, 400,400"><g id="svgg"><path id="path0" d="M41.400 21.176 C 30.328 21.484,30.199 21.544,29.732 26.543 L 29.495 29.082 23.233 29.350 C 13.656 29.759,13.401 29.893,12.949 34.762 C 12.804 36.323,12.576 37.608,12.443 37.618 C 5.274 38.137,4.473 38.864,4.417 44.900 L 4.400 46.800 2.200 46.800 L 0.000 46.800 0.000 75.200 L 0.000 103.600 2.200 103.600 L 4.400 103.600 4.400 106.150 C 4.400 111.521,4.715 111.895,9.558 112.269 L 12.723 112.513 12.861 115.889 C 13.031 120.030,13.217 120.207,17.802 120.589 L 21.177 120.870 21.388 122.235 C 21.505 122.986,21.693 124.201,21.806 124.936 C 22.128 127.025,23.476 127.983,26.854 128.526 C 32.461 129.428,367.375 129.186,371.400 128.278 C 376.073 127.223,377.454 126.058,377.891 122.800 C 378.158 120.805,378.598 120.558,382.338 120.302 C 386.263 120.034,386.734 119.548,387.112 115.377 L 387.400 112.200 390.062 111.971 C 394.953 111.550,395.186 111.111,395.558 101.600 L 395.800 95.400 397.900 95.279 C 400.687 95.119,400.605 94.400,397.800 94.400 C 396.099 94.400,395.600 94.262,395.600 93.793 C 395.600 92.909,393.588 89.200,393.109 89.200 C 392.876 89.200,392.918 89.461,393.208 89.809 C 393.628 90.315,393.607 90.378,393.088 90.178 C 392.743 90.046,392.362 89.678,392.240 89.360 C 392.098 88.990,391.653 88.847,391.009 88.964 C 390.397 89.075,389.998 88.961,389.994 88.674 C 389.990 88.393,389.830 88.445,389.600 88.800 C 389.315 89.241,389.211 89.260,389.206 88.873 C 389.202 88.534,388.923 88.434,388.422 88.593 C 387.854 88.773,387.452 88.539,386.929 87.720 C 385.987 86.244,385.029 85.544,382.822 84.717 C 379.930 83.632,379.588 83.752,376.227 87.037 C 374.519 88.707,372.554 90.335,371.860 90.654 C 371.167 90.974,369.988 91.677,369.240 92.218 C 366.805 93.978,355.724 96.074,352.200 95.441 C 351.059 95.236,285.499 94.970,199.600 94.822 C 62.229 94.586,48.724 94.505,45.857 93.907 C 38.024 92.274,32.566 87.121,30.266 79.192 C 29.704 77.255,28.664 74.882,27.841 73.660 C 25.958 70.864,26.095 69.180,28.412 66.600 C 28.807 66.160,29.663 63.630,30.314 60.979 C 32.568 51.792,35.343 48.555,42.800 46.416 C 43.616 46.182,44.528 45.522,44.987 44.832 C 45.885 43.481,46.566 43.122,50.540 41.904 L 53.400 41.027 201.200 40.764 C 282.490 40.620,349.720 40.383,350.600 40.239 C 360.348 38.638,361.729 37.555,359.828 33.005 C 359.433 32.061,359.395 31.602,359.701 31.500 C 360.442 31.253,359.661 30.477,358.392 30.198 C 357.720 30.051,357.304 29.755,357.447 29.525 C 357.606 29.266,357.391 29.212,356.868 29.379 C 355.770 29.727,353.140 29.221,353.449 28.721 C 353.582 28.506,354.075 28.427,354.545 28.545 C 355.378 28.755,355.380 28.745,354.624 28.180 C 354.196 27.861,353.566 27.595,353.224 27.588 C 352.711 27.578,352.726 27.502,353.308 27.163 C 353.698 26.937,354.418 26.850,354.908 26.972 C 355.467 27.110,355.351 26.976,354.600 26.614 C 353.940 26.296,353.130 26.022,352.800 26.006 C 352.344 25.983,352.378 25.872,352.943 25.544 C 353.352 25.306,354.432 25.212,355.343 25.334 L 357.000 25.556 355.800 24.996 C 355.140 24.688,354.206 24.428,353.724 24.418 C 353.242 24.408,352.719 24.192,352.561 23.938 C 352.273 23.471,356.885 23.659,359.200 24.209 L 360.200 24.446 359.197 23.861 C 357.995 23.160,354.224 22.422,351.427 22.341 L 349.400 22.282 351.800 22.009 C 360.852 20.978,367.782 23.191,368.856 27.455 C 369.383 29.549,370.000 29.739,370.000 27.808 C 370.000 23.979,368.290 22.278,363.687 21.528 C 360.756 21.051,57.786 20.719,41.400 21.176 M372.707 29.490 C 373.426 29.579,374.506 29.577,375.107 29.486 C 375.708 29.395,375.120 29.322,373.800 29.324 C 372.480 29.326,371.988 29.401,372.707 29.490 M380.802 30.539 C 384.274 31.557,385.208 32.491,386.034 35.770 C 386.737 38.562,387.171 38.336,386.519 35.516 C 385.583 31.463,384.768 30.686,380.995 30.244 L 379.000 30.011 380.802 30.539 M387.452 38.764 C 387.643 38.930,388.548 39.278,389.463 39.538 C 391.479 40.110,393.455 42.220,393.826 44.196 C 393.971 44.973,394.257 45.712,394.461 45.838 C 394.945 46.137,394.505 44.271,393.587 42.128 C 393.148 41.105,392.407 40.217,391.677 39.840 C 390.373 39.165,386.890 38.279,387.452 38.764 M396.707 55.090 C 397.426 55.179,398.506 55.177,399.107 55.086 C 399.708 54.995,399.120 54.922,397.800 54.924 C 396.480 54.926,395.988 55.001,396.707 55.090 M317.800 147.613 C 316.260 147.771,256.320 147.927,184.600 147.959 C 59.012 148.015,54.140 148.045,52.583 148.752 C 50.810 149.557,48.931 151.539,48.567 152.987 C 48.237 154.303,47.343 154.400,35.450 154.402 C 21.306 154.405,21.200 154.445,21.200 159.776 C 21.200 162.704,21.036 162.800,16.030 162.800 C 14.561 162.800,13.189 162.960,12.980 163.156 C 12.771 163.351,11.581 163.802,10.335 164.157 C 7.704 164.906,6.175 166.431,5.764 168.712 C 5.616 169.530,5.304 170.440,5.070 170.734 C 4.837 171.028,4.545 173.098,4.423 175.334 L 4.200 179.400 2.100 179.521 L 0.000 179.642 0.000 204.200 L 0.000 228.758 2.100 228.879 L 4.200 229.000 4.481 234.612 C 4.915 243.248,5.669 244.589,10.389 245.115 L 12.946 245.400 13.595 248.065 C 14.721 252.686,17.762 253.969,27.700 254.018 L 31.400 254.036 32.400 256.118 C 33.648 258.716,37.762 261.012,42.287 261.636 C 47.797 262.396,356.769 261.905,358.469 261.133 C 360.171 260.361,361.093 259.126,361.421 257.179 C 362.002 253.726,361.077 254.092,369.634 253.937 C 378.644 253.775,378.796 253.705,378.805 249.656 C 378.815 245.587,378.803 245.600,382.618 245.600 C 386.395 245.600,386.944 245.292,387.387 242.927 C 387.775 240.861,390.967 237.652,392.955 237.330 C 395.038 236.992,395.330 236.384,395.577 231.866 L 395.800 227.800 397.900 227.679 L 400.000 227.558 400.000 225.979 L 400.000 224.400 397.987 224.400 C 396.268 224.400,395.924 224.531,395.633 225.300 C 395.416 225.870,395.367 225.223,395.498 223.534 C 395.689 221.058,395.630 220.793,394.661 219.825 C 394.088 219.251,393.628 218.655,393.639 218.501 C 393.651 218.346,393.441 218.147,393.174 218.058 C 392.907 217.969,392.804 218.083,392.945 218.311 C 393.102 218.566,392.893 218.645,392.401 218.516 C 391.960 218.401,391.600 218.153,391.600 217.966 C 391.600 217.778,391.330 217.729,391.000 217.855 C 390.670 217.982,390.085 217.949,389.700 217.781 C 389.315 217.614,388.676 217.518,388.280 217.567 C 387.884 217.617,387.192 217.190,386.743 216.618 C 383.752 212.816,379.473 211.428,378.318 213.885 C 377.328 215.990,375.530 217.277,372.281 218.205 C 369.918 218.880,368.501 220.022,365.810 223.415 C 364.093 225.581,362.887 225.942,357.382 225.941 C 354.752 225.941,285.100 225.870,202.600 225.784 C 31.672 225.607,46.869 225.942,43.099 222.264 C 41.935 221.129,39.827 219.570,38.414 218.800 C 34.346 216.583,33.196 215.214,31.021 210.000 C 29.966 207.470,28.870 205.130,28.586 204.800 C 26.929 202.874,26.781 195.878,28.362 194.219 C 29.405 193.125,31.600 187.437,31.600 185.830 C 31.600 183.755,34.310 180.244,36.511 179.468 C 36.901 179.330,37.561 178.424,37.976 177.455 C 38.824 175.477,40.619 173.938,43.000 173.147 C 44.314 172.711,71.588 172.577,195.800 172.399 C 356.731 172.168,355.910 172.178,357.780 170.368 C 358.020 170.136,358.015 170.000,357.767 170.000 C 357.348 170.000,357.296 168.171,357.703 167.764 C 357.836 167.631,357.847 167.267,357.728 166.956 C 357.608 166.645,357.733 166.122,358.004 165.795 C 358.374 165.349,358.379 165.200,358.025 165.200 C 357.746 165.200,357.682 164.996,357.868 164.700 C 358.400 163.856,358.403 160.001,357.872 159.994 C 357.568 159.990,357.596 159.864,357.951 159.639 C 358.254 159.447,358.379 159.089,358.228 158.845 C 358.066 158.583,358.251 158.390,358.676 158.375 C 359.217 158.356,359.147 158.244,358.400 157.933 C 357.447 157.536,357.438 157.500,358.200 157.186 C 358.936 156.883,358.922 156.854,358.024 156.828 C 357.078 156.801,357.072 156.781,357.824 156.213 C 358.575 155.645,358.568 155.623,357.600 155.545 C 357.050 155.501,357.680 155.346,359.000 155.200 L 361.400 154.934 359.033 154.867 C 354.471 154.738,351.698 154.047,351.429 152.972 C 351.044 151.441,348.904 149.304,347.081 148.632 C 343.724 147.393,325.962 146.776,317.800 147.613 M368.291 154.689 C 369.001 154.777,370.261 154.779,371.091 154.692 C 371.921 154.605,371.340 154.533,369.800 154.531 C 368.260 154.529,367.581 154.600,368.291 154.689 M373.890 155.188 C 376.744 155.867,377.793 157.182,378.273 160.683 C 378.404 161.639,378.636 162.498,378.787 162.592 C 379.170 162.828,378.495 158.039,377.961 156.726 C 377.480 155.542,375.806 154.776,373.840 154.841 L 372.600 154.882 373.890 155.188 M384.337 163.198 C 386.012 163.594,386.406 163.988,386.802 165.663 C 387.105 166.943,387.120 166.952,387.159 165.882 C 387.213 164.397,385.603 162.787,384.118 162.841 C 383.048 162.880,383.057 162.895,384.337 163.198 M33.400 279.624 C 26.086 280.256,23.793 281.416,22.631 285.073 L 21.863 287.493 18.496 287.751 C 13.398 288.143,12.800 288.732,12.800 293.367 L 12.800 295.881 9.517 296.135 C 5.093 296.476,4.716 296.868,4.479 301.382 L 4.300 304.800 2.150 304.800 L 0.000 304.800 0.000 333.200 L 0.000 361.600 2.145 361.600 L 4.289 361.600 4.499 365.279 C 4.744 369.580,5.325 370.397,8.144 370.404 C 9.055 370.407,10.475 370.520,11.300 370.657 L 12.800 370.905 12.802 372.952 C 12.807 377.772,13.813 378.794,18.560 378.806 C 21.598 378.814,21.828 378.964,22.424 381.328 C 23.175 384.312,24.504 385.348,28.881 386.362 L 32.600 387.224 200.200 387.112 C 334.217 387.022,367.977 386.899,368.682 386.495 C 369.709 385.908,370.395 383.775,370.398 381.156 L 370.400 379.312 375.900 379.027 C 385.695 378.519,386.220 378.254,386.892 373.470 L 387.319 370.426 389.634 370.164 C 394.503 369.614,395.080 368.558,395.470 359.500 L 395.724 353.600 397.862 353.600 C 399.137 353.600,400.000 353.424,400.000 353.164 C 400.000 352.884,399.148 352.777,397.604 352.864 C 395.471 352.985,395.232 352.923,395.431 352.300 C 395.737 351.338,395.240 349.928,394.709 350.256 C 394.446 350.419,394.392 350.336,394.573 350.044 C 394.972 349.398,393.790 347.670,392.567 347.112 C 391.825 346.774,391.705 346.570,392.089 346.296 C 392.437 346.047,392.314 345.993,391.700 346.128 C 391.205 346.236,390.800 346.142,390.800 345.919 C 390.800 345.689,390.182 345.585,389.374 345.679 C 388.168 345.820,387.776 345.651,386.842 344.587 C 383.932 341.272,379.777 340.248,378.035 342.416 C 377.324 343.301,375.852 344.388,374.507 345.021 C 373.099 345.684,371.420 346.944,370.200 348.254 C 366.850 351.850,358.914 353.453,349.397 352.456 C 346.157 352.117,305.964 351.994,197.197 351.992 C 46.457 351.989,45.676 351.982,42.243 350.458 C 40.736 349.789,37.600 346.831,37.600 346.079 C 37.600 345.904,36.976 345.535,36.213 345.259 C 33.864 344.410,32.137 341.934,30.745 337.419 C 29.841 334.488,29.077 332.861,27.921 331.408 C 26.094 329.111,26.098 328.651,27.972 324.418 C 28.610 322.978,29.789 319.550,30.593 316.800 C 32.659 309.729,33.143 308.981,37.053 306.804 C 41.398 304.387,41.320 304.450,42.428 302.420 C 43.464 300.524,44.933 299.456,47.200 298.953 C 47.970 298.782,117.000 298.524,200.600 298.381 C 304.276 298.202,353.237 297.986,354.603 297.699 C 359.945 296.578,361.183 296.032,361.002 294.876 C 360.909 294.284,360.731 293.143,360.606 292.341 C 360.481 291.538,360.046 290.458,359.639 289.941 C 359.232 289.423,358.922 288.830,358.950 288.621 C 358.977 288.413,358.100 288.030,357.000 287.769 C 355.704 287.462,355.352 287.273,356.000 287.233 L 357.000 287.172 356.000 286.600 C 355.383 286.247,355.230 286.017,355.600 285.998 C 355.939 285.981,355.722 285.709,355.100 285.371 C 353.689 284.606,353.716 284.510,355.300 284.668 L 356.600 284.798 355.300 284.198 C 353.662 283.442,353.662 283.291,355.300 283.520 C 357.038 283.763,356.552 283.313,354.576 282.850 C 353.013 282.483,353.019 282.480,355.367 282.440 C 358.190 282.392,358.129 282.144,355.174 281.654 C 353.027 281.298,353.045 281.293,356.567 281.247 C 361.043 281.188,360.814 280.881,355.955 280.426 C 352.503 280.103,352.749 280.080,359.000 280.140 C 367.984 280.225,368.747 280.610,369.848 285.600 L 370.333 287.800 370.344 285.600 C 370.361 282.177,369.696 280.714,367.800 280.001 C 366.033 279.337,40.968 278.971,33.400 279.624 M376.705 287.883 C 377.202 287.979,377.922 287.975,378.305 287.875 C 378.687 287.775,378.280 287.696,377.400 287.701 C 376.520 287.705,376.207 287.787,376.705 287.883 M384.189 289.025 C 385.689 289.807,385.569 289.666,386.255 291.470 L 386.837 293.000 386.619 291.600 C 386.386 290.106,384.815 288.398,383.678 288.402 C 383.258 288.404,383.454 288.641,384.189 289.025 M390.526 297.331 C 392.420 297.913,393.885 299.292,394.363 300.941 C 394.564 301.634,394.744 301.879,394.764 301.487 C 394.881 299.166,392.379 296.751,389.940 296.831 C 389.245 296.853,389.397 296.984,390.526 297.331 M395.963 313.324 C 396.142 313.503,397.169 313.590,398.244 313.518 L 400.200 313.387 397.919 313.194 C 396.664 313.087,395.784 313.146,395.963 313.324 " stroke="none" fill="#050505" fill-rule="evenodd"></path><path id="path1" d="M351.600 22.030 L 349.400 22.270 351.427 22.335 C 354.243 22.425,358.002 23.164,359.197 23.861 L 360.200 24.446 359.200 24.209 C 356.885 23.659,352.273 23.471,352.561 23.938 C 352.719 24.192,353.242 24.408,353.724 24.418 C 354.206 24.428,355.140 24.688,355.800 24.996 L 357.000 25.556 355.343 25.334 C 354.432 25.212,353.352 25.306,352.943 25.544 C 352.378 25.872,352.344 25.983,352.800 26.006 C 353.130 26.022,353.940 26.296,354.600 26.614 C 355.351 26.976,355.467 27.110,354.908 26.972 C 354.418 26.850,353.698 26.937,353.308 27.163 C 352.726 27.502,352.711 27.578,353.224 27.588 C 353.566 27.595,354.196 27.861,354.624 28.180 C 355.380 28.745,355.378 28.755,354.545 28.545 C 354.075 28.427,353.582 28.506,353.449 28.721 C 353.140 29.221,355.770 29.727,356.868 29.379 C 357.391 29.212,357.606 29.266,357.447 29.525 C 357.304 29.755,357.720 30.051,358.392 30.198 C 359.661 30.477,360.442 31.253,359.701 31.500 C 359.395 31.602,359.433 32.061,359.828 33.005 C 361.729 37.555,360.348 38.638,350.600 40.239 C 349.720 40.383,282.490 40.620,201.200 40.764 L 53.400 41.027 50.540 41.904 C 46.566 43.122,45.885 43.481,44.987 44.832 C 44.528 45.522,43.616 46.182,42.800 46.416 C 35.343 48.555,32.568 51.792,30.314 60.979 C 29.663 63.630,28.807 66.160,28.412 66.600 C 26.095 69.180,25.958 70.864,27.841 73.660 C 28.664 74.882,29.704 77.255,30.266 79.192 C 32.566 87.121,38.024 92.274,45.857 93.907 C 48.724 94.505,62.229 94.586,199.600 94.822 C 285.499 94.970,351.059 95.236,352.200 95.441 C 355.724 96.074,366.805 93.978,369.240 92.218 C 369.988 91.677,371.167 90.974,371.860 90.654 C 372.554 90.335,374.519 88.707,376.227 87.037 C 379.588 83.752,379.930 83.632,382.822 84.717 C 385.029 85.544,385.987 86.244,386.929 87.720 C 387.452 88.539,387.854 88.773,388.422 88.593 C 388.923 88.434,389.202 88.534,389.206 88.873 C 389.211 89.260,389.315 89.241,389.600 88.800 C 389.830 88.445,389.990 88.393,389.994 88.674 C 389.998 88.961,390.397 89.075,391.009 88.964 C 391.653 88.847,392.098 88.990,392.240 89.360 C 392.362 89.678,392.743 90.046,393.088 90.178 C 393.607 90.378,393.628 90.315,393.208 89.809 C 392.902 89.440,392.867 89.200,393.121 89.200 C 393.351 89.200,394.040 90.190,394.653 91.400 L 395.767 93.600 397.884 93.600 L 400.000 93.600 400.000 89.021 L 400.000 84.442 397.900 84.295 L 395.800 84.148 397.900 84.074 C 400.676 83.976,400.618 83.200,397.835 83.200 C 394.729 83.200,394.818 81.862,397.936 81.679 C 399.071 81.613,400.000 81.371,400.000 81.142 C 400.000 80.888,399.144 80.779,397.799 80.863 C 396.589 80.938,395.599 80.865,395.599 80.700 C 395.600 80.535,396.590 80.400,397.800 80.400 C 399.099 80.400,400.000 80.224,400.000 79.971 C 400.000 79.703,399.138 79.583,397.700 79.650 C 395.597 79.749,395.389 79.683,395.272 78.879 C 395.202 78.396,394.977 78.000,394.772 78.000 C 394.567 78.000,394.400 77.539,394.400 76.976 C 394.400 76.396,394.227 76.060,394.000 76.200 C 393.780 76.336,393.600 76.156,393.600 75.800 C 393.600 75.444,393.435 75.255,393.232 75.380 C 393.030 75.505,392.604 75.347,392.287 75.029 C 391.855 74.598,391.593 74.567,391.254 74.906 C 390.968 75.192,390.800 75.207,390.800 74.947 C 390.800 74.719,390.530 74.533,390.200 74.533 C 389.870 74.533,389.600 74.679,389.600 74.857 C 389.600 75.035,389.156 75.012,388.614 74.805 C 388.072 74.599,387.539 74.575,387.430 74.752 C 387.203 75.119,382.799 76.365,381.000 76.571 C 380.340 76.647,379.670 76.729,379.512 76.754 C 379.353 76.779,378.775 77.745,378.227 78.900 C 377.054 81.374,374.975 83.625,372.200 85.425 C 371.100 86.139,369.480 87.476,368.600 88.396 C 365.027 92.132,358.176 93.637,349.668 92.554 C 346.139 92.105,319.957 92.013,198.400 92.026 C 37.356 92.042,46.730 92.179,43.057 89.757 C 36.678 85.549,33.629 81.535,32.025 75.230 L 30.903 70.820 31.839 66.212 C 33.737 56.873,36.604 52.495,42.800 49.480 C 48.642 46.638,39.855 46.792,196.256 46.790 C 312.985 46.789,337.337 46.695,345.200 46.214 C 352.380 45.774,355.566 45.740,358.690 46.067 C 362.966 46.516,369.768 46.195,369.378 45.564 C 369.254 45.364,369.365 45.200,369.625 45.200 C 369.987 45.200,369.988 45.067,369.630 44.636 C 369.304 44.243,369.291 43.991,369.587 43.808 C 369.821 43.663,369.897 43.357,369.755 43.128 C 369.614 42.898,369.746 42.553,370.049 42.361 C 370.356 42.167,370.403 42.010,370.155 42.006 C 369.896 42.003,369.781 41.540,369.879 40.900 C 370.104 39.440,370.043 36.875,369.751 35.450 C 369.589 34.664,369.654 34.386,369.957 34.574 C 370.201 34.724,370.400 34.667,370.400 34.447 C 370.400 34.227,370.231 33.943,370.025 33.815 C 369.818 33.688,369.723 33.198,369.814 32.728 C 369.909 32.236,369.686 31.636,369.289 31.316 C 368.659 30.807,368.678 30.780,369.500 31.006 C 369.995 31.142,370.394 31.107,370.387 30.927 C 370.364 30.338,369.323 29.200,368.807 29.200 C 368.401 29.200,368.401 29.319,368.808 29.809 C 369.230 30.319,369.206 30.377,368.656 30.166 C 368.295 30.028,367.664 29.169,367.254 28.257 C 365.302 23.918,358.635 21.266,351.600 22.030 M362.526 25.247 C 363.578 25.786,366.400 28.433,366.400 28.881 C 366.400 29.563,365.693 29.117,363.418 27.000 C 361.069 24.814,360.854 24.391,362.526 25.247 M363.000 28.400 C 363.398 28.840,363.522 29.200,363.276 29.200 C 363.030 29.200,362.635 28.840,362.400 28.400 C 362.165 27.960,362.040 27.600,362.124 27.600 C 362.208 27.600,362.602 27.960,363.000 28.400 M371.874 30.437 C 371.664 31.240,371.687 31.245,372.428 30.575 C 373.346 29.743,373.379 29.600,372.647 29.600 C 372.342 29.600,371.995 29.977,371.874 30.437 M396.900 82.287 C 397.505 82.378,398.495 82.378,399.100 82.287 C 399.705 82.195,399.210 82.120,398.000 82.120 C 396.790 82.120,396.295 82.195,396.900 82.287 M356.691 154.689 C 357.401 154.777,358.661 154.779,359.491 154.692 C 360.321 154.605,359.740 154.533,358.200 154.531 C 356.660 154.529,355.981 154.600,356.691 154.689 M359.000 155.194 C 357.680 155.343,357.050 155.501,357.600 155.545 C 358.568 155.623,358.575 155.645,357.824 156.213 C 357.072 156.781,357.078 156.801,358.024 156.828 C 358.922 156.854,358.936 156.883,358.200 157.186 C 357.438 157.500,357.447 157.536,358.400 157.933 C 359.147 158.244,359.217 158.356,358.676 158.375 C 358.251 158.390,358.066 158.583,358.228 158.845 C 358.379 159.089,358.254 159.447,357.951 159.639 C 357.596 159.864,357.568 159.990,357.872 159.994 C 358.403 160.001,358.400 163.856,357.868 164.700 C 357.682 164.996,357.746 165.200,358.025 165.200 C 358.379 165.200,358.374 165.349,358.004 165.795 C 357.733 166.122,357.608 166.645,357.728 166.956 C 357.847 167.267,357.836 167.631,357.703 167.764 C 357.296 168.171,357.348 170.000,357.767 170.000 C 358.015 170.000,358.020 170.136,357.780 170.368 C 355.910 172.178,356.731 172.168,195.800 172.399 C 71.588 172.577,44.314 172.711,43.000 173.147 C 40.619 173.938,38.824 175.477,37.976 177.455 C 37.561 178.424,36.901 179.330,36.511 179.468 C 34.310 180.244,31.600 183.755,31.600 185.830 C 31.600 187.437,29.405 193.125,28.362 194.219 C 26.781 195.878,26.929 202.874,28.586 204.800 C 28.870 205.130,29.966 207.470,31.021 210.000 C 33.196 215.214,34.346 216.583,38.414 218.800 C 39.827 219.570,41.935 221.129,43.099 222.264 C 46.869 225.942,31.672 225.607,202.600 225.784 C 285.100 225.870,354.752 225.941,357.382 225.941 C 362.887 225.942,364.093 225.581,365.810 223.415 C 368.501 220.022,369.918 218.880,372.281 218.205 C 375.530 217.277,377.328 215.990,378.318 213.885 C 379.473 211.428,383.752 212.816,386.743 216.618 C 387.192 217.190,387.884 217.617,388.280 217.567 C 388.676 217.518,389.315 217.614,389.700 217.781 C 390.085 217.949,390.670 217.982,391.000 217.855 C 391.330 217.729,391.600 217.778,391.600 217.966 C 391.600 218.153,391.960 218.401,392.401 218.516 C 392.893 218.645,393.102 218.566,392.945 218.311 C 392.804 218.083,392.907 217.969,393.174 218.058 C 393.441 218.147,393.610 218.305,393.548 218.410 C 393.487 218.514,393.923 219.087,394.518 219.682 C 395.147 220.311,395.613 221.231,395.632 221.882 C 395.649 222.497,395.754 222.775,395.865 222.500 C 395.988 222.195,396.834 222.000,398.033 222.000 C 401.145 222.000,401.025 220.114,397.900 219.895 L 395.800 219.748 397.900 219.674 L 400.000 219.600 400.000 214.000 L 400.000 208.400 397.776 208.400 C 396.396 208.400,395.647 208.248,395.800 208.000 C 395.936 207.780,396.937 207.600,398.024 207.600 C 399.182 207.600,400.000 207.420,400.000 207.164 C 400.000 206.884,399.147 206.777,397.599 206.864 C 395.959 206.957,395.199 206.852,395.199 206.533 C 395.200 206.277,394.975 205.975,394.700 205.864 C 394.324 205.711,394.348 205.556,394.800 205.237 C 395.130 205.003,395.211 204.809,394.980 204.806 C 394.749 204.803,394.318 205.025,394.021 205.300 C 393.579 205.710,393.532 205.659,393.762 205.012 C 393.916 204.579,393.912 204.354,393.754 204.513 C 393.595 204.672,393.135 204.503,392.732 204.139 C 392.279 203.728,392.000 203.655,392.000 203.947 C 392.000 204.269,391.704 204.225,391.068 203.808 C 390.556 203.472,390.016 203.318,389.868 203.465 C 389.721 203.613,389.600 203.562,389.600 203.353 C 389.600 202.719,387.732 203.011,386.981 203.762 C 385.869 204.874,384.468 205.376,381.200 205.834 C 378.890 206.157,379.059 206.021,377.370 208.918 C 375.011 212.966,374.249 213.744,370.849 215.574 C 369.067 216.533,366.392 218.339,364.904 219.588 L 362.200 221.859 358.109 222.351 C 354.597 222.774,353.523 222.753,350.509 222.202 C 347.334 221.621,332.958 221.552,199.600 221.480 L 52.200 221.399 48.800 220.377 C 32.943 215.609,27.481 202.912,34.303 186.676 C 35.182 184.583,43.930 175.722,45.448 175.387 C 46.082 175.248,46.870 175.013,47.200 174.867 C 47.530 174.720,116.020 174.481,199.400 174.336 C 344.091 174.083,363.282 173.918,367.203 172.894 C 370.453 172.046,371.062 170.655,370.309 165.800 C 370.105 164.480,369.895 163.032,369.844 162.583 C 369.792 162.134,369.590 161.507,369.394 161.190 C 368.824 160.268,368.843 159.138,369.421 159.617 C 369.760 159.899,369.974 159.845,370.130 159.439 C 370.252 159.120,370.095 158.645,369.781 158.384 C 369.466 158.123,369.301 157.761,369.413 157.579 C 369.525 157.398,369.298 157.064,368.908 156.837 C 367.980 156.296,368.460 156.290,369.866 156.825 C 370.480 157.059,370.839 157.104,370.663 156.925 C 370.487 156.746,369.771 156.373,369.071 156.095 L 367.800 155.590 369.400 155.778 C 370.701 155.930,370.857 155.883,370.237 155.528 C 369.338 155.012,362.430 154.807,359.000 155.194 M373.400 156.866 C 373.840 157.108,374.718 157.778,375.350 158.354 C 376.308 159.225,376.414 159.258,375.983 158.547 C 375.473 157.704,373.596 156.389,372.938 156.412 C 372.752 156.419,372.960 156.623,373.400 156.866 M355.955 280.414 C 360.814 280.884,361.038 281.188,356.567 281.247 C 353.045 281.293,353.027 281.298,355.174 281.654 C 358.129 282.144,358.190 282.392,355.367 282.440 C 353.019 282.480,353.013 282.483,354.576 282.850 C 356.552 283.313,357.038 283.763,355.300 283.520 C 354.585 283.420,354.000 283.397,354.000 283.468 C 354.000 283.539,354.585 283.868,355.300 284.198 L 356.600 284.798 355.300 284.668 C 353.716 284.510,353.689 284.606,355.100 285.371 C 355.722 285.709,355.939 285.981,355.600 285.998 C 355.230 286.017,355.383 286.247,356.000 286.600 L 357.000 287.172 356.000 287.233 C 355.333 287.274,355.640 287.447,356.920 287.752 C 357.976 288.003,358.823 288.348,358.802 288.519 C 358.781 288.689,359.127 289.290,359.572 289.855 C 360.016 290.419,360.481 291.538,360.606 292.341 C 360.731 293.143,360.909 294.284,361.002 294.876 C 361.183 296.032,359.945 296.578,354.603 297.699 C 353.237 297.986,304.276 298.202,200.600 298.381 C 117.000 298.524,47.970 298.782,47.200 298.953 C 44.933 299.456,43.464 300.524,42.428 302.420 C 41.320 304.450,41.398 304.387,37.053 306.804 C 33.143 308.981,32.659 309.729,30.593 316.800 C 29.789 319.550,28.610 322.978,27.972 324.418 C 26.098 328.651,26.094 329.111,27.921 331.408 C 29.077 332.861,29.841 334.488,30.745 337.419 C 32.137 341.934,33.864 344.410,36.213 345.259 C 36.976 345.535,37.600 345.904,37.600 346.079 C 37.600 346.831,40.736 349.789,42.243 350.458 C 45.676 351.982,46.457 351.989,197.197 351.992 C 305.964 351.994,346.157 352.117,349.397 352.456 C 358.914 353.453,366.850 351.850,370.200 348.254 C 371.420 346.944,373.099 345.684,374.507 345.021 C 375.852 344.388,377.324 343.301,378.035 342.416 C 379.777 340.248,383.932 341.272,386.842 344.587 C 387.776 345.651,388.168 345.820,389.374 345.679 C 390.182 345.585,390.800 345.689,390.800 345.919 C 390.800 346.142,391.205 346.236,391.700 346.128 C 392.314 345.993,392.437 346.047,392.089 346.296 C 391.705 346.570,391.825 346.774,392.567 347.112 C 393.790 347.670,394.972 349.398,394.573 350.044 C 394.376 350.362,394.446 350.418,394.781 350.212 C 395.154 349.981,395.223 350.149,395.047 350.850 C 394.915 351.372,394.895 351.620,395.003 351.400 C 395.112 351.176,396.254 351.060,397.599 351.136 C 399.583 351.248,400.000 351.161,400.000 350.636 C 400.000 350.131,399.541 350.000,397.767 350.000 C 394.829 350.000,394.969 349.052,397.931 348.879 C 401.138 348.692,401.001 347.200,397.776 347.200 C 396.396 347.200,395.647 347.048,395.800 346.800 C 395.936 346.580,396.937 346.400,398.024 346.400 C 400.902 346.400,400.798 345.298,397.900 345.095 L 395.800 344.948 397.900 344.874 C 399.432 344.820,400.000 344.643,400.000 344.221 C 400.000 343.808,399.399 343.600,397.900 343.495 L 395.800 343.348 397.900 343.274 C 400.716 343.175,400.598 342.400,397.767 342.400 C 394.828 342.400,395.018 341.500,398.031 341.144 L 400.200 340.888 397.899 340.944 C 394.976 341.015,395.076 340.281,398.031 339.977 L 400.200 339.755 398.000 339.551 L 395.800 339.348 397.900 339.274 L 400.000 339.200 400.000 337.200 L 400.000 335.200 398.000 335.200 C 396.900 335.200,396.000 335.380,396.000 335.600 C 396.000 335.820,395.820 336.000,395.600 336.000 C 395.380 336.000,395.200 335.550,395.200 335.000 C 395.200 334.450,395.020 334.000,394.800 334.000 C 394.580 334.000,394.400 333.629,394.400 333.176 C 394.400 332.723,394.220 332.464,394.000 332.600 C 393.780 332.736,393.600 332.646,393.600 332.400 C 393.600 332.154,393.420 332.064,393.200 332.200 C 392.980 332.336,392.800 332.227,392.800 331.957 C 392.800 331.687,392.686 331.580,392.547 331.719 C 392.408 331.858,391.969 331.798,391.572 331.585 C 391.099 331.332,390.762 331.337,390.600 331.600 C 390.445 331.850,390.096 331.865,389.676 331.641 C 388.705 331.121,388.344 331.169,387.000 331.999 C 386.340 332.406,384.288 332.977,382.439 333.268 L 379.079 333.796 377.990 336.198 C 376.764 338.904,374.575 341.284,372.200 342.492 C 371.320 342.940,369.317 344.521,367.748 346.006 C 366.180 347.491,364.290 348.901,363.548 349.139 C 361.115 349.920,354.386 350.384,351.400 349.977 C 349.664 349.740,292.524 349.596,201.000 349.597 C 33.503 349.599,45.768 349.863,42.400 346.183 C 41.850 345.582,40.101 344.123,38.513 342.939 C 35.071 340.374,34.067 338.799,32.282 333.167 L 30.961 329.000 31.633 324.600 C 32.559 318.523,34.784 312.389,36.657 310.749 C 38.465 309.165,45.971 304.895,47.412 304.631 C 48.285 304.471,50.080 303.984,51.400 303.550 C 55.784 302.108,67.748 301.995,201.200 302.135 C 271.710 302.209,334.350 302.117,340.400 301.929 C 346.450 301.741,353.740 301.605,356.600 301.626 C 364.964 301.687,364.977 301.686,367.276 300.696 C 369.507 299.736,370.517 297.238,370.333 293.134 C 370.213 290.464,370.283 290.020,370.796 290.199 C 371.128 290.315,370.950 290.031,370.400 289.568 C 369.700 288.978,369.616 288.795,370.121 288.958 C 370.543 289.095,370.740 289.027,370.597 288.795 C 370.220 288.185,371.308 288.327,372.411 289.032 L 373.400 289.664 372.456 288.832 C 371.936 288.374,371.261 287.978,370.956 287.950 C 370.650 287.923,370.195 287.877,369.944 287.850 C 369.694 287.822,369.267 286.927,368.996 285.859 C 367.962 281.787,365.090 280.430,357.000 280.192 L 352.200 280.051 355.955 280.414 M363.907 281.819 C 366.338 282.835,367.876 284.611,368.565 287.200 C 368.711 287.750,368.362 287.259,367.789 286.108 C 366.675 283.873,365.352 282.707,362.917 281.813 C 362.083 281.507,361.631 281.244,361.913 281.228 C 362.195 281.213,363.092 281.479,363.907 281.819 " stroke="none" fill="#6a6a6a" fill-rule="evenodd"></path><path id="path2" d="M365.392 23.683 C 366.267 24.196,367.389 25.333,367.885 26.208 C 368.381 27.084,368.790 27.558,368.793 27.262 C 368.811 25.803,366.704 23.572,364.800 23.033 C 364.153 22.850,364.361 23.079,365.392 23.683 M376.400 29.866 C 380.959 31.405,383.929 33.640,384.869 36.239 C 385.139 36.988,385.515 37.600,385.704 37.600 C 385.893 37.600,385.949 37.760,385.828 37.955 C 385.535 38.429,386.585 39.273,387.001 38.897 C 387.180 38.733,387.228 38.881,387.105 39.224 C 386.971 39.603,387.281 40.153,387.895 40.624 C 390.651 42.737,392.490 44.812,392.289 45.581 C 392.095 46.322,392.865 46.890,394.200 46.991 C 394.420 47.008,394.555 47.432,394.501 47.934 C 394.446 48.436,394.570 48.742,394.776 48.615 C 394.986 48.485,395.140 49.097,395.128 50.011 C 395.115 50.906,395.217 51.750,395.353 51.886 C 395.954 52.487,395.525 48.093,394.840 46.626 C 394.422 45.732,393.871 44.334,393.615 43.520 C 393.039 41.683,390.869 39.724,389.028 39.379 C 387.451 39.083,386.678 38.119,386.000 35.600 C 385.084 32.197,384.264 31.501,379.807 30.343 C 377.209 29.668,374.825 29.334,376.400 29.866 M381.651 34.460 C 382.613 35.417,383.629 36.560,383.908 37.000 C 384.347 37.691,384.354 37.664,383.959 36.800 C 383.411 35.601,381.689 33.688,380.651 33.125 C 380.239 32.902,380.689 33.502,381.651 34.460 M387.367 41.895 C 387.720 43.008,390.797 46.071,391.360 45.870 C 391.602 45.783,390.742 44.663,389.449 43.380 C 387.955 41.898,387.196 41.357,387.367 41.895 M387.917 45.261 C 388.339 45.801,388.339 45.960,387.917 46.130 C 387.588 46.261,387.655 46.348,388.100 46.368 C 388.485 46.386,388.800 46.242,388.800 46.049 C 388.800 45.856,388.485 45.451,388.100 45.149 C 387.475 44.658,387.455 44.670,387.917 45.261 M196.200 50.768 C 80.685 50.948,46.755 51.109,45.915 51.484 C 43.697 52.475,41.658 54.093,41.182 55.243 C 40.912 55.894,39.932 57.096,39.004 57.914 C 33.753 62.540,33.506 79.519,38.665 81.222 C 40.721 81.900,43.179 83.912,44.451 85.960 L 45.637 87.867 48.847 88.359 C 51.343 88.741,84.758 88.847,198.929 88.838 C 313.630 88.829,346.720 88.935,350.000 89.324 C 359.239 90.419,364.269 89.393,365.966 86.066 C 366.864 84.309,367.668 83.561,369.827 82.476 C 371.883 81.443,374.400 78.687,374.400 77.469 C 374.400 76.958,374.861 75.204,375.426 73.570 C 377.892 66.427,375.291 56.800,370.896 56.800 C 370.697 56.800,369.570 55.789,368.390 54.553 C 364.952 50.950,364.113 50.721,354.000 50.621 C 349.270 50.575,278.260 50.641,196.200 50.768 M395.698 55.700 C 395.959 56.493,400.000 56.606,400.000 55.821 C 400.000 55.334,399.519 55.200,397.767 55.200 C 396.159 55.200,395.579 55.340,395.698 55.700 M396.900 61.887 C 397.505 61.978,398.495 61.978,399.100 61.887 C 399.705 61.795,399.210 61.720,398.000 61.720 C 396.790 61.720,396.295 61.795,396.900 61.887 M372.662 155.422 C 376.179 156.303,377.987 158.422,377.998 161.676 C 377.999 162.048,378.154 162.448,378.343 162.565 C 378.782 162.836,378.088 158.917,377.468 157.620 C 376.804 156.231,374.955 155.285,372.400 155.027 L 370.200 154.805 372.662 155.422 M380.573 163.159 C 381.295 163.442,383.200 163.293,383.200 162.953 C 383.200 162.869,382.435 162.813,381.500 162.828 C 380.297 162.848,380.026 162.945,380.573 163.159 M383.443 163.530 C 383.331 163.711,383.633 163.846,384.113 163.830 C 384.633 163.812,384.989 164.043,384.993 164.400 C 384.997 164.730,385.270 165.003,385.600 165.007 C 385.957 165.011,386.188 165.367,386.170 165.887 C 386.154 166.367,386.289 166.669,386.470 166.557 C 387.067 166.188,386.814 164.814,386.000 164.000 C 385.186 163.186,383.812 162.933,383.443 163.530 M386.716 167.727 C 386.618 168.238,386.675 169.003,386.841 169.427 C 387.055 169.974,387.152 169.703,387.172 168.500 C 387.203 166.634,386.993 166.279,386.716 167.727 M387.496 171.956 C 387.248 172.901,387.765 173.792,388.351 173.430 C 388.640 173.252,388.698 173.406,388.521 173.879 C 388.283 174.513,388.332 174.533,388.925 174.051 C 389.324 173.726,389.600 173.676,389.600 173.927 C 389.600 174.626,388.868 174.864,388.055 174.430 C 387.379 174.068,387.297 174.165,387.321 175.311 C 387.349 176.624,390.502 180.232,391.229 179.782 C 391.403 179.675,391.658 179.770,391.796 179.993 C 391.934 180.217,392.311 180.400,392.634 180.400 C 393.439 180.400,392.456 178.507,390.561 176.410 C 389.795 175.561,389.328 174.768,389.524 174.647 C 389.862 174.438,392.285 175.977,392.283 176.400 C 392.281 177.082,392.918 178.400,393.251 178.400 C 393.469 178.400,393.563 178.537,393.459 178.704 C 393.356 178.872,393.525 179.356,393.835 179.781 C 394.600 180.826,394.547 180.423,393.580 177.839 C 392.662 175.385,390.734 173.425,388.826 173.006 C 387.376 172.687,387.531 172.167,389.185 171.803 C 392.281 171.123,395.375 174.112,394.449 176.888 C 394.035 178.128,394.046 178.156,394.653 177.400 C 395.266 176.637,395.286 176.669,395.074 178.093 C 394.944 178.973,395.031 179.695,395.287 179.854 C 396.046 180.323,395.284 173.955,394.443 172.800 C 393.251 171.162,387.874 170.509,387.496 171.956 M389.423 172.363 C 389.300 172.562,389.587 172.624,390.062 172.500 C 390.649 172.346,390.834 172.421,390.642 172.732 C 390.456 173.033,390.580 173.106,391.000 172.945 C 391.382 172.798,392.036 173.070,392.620 173.619 C 393.619 174.558,393.975 175.479,393.138 174.962 C 392.850 174.784,392.785 174.852,392.966 175.145 C 393.125 175.402,393.407 175.519,393.593 175.404 C 393.779 175.289,394.023 175.421,394.134 175.698 C 394.272 176.039,394.347 176.004,394.368 175.589 C 394.461 173.790,390.242 171.037,389.423 172.363 M389.166 175.821 C 389.341 175.713,389.901 176.069,390.412 176.612 C 390.922 177.156,391.173 177.603,390.970 177.606 C 390.766 177.609,390.870 177.806,391.200 178.044 C 391.699 178.403,391.676 178.435,391.067 178.237 C 390.584 178.081,390.390 178.171,390.500 178.500 C 390.592 178.775,390.877 179.023,391.133 179.050 C 391.390 179.078,391.780 179.123,392.000 179.150 C 392.220 179.178,392.400 179.402,392.400 179.649 C 392.400 179.979,392.258 179.980,391.863 179.652 C 391.568 179.407,391.242 179.292,391.138 179.395 C 391.035 179.499,390.151 178.767,389.175 177.769 C 388.010 176.578,387.675 176.042,388.200 176.210 C 388.945 176.448,388.952 176.426,388.306 175.893 C 387.925 175.578,387.735 175.199,387.884 175.049 C 388.033 174.900,388.312 175.056,388.502 175.397 C 388.693 175.738,388.992 175.929,389.166 175.821 M389.049 176.320 C 388.922 176.525,389.157 176.999,389.570 177.373 C 389.983 177.746,390.424 177.884,390.551 177.680 C 390.678 177.475,390.443 177.001,390.030 176.627 C 389.617 176.254,389.176 176.116,389.049 176.320 M58.200 177.462 C 56.220 177.518,52.555 177.784,50.056 178.052 L 45.512 178.540 44.773 180.264 C 43.840 182.440,41.045 185.257,38.865 186.220 C 37.456 186.841,37.121 187.218,36.771 188.580 C 36.542 189.471,36.005 191.507,35.577 193.104 C 33.124 202.273,35.813 209.194,43.800 214.271 C 47.262 216.472,41.872 216.398,200.884 216.421 C 313.234 216.437,348.912 216.556,351.200 216.921 C 355.633 217.629,361.723 216.968,363.858 215.547 C 364.728 214.968,366.331 214.040,367.420 213.485 C 371.326 211.492,374.872 206.023,375.810 200.543 C 376.143 198.594,376.503 196.759,376.609 196.465 C 376.876 195.723,375.735 190.934,374.830 189.000 C 373.620 186.416,373.181 186.095,365.000 181.822 C 363.240 180.903,361.327 179.840,360.748 179.461 C 357.214 177.144,368.901 177.307,208.192 177.334 C 127.676 177.348,60.180 177.406,58.200 177.462 M387.410 178.384 C 387.260 178.627,387.375 178.771,387.670 178.710 C 387.964 178.649,388.175 178.911,388.144 179.300 C 388.086 180.031,388.598 180.251,388.967 179.653 C 389.085 179.463,388.843 179.001,388.430 178.627 C 387.925 178.170,387.591 178.090,387.410 178.384 M395.682 185.700 L 395.726 188.400 397.863 188.400 L 400.000 188.400 400.000 186.200 L 400.000 184.000 398.033 184.000 C 396.841 184.000,395.982 183.803,395.852 183.500 C 395.734 183.225,395.657 184.215,395.682 185.700 M396.707 190.290 C 397.426 190.379,398.506 190.377,399.107 190.286 C 399.708 190.195,399.120 190.122,397.800 190.124 C 396.480 190.126,395.988 190.201,396.707 190.290 M373.905 287.883 C 374.402 287.979,375.122 287.975,375.505 287.875 C 375.887 287.775,375.480 287.696,374.600 287.701 C 373.720 287.705,373.407 287.787,373.905 287.883 M380.105 288.764 C 383.450 289.692,384.510 290.368,385.289 292.070 C 386.175 294.005,386.517 296.106,385.894 295.786 C 385.622 295.647,386.030 296.080,386.800 296.749 C 387.570 297.418,388.706 298.080,389.324 298.220 C 390.754 298.543,393.112 300.884,393.442 302.308 C 393.581 302.908,393.963 303.828,394.291 304.352 C 394.618 304.875,394.956 306.029,395.041 306.917 C 395.127 307.804,395.287 308.621,395.398 308.732 C 395.769 309.102,395.605 306.434,395.139 304.506 C 394.886 303.458,394.526 301.949,394.338 301.154 C 393.859 299.117,392.333 297.758,389.881 297.183 C 387.130 296.538,386.948 296.351,386.694 293.897 C 386.257 289.689,385.054 288.641,380.200 288.243 L 377.400 288.014 380.105 288.764 M380.582 289.802 C 382.613 290.589,383.910 291.796,384.880 293.800 C 385.555 295.195,385.623 295.246,385.409 294.200 C 384.931 291.860,382.832 289.935,380.200 289.422 C 379.266 289.240,379.350 289.324,380.582 289.802 M379.362 291.724 C 380.893 292.682,382.768 294.468,382.996 295.188 C 383.125 295.594,383.480 296.022,383.786 296.139 C 384.091 296.256,383.809 295.565,383.159 294.602 C 382.074 292.994,379.800 291.167,378.953 291.224 C 378.759 291.236,378.943 291.461,379.362 291.724 M380.000 292.925 C 380.000 292.994,380.585 293.579,381.300 294.225 L 382.600 295.400 381.425 294.100 C 380.330 292.888,380.000 292.616,380.000 292.925 M387.935 298.694 C 390.429 300.578,391.952 302.118,392.407 303.217 C 392.682 303.882,392.984 304.349,393.077 304.256 C 393.879 303.454,391.197 300.205,388.600 298.833 C 387.477 298.239,387.278 298.198,387.935 298.694 M387.600 302.338 C 387.600 302.709,388.657 303.694,389.600 304.201 C 389.930 304.379,389.671 303.956,389.025 303.262 C 387.774 301.918,387.600 301.805,387.600 302.338 M201.000 307.984 C 38.176 308.259,47.809 308.088,43.306 310.774 C 41.912 311.606,40.280 312.998,39.604 313.931 C 38.939 314.849,38.214 315.600,37.992 315.600 C 36.965 315.600,35.518 320.224,35.114 324.800 C 34.748 328.944,36.136 337.170,37.306 337.796 C 37.358 337.823,38.595 338.422,40.055 339.126 C 41.515 339.829,43.416 341.091,44.279 341.929 C 45.143 342.767,46.648 343.769,47.625 344.155 C 48.601 344.542,49.816 345.127,50.325 345.455 C 51.142 345.981,68.601 346.048,198.525 346.017 C 330.532 345.987,346.233 346.048,349.980 346.612 C 352.679 347.018,355.300 347.157,357.380 347.003 C 362.906 346.593,363.118 346.525,363.974 344.882 C 365.166 342.594,366.713 341.189,369.369 339.985 C 372.289 338.661,372.979 337.952,373.594 335.640 C 373.852 334.672,374.515 332.872,375.067 331.640 C 376.220 329.066,376.956 319.991,376.056 319.434 C 375.805 319.280,375.600 318.829,375.600 318.433 C 375.600 318.037,374.692 316.923,373.582 315.957 C 372.472 314.990,370.660 313.342,369.554 312.294 C 366.847 309.727,365.336 308.980,361.320 308.220 C 359.015 307.784,338.080 307.753,201.000 307.984 M395.600 313.689 C 395.600 313.860,396.635 313.979,397.900 313.954 C 400.341 313.904,400.102 313.728,397.300 313.511 C 396.365 313.438,395.600 313.519,395.600 313.689 M396.707 352.690 C 397.426 352.779,398.506 352.777,399.107 352.686 C 399.708 352.595,399.120 352.522,397.800 352.524 C 396.480 352.526,395.988 352.601,396.707 352.690 " stroke="none" fill="#f6f6f6" fill-rule="evenodd"></path><path id="path3" d="M359.600 22.577 C 363.649 23.911,366.126 25.750,367.254 28.257 C 367.664 29.169,368.279 30.021,368.621 30.153 C 369.046 30.316,369.144 30.235,368.931 29.895 C 368.760 29.623,368.670 29.096,368.731 28.725 C 369.224 25.722,365.092 22.693,359.800 22.178 L 357.800 21.984 359.600 22.577 M363.418 27.000 C 365.693 29.117,366.400 29.563,366.400 28.881 C 366.400 28.433,363.578 25.786,362.526 25.247 C 360.854 24.391,361.069 24.814,363.418 27.000 M362.400 28.400 C 362.635 28.840,363.030 29.200,363.276 29.200 C 363.522 29.200,363.398 28.840,363.000 28.400 C 362.602 27.960,362.208 27.600,362.124 27.600 C 362.040 27.600,362.165 27.960,362.400 28.400 M369.600 29.576 C 369.600 29.783,369.780 30.064,370.000 30.200 C 370.762 30.671,370.400 31.254,369.500 31.006 C 368.678 30.780,368.659 30.807,369.289 31.316 C 369.686 31.636,369.909 32.236,369.814 32.728 C 369.723 33.198,369.818 33.688,370.025 33.815 C 370.231 33.943,370.400 34.227,370.400 34.447 C 370.400 34.667,370.201 34.724,369.957 34.574 C 369.654 34.386,369.589 34.664,369.751 35.450 C 370.043 36.875,370.104 39.440,369.879 40.900 C 369.781 41.540,369.896 42.003,370.155 42.006 C 370.403 42.010,370.356 42.167,370.049 42.361 C 369.746 42.553,369.614 42.898,369.755 43.128 C 369.897 43.357,369.821 43.663,369.587 43.808 C 369.291 43.991,369.304 44.243,369.630 44.636 C 369.988 45.067,369.987 45.200,369.625 45.200 C 369.365 45.200,369.254 45.364,369.378 45.564 C 369.768 46.195,362.966 46.516,358.690 46.067 C 355.566 45.740,352.380 45.774,345.200 46.214 C 337.337 46.695,312.985 46.789,196.256 46.790 C 39.855 46.792,48.642 46.638,42.800 49.480 C 36.604 52.495,33.737 56.873,31.839 66.212 L 30.903 70.820 32.025 75.230 C 33.629 81.535,36.678 85.549,43.057 89.757 C 46.730 92.179,37.356 92.042,198.400 92.026 C 319.957 92.013,346.139 92.105,349.668 92.554 C 358.176 93.637,365.027 92.132,368.600 88.396 C 369.480 87.476,371.100 86.139,372.200 85.425 C 374.975 83.625,377.054 81.374,378.227 78.900 C 378.775 77.745,379.353 76.779,379.512 76.754 C 379.670 76.729,380.340 76.647,381.000 76.571 C 382.799 76.365,387.203 75.119,387.430 74.752 C 387.539 74.575,388.072 74.599,388.614 74.805 C 389.156 75.012,389.600 75.035,389.600 74.857 C 389.600 74.679,389.870 74.533,390.200 74.533 C 390.530 74.533,390.800 74.719,390.800 74.947 C 390.800 75.207,390.968 75.192,391.254 74.906 C 391.593 74.567,391.855 74.598,392.287 75.029 C 392.604 75.347,393.030 75.505,393.232 75.380 C 393.435 75.255,393.600 75.444,393.600 75.800 C 393.600 76.156,393.780 76.336,394.000 76.200 C 394.227 76.060,394.400 76.396,394.400 76.976 C 394.400 77.539,394.567 78.000,394.772 78.000 C 394.977 78.000,395.202 78.367,395.272 78.816 C 395.342 79.265,395.535 79.625,395.700 79.616 C 395.865 79.607,396.900 79.600,398.000 79.600 L 400.000 79.600 400.000 77.200 L 400.000 74.800 398.000 74.800 C 396.382 74.800,395.990 74.934,395.948 75.500 C 395.874 76.476,395.166 71.706,395.135 70.031 C 395.115 68.963,395.027 68.809,394.735 69.331 C 394.529 69.699,394.179 70.000,393.957 70.000 C 393.734 70.000,393.675 69.802,393.825 69.560 C 393.995 69.285,393.742 69.309,393.148 69.626 C 392.304 70.076,392.256 70.063,392.717 69.504 C 393.390 68.688,392.703 68.418,390.953 68.811 C 390.268 68.966,389.428 68.936,389.088 68.745 C 388.119 68.203,387.279 68.748,386.787 70.239 C 386.539 70.992,386.170 71.505,385.968 71.380 C 385.765 71.255,385.598 71.298,385.595 71.476 C 385.590 71.873,383.221 72.958,380.805 73.671 C 379.089 74.177,378.960 74.323,377.900 76.965 C 376.640 80.104,374.521 82.910,372.698 83.853 C 372.017 84.205,370.173 85.711,368.600 87.200 C 363.898 91.651,358.836 92.900,350.172 91.748 C 346.942 91.318,318.770 91.221,199.280 91.229 C 30.511 91.239,46.179 91.656,41.212 87.027 C 39.995 85.894,38.329 84.473,37.509 83.870 C 35.377 82.301,34.112 79.869,32.966 75.138 L 31.965 71.003 32.750 66.599 C 34.389 57.401,37.053 53.418,44.000 49.783 C 47.686 47.854,44.363 47.897,197.676 47.775 C 294.815 47.697,343.277 47.520,347.733 47.228 C 352.132 46.939,355.952 46.923,359.257 47.177 C 361.976 47.387,365.640 47.672,367.400 47.811 C 371.271 48.116,371.115 48.116,372.600 47.822 C 373.928 47.558,375.579 46.816,376.209 46.200 C 376.902 45.522,376.815 40.091,376.107 39.820 C 375.632 39.637,375.723 39.418,376.547 38.771 C 377.730 37.839,377.485 37.127,375.093 34.545 C 374.454 33.855,374.107 33.181,374.322 33.048 C 374.537 32.915,375.335 33.495,376.096 34.337 L 377.478 35.868 377.439 34.768 C 377.418 34.163,377.228 33.698,377.018 33.734 C 376.808 33.770,376.628 33.590,376.618 33.333 C 376.608 33.077,376.436 32.717,376.236 32.533 C 376.022 32.337,376.001 32.423,376.185 32.741 C 376.446 33.192,375.509 32.752,374.050 31.738 C 373.968 31.681,374.555 31.323,375.354 30.941 C 376.771 30.266,376.834 30.271,377.903 31.128 C 378.506 31.612,379.645 32.439,380.433 32.967 C 381.221 33.494,382.340 34.527,382.919 35.263 C 383.497 35.998,384.227 36.845,384.540 37.145 C 386.262 38.796,387.200 39.524,387.200 39.211 C 387.200 39.017,386.793 38.530,386.296 38.129 C 385.798 37.728,385.055 36.645,384.645 35.722 C 382.892 31.782,374.670 28.108,372.638 30.357 C 371.660 31.439,371.428 31.418,370.873 30.200 C 370.429 29.227,369.600 28.820,369.600 29.576 M374.600 30.800 C 372.638 31.800,372.332 31.796,373.544 30.787 C 374.064 30.354,374.867 30.000,375.329 30.000 C 375.940 30.000,375.740 30.219,374.600 30.800 M375.376 31.387 C 374.633 31.950,374.979 32.242,376.142 32.033 C 376.330 32.000,376.753 32.195,377.082 32.468 C 377.874 33.126,378.878 33.261,378.541 32.665 C 377.490 30.805,376.614 30.451,375.376 31.387 M377.300 31.757 C 377.685 32.049,378.000 32.431,378.000 32.606 C 378.000 32.781,377.651 32.608,377.225 32.223 C 376.790 31.829,376.237 31.653,375.963 31.823 C 375.653 32.015,375.580 31.956,375.762 31.662 C 376.124 31.076,376.428 31.095,377.300 31.757 M380.741 35.904 C 381.544 36.731,382.278 37.358,382.373 37.298 C 382.599 37.154,379.928 34.400,379.563 34.400 C 379.409 34.400,379.939 35.077,380.741 35.904 M387.064 40.877 C 386.949 41.318,386.957 41.576,387.084 41.450 C 387.210 41.323,388.386 42.307,389.698 43.635 C 391.010 44.963,392.171 45.962,392.278 45.855 C 392.736 45.397,391.847 43.961,390.283 42.632 C 389.357 41.845,388.302 40.948,387.937 40.638 C 387.355 40.143,387.248 40.172,387.064 40.877 M393.726 46.971 C 394.201 47.505,394.667 47.867,394.760 47.774 C 394.975 47.558,393.577 46.000,393.168 46.000 C 392.999 46.000,393.250 46.437,393.726 46.971 M395.098 52.500 C 394.995 52.775,395.053 53.360,395.227 53.800 C 395.485 54.451,395.549 54.359,395.572 53.300 C 395.601 51.948,395.420 51.642,395.098 52.500 M395.521 56.400 C 395.973 57.633,400.000 58.191,400.000 57.021 C 400.000 56.546,399.549 56.400,398.080 56.400 C 397.024 56.400,395.934 56.175,395.657 55.900 C 395.254 55.499,395.227 55.598,395.521 56.400 M395.963 59.324 C 396.142 59.503,397.169 59.590,398.244 59.518 L 400.200 59.387 397.919 59.194 C 396.664 59.087,395.784 59.146,395.963 59.324 M396.900 65.487 C 397.505 65.578,398.495 65.578,399.100 65.487 C 399.705 65.395,399.210 65.320,398.000 65.320 C 396.790 65.320,396.295 65.395,396.900 65.487 M395.963 68.924 C 396.142 69.103,397.169 69.190,398.244 69.118 L 400.200 68.987 397.919 68.794 C 396.664 68.687,395.784 68.746,395.963 68.924 M395.963 70.124 C 396.142 70.303,397.169 70.390,398.244 70.318 L 400.200 70.187 397.919 69.994 C 396.664 69.887,395.784 69.946,395.963 70.124 M395.600 80.711 C 395.600 80.881,396.365 80.962,397.300 80.889 C 400.102 80.672,400.341 80.496,397.900 80.446 C 396.635 80.421,395.600 80.540,395.600 80.711 M395.969 81.700 C 395.547 83.080,395.697 83.200,397.835 83.200 C 400.619 83.200,400.677 82.421,397.900 82.335 L 395.800 82.270 398.000 82.000 L 400.200 81.730 398.100 81.665 C 396.945 81.629,395.986 81.645,395.969 81.700 M396.900 84.287 C 397.505 84.378,398.495 84.378,399.100 84.287 C 399.705 84.195,399.210 84.120,398.000 84.120 C 396.790 84.120,396.295 84.195,396.900 84.287 M395.600 94.000 C 395.600 94.220,396.590 94.400,397.800 94.400 C 399.010 94.400,400.000 94.220,400.000 94.000 C 400.000 93.780,399.010 93.600,397.800 93.600 C 396.590 93.600,395.600 93.780,395.600 94.000 M360.908 154.642 C 361.204 154.937,365.620 154.913,365.919 154.614 C 366.037 154.497,364.903 154.400,363.400 154.400 C 361.897 154.400,360.775 154.509,360.908 154.642 M367.000 155.219 C 366.414 155.484,366.581 155.522,367.623 155.360 C 371.877 154.701,376.500 157.798,377.384 161.900 C 377.538 162.615,377.833 163.200,378.039 163.200 C 378.406 163.200,378.329 162.631,377.532 159.456 C 376.733 156.269,370.350 153.701,367.000 155.219 M369.000 156.131 C 372.125 157.357,375.600 159.929,375.600 161.017 C 375.600 161.270,375.960 161.893,376.400 162.400 C 377.393 163.545,377.401 163.329,376.448 161.133 C 375.314 158.520,370.976 155.520,368.489 155.630 C 368.086 155.648,368.299 155.856,369.000 156.131 M368.800 156.792 C 369.130 157.000,369.423 157.357,369.450 157.585 C 369.478 157.813,369.536 158.045,369.580 158.100 C 370.025 158.658,369.930 160.040,369.473 159.661 C 369.056 159.314,368.946 159.371,368.986 159.914 C 369.056 160.866,369.583 161.658,369.982 161.411 C 370.162 161.300,370.532 161.477,370.804 161.804 C 371.076 162.132,371.484 162.400,371.711 162.400 C 371.938 162.400,371.798 162.040,371.400 161.600 C 371.002 161.160,370.830 160.800,371.018 160.800 C 371.206 160.800,371.144 160.584,370.880 160.320 C 370.616 160.056,370.400 159.659,370.400 159.439 C 370.400 159.218,371.113 159.733,371.983 160.584 C 372.854 161.434,373.458 162.326,373.325 162.565 C 373.192 162.804,373.334 162.759,373.641 162.463 C 374.115 162.008,373.836 161.599,371.800 159.764 C 370.480 158.575,369.628 157.601,369.907 157.601 C 370.644 157.600,375.679 162.748,375.394 163.210 C 375.261 163.425,375.433 163.600,375.776 163.600 C 376.119 163.600,376.400 163.763,376.400 163.963 C 376.400 164.162,376.037 164.230,375.594 164.114 C 375.132 163.993,374.833 163.625,374.894 163.252 C 374.961 162.841,374.779 162.659,374.400 162.760 C 373.812 162.917,372.494 162.913,371.100 162.749 C 370.715 162.704,370.400 162.391,370.400 162.053 C 370.400 161.678,370.263 161.587,370.045 161.820 C 369.838 162.042,369.901 163.406,370.196 165.100 C 371.134 170.478,370.540 172.023,367.203 172.894 C 363.282 173.918,344.091 174.083,199.400 174.336 C 116.020 174.481,47.530 174.720,47.200 174.867 C 46.870 175.013,46.082 175.248,45.448 175.387 C 43.930 175.722,35.182 184.583,34.303 186.676 C 27.481 202.912,32.943 215.609,48.800 220.377 L 52.200 221.399 199.600 221.480 C 332.958 221.552,347.334 221.621,350.509 222.202 C 353.523 222.753,354.597 222.774,358.109 222.351 L 362.200 221.859 364.904 219.588 C 366.392 218.339,369.067 216.533,370.849 215.574 C 374.249 213.744,375.011 212.966,377.370 208.918 C 379.059 206.021,378.890 206.157,381.200 205.834 C 384.468 205.376,385.869 204.874,386.981 203.762 C 387.732 203.011,389.600 202.719,389.600 203.353 C 389.600 203.562,389.721 203.613,389.868 203.465 C 390.016 203.318,390.556 203.472,391.068 203.808 C 391.704 204.225,392.000 204.269,392.000 203.947 C 392.000 203.655,392.279 203.728,392.732 204.139 C 393.135 204.503,393.595 204.672,393.754 204.513 C 393.912 204.354,393.916 204.579,393.762 205.012 C 393.532 205.659,393.579 205.710,394.021 205.300 C 394.318 205.025,394.749 204.803,394.980 204.806 C 395.211 204.809,395.130 205.003,394.800 205.237 C 394.348 205.556,394.324 205.711,394.700 205.864 C 394.975 205.975,395.200 206.277,395.199 206.533 C 395.199 206.852,395.959 206.957,397.599 206.864 L 400.000 206.729 400.000 205.185 L 400.000 203.642 397.900 203.521 C 395.883 203.405,395.797 203.353,395.713 202.200 C 395.665 201.540,395.725 201.225,395.846 201.500 C 396.306 202.544,400.000 202.132,400.000 201.037 C 400.000 200.012,395.838 199.245,395.461 200.200 C 395.374 200.420,395.366 200.105,395.442 199.500 C 395.593 198.297,394.971 197.972,394.676 199.100 C 394.512 199.727,394.488 199.722,394.446 199.051 C 394.408 198.432,394.296 198.388,393.800 198.800 C 393.312 199.205,393.200 199.186,393.200 198.694 C 393.200 198.279,392.609 198.007,391.300 197.823 C 390.255 197.675,389.092 197.465,388.715 197.355 C 388.291 197.232,387.376 197.742,386.315 198.692 C 383.951 200.810,382.036 202.154,380.500 202.773 C 379.785 203.061,379.200 203.439,379.200 203.613 C 379.200 203.787,378.030 205.775,376.600 208.030 C 375.170 210.286,374.000 212.244,374.000 212.381 C 374.000 212.518,372.965 213.239,371.700 213.982 C 367.053 216.712,365.367 217.829,363.891 219.154 C 361.466 221.332,355.280 222.098,350.086 220.863 L 346.371 219.981 199.447 220.010 C 43.808 220.042,51.256 220.118,45.953 218.440 C 41.034 216.885,36.108 212.196,33.615 206.697 C 30.506 199.841,33.141 187.106,38.517 183.001 C 39.537 182.222,40.923 180.783,41.597 179.804 C 43.170 177.518,44.988 176.167,47.000 175.790 C 47.880 175.625,117.090 175.344,200.800 175.166 C 284.510 174.988,353.720 174.788,354.600 174.722 C 361.868 174.177,369.287 175.522,370.236 177.558 C 370.605 178.351,370.956 179.058,371.016 179.129 C 371.276 179.438,372.712 177.836,372.551 177.416 C 372.453 177.160,372.829 176.706,373.388 176.407 C 373.946 176.108,374.381 175.669,374.354 175.431 C 374.246 174.477,374.420 173.965,374.779 174.187 C 374.988 174.316,375.089 174.060,375.004 173.619 C 374.913 173.150,375.047 172.855,375.325 172.908 C 375.586 172.959,375.800 172.730,375.800 172.400 C 375.800 172.070,376.029 171.654,376.308 171.475 C 376.588 171.297,376.684 170.937,376.522 170.675 C 376.360 170.414,376.220 169.840,376.211 169.400 C 376.202 168.960,376.058 168.388,375.891 168.129 C 375.705 167.838,375.899 167.559,376.400 167.400 C 376.898 167.242,377.096 166.960,376.912 166.671 C 376.747 166.412,376.587 166.065,376.556 165.900 C 376.525 165.735,376.475 165.465,376.444 165.300 C 376.413 165.135,376.197 165.270,375.963 165.600 C 375.586 166.133,375.558 166.133,375.711 165.600 C 375.806 165.270,376.176 165.052,376.535 165.116 C 377.383 165.267,377.081 164.447,375.282 161.718 C 374.039 159.830,369.690 156.388,368.572 156.406 C 368.367 156.409,368.470 156.583,368.800 156.792 M371.701 161.432 C 372.086 161.890,372.281 162.385,372.134 162.532 C 371.987 162.680,372.077 162.800,372.333 162.800 C 373.065 162.800,372.883 162.194,371.900 161.362 C 371.001 160.601,371.001 160.601,371.701 161.432 M382.600 163.537 C 385.140 164.222,385.818 164.951,386.565 167.800 C 386.680 168.240,386.696 167.890,386.600 167.022 C 386.373 164.974,385.030 163.629,382.978 163.395 C 381.620 163.239,381.568 163.259,382.600 163.537 M390.875 172.233 C 392.865 172.845,394.379 174.344,394.432 175.754 C 394.449 176.220,394.557 176.366,394.672 176.080 C 395.344 174.403,392.247 171.578,389.800 171.637 C 389.360 171.647,389.844 171.915,390.875 172.233 M396.900 197.887 C 397.505 197.978,398.495 197.978,399.100 197.887 C 399.705 197.795,399.210 197.720,398.000 197.720 C 396.790 197.720,396.295 197.795,396.900 197.887 M395.800 208.000 C 395.647 208.248,396.396 208.400,397.776 208.400 C 398.999 208.400,400.000 208.220,400.000 208.000 C 400.000 207.780,399.111 207.600,398.024 207.600 C 396.937 207.600,395.936 207.780,395.800 208.000 M396.900 219.887 C 397.505 219.978,398.495 219.978,399.100 219.887 C 399.705 219.795,399.210 219.720,398.000 219.720 C 396.790 219.720,396.295 219.795,396.900 219.887 M395.843 222.633 C 395.195 224.320,395.502 224.606,397.799 224.463 C 399.931 224.330,400.000 224.289,400.000 223.163 C 400.000 221.782,396.348 221.316,395.843 222.633 M362.468 280.573 C 366.610 281.450,368.511 282.995,369.036 285.912 C 369.371 287.770,369.830 288.369,370.738 288.132 C 371.127 288.030,371.886 288.328,372.423 288.793 L 373.400 289.640 372.120 289.020 C 370.634 288.300,370.257 288.245,370.597 288.795 C 370.740 289.027,370.542 289.096,370.121 288.963 C 369.462 288.754,369.465 288.788,370.159 289.355 C 370.576 289.695,371.099 289.862,371.321 289.725 C 371.544 289.588,371.601 289.675,371.449 289.921 C 371.298 290.165,370.953 290.280,370.683 290.177 C 370.314 290.035,370.227 290.767,370.333 293.134 C 370.517 297.238,369.507 299.736,367.276 300.696 C 364.977 301.686,364.964 301.687,356.600 301.626 C 353.740 301.605,346.450 301.741,340.400 301.929 C 334.350 302.117,271.710 302.209,201.200 302.135 C 67.748 301.995,55.784 302.108,51.400 303.550 C 50.080 303.984,48.285 304.471,47.412 304.631 C 45.971 304.895,38.465 309.165,36.657 310.749 C 34.784 312.389,32.559 318.523,31.633 324.600 L 30.961 329.000 32.282 333.167 C 34.067 338.799,35.071 340.374,38.513 342.939 C 40.101 344.123,41.850 345.582,42.400 346.183 C 45.768 349.863,33.503 349.599,201.000 349.597 C 292.524 349.596,349.664 349.740,351.400 349.977 C 354.386 350.384,361.115 349.920,363.548 349.139 C 364.290 348.901,366.180 347.491,367.748 346.006 C 369.317 344.521,371.320 342.940,372.200 342.492 C 374.575 341.284,376.764 338.904,377.990 336.198 L 379.079 333.796 382.439 333.268 C 384.288 332.977,386.340 332.406,387.000 331.999 C 387.660 331.592,388.290 331.215,388.400 331.162 C 388.510 331.108,388.994 331.276,389.476 331.533 C 390.050 331.841,390.437 331.864,390.600 331.600 C 390.762 331.337,391.099 331.332,391.572 331.585 C 391.969 331.798,392.408 331.858,392.547 331.719 C 392.686 331.580,392.800 331.687,392.800 331.957 C 392.800 332.227,392.980 332.336,393.200 332.200 C 393.420 332.064,393.600 332.154,393.600 332.400 C 393.600 332.646,393.780 332.736,394.000 332.600 C 394.220 332.464,394.400 332.723,394.400 333.176 C 394.400 333.629,394.580 334.000,394.800 334.000 C 395.020 334.000,395.200 334.450,395.200 335.000 C 395.200 335.550,395.380 336.000,395.600 336.000 C 395.820 336.000,396.000 335.820,396.000 335.600 C 396.000 335.380,396.900 335.200,398.000 335.200 L 400.000 335.200 400.000 333.200 L 400.000 331.200 398.000 331.200 C 396.689 331.200,395.986 331.372,395.959 331.700 C 395.937 331.975,395.763 331.570,395.573 330.800 C 395.049 328.678,395.305 328.400,397.787 328.400 C 399.004 328.400,400.000 328.220,400.000 328.000 C 400.000 327.780,399.111 327.600,398.024 327.600 C 396.937 327.600,395.963 327.465,395.861 327.300 C 395.758 327.135,396.648 327.062,397.837 327.137 C 399.554 327.246,400.000 327.150,400.000 326.674 C 400.000 325.997,395.695 325.511,395.478 326.163 C 395.412 326.363,394.865 326.403,394.263 326.251 C 393.660 326.100,393.266 325.817,393.386 325.622 C 393.507 325.428,393.379 325.192,393.102 325.099 C 392.364 324.851,391.174 325.235,391.425 325.641 C 391.544 325.833,391.352 325.880,390.998 325.744 C 390.625 325.601,390.452 325.242,390.586 324.892 C 390.778 324.391,390.713 324.374,390.209 324.792 C 389.716 325.202,389.600 325.198,389.600 324.773 C 389.600 324.444,389.362 324.539,388.967 325.024 C 388.427 325.687,388.367 325.698,388.555 325.100 C 389.154 323.194,387.330 324.932,386.041 327.494 C 385.009 329.548,383.962 330.282,381.377 330.765 C 379.147 331.181,378.776 331.596,377.076 335.572 C 375.732 338.716,374.530 340.070,371.610 341.732 C 370.405 342.418,368.421 343.993,367.200 345.232 C 363.423 349.068,358.507 350.132,349.926 348.971 C 346.456 348.502,322.377 348.416,198.576 348.432 C 33.190 348.452,45.763 348.715,42.890 345.171 C 42.389 344.553,40.713 343.206,39.165 342.177 C 35.789 339.932,34.943 338.663,33.266 333.323 L 31.986 329.246 32.558 324.723 C 34.303 310.949,40.612 305.744,57.200 304.393 C 59.510 304.205,122.600 304.043,197.400 304.033 C 294.747 304.020,336.470 303.882,344.200 303.546 C 354.016 303.120,355.210 303.138,357.305 303.751 C 358.572 304.122,361.632 304.606,364.105 304.827 C 366.577 305.049,369.069 305.385,369.642 305.574 C 370.749 305.939,373.598 305.548,375.223 304.808 C 376.292 304.321,376.619 299.035,375.684 297.365 C 375.374 296.810,375.434 296.517,375.932 296.153 C 376.536 295.711,376.525 295.596,375.805 294.736 C 375.374 294.221,375.277 294.025,375.591 294.300 C 376.449 295.053,377.010 294.900,376.323 294.100 C 375.316 292.927,374.926 292.103,375.660 292.697 C 375.997 292.970,376.407 293.060,376.570 292.897 C 376.733 292.733,376.807 292.848,376.733 293.150 C 376.660 293.452,376.842 293.788,377.139 293.896 C 378.019 294.217,376.942 292.512,375.786 291.754 C 375.244 291.399,374.803 290.904,374.806 290.654 C 374.810 290.364,374.918 290.345,375.106 290.600 C 375.268 290.820,375.670 291.059,376.000 291.132 C 376.330 291.204,376.879 291.474,377.220 291.732 C 377.560 291.989,377.389 291.772,376.838 291.249 L 375.838 290.299 376.763 289.549 C 377.272 289.137,377.502 288.800,377.273 288.800 C 377.044 288.800,376.587 289.070,376.257 289.400 C 375.580 290.077,375.200 290.167,375.200 289.650 C 375.200 289.457,375.785 289.012,376.500 288.659 C 377.766 288.035,377.773 288.018,376.762 288.009 C 376.191 288.004,375.398 288.360,375.000 288.800 C 374.174 289.713,373.526 289.860,373.831 289.064 C 374.159 288.209,372.933 287.497,371.432 287.672 C 370.063 287.832,370.050 287.819,369.796 285.974 C 369.254 282.030,367.316 280.454,362.670 280.178 L 359.800 280.008 362.468 280.573 M362.917 281.813 C 365.352 282.707,366.675 283.873,367.789 286.108 C 368.362 287.259,368.711 287.750,368.565 287.200 C 367.738 284.093,364.395 281.092,361.913 281.228 C 361.631 281.244,362.083 281.507,362.917 281.813 M378.000 288.528 C 378.000 288.646,378.978 289.028,380.173 289.375 C 382.993 290.195,384.663 291.625,385.258 293.729 C 385.518 294.648,385.992 295.670,386.312 296.000 C 386.825 296.529,386.847 296.505,386.499 295.800 C 386.283 295.360,385.986 294.338,385.840 293.529 C 385.494 291.612,383.745 289.775,381.772 289.257 C 378.706 288.452,378.000 288.316,378.000 288.528 M386.576 297.274 C 386.408 297.563,386.419 297.666,386.600 297.503 C 386.781 297.339,387.180 297.564,387.487 298.003 C 387.794 298.441,388.273 298.800,388.551 298.800 C 389.341 298.800,392.324 301.523,392.617 302.511 C 392.761 303.000,393.333 304.070,393.887 304.889 C 394.452 305.725,394.788 306.655,394.652 307.010 C 394.512 307.374,394.576 307.538,394.805 307.397 C 395.382 307.040,395.293 306.363,394.461 304.794 C 394.055 304.027,393.603 302.908,393.456 302.308 C 393.108 300.884,390.791 298.584,389.340 298.222 C 388.713 298.066,387.903 297.670,387.540 297.343 C 387.004 296.860,386.822 296.847,386.576 297.274 M395.110 309.300 C 395.013 309.575,395.066 310.250,395.227 310.800 C 395.482 311.670,395.525 311.605,395.560 310.300 C 395.601 308.777,395.428 308.394,395.110 309.300 M395.698 314.500 C 395.959 315.293,400.000 315.406,400.000 314.621 C 400.000 314.134,399.519 314.000,397.767 314.000 C 396.159 314.000,395.579 314.140,395.698 314.500 M395.800 316.400 C 395.936 316.620,396.937 316.800,398.024 316.800 C 399.111 316.800,400.000 316.620,400.000 316.400 C 400.000 316.180,398.999 316.000,397.776 316.000 C 396.396 316.000,395.647 316.152,395.800 316.400 M394.962 323.300 C 394.205 324.194,394.205 324.195,395.005 323.524 C 395.475 323.129,396.721 322.786,398.005 322.698 L 400.200 322.548 397.962 322.474 C 396.081 322.412,395.603 322.543,394.962 323.300 M395.012 324.380 C 394.865 324.618,394.616 324.733,394.458 324.636 C 394.300 324.538,394.171 324.798,394.171 325.213 C 394.171 325.932,394.206 325.929,394.926 325.157 C 395.341 324.712,395.590 324.257,395.480 324.147 C 395.370 324.037,395.160 324.142,395.012 324.380 M396.900 339.487 C 397.505 339.578,398.495 339.578,399.100 339.487 C 399.705 339.395,399.210 339.320,398.000 339.320 C 396.790 339.320,396.295 339.395,396.900 339.487 M395.867 340.267 C 395.272 340.861,395.702 340.994,397.799 340.863 C 399.010 340.788,400.000 340.563,400.000 340.363 C 400.000 339.948,396.272 339.861,395.867 340.267 M395.867 341.467 C 395.203 342.130,395.762 342.400,397.800 342.400 C 399.489 342.400,400.000 342.261,400.000 341.800 C 400.000 341.178,396.442 340.891,395.867 341.467 M396.900 343.487 C 397.505 343.578,398.495 343.578,399.100 343.487 C 399.705 343.395,399.210 343.320,398.000 343.320 C 396.790 343.320,396.295 343.395,396.900 343.487 M396.900 345.087 C 397.505 345.178,398.495 345.178,399.100 345.087 C 399.705 344.995,399.210 344.920,398.000 344.920 C 396.790 344.920,396.295 344.995,396.900 345.087 M395.800 346.800 C 395.647 347.048,396.396 347.200,397.776 347.200 C 398.999 347.200,400.000 347.020,400.000 346.800 C 400.000 346.580,399.111 346.400,398.024 346.400 C 396.937 346.400,395.936 346.580,395.800 346.800 M395.867 349.067 C 395.203 349.730,395.762 350.000,397.800 350.000 C 399.489 350.000,400.000 349.861,400.000 349.400 C 400.000 348.778,396.442 348.491,395.867 349.067 M395.600 351.800 C 395.600 352.261,396.111 352.400,397.800 352.400 C 399.489 352.400,400.000 352.261,400.000 351.800 C 400.000 351.339,399.489 351.200,397.800 351.200 C 396.111 351.200,395.600 351.339,395.600 351.800 " stroke="none" fill="#848484" fill-rule="evenodd"></path><path id="path4" d="M370.957 30.233 C 371.091 30.581,371.200 30.951,371.200 31.056 C 371.200 31.161,371.380 31.136,371.600 31.000 C 372.237 30.606,372.063 29.600,371.357 29.600 C 370.935 29.600,370.798 29.818,370.957 30.233 M373.544 30.787 C 372.302 31.822,372.976 31.834,374.291 30.800 C 374.850 30.360,375.124 30.000,374.898 30.000 C 374.673 30.000,374.064 30.354,373.544 30.787 M375.100 31.029 C 374.495 31.357,374.000 31.716,374.000 31.827 C 374.000 31.938,374.348 31.842,374.774 31.614 C 375.848 31.039,376.341 31.118,375.530 31.735 C 374.911 32.206,374.922 32.284,375.672 32.752 C 376.338 33.168,376.429 33.164,376.178 32.730 C 375.998 32.419,376.022 32.338,376.236 32.533 C 376.436 32.717,376.608 33.077,376.618 33.333 C 376.628 33.590,376.808 33.770,377.018 33.734 C 377.228 33.698,377.418 34.163,377.439 34.768 L 377.478 35.868 376.096 34.337 C 375.335 33.495,374.537 32.915,374.322 33.048 C 374.107 33.181,374.454 33.855,375.093 34.545 C 377.485 37.127,377.730 37.839,376.547 38.771 C 375.723 39.418,375.632 39.637,376.107 39.820 C 376.815 40.091,376.902 45.522,376.209 46.200 C 375.579 46.816,373.928 47.558,372.600 47.822 C 371.115 48.116,371.271 48.116,367.400 47.811 C 365.640 47.672,361.976 47.387,359.257 47.177 C 355.952 46.923,352.132 46.939,347.733 47.228 C 343.277 47.520,294.815 47.697,197.676 47.775 C 44.363 47.897,47.686 47.854,44.000 49.783 C 37.053 53.418,34.389 57.401,32.750 66.599 L 31.965 71.003 32.966 75.138 C 34.112 79.869,35.377 82.301,37.509 83.870 C 38.329 84.473,39.995 85.894,41.212 87.027 C 46.179 91.656,30.511 91.239,199.280 91.229 C 318.770 91.221,346.942 91.318,350.172 91.748 C 358.836 92.900,363.898 91.651,368.600 87.200 C 370.173 85.711,372.017 84.205,372.698 83.853 C 374.521 82.910,376.640 80.104,377.900 76.965 C 378.960 74.323,379.089 74.177,380.805 73.671 C 383.221 72.958,385.590 71.873,385.595 71.476 C 385.598 71.298,385.765 71.255,385.968 71.380 C 386.170 71.505,386.539 70.992,386.787 70.239 C 387.279 68.748,388.119 68.203,389.088 68.745 C 389.428 68.936,390.268 68.966,390.953 68.811 C 392.703 68.418,393.390 68.688,392.717 69.504 C 392.256 70.063,392.304 70.076,393.148 69.626 C 393.742 69.309,393.995 69.285,393.825 69.560 C 393.675 69.802,393.734 70.000,393.957 70.000 C 394.179 70.000,394.529 69.699,394.735 69.331 C 395.027 68.809,395.115 68.963,395.135 70.031 C 395.166 71.706,395.874 76.476,395.948 75.500 C 395.990 74.934,396.382 74.800,398.000 74.800 L 400.000 74.800 400.000 72.600 L 400.000 70.400 398.024 70.400 C 396.937 70.400,395.963 70.265,395.861 70.100 C 395.758 69.935,396.648 69.862,397.837 69.937 C 399.218 70.025,400.000 69.916,400.000 69.637 C 400.000 69.380,399.186 69.200,398.024 69.200 C 396.937 69.200,395.963 69.065,395.861 68.900 C 395.758 68.735,396.648 68.662,397.837 68.737 L 400.000 68.874 400.000 67.258 L 400.000 65.642 397.900 65.495 L 395.800 65.348 397.900 65.274 L 400.000 65.200 400.000 63.621 L 400.000 62.042 397.900 61.895 L 395.800 61.748 397.900 61.674 C 401.049 61.563,401.166 59.600,398.024 59.600 C 396.937 59.600,395.963 59.465,395.861 59.300 C 395.758 59.135,396.648 59.062,397.837 59.137 C 399.809 59.262,400.000 59.200,400.000 58.437 C 400.000 57.689,399.766 57.600,397.800 57.600 C 395.981 57.600,395.596 57.479,395.574 56.900 C 395.495 54.726,395.228 53.409,394.840 53.280 C 394.598 53.199,394.400 52.958,394.400 52.743 C 394.400 52.528,394.580 52.464,394.800 52.600 C 395.033 52.744,395.200 52.337,395.200 51.624 C 395.200 50.951,395.037 50.400,394.837 50.400 C 394.638 50.400,394.576 50.012,394.700 49.537 C 394.845 48.985,394.773 48.769,394.500 48.938 C 394.234 49.103,394.151 48.909,394.279 48.420 C 394.480 47.653,392.482 46.005,391.347 46.001 C 390.117 45.997,387.155 42.230,387.036 40.519 C 386.952 39.304,385.191 37.509,384.308 37.740 C 383.918 37.842,383.680 37.794,383.779 37.634 C 384.103 37.109,382.498 34.915,380.934 33.747 C 380.090 33.116,378.891 32.106,378.269 31.500 C 376.983 30.249,376.634 30.197,375.100 31.029 M377.677 31.500 C 379.032 33.078,378.605 33.732,377.058 32.448 C 376.715 32.164,376.219 32.064,375.956 32.227 C 375.643 32.421,375.581 32.354,375.779 32.035 C 375.945 31.766,376.378 31.648,376.740 31.774 C 377.227 31.942,377.196 31.844,376.624 31.401 C 376.016 30.931,375.981 30.800,376.462 30.800 C 376.800 30.800,377.347 31.115,377.677 31.500 M381.201 35.801 C 382.289 36.924,382.459 37.300,382.056 37.701 C 381.653 38.100,381.601 38.072,381.796 37.559 C 381.958 37.135,381.554 36.492,380.606 35.659 C 379.817 34.967,379.323 34.400,379.508 34.400 C 379.692 34.400,380.454 35.030,381.201 35.801 M388.800 46.049 C 388.800 46.242,388.485 46.386,388.100 46.368 C 387.655 46.348,387.588 46.261,387.917 46.130 C 388.339 45.960,388.339 45.801,387.917 45.261 C 387.455 44.670,387.475 44.658,388.100 45.149 C 388.485 45.451,388.800 45.856,388.800 46.049 M364.423 51.506 C 365.425 51.945,367.211 53.317,368.390 54.553 C 369.570 55.789,370.697 56.800,370.896 56.800 C 375.291 56.800,377.892 66.427,375.426 73.570 C 374.861 75.204,374.400 76.958,374.400 77.469 C 374.400 78.687,371.883 81.443,369.827 82.476 C 367.668 83.561,366.864 84.309,365.966 86.066 C 364.269 89.393,359.239 90.419,350.000 89.324 C 346.720 88.935,313.630 88.829,198.929 88.838 C 84.758 88.847,51.343 88.741,48.847 88.359 L 45.637 87.867 44.451 85.960 C 43.179 83.912,40.721 81.900,38.665 81.222 C 33.506 79.519,33.753 62.540,39.004 57.914 C 39.932 57.096,40.912 55.894,41.182 55.243 C 41.658 54.093,43.697 52.475,45.915 51.484 C 46.755 51.109,80.685 50.948,196.200 50.768 C 372.197 50.495,362.018 50.450,364.423 51.506 M372.000 156.834 C 374.385 157.915,375.537 159.032,376.458 161.157 C 377.527 163.621,377.081 163.668,375.592 161.249 C 374.337 159.209,373.163 158.174,371.100 157.289 C 369.465 156.588,369.761 156.963,371.950 158.368 C 374.520 160.017,378.184 165.410,376.535 165.116 C 376.176 165.052,375.806 165.270,375.711 165.600 C 375.572 166.085,375.612 166.096,375.920 165.657 C 376.185 165.278,376.382 165.248,376.574 165.557 C 376.724 165.801,376.725 166.000,376.575 166.000 C 376.425 166.000,376.514 166.255,376.772 166.566 C 377.148 167.019,377.076 167.185,376.415 167.395 C 375.904 167.557,375.704 167.837,375.891 168.129 C 376.058 168.388,376.202 168.960,376.211 169.400 C 376.220 169.840,376.360 170.414,376.522 170.675 C 376.684 170.937,376.588 171.297,376.308 171.475 C 376.029 171.654,375.800 172.070,375.800 172.400 C 375.800 172.730,375.586 172.959,375.325 172.908 C 375.047 172.855,374.913 173.150,375.004 173.619 C 375.089 174.060,374.988 174.316,374.779 174.187 C 374.420 173.965,374.246 174.477,374.354 175.431 C 374.381 175.669,373.946 176.108,373.388 176.407 C 372.829 176.706,372.453 177.160,372.551 177.416 C 372.712 177.836,371.276 179.438,371.016 179.129 C 370.956 179.058,370.605 178.351,370.236 177.558 C 369.287 175.522,361.868 174.177,354.600 174.722 C 353.720 174.788,284.510 174.988,200.800 175.166 C 117.090 175.344,47.880 175.625,47.000 175.790 C 44.988 176.167,43.170 177.518,41.597 179.804 C 40.923 180.783,39.537 182.222,38.517 183.001 C 33.141 187.106,30.506 199.841,33.615 206.697 C 36.108 212.196,41.034 216.885,45.953 218.440 C 51.256 220.118,43.808 220.042,199.447 220.010 L 346.371 219.981 350.086 220.863 C 355.280 222.098,361.466 221.332,363.891 219.154 C 365.367 217.829,367.053 216.712,371.700 213.982 C 372.965 213.239,374.000 212.518,374.000 212.381 C 374.000 212.244,375.170 210.286,376.600 208.030 C 378.030 205.775,379.200 203.787,379.200 203.613 C 379.200 203.439,379.785 203.061,380.500 202.773 C 382.036 202.154,383.951 200.810,386.315 198.692 C 387.376 197.742,388.291 197.232,388.715 197.355 C 389.092 197.465,390.255 197.675,391.300 197.823 C 392.609 198.007,393.200 198.279,393.200 198.694 C 393.200 199.170,393.320 199.198,393.767 198.828 C 394.216 198.454,394.372 198.506,394.520 199.079 C 394.692 199.742,394.711 199.744,394.754 199.100 C 394.779 198.715,394.976 198.400,395.190 198.400 C 395.405 198.400,395.518 198.895,395.442 199.500 C 395.366 200.105,395.374 200.420,395.461 200.200 C 395.549 199.977,396.588 199.861,397.809 199.937 C 399.925 200.069,400.000 200.039,400.000 199.058 C 400.000 198.117,399.844 198.031,397.900 197.895 L 395.800 197.748 397.900 197.674 L 400.000 197.600 400.000 194.020 L 400.000 190.440 397.700 190.296 L 395.400 190.151 397.700 190.076 C 401.061 189.965,401.210 188.400,397.860 188.400 L 395.721 188.400 395.468 184.500 C 395.160 179.767,394.802 177.551,394.386 177.808 C 394.215 177.914,394.163 177.662,394.272 177.247 C 394.716 175.547,392.361 172.713,390.445 172.643 C 389.803 172.619,389.362 172.465,389.463 172.300 C 389.564 172.135,389.287 172.000,388.847 172.000 C 387.521 172.000,387.506 172.716,388.826 173.006 C 390.734 173.425,392.662 175.385,393.580 177.839 C 394.547 180.423,394.600 180.826,393.835 179.781 C 393.525 179.356,393.356 178.872,393.459 178.704 C 393.563 178.537,393.469 178.400,393.251 178.400 C 392.918 178.400,392.281 177.082,392.283 176.400 C 392.285 175.977,389.862 174.438,389.524 174.647 C 389.328 174.768,389.795 175.561,390.561 176.410 C 392.456 178.507,393.439 180.400,392.634 180.400 C 392.311 180.400,391.934 180.217,391.796 179.993 C 391.658 179.770,391.403 179.675,391.229 179.782 C 390.502 180.232,387.349 176.624,387.321 175.311 C 387.297 174.165,387.379 174.068,388.055 174.430 C 388.868 174.864,389.600 174.626,389.600 173.927 C 389.600 173.676,389.324 173.726,388.925 174.051 C 388.336 174.530,388.283 174.513,388.505 173.920 C 388.687 173.435,388.594 173.304,388.180 173.463 C 387.635 173.672,387.428 173.225,387.563 172.130 C 387.595 171.872,387.436 171.546,387.211 171.407 C 386.985 171.267,386.800 170.613,386.800 169.953 C 386.800 169.293,386.646 168.848,386.458 168.964 C 386.270 169.081,386.196 168.754,386.295 168.239 C 386.706 166.087,383.913 163.294,381.761 163.705 C 381.206 163.811,380.924 163.723,381.069 163.488 C 381.219 163.246,380.826 163.164,380.057 163.277 C 379.366 163.378,378.800 163.318,378.800 163.143 C 378.800 162.968,378.549 162.922,378.241 163.040 C 377.853 163.189,377.484 162.656,377.030 161.292 C 376.288 159.057,374.869 157.522,372.713 156.621 C 370.513 155.702,369.905 155.884,372.000 156.834 M370.101 158.288 C 370.486 158.715,370.686 159.181,370.544 159.323 C 370.402 159.465,370.514 159.855,370.792 160.190 C 371.070 160.526,371.158 160.800,370.987 160.800 C 370.816 160.800,371.002 161.160,371.400 161.600 C 372.260 162.550,371.768 162.676,370.759 161.763 C 370.109 161.175,370.071 161.185,370.257 161.897 C 370.368 162.320,370.760 162.704,371.129 162.749 C 372.464 162.913,373.812 162.917,374.400 162.760 C 374.779 162.659,374.961 162.841,374.894 163.252 C 374.833 163.625,375.132 163.993,375.594 164.114 C 376.037 164.230,376.400 164.162,376.400 163.963 C 376.400 163.763,376.130 163.600,375.800 163.600 C 375.470 163.600,375.245 163.435,375.300 163.234 C 375.472 162.604,372.523 159.351,370.926 158.411 C 369.586 157.621,369.485 157.606,370.101 158.288 M372.801 160.601 C 373.810 161.642,374.036 162.105,373.683 162.404 C 373.421 162.626,373.299 162.682,373.411 162.529 C 373.524 162.376,372.946 161.564,372.127 160.725 C 371.308 159.886,370.819 159.200,371.040 159.200 C 371.262 159.200,372.054 159.830,372.801 160.601 M372.800 162.462 C 372.800 162.648,372.590 162.800,372.333 162.800 C 372.077 162.800,371.987 162.680,372.134 162.532 C 372.281 162.385,372.086 161.890,371.701 161.432 C 371.001 160.601,371.001 160.601,371.900 161.362 C 372.395 161.781,372.800 162.276,372.800 162.462 M387.884 175.049 C 387.735 175.199,387.925 175.578,388.306 175.893 C 388.952 176.426,388.945 176.448,388.200 176.210 C 387.675 176.042,388.010 176.578,389.175 177.769 C 390.151 178.767,391.035 179.499,391.138 179.395 C 391.242 179.292,391.568 179.407,391.863 179.652 C 392.258 179.980,392.400 179.979,392.400 179.649 C 392.400 179.402,392.220 179.178,392.000 179.150 C 391.780 179.123,391.390 179.078,391.133 179.050 C 390.877 179.023,390.592 178.775,390.500 178.500 C 390.390 178.171,390.584 178.081,391.067 178.237 C 391.676 178.435,391.699 178.403,391.200 178.044 C 390.870 177.806,390.766 177.609,390.970 177.606 C 391.173 177.603,390.922 177.156,390.412 176.612 C 389.901 176.069,389.341 175.713,389.166 175.821 C 388.992 175.929,388.693 175.738,388.502 175.397 C 388.312 175.056,388.033 174.900,387.884 175.049 M390.551 177.680 C 390.424 177.884,389.983 177.746,389.570 177.373 C 389.157 176.999,388.922 176.525,389.049 176.320 C 389.176 176.116,389.617 176.254,390.030 176.627 C 390.443 177.001,390.678 177.475,390.551 177.680 M357.140 178.040 C 358.546 178.442,360.170 179.081,360.748 179.461 C 361.327 179.840,363.240 180.903,365.000 181.822 C 373.181 186.095,373.620 186.416,374.830 189.000 C 375.735 190.934,376.876 195.723,376.609 196.465 C 376.503 196.759,376.143 198.594,375.810 200.543 C 374.872 206.023,371.326 211.492,367.420 213.485 C 366.331 214.040,364.728 214.968,363.858 215.547 C 361.723 216.968,355.633 217.629,351.200 216.921 C 348.912 216.556,313.234 216.437,200.884 216.421 C 41.872 216.398,47.262 216.472,43.800 214.271 C 35.813 209.194,33.124 202.273,35.577 193.104 C 36.005 191.507,36.542 189.471,36.771 188.580 C 37.121 187.218,37.456 186.841,38.865 186.220 C 41.045 185.257,43.840 182.440,44.773 180.264 L 45.512 178.540 50.056 178.052 C 56.750 177.333,50.506 177.362,208.192 177.334 C 348.821 177.310,354.685 177.338,357.140 178.040 M388.967 179.653 C 388.598 180.251,388.086 180.031,388.144 179.300 C 388.175 178.911,387.964 178.649,387.670 178.710 C 387.375 178.771,387.260 178.627,387.410 178.384 C 387.591 178.090,387.925 178.170,388.430 178.627 C 388.843 179.001,389.085 179.463,388.967 179.653 M395.713 202.200 C 395.827 203.771,400.000 204.376,400.000 202.821 C 400.000 202.104,399.750 202.000,398.033 202.000 C 396.844 202.000,395.979 201.802,395.846 201.500 C 395.725 201.225,395.665 201.540,395.713 202.200 M373.771 288.800 C 373.771 289.757,374.218 289.852,374.557 288.967 C 374.895 288.088,374.870 288.000,374.286 288.000 C 374.003 288.000,373.771 288.360,373.771 288.800 M375.829 289.000 C 375.405 289.325,375.172 289.705,375.310 289.843 C 375.449 289.982,375.853 289.804,376.210 289.448 C 376.566 289.091,377.044 288.800,377.273 288.800 C 377.502 288.800,377.272 289.137,376.763 289.549 L 375.838 290.299 376.838 291.249 C 377.389 291.772,377.560 291.989,377.220 291.732 C 376.879 291.474,376.330 291.204,376.000 291.132 C 375.670 291.059,375.268 290.820,375.106 290.600 C 374.918 290.345,374.810 290.364,374.806 290.654 C 374.803 290.904,375.244 291.399,375.786 291.754 C 376.942 292.512,378.019 294.217,377.139 293.896 C 376.842 293.788,376.660 293.453,376.733 293.150 C 376.807 292.848,376.733 292.733,376.570 292.897 C 376.407 293.060,375.997 292.970,375.660 292.697 C 374.926 292.103,375.316 292.927,376.323 294.100 C 377.010 294.900,376.449 295.053,375.591 294.300 C 375.277 294.025,375.374 294.221,375.805 294.736 C 376.525 295.596,376.536 295.711,375.932 296.153 C 375.434 296.517,375.374 296.810,375.684 297.365 C 376.619 299.035,376.292 304.321,375.223 304.808 C 373.598 305.548,370.749 305.939,369.642 305.574 C 369.069 305.385,366.577 305.049,364.105 304.827 C 361.632 304.606,358.572 304.122,357.305 303.751 C 355.210 303.138,354.016 303.120,344.200 303.546 C 336.470 303.882,294.747 304.020,197.400 304.033 C 122.600 304.043,59.510 304.205,57.200 304.393 C 40.612 305.744,34.303 310.949,32.558 324.723 L 31.986 329.246 33.266 333.323 C 34.943 338.663,35.789 339.932,39.165 342.177 C 40.713 343.206,42.389 344.553,42.890 345.171 C 45.763 348.715,33.190 348.452,198.576 348.432 C 322.377 348.416,346.456 348.502,349.926 348.971 C 358.507 350.132,363.423 349.068,367.200 345.232 C 368.421 343.993,370.405 342.418,371.610 341.732 C 374.530 340.070,375.732 338.716,377.076 335.572 C 378.776 331.596,379.147 331.181,381.377 330.765 C 383.962 330.282,385.009 329.548,386.041 327.494 C 386.971 325.644,387.940 324.400,388.449 324.400 C 388.628 324.400,388.676 324.715,388.555 325.100 C 388.367 325.698,388.427 325.687,388.967 325.024 C 389.362 324.539,389.600 324.444,389.600 324.773 C 389.600 325.198,389.716 325.202,390.209 324.792 C 390.713 324.374,390.778 324.391,390.586 324.892 C 390.452 325.242,390.625 325.601,390.998 325.744 C 391.352 325.880,391.544 325.833,391.425 325.641 C 391.174 325.235,392.364 324.851,393.102 325.099 C 393.379 325.192,393.507 325.428,393.386 325.622 C 393.266 325.817,393.660 326.100,394.263 326.251 C 394.865 326.403,395.412 326.363,395.478 326.163 C 395.545 325.963,396.589 325.862,397.799 325.937 L 400.000 326.074 400.000 324.437 L 400.000 322.800 397.931 322.800 C 396.545 322.800,395.589 323.031,395.031 323.500 C 394.201 324.199,394.201 324.199,394.962 323.300 C 395.577 322.574,396.137 322.400,397.862 322.400 L 400.000 322.400 400.000 319.600 L 400.000 316.800 398.024 316.800 C 396.937 316.800,395.936 316.620,395.800 316.400 C 395.647 316.152,396.396 316.000,397.776 316.000 C 398.999 316.000,400.000 315.820,400.000 315.600 C 400.000 315.380,399.111 315.200,398.024 315.200 C 395.725 315.200,395.649 315.118,395.348 312.319 C 395.222 311.153,394.913 310.068,394.660 309.906 C 394.325 309.692,394.336 309.611,394.700 309.606 C 394.975 309.603,395.200 309.150,395.200 308.600 C 395.200 308.050,395.026 307.600,394.813 307.600 C 394.599 307.600,394.523 307.345,394.643 307.032 C 394.951 306.230,393.606 304.312,392.920 304.575 C 392.611 304.694,392.465 304.618,392.596 304.407 C 393.155 303.501,390.869 300.656,388.300 299.064 C 387.695 298.688,387.200 298.138,387.200 297.840 C 387.200 297.542,386.911 297.058,386.558 296.765 C 386.205 296.472,385.509 295.325,385.012 294.216 C 383.716 291.326,379.815 288.526,378.347 289.432 C 378.145 289.557,378.030 289.425,378.090 289.139 C 378.248 288.394,376.739 288.301,375.829 289.000 M380.642 292.026 C 382.001 292.866,384.800 296.528,383.786 296.139 C 383.480 296.022,383.125 295.594,382.996 295.188 C 382.768 294.468,380.893 292.682,379.362 291.724 C 378.943 291.461,378.759 291.236,378.953 291.224 C 379.147 291.211,379.907 291.572,380.642 292.026 M381.425 294.100 L 382.600 295.400 381.300 294.225 C 380.088 293.130,379.816 292.800,380.125 292.800 C 380.194 292.800,380.779 293.385,381.425 294.100 M389.025 303.262 C 390.165 304.486,389.719 304.495,388.300 303.277 C 387.692 302.755,387.352 302.000,387.725 302.000 C 387.794 302.000,388.379 302.568,389.025 303.262 M361.320 308.220 C 365.336 308.980,366.847 309.727,369.554 312.294 C 370.660 313.342,372.472 314.990,373.582 315.957 C 374.692 316.923,375.600 318.037,375.600 318.433 C 375.600 318.829,375.805 319.280,376.056 319.434 C 376.956 319.991,376.220 329.066,375.067 331.640 C 374.515 332.872,373.852 334.672,373.594 335.640 C 372.979 337.952,372.289 338.661,369.369 339.985 C 366.713 341.189,365.166 342.594,363.974 344.882 C 363.118 346.525,362.906 346.593,357.380 347.003 C 355.300 347.157,352.679 347.018,349.980 346.612 C 346.233 346.048,330.532 345.987,198.525 346.017 C 68.601 346.048,51.142 345.981,50.325 345.455 C 49.816 345.127,48.601 344.542,47.625 344.155 C 46.648 343.769,45.143 342.767,44.279 341.929 C 43.416 341.091,41.515 339.829,40.055 339.126 C 38.595 338.422,37.358 337.823,37.306 337.796 C 36.136 337.170,34.748 328.944,35.114 324.800 C 35.518 320.224,36.965 315.600,37.992 315.600 C 38.214 315.600,38.939 314.849,39.604 313.931 C 41.635 311.127,45.076 309.382,49.800 308.760 C 55.691 307.983,357.306 307.461,361.320 308.220 M394.926 325.157 C 394.206 325.929,394.171 325.932,394.171 325.213 C 394.171 324.798,394.300 324.538,394.458 324.636 C 394.616 324.733,394.865 324.618,395.012 324.380 C 395.160 324.142,395.370 324.037,395.480 324.147 C 395.590 324.257,395.341 324.712,394.926 325.157 M395.963 327.324 C 396.142 327.503,397.169 327.590,398.244 327.518 L 400.200 327.387 397.919 327.194 C 396.664 327.087,395.784 327.146,395.963 327.324 M395.401 328.900 C 395.306 329.175,395.383 330.030,395.573 330.800 C 395.763 331.570,395.937 331.975,395.959 331.700 C 395.986 331.372,396.689 331.200,398.000 331.200 L 400.000 331.200 400.000 329.800 L 400.000 328.400 397.787 328.400 C 396.377 328.400,395.512 328.581,395.401 328.900 " stroke="none" fill="#949494" fill-rule="evenodd"></path></g></svg>