<?xml version="1.0" encoding="UTF-8"?>
<!DOCTYPE svg PUBLIC "-//W3C//DTD SVG 1.1//EN" "http://www.w3.org/Graphics/SVG/1.1/DTD/svg11.dtd">
<svg xmlns="http://www.w3.org/2000/svg" version="1.1" width="48px" height="48px" style="shape-rendering:geometricPrecision; text-rendering:geometricPrecision; image-rendering:optimizeQuality; fill-rule:evenodd; clip-rule:evenodd" xmlns:xlink="http://www.w3.org/1999/xlink">
<g><path style="opacity:0.403" fill="#a3d301" d="M 2.5,3.5 C 3.11312,6.00924 3.77979,8.50924 4.5,11C 17.5,11.3333 30.5,11.6667 43.5,12C 44.056,12.3826 44.3893,12.8826 44.5,13.5C 30.6728,14.6607 16.6728,14.8273 2.5,14C 1.62656,12.955 0.626561,12.1217 -0.5,11.5C -0.5,9.5 -0.5,7.5 -0.5,5.5C 0.5,4.83333 1.5,4.16667 2.5,3.5 Z"/></g>
<g><path style="opacity:0.945" fill="#e0f077" d="M 42.5,2.5 C 44.7946,3.13554 46.4613,4.46888 47.5,6.5C 47.5,7.16667 47.5,7.83333 47.5,8.5C 46.5,8.5 45.5,8.5 44.5,8.5C 44.5858,7.5041 44.2524,6.67076 43.5,6C 30.5043,5.50011 17.5043,5.33344 4.5,5.5C 17.3663,5.16004 30.0329,4.16004 42.5,2.5 Z"/></g>
<g><path style="opacity:1" fill="#fdfef2" d="M 4.5,5.5 C 17.5043,5.33344 30.5043,5.50011 43.5,6C 44.2524,6.67076 44.5858,7.5041 44.5,8.5C 44.3893,9.11742 44.056,9.61742 43.5,10C 30.8333,10.6667 18.1667,10.6667 5.5,10C 4.61983,8.64387 4.28649,7.14387 4.5,5.5 Z"/></g>
<g><path style="opacity:0.98" fill="#c1e221" d="M 42.5,2.5 C 30.0329,4.16004 17.3663,5.16004 4.5,5.5C 4.28649,7.14387 4.61983,8.64387 5.5,10C 18.1667,10.6667 30.8333,10.6667 43.5,10C 44.056,9.61742 44.3893,9.11742 44.5,8.5C 45.5,8.5 46.5,8.5 47.5,8.5C 47.5,9.16667 47.5,9.83333 47.5,10.5C 46.7281,11.6935 45.7281,12.6935 44.5,13.5C 44.3893,12.8826 44.056,12.3826 43.5,12C 30.5,11.6667 17.5,11.3333 4.5,11C 3.77979,8.50924 3.11312,6.00924 2.5,3.5C 15.7541,2.51916 29.0875,2.18583 42.5,2.5 Z"/></g>
<g><path style="opacity:0.266" fill="#a5d401" d="M 3.5,18.5 C 3.83333,19.1667 4.16667,19.8333 4.5,20.5C 4.5,20.8333 4.5,21.1667 4.5,21.5C 2.41777,22.5849 2.08444,24.0849 3.5,26C 17.0064,26.827 30.3397,26.6604 43.5,25.5C 44.1667,25.5 44.5,25.1667 44.5,24.5C 45.5,24.8333 46.1667,25.5 46.5,26.5C 45.8777,28.335 44.5444,29.5017 42.5,30C 29.5,30.6667 16.5,30.6667 3.5,30C 1.64977,29.3103 0.316435,28.1436 -0.5,26.5C -0.5,24.8333 -0.5,23.1667 -0.5,21.5C 0.526127,20.147 1.85946,19.147 3.5,18.5 Z"/></g>
<g><path style="opacity:0.804" fill="#c8e612" d="M 43.5,18.5 C 43.6716,19.4916 43.3382,20.1583 42.5,20.5C 29.8333,20.5 17.1667,20.5 4.5,20.5C 4.16667,19.8333 3.83333,19.1667 3.5,18.5C 16.8333,17.1667 30.1667,17.1667 43.5,18.5 Z"/></g>
<g><path style="opacity:0.269" fill="#e7f496" d="M 43.5,18.5 C 44.8333,19.5 46.1667,20.5 47.5,21.5C 47.5,23.1667 47.5,24.8333 47.5,26.5C 47.1667,26.5 46.8333,26.5 46.5,26.5C 46.1667,25.5 45.5,24.8333 44.5,24.5C 44.4729,22.8007 43.8062,21.4674 42.5,20.5C 43.3382,20.1583 43.6716,19.4916 43.5,18.5 Z"/></g>
<g><path style="opacity:1" fill="#fdfef6" d="M 4.5,20.5 C 17.1667,20.5 29.8333,20.5 42.5,20.5C 43.8062,21.4674 44.4729,22.8007 44.5,24.5C 44.5,25.1667 44.1667,25.5 43.5,25.5C 30.5,25.5 17.5,25.5 4.5,25.5C 4.5,24.1667 4.5,22.8333 4.5,21.5C 4.5,21.1667 4.5,20.8333 4.5,20.5 Z"/></g>
<g><path style="opacity:0.996" fill="#d8ed5e" d="M 4.5,21.5 C 4.5,22.8333 4.5,24.1667 4.5,25.5C 17.5,25.5 30.5,25.5 43.5,25.5C 30.3397,26.6604 17.0064,26.827 3.5,26C 2.08444,24.0849 2.41777,22.5849 4.5,21.5 Z"/></g>
<g><path style="opacity:0.364" fill="#a3d301" d="M 2.5,34.5 C 3.11312,37.0092 3.77979,39.5092 4.5,42C 17.5,42.3333 30.5,42.6667 43.5,43C 44.056,43.3826 44.3893,43.8826 44.5,44.5C 30.5748,45.6478 16.5748,45.8145 2.5,45C 1.62656,43.955 0.626561,43.1217 -0.5,42.5C -0.5,40.5 -0.5,38.5 -0.5,36.5C 0.5,35.8333 1.5,35.1667 2.5,34.5 Z"/></g>
<g><path style="opacity:0.98" fill="#e6f391" d="M 42.5,33.5 C 44.7946,34.1355 46.4613,35.4689 47.5,37.5C 47.5,38.1667 47.5,38.8333 47.5,39.5C 46.5,39.5 45.5,39.5 44.5,39.5C 44.5858,38.5041 44.2524,37.6708 43.5,37C 30.5043,36.5001 17.5043,36.3334 4.5,36.5C 17.3663,36.16 30.0329,35.16 42.5,33.5 Z"/></g>
<g><path style="opacity:1" fill="#fefefc" d="M 4.5,36.5 C 17.5043,36.3334 30.5043,36.5001 43.5,37C 44.2524,37.6708 44.5858,38.5041 44.5,39.5C 44.189,40.4778 43.5223,41.1445 42.5,41.5C 29.8833,40.5194 17.2167,40.1861 4.5,40.5C 4.5,39.1667 4.5,37.8333 4.5,36.5 Z"/></g>
<g><path style="opacity:0.973" fill="#c6e43b" d="M 42.5,33.5 C 30.0329,35.16 17.3663,36.16 4.5,36.5C 4.5,37.8333 4.5,39.1667 4.5,40.5C 17.2167,40.1861 29.8833,40.5194 42.5,41.5C 43.5223,41.1445 44.189,40.4778 44.5,39.5C 45.5,39.5 46.5,39.5 47.5,39.5C 47.5,40.1667 47.5,40.8333 47.5,41.5C 46.7281,42.6935 45.7281,43.6935 44.5,44.5C 44.3893,43.8826 44.056,43.3826 43.5,43C 30.5,42.6667 17.5,42.3333 4.5,42C 3.77979,39.5092 3.11312,37.0092 2.5,34.5C 15.6562,33.5044 28.9895,33.1711 42.5,33.5 Z"/></g>
</svg>
