<?xml version="1.0" encoding="UTF-8"?>
<!DOCTYPE svg PUBLIC "-//W3C//DTD SVG 1.1//EN" "http://www.w3.org/Graphics/SVG/1.1/DTD/svg11.dtd">
<svg xmlns="http://www.w3.org/2000/svg" version="1.1" width="48px" height="48px" style="shape-rendering:geometricPrecision; text-rendering:geometricPrecision; image-rendering:optimizeQuality; fill-rule:evenodd; clip-rule:evenodd" xmlns:xlink="http://www.w3.org/1999/xlink">
<g><path style="opacity:0.555" fill="#090909" d="M 41.5,2.5 C 41.6107,3.11742 41.944,3.61742 42.5,4C 29.66,4.16911 16.9934,4.66911 4.5,5.5C 3.19914,6.88448 3.19914,8.38448 4.5,10C 17.9085,10.8135 31.2418,10.6468 44.5,9.5C 45.4916,9.32842 46.1583,9.66175 46.5,10.5C 46.4894,12.0174 45.8228,13.1841 44.5,14C 30.5,14.6667 16.5,14.6667 2.5,14C 1.62656,12.955 0.626561,12.1217 -0.5,11.5C -0.5,9.5 -0.5,7.5 -0.5,5.5C 0.682751,4.49551 2.01608,3.66218 3.5,3C 16.1623,2.50012 28.8289,2.33345 41.5,2.5 Z"/></g>
<g><path style="opacity:0.945" fill="#717171" d="M 41.5,2.5 C 44.2367,2.8592 46.2367,4.19253 47.5,6.5C 47.5,7.83333 47.5,9.16667 47.5,10.5C 47.1667,10.5 46.8333,10.5 46.5,10.5C 46.1583,9.66175 45.4916,9.32842 44.5,9.5C 44.67,8.17793 44.3366,7.01127 43.5,6C 30.5043,5.50011 17.5043,5.33344 4.5,5.5C 16.9934,4.66911 29.66,4.16911 42.5,4C 41.944,3.61742 41.6107,3.11742 41.5,2.5 Z"/></g>
<g><path style="opacity:1" fill="#f9f9f9" d="M 4.5,5.5 C 17.5043,5.33344 30.5043,5.50011 43.5,6C 44.3366,7.01127 44.67,8.17793 44.5,9.5C 31.2418,10.6468 17.9085,10.8135 4.5,10C 3.19914,8.38448 3.19914,6.88448 4.5,5.5 Z"/></g>
<g><path style="opacity:0.51" fill="#070707" d="M 43.5,18.5 C 43.6716,19.4916 43.3382,20.1583 42.5,20.5C 29.8289,20.3334 17.1623,20.5001 4.5,21C 3.44636,22.3876 3.27969,23.8876 4,25.5C 17.4999,26.8248 30.9999,26.8248 44.5,25.5C 45.4916,25.3284 46.1583,25.6618 46.5,26.5C 45.8777,28.335 44.5444,29.5017 42.5,30C 29.5,30.6667 16.5,30.6667 3.5,30C 1.64977,29.3103 0.316435,28.1436 -0.5,26.5C -0.5,24.8333 -0.5,23.1667 -0.5,21.5C 0.97457,19.5905 2.97457,18.4238 5.5,18C 18.2121,17.2054 30.8788,17.3721 43.5,18.5 Z"/></g>
<g><path style="opacity:0.563" fill="#909090" d="M 43.5,18.5 C 44.8333,19.5 46.1667,20.5 47.5,21.5C 47.5,23.1667 47.5,24.8333 47.5,26.5C 47.1667,26.5 46.8333,26.5 46.5,26.5C 46.1583,25.6618 45.4916,25.3284 44.5,25.5C 44.6347,23.4458 43.968,21.7791 42.5,20.5C 43.3382,20.1583 43.6716,19.4916 43.5,18.5 Z"/></g>
<g><path style="opacity:1" fill="#e8e8e8" d="M 42.5,20.5 C 43.968,21.7791 44.6347,23.4458 44.5,25.5C 30.9999,26.8248 17.4999,26.8248 4,25.5C 3.27969,23.8876 3.44636,22.3876 4.5,21C 17.1623,20.5001 29.8289,20.3334 42.5,20.5 Z"/></g>
<g><path style="opacity:0.491" fill="#040404" d="M 41.5,33.5 C 41.6107,34.1174 41.944,34.6174 42.5,35C 29.66,35.1691 16.9934,35.6691 4.5,36.5C 3.19914,37.8845 3.19914,39.3845 4.5,41C 17.9085,41.8135 31.2418,41.6468 44.5,40.5C 45.4916,40.3284 46.1583,40.6618 46.5,41.5C 46.4257,43.4109 45.4257,44.5776 43.5,45C 29.8333,45.6667 16.1667,45.6667 2.5,45C 1.62656,43.955 0.626561,43.1217 -0.5,42.5C -0.5,40.5 -0.5,38.5 -0.5,36.5C 0.626561,35.8783 1.62656,35.045 2.5,34C 15.4957,33.5001 28.4957,33.3334 41.5,33.5 Z"/></g>
<g><path style="opacity:0.98" fill="#8d8d8d" d="M 41.5,33.5 C 44.2367,33.8592 46.2367,35.1925 47.5,37.5C 47.5,38.8333 47.5,40.1667 47.5,41.5C 47.1667,41.5 46.8333,41.5 46.5,41.5C 46.1583,40.6618 45.4916,40.3284 44.5,40.5C 44.67,39.1779 44.3366,38.0113 43.5,37C 30.5043,36.5001 17.5043,36.3334 4.5,36.5C 16.9934,35.6691 29.66,35.1691 42.5,35C 41.944,34.6174 41.6107,34.1174 41.5,33.5 Z"/></g>
<g><path style="opacity:1" fill="#f5f5f5" d="M 4.5,36.5 C 17.5043,36.3334 30.5043,36.5001 43.5,37C 44.3366,38.0113 44.67,39.1779 44.5,40.5C 31.2418,41.6468 17.9085,41.8135 4.5,41C 3.19914,39.3845 3.19914,37.8845 4.5,36.5 Z"/></g>
</svg>
