<?xml version="1.0" encoding="UTF-8"?>
<!DOCTYPE svg PUBLIC "-//W3C//DTD SVG 1.1//EN" "http://www.w3.org/Graphics/SVG/1.1/DTD/svg11.dtd">
<svg xmlns="http://www.w3.org/2000/svg" version="1.1" width="100px" height="100px" style="shape-rendering:geometricPrecision; text-rendering:geometricPrecision; image-rendering:optimizeQuality; fill-rule:evenodd; clip-rule:evenodd" xmlns:xlink="http://www.w3.org/1999/xlink">
<g><path style="opacity:0.832" fill="#9bdb00" d="M 45.5,8.5 C 48.6492,8.21138 51.6492,8.71138 54.5,10C 67.3629,22.5289 79.8629,35.3623 92,48.5C 91.8137,56.7236 87.6471,62.2236 79.5,65C 83.3333,68.8333 87.1667,72.6667 91,76.5C 93,79.8333 93,83.1667 91,86.5C 86.0747,93.7258 79.5747,95.8924 71.5,93C 64.0161,86.3502 56.6828,79.5169 49.5,72.5C 42.2798,79.8899 34.6131,86.7232 26.5,93C 22.8333,93.6667 19.1667,93.6667 15.5,93C 12.5728,90.6176 9.73947,88.1176 7,85.5C 6.1834,82.0357 6.51674,78.7024 8,75.5C 11.8333,71.6667 15.6667,67.8333 19.5,64C 14.835,62.0192 10.6683,59.1858 7,55.5C 6.33333,52.8333 6.33333,50.1667 7,47.5C 19.3665,33.9673 32.1998,20.9673 45.5,8.5 Z"/></g>
<g><path style="opacity:1" fill="#f3f3f3" d="M 84.5,47.5 C 82.9494,52.4404 79.6161,54.6071 74.5,54C 69.2714,48.6028 63.938,43.4361 58.5,38.5C 56.222,34.3869 53.0553,31.0536 49,28.5C 43.9856,33.3473 39.1523,38.3473 34.5,43.5C 31.1667,46.1667 28.1667,49.1667 25.5,52.5C 24.0328,52.8938 22.5328,53.2272 21,53.5C 18.7182,52.7102 16.5516,51.7102 14.5,50.5C 13.596,49.791 13.2627,48.791 13.5,47.5C 25.4552,36.7144 37.2885,25.7144 49,14.5C 60.7115,25.7144 72.5448,36.7144 84.5,47.5 Z"/></g>
<g><path style="opacity:1" fill="#3b3e34" d="M 84.5,47.5 C 72.5448,36.7144 60.7115,25.7144 49,14.5C 37.2885,25.7144 25.4552,36.7144 13.5,47.5C 24.8399,35.3267 36.6732,23.66 49,12.5C 62.0119,23.0122 73.8453,34.6789 84.5,47.5 Z"/></g>
<g><path style="opacity:1" fill="#424638" d="M 58.5,38.5 C 55.5198,35.8556 52.5198,33.189 49.5,30.5C 44.7561,35.252 39.7561,39.5854 34.5,43.5C 39.1523,38.3473 43.9856,33.3473 49,28.5C 53.0553,31.0536 56.222,34.3869 58.5,38.5 Z"/></g>
<g><path style="opacity:1" fill="#0c1007" d="M 58.5,38.5 C 63.938,43.4361 69.2714,48.6028 74.5,54C 79.6161,54.6071 82.9494,52.4404 84.5,47.5C 86.7565,48.5618 87.9232,50.2285 88,52.5C 85.1845,56.1593 81.6845,58.826 77.5,60.5C 76.062,60.2811 74.7287,59.7811 73.5,59C 65.9245,50.9206 57.9245,43.4206 49.5,36.5C 41.0447,43.7847 32.7114,51.2847 24.5,59C 22.1667,59.6667 19.8333,59.6667 17.5,59C 15.6116,56.8104 13.4449,54.9771 11,53.5C 10.0276,50.7058 10.8609,48.7058 13.5,47.5C 13.2627,48.791 13.596,49.791 14.5,50.5C 17.5213,56.1082 21.188,56.7749 25.5,52.5C 28.1667,49.1667 31.1667,46.1667 34.5,43.5C 39.7561,39.5854 44.7561,35.252 49.5,30.5C 52.5198,33.189 55.5198,35.8556 58.5,38.5 Z"/></g>
<g><path style="opacity:1" fill="#3f4432" d="M 84.5,77.5 C 72.5448,66.7144 60.7115,55.7144 49,44.5C 37.2885,55.7144 25.4552,66.7144 13.5,77.5C 24.8399,65.3267 36.6732,53.66 49,42.5C 62.0119,53.0122 73.8453,64.6789 84.5,77.5 Z"/></g>
<g><path style="opacity:1" fill="#f3f3f3" d="M 84.5,77.5 C 82.9494,82.4404 79.6161,84.6071 74.5,84C 69.2714,78.6028 63.938,73.4361 58.5,68.5C 56.222,64.3869 53.0553,61.0536 49,58.5C 43.9856,63.3473 39.1523,68.3473 34.5,73.5C 31.1667,76.1667 28.1667,79.1667 25.5,82.5C 24.0328,82.8938 22.5328,83.2272 21,83.5C 18.7182,82.7102 16.5516,81.7102 14.5,80.5C 13.596,79.791 13.2627,78.791 13.5,77.5C 25.4552,66.7144 37.2885,55.7144 49,44.5C 60.7115,55.7144 72.5448,66.7144 84.5,77.5 Z"/></g>
<g><path style="opacity:1" fill="#61635b" d="M 14.5,50.5 C 16.5516,51.7102 18.7182,52.7102 21,53.5C 22.5328,53.2272 24.0328,52.8938 25.5,52.5C 21.188,56.7749 17.5213,56.1082 14.5,50.5 Z"/></g>
<g><path style="opacity:1" fill="#424638" d="M 58.5,68.5 C 55.5198,65.8556 52.5198,63.189 49.5,60.5C 44.7561,65.252 39.7561,69.5854 34.5,73.5C 39.1523,68.3473 43.9856,63.3473 49,58.5C 53.0553,61.0536 56.222,64.3869 58.5,68.5 Z"/></g>
<g><path style="opacity:1" fill="#0b1007" d="M 58.5,68.5 C 63.938,73.4361 69.2714,78.6028 74.5,84C 79.6161,84.6071 82.9494,82.4404 84.5,77.5C 86.7565,78.5618 87.9232,80.2285 88,82.5C 85.1845,86.1593 81.6845,88.826 77.5,90.5C 76.062,90.2811 74.7287,89.7811 73.5,89C 65.9245,80.9206 57.9245,73.4206 49.5,66.5C 41.0447,73.7847 32.7114,81.2847 24.5,89C 22.1667,89.6667 19.8333,89.6667 17.5,89C 15.6266,86.7911 13.46,84.9578 11,83.5C 10.0276,80.7058 10.8609,78.7058 13.5,77.5C 13.2627,78.791 13.596,79.791 14.5,80.5C 17.5213,86.1082 21.188,86.7749 25.5,82.5C 28.1667,79.1667 31.1667,76.1667 34.5,73.5C 39.7561,69.5854 44.7561,65.252 49.5,60.5C 52.5198,63.189 55.5198,65.8556 58.5,68.5 Z"/></g>
<g><path style="opacity:1" fill="#61635b" d="M 14.5,80.5 C 16.5516,81.7102 18.7182,82.7102 21,83.5C 22.5328,83.2272 24.0328,82.8938 25.5,82.5C 21.188,86.7749 17.5213,86.1082 14.5,80.5 Z"/></g>
</svg>
