<?xml version="1.0" encoding="UTF-8"?>
<!DOCTYPE svg PUBLIC "-//W3C//DTD SVG 1.1//EN" "http://www.w3.org/Graphics/SVG/1.1/DTD/svg11.dtd">
<svg xmlns="http://www.w3.org/2000/svg" version="1.1" width="100px" height="100px" style="shape-rendering:geometricPrecision; text-rendering:geometricPrecision; image-rendering:optimizeQuality; fill-rule:evenodd; clip-rule:evenodd" xmlns:xlink="http://www.w3.org/1999/xlink">
<g><path style="opacity:0.682" fill="#141813" d="M 85.5,47.5 C 85.412,55.7043 81.7453,58.0376 74.5,54.5C 78.3173,55.0182 81.3173,53.6849 83.5,50.5C 84.8234,48.146 84.1567,46.4793 81.5,45.5C 75.5,38.8333 69.1667,32.5 62.5,26.5C 60.8333,25.5 59.5,24.1667 58.5,22.5C 56.1667,19.5 53.5,16.8333 50.5,14.5C 47.7647,13.1789 46.0981,14.1789 45.5,17.5C 44.5,17.8333 43.8333,18.5 43.5,19.5C 39.5,22.8333 35.8333,26.5 32.5,30.5C 29.8333,31.8333 27.8333,33.8333 26.5,36.5C 23.1667,37.8333 20.8333,40.1667 19.5,43.5C 18.1667,43.5 17.5,44.1667 17.5,45.5C 14.1789,46.0981 13.1789,47.7647 14.5,50.5C 15.2623,52.2624 16.5956,53.2624 18.5,53.5C 19.9187,54.4511 21.5853,54.7845 23.5,54.5C 16.5565,57.4877 12.8898,55.1543 12.5,47.5C 23.9074,34.9235 36.074,23.2569 49,12.5C 61.926,23.2569 74.0926,34.9235 85.5,47.5 Z"/></g>
<g><path style="opacity:1" fill="#cbcbca" d="M 43.5,19.5 C 40.8333,24.1667 37.1667,27.8333 32.5,30.5C 35.8333,26.5 39.5,22.8333 43.5,19.5 Z"/></g>
<g><path style="opacity:1" fill="#939392" d="M 50.5,14.5 C 53.5,16.8333 56.1667,19.5 58.5,22.5C 54.8333,20.8333 52.1667,18.1667 50.5,14.5 Z"/></g>
<g><path style="opacity:1" fill="#f4f4f4" d="M 50.5,14.5 C 52.1667,18.1667 54.8333,20.8333 58.5,22.5C 59.5,24.1667 60.8333,25.5 62.5,26.5C 67.8333,33.8333 74.1667,40.1667 81.5,45.5C 84.1567,46.4793 84.8234,48.146 83.5,50.5C 81.3173,53.6849 78.3173,55.0182 74.5,54.5C 69.4729,48.8063 64.1396,43.4729 58.5,38.5C 56.5698,34.8998 53.9031,31.8998 50.5,29.5C 49.448,29.3505 48.448,29.5172 47.5,30C 39.2491,38.0826 31.2491,46.2493 23.5,54.5C 21.5853,54.7845 19.9187,54.4511 18.5,53.5C 17.7377,51.7376 16.4044,50.7376 14.5,50.5C 15.075,48.5887 16.075,46.922 17.5,45.5C 17.5,44.1667 18.1667,43.5 19.5,43.5C 22.1667,41.5 24.5,39.1667 26.5,36.5C 27.8333,33.8333 29.8333,31.8333 32.5,30.5C 37.1667,27.8333 40.8333,24.1667 43.5,19.5C 43.8333,18.5 44.5,17.8333 45.5,17.5C 47.184,16.4728 48.8506,15.4728 50.5,14.5 Z"/></g>
<g><path style="opacity:1" fill="#acadab" d="M 50.5,14.5 C 48.8506,15.4728 47.184,16.4728 45.5,17.5C 46.0981,14.1789 47.7647,13.1789 50.5,14.5 Z"/></g>
<g><path style="opacity:1" fill="#929292" d="M 62.5,26.5 C 69.1667,32.5 75.5,38.8333 81.5,45.5C 74.1667,40.1667 67.8333,33.8333 62.5,26.5 Z"/></g>
<g><path style="opacity:1" fill="#696b63" d="M 50.5,29.5 C 53.9031,31.8998 56.5698,34.8998 58.5,38.5C 55.5,36.1667 52.8333,33.5 50.5,30.5C 50.5,30.1667 50.5,29.8333 50.5,29.5 Z"/></g>
<g><path style="opacity:0.955" fill="#040802" d="M 50.5,30.5 C 52.8333,33.5 55.5,36.1667 58.5,38.5C 64.1396,43.4729 69.4729,48.8063 74.5,54.5C 81.7453,58.0376 85.412,55.7043 85.5,47.5C 88.1391,48.7058 88.9724,50.7058 88,53.5C 85.4201,57.1062 82.0868,59.4396 78,60.5C 75.0911,60.2693 72.5911,59.1026 70.5,57C 63.6523,49.9853 56.6523,43.152 49.5,36.5C 41.6508,44.1832 33.6508,51.6832 25.5,59C 18.1849,60.6767 13.1849,58.1767 10.5,51.5C 10.3402,49.6455 11.0069,48.3121 12.5,47.5C 12.8898,55.1543 16.5565,57.4877 23.5,54.5C 32.5198,46.4777 41.5198,38.4777 50.5,30.5 Z"/></g>
<g><path style="opacity:0.996" fill="#34372a" d="M 50.5,29.5 C 50.5,29.8333 50.5,30.1667 50.5,30.5C 41.5198,38.4777 32.5198,46.4777 23.5,54.5C 31.2491,46.2493 39.2491,38.0826 47.5,30C 48.448,29.5172 49.448,29.3505 50.5,29.5 Z"/></g>
<g><path style="opacity:1" fill="#969794" d="M 26.5,36.5 C 24.5,39.1667 22.1667,41.5 19.5,43.5C 20.8333,40.1667 23.1667,37.8333 26.5,36.5 Z"/></g>
<g><path style="opacity:1" fill="#979896" d="M 17.5,45.5 C 16.075,46.922 15.075,48.5887 14.5,50.5C 13.1789,47.7647 14.1789,46.0981 17.5,45.5 Z"/></g>
<g><path style="opacity:1" fill="#8b8c89" d="M 14.5,50.5 C 16.4044,50.7376 17.7377,51.7376 18.5,53.5C 16.5956,53.2624 15.2623,52.2624 14.5,50.5 Z"/></g>
<g><path style="opacity:0.682" fill="#141813" d="M 85.5,77.5 C 85.412,85.7043 81.7453,88.0376 74.5,84.5C 78.3173,85.0182 81.3173,83.6849 83.5,80.5C 84.8234,78.146 84.1567,76.4793 81.5,75.5C 75.5,68.8333 69.1667,62.5 62.5,56.5C 60.8333,55.5 59.5,54.1667 58.5,52.5C 56.1667,49.5 53.5,46.8333 50.5,44.5C 47.7647,43.1789 46.0981,44.1789 45.5,47.5C 44.5,47.8333 43.8333,48.5 43.5,49.5C 39.5,52.8333 35.8333,56.5 32.5,60.5C 29.8333,61.8333 27.8333,63.8333 26.5,66.5C 23.1667,67.8333 20.8333,70.1667 19.5,73.5C 18.1667,73.5 17.5,74.1667 17.5,75.5C 14.1789,76.0981 13.1789,77.7647 14.5,80.5C 15.2623,82.2624 16.5956,83.2624 18.5,83.5C 19.9187,84.4511 21.5853,84.7845 23.5,84.5C 16.5565,87.4877 12.8898,85.1543 12.5,77.5C 23.9074,64.9235 36.074,53.2569 49,42.5C 61.926,53.2569 74.0926,64.9235 85.5,77.5 Z"/></g>
<g><path style="opacity:1" fill="#cbcbca" d="M 43.5,49.5 C 40.8333,54.1667 37.1667,57.8333 32.5,60.5C 35.8333,56.5 39.5,52.8333 43.5,49.5 Z"/></g>
<g><path style="opacity:1" fill="#939392" d="M 50.5,44.5 C 53.5,46.8333 56.1667,49.5 58.5,52.5C 54.8333,50.8333 52.1667,48.1667 50.5,44.5 Z"/></g>
<g><path style="opacity:1" fill="#f4f4f4" d="M 50.5,44.5 C 52.1667,48.1667 54.8333,50.8333 58.5,52.5C 59.5,54.1667 60.8333,55.5 62.5,56.5C 67.8333,63.8333 74.1667,70.1667 81.5,75.5C 84.1567,76.4793 84.8234,78.146 83.5,80.5C 81.3173,83.6849 78.3173,85.0182 74.5,84.5C 69.4729,78.8063 64.1396,73.4729 58.5,68.5C 56.5698,64.8998 53.9031,61.8998 50.5,59.5C 49.448,59.3505 48.448,59.5172 47.5,60C 39.2491,68.0826 31.2491,76.2493 23.5,84.5C 21.5853,84.7845 19.9187,84.4511 18.5,83.5C 17.7377,81.7376 16.4044,80.7376 14.5,80.5C 15.075,78.5887 16.075,76.922 17.5,75.5C 17.5,74.1667 18.1667,73.5 19.5,73.5C 22.1667,71.5 24.5,69.1667 26.5,66.5C 27.8333,63.8333 29.8333,61.8333 32.5,60.5C 37.1667,57.8333 40.8333,54.1667 43.5,49.5C 43.8333,48.5 44.5,47.8333 45.5,47.5C 47.184,46.4728 48.8506,45.4728 50.5,44.5 Z"/></g>
<g><path style="opacity:1" fill="#acadab" d="M 50.5,44.5 C 48.8506,45.4728 47.184,46.4728 45.5,47.5C 46.0981,44.1789 47.7647,43.1789 50.5,44.5 Z"/></g>
<g><path style="opacity:1" fill="#929292" d="M 62.5,56.5 C 69.1667,62.5 75.5,68.8333 81.5,75.5C 74.1667,70.1667 67.8333,63.8333 62.5,56.5 Z"/></g>
<g><path style="opacity:1" fill="#696b63" d="M 50.5,59.5 C 53.9031,61.8998 56.5698,64.8998 58.5,68.5C 55.5,66.1667 52.8333,63.5 50.5,60.5C 50.5,60.1667 50.5,59.8333 50.5,59.5 Z"/></g>
<g><path style="opacity:0.955" fill="#040802" d="M 50.5,60.5 C 52.8333,63.5 55.5,66.1667 58.5,68.5C 64.1396,73.4729 69.4729,78.8063 74.5,84.5C 81.7453,88.0376 85.412,85.7043 85.5,77.5C 88.1391,78.7058 88.9724,80.7058 88,83.5C 85.4201,87.1062 82.0868,89.4396 78,90.5C 75.0911,90.2693 72.5911,89.1026 70.5,87C 63.6523,79.9853 56.6523,73.152 49.5,66.5C 41.6508,74.1832 33.6508,81.6832 25.5,89C 18.1849,90.6767 13.1849,88.1767 10.5,81.5C 10.3402,79.6455 11.0069,78.3121 12.5,77.5C 12.8898,85.1543 16.5565,87.4877 23.5,84.5C 32.5198,76.4777 41.5198,68.4777 50.5,60.5 Z"/></g>
<g><path style="opacity:0.996" fill="#34372a" d="M 50.5,59.5 C 50.5,59.8333 50.5,60.1667 50.5,60.5C 41.5198,68.4777 32.5198,76.4777 23.5,84.5C 31.2491,76.2493 39.2491,68.0826 47.5,60C 48.448,59.5172 49.448,59.3505 50.5,59.5 Z"/></g>
<g><path style="opacity:1" fill="#969794" d="M 26.5,66.5 C 24.5,69.1667 22.1667,71.5 19.5,73.5C 20.8333,70.1667 23.1667,67.8333 26.5,66.5 Z"/></g>
<g><path style="opacity:1" fill="#979896" d="M 17.5,75.5 C 16.075,76.922 15.075,78.5887 14.5,80.5C 13.1789,77.7647 14.1789,76.0981 17.5,75.5 Z"/></g>
<g><path style="opacity:1" fill="#8b8c89" d="M 14.5,80.5 C 16.4044,80.7376 17.7377,81.7376 18.5,83.5C 16.5956,83.2624 15.2623,82.2624 14.5,80.5 Z"/></g>
</svg>
