<svg id="svg" version="1.1" xmlns="http://www.w3.org/2000/svg" xmlns:xlink="http://www.w3.org/1999/xlink" width="400" height="384.6153846153846" viewBox="0, 0, 400,384.6153846153846"><g id="svgg"><path id="path0" d="M201.346 13.799 C 200.923 13.977,198.743 14.037,196.501 13.933 C 189.742 13.618,186.008 14.607,185.209 16.923 C 185.057 17.366,184.513 17.469,182.877 17.368 C 181.704 17.295,180.456 17.345,180.105 17.480 C 179.753 17.615,178.048 17.772,176.315 17.828 C 172.356 17.958,172.596 17.796,164.892 25.512 C 156.684 33.733,156.962 33.386,156.305 36.202 C 155.865 38.091,155.453 38.890,154.502 39.698 C 153.824 40.275,153.056 40.968,152.795 41.239 C 152.534 41.509,151.715 42.337,150.974 43.077 C 150.234 43.817,149.322 44.729,148.949 45.103 C 148.575 45.476,147.710 46.342,147.026 47.026 C 146.342 47.710,145.522 48.529,145.205 48.846 C 144.888 49.163,144.022 50.029,143.282 50.769 C 142.542 51.510,141.668 52.375,141.341 52.692 C 141.014 53.010,140.275 53.824,139.698 54.502 C 138.890 55.453,138.091 55.865,136.202 56.305 C 133.408 56.957,133.706 56.720,125.982 64.444 C 118.259 72.167,118.496 71.869,117.844 74.663 C 117.403 76.552,116.991 77.351,116.040 78.160 C 114.501 79.468,114.084 79.886,112.775 81.425 C 111.967 82.376,111.168 82.788,109.278 83.228 C 106.485 83.880,106.782 83.643,99.059 91.367 C 91.344 99.081,91.572 98.797,90.928 101.554 C 90.208 104.642,89.257 105.593,86.170 106.313 C 83.605 106.911,83.150 107.231,79.287 111.143 C 76.434 114.032,75.946 114.740,75.633 116.442 C 75.333 118.078,75.536 118.019,76.575 116.172 C 77.045 115.335,77.674 114.557,77.974 114.442 C 78.630 114.190,77.239 116.113,75.522 117.830 C 73.805 119.546,71.882 120.938,72.134 120.281 C 72.249 119.982,73.028 119.352,73.864 118.882 C 75.711 117.844,75.770 117.641,74.135 117.941 C 72.065 118.321,71.670 118.684,52.790 137.565 L 34.564 155.790 32.236 156.333 C 29.760 156.911,29.292 157.242,25.441 161.143 C 21.951 164.677,21.784 165.006,21.695 168.533 C 21.653 170.213,21.514 171.691,21.386 171.819 C 21.258 171.947,21.154 172.947,21.154 174.041 C 21.154 175.801,21.040 176.082,20.172 176.478 C 17.797 177.560,17.288 183.503,17.744 204.825 C 17.894 211.838,17.986 212.198,20.138 214.241 C 20.707 214.781,21.143 215.622,21.147 216.186 C 21.151 216.732,21.249 217.275,21.365 217.391 C 21.481 217.507,21.629 218.826,21.695 220.323 C 21.766 221.970,22.049 223.392,22.410 223.926 C 23.039 224.854,24.955 227.101,25.950 228.077 C 30.440 232.482,35.819 237.688,36.604 238.389 C 37.152 238.878,38.698 239.534,40.048 239.848 C 41.937 240.289,42.736 240.701,43.544 241.652 C 44.121 242.330,44.858 243.144,45.183 243.462 C 56.993 255.000,57.083 252.460,44.415 265.167 L 34.599 275.013 32.253 275.560 C 29.703 276.155,29.269 276.470,25.084 280.762 C 21.997 283.928,21.747 284.466,21.737 287.980 C 21.734 289.301,21.601 290.383,21.442 290.384 C 21.284 290.384,21.151 290.861,21.147 291.442 C 21.143 292.061,20.746 292.874,20.191 293.401 C 18.636 294.876,17.665 300.029,17.644 306.923 C 17.594 323.868,17.628 325.797,18.033 328.596 C 18.418 331.256,19.630 333.666,20.769 334.034 C 21.213 334.177,21.316 334.714,21.214 336.354 C 21.141 337.527,21.192 338.774,21.326 339.126 C 21.461 339.477,21.618 341.183,21.675 342.916 C 21.798 346.695,21.975 347.011,26.435 351.401 C 30.032 354.941,30.532 355.181,34.326 355.188 C 35.753 355.190,36.922 355.322,36.922 355.481 C 36.923 355.639,37.271 355.769,37.697 355.769 C 38.184 355.769,40.791 358.086,44.731 362.019 C 52.944 370.220,52.627 369.963,55.320 370.591 C 57.462 371.091,57.932 371.409,60.990 374.419 C 64.613 377.984,65.154 378.253,68.749 378.263 C 70.071 378.266,71.152 378.399,71.153 378.558 C 71.153 378.716,71.630 378.849,72.212 378.853 C 72.829 378.857,73.643 379.253,74.166 379.805 C 75.999 381.738,83.884 382.496,99.038 382.198 C 110.373 381.975,114.165 381.261,114.807 379.232 C 114.949 378.781,115.503 378.683,117.318 378.785 C 118.599 378.857,119.943 378.798,120.305 378.654 C 120.666 378.510,122.282 378.355,123.895 378.310 C 125.950 378.252,127.141 378.022,127.874 377.542 C 128.667 377.022,139.570 366.504,143.410 362.554 C 143.699 362.256,144.542 361.407,145.282 360.667 C 146.022 359.926,146.888 359.061,147.205 358.744 C 147.522 358.426,148.388 357.561,149.128 356.821 C 149.869 356.080,150.734 355.215,151.051 354.897 C 151.369 354.580,152.234 353.715,152.974 352.974 C 153.715 352.234,154.583 351.372,154.904 351.058 C 155.666 350.314,173.391 332.589,174.135 331.827 C 174.449 331.506,175.311 330.638,176.051 329.897 C 176.792 329.157,177.657 328.292,177.974 327.974 C 178.292 327.657,179.157 326.792,179.897 326.051 C 180.638 325.311,181.506 324.449,181.827 324.135 C 182.148 323.821,186.459 319.477,191.407 314.480 C 200.350 305.448,201.505 304.543,203.037 305.363 C 203.477 305.599,212.894 314.848,223.964 325.918 C 244.781 346.735,245.134 347.062,247.212 347.444 C 248.847 347.744,248.788 347.541,246.941 346.502 C 246.105 346.032,245.326 345.403,245.211 345.103 C 244.959 344.447,246.882 345.838,248.599 347.555 C 250.316 349.272,251.707 351.194,251.051 350.942 C 250.751 350.828,250.122 350.049,249.652 349.213 C 248.613 347.366,248.410 347.307,248.710 348.942 C 249.083 350.974,249.556 351.505,262.487 364.436 C 276.979 378.928,276.041 378.191,280.161 378.325 C 281.894 378.382,283.600 378.539,283.951 378.674 C 284.303 378.808,285.550 378.859,286.723 378.786 C 288.363 378.684,288.900 378.787,289.043 379.231 C 289.897 381.871,293.349 382.311,312.146 382.175 C 329.704 382.048,333.299 381.566,334.034 379.244 C 334.179 378.785,334.693 378.683,336.354 378.786 C 337.527 378.859,338.774 378.808,339.126 378.674 C 339.477 378.539,341.183 378.382,342.916 378.325 C 347.006 378.192,346.278 378.746,358.736 366.288 L 369.274 355.750 371.607 355.206 C 373.997 354.648,374.510 354.299,377.866 350.943 C 381.231 347.578,381.572 347.074,382.149 344.599 C 382.513 343.036,383.066 341.831,383.714 341.187 C 385.584 339.328,385.916 338.494,386.002 335.433 C 386.048 333.820,386.203 332.204,386.347 331.843 C 386.491 331.482,386.549 330.138,386.477 328.857 C 386.374 327.022,386.471 326.488,386.936 326.341 C 389.290 325.597,390.531 314.856,389.001 308.462 C 388.672 307.087,388.323 305.183,388.225 304.231 C 387.939 301.455,387.732 300.834,387.018 300.608 C 386.462 300.432,386.369 300.026,386.479 298.262 C 386.551 297.089,386.501 295.841,386.366 295.490 C 386.231 295.138,386.074 293.433,386.018 291.700 C 385.882 287.552,386.962 288.872,368.997 270.885 C 353.953 255.822,353.462 255.283,353.462 253.857 C 353.462 252.340,353.687 252.081,362.509 243.462 C 362.834 243.144,363.572 242.330,364.148 241.652 C 364.957 240.701,365.755 240.289,367.645 239.848 C 370.460 239.192,370.113 239.470,378.334 231.262 C 386.072 223.536,385.888 223.811,386.021 219.749 C 386.079 217.967,386.228 216.346,386.351 216.146 C 386.475 215.946,386.547 213.959,386.511 211.731 C 386.449 207.833,386.485 207.641,387.453 206.673 C 390.319 203.806,389.894 186.132,386.936 185.197 C 386.471 185.050,386.374 184.517,386.477 182.682 C 386.549 181.401,386.491 180.057,386.347 179.695 C 386.203 179.334,386.048 177.718,386.002 176.105 C 385.916 173.045,385.584 172.210,383.714 170.351 C 383.066 169.707,382.513 168.502,382.149 166.939 C 381.505 164.181,381.733 164.466,374.018 156.751 C 366.294 149.028,366.592 149.265,363.798 148.613 C 361.909 148.172,361.110 147.760,360.302 146.809 C 359.725 146.132,359.032 145.356,358.761 145.087 C 358.491 144.817,331.663 117.991,299.144 85.472 C 266.625 52.953,239.775 26.110,239.477 25.821 C 238.742 25.107,236.366 22.729,235.718 22.059 C 234.825 21.135,232.545 19.192,231.618 18.564 C 231.085 18.203,229.662 17.920,228.015 17.849 C 226.519 17.783,225.199 17.635,225.083 17.519 C 224.967 17.403,224.425 17.305,223.878 17.301 C 223.314 17.297,222.474 16.861,221.933 16.292 C 219.897 14.147,219.507 14.045,212.901 13.939 C 209.508 13.885,205.692 13.758,204.423 13.657 C 203.154 13.557,201.769 13.620,201.346 13.799 M174.616 18.894 C 174.087 19.104,173.255 19.652,172.767 20.110 C 172.218 20.626,171.965 20.722,172.103 20.363 C 172.374 19.657,174.205 18.477,175.000 18.496 C 175.317 18.504,175.144 18.683,174.616 18.894 M230.409 19.114 C 231.017 19.473,231.616 20.032,231.740 20.355 C 231.884 20.730,231.644 20.641,231.079 20.110 C 230.591 19.652,229.759 19.104,229.231 18.894 C 228.702 18.683,228.502 18.499,228.787 18.486 C 229.071 18.473,229.802 18.755,230.409 19.114 M158.303 34.645 C 157.756 35.296,157.308 36.017,157.308 36.247 C 157.308 36.478,157.207 36.566,157.084 36.443 C 156.814 36.173,157.461 34.901,158.294 34.068 C 159.339 33.023,159.346 33.406,158.303 34.645 M212.000 35.431 C 214.725 36.008,215.739 36.570,217.976 38.743 C 219.015 39.752,220.667 41.231,221.647 42.031 C 222.626 42.831,226.162 46.263,229.503 49.658 C 244.636 65.035,333.495 153.756,337.352 157.340 C 351.220 170.225,355.350 174.410,358.465 178.733 C 364.375 186.936,365.470 194.125,361.946 201.588 C 360.354 204.961,353.628 212.144,342.692 222.153 C 331.108 232.755,314.651 236.303,302.885 230.735 C 295.428 227.207,291.966 224.259,272.661 205.000 C 258.911 191.283,252.326 185.016,251.189 184.565 C 250.852 184.431,250.016 183.621,249.331 182.765 C 248.645 181.909,247.749 181.102,247.339 180.972 C 246.930 180.842,246.242 180.139,245.812 179.410 C 245.382 178.680,244.487 177.753,243.823 177.350 C 243.159 176.946,242.288 176.077,241.888 175.420 C 241.488 174.762,240.643 173.909,240.009 173.523 C 239.376 173.138,238.462 172.231,237.980 171.508 C 237.497 170.784,236.537 169.943,235.847 169.637 C 235.149 169.328,234.498 168.705,234.379 168.231 C 234.127 167.227,232.826 165.956,231.702 165.617 C 231.263 165.484,230.657 164.815,230.356 164.130 C 230.018 163.362,229.255 162.614,228.365 162.180 C 227.474 161.744,226.831 161.115,226.686 160.534 C 226.556 160.017,225.691 158.972,224.763 158.212 C 223.836 157.452,223.077 156.645,223.077 156.419 C 223.077 156.193,222.255 155.208,221.250 154.230 C 220.245 153.252,218.817 151.619,218.077 150.602 C 210.565 140.279,205.586 139.196,199.423 146.543 C 195.039 151.770,192.259 154.810,191.371 155.349 C 190.880 155.647,190.185 156.389,189.825 156.998 C 189.465 157.607,188.534 158.507,187.756 158.998 C 186.979 159.489,186.106 160.332,185.818 160.871 C 185.529 161.410,184.700 162.170,183.975 162.560 C 183.249 162.950,182.325 163.830,181.920 164.516 C 181.515 165.201,180.641 166.093,179.977 166.496 C 179.313 166.900,178.442 167.769,178.042 168.427 C 177.642 169.084,176.777 169.950,176.119 170.350 C 175.461 170.750,174.596 171.615,174.196 172.273 C 173.796 172.930,172.930 173.796,172.273 174.196 C 171.615 174.596,170.746 175.466,170.343 176.130 C 169.939 176.794,169.047 177.670,168.362 178.076 C 167.676 178.482,166.888 179.333,166.609 179.968 C 166.331 180.603,165.523 181.481,164.813 181.920 C 164.103 182.358,163.181 183.297,162.763 184.006 C 162.344 184.714,161.489 185.598,160.861 185.969 C 160.233 186.339,159.434 187.126,159.086 187.716 C 158.737 188.307,157.857 189.157,157.130 189.607 C 156.403 190.056,155.459 190.988,155.033 191.678 C 154.606 192.368,153.794 193.181,153.228 193.484 C 152.662 193.787,151.779 194.699,151.266 195.511 C 150.754 196.323,149.869 197.257,149.302 197.585 C 148.734 197.913,147.921 198.719,147.495 199.375 C 147.069 200.031,146.178 200.916,145.513 201.341 C 144.849 201.767,144.008 202.609,143.646 203.213 C 143.283 203.816,142.412 204.649,141.710 205.063 C 141.007 205.478,140.077 206.419,139.643 207.155 C 139.209 207.891,138.376 208.769,137.792 209.107 C 137.208 209.444,136.382 210.257,135.957 210.913 C 135.531 211.569,134.660 212.448,134.021 212.867 C 133.382 213.286,132.517 214.151,132.098 214.790 C 131.679 215.429,130.814 216.295,130.175 216.713 C 129.536 217.132,128.669 218.000,128.249 218.641 C 127.829 219.283,126.867 220.099,126.111 220.455 C 125.356 220.811,124.469 221.512,124.142 222.012 C 123.131 223.555,107.728 230.911,103.695 231.776 C 93.559 233.952,81.606 229.635,70.599 219.821 C 61.223 211.461,57.689 208.151,54.832 205.047 C 52.636 202.662,51.265 201.517,49.949 200.969 C 47.324 199.876,46.207 196.286,46.660 190.403 C 47.017 185.783,47.548 184.601,49.808 183.405 C 51.244 182.644,63.820 170.327,99.481 134.751 C 170.745 63.659,191.618 42.960,193.294 41.724 C 194.126 41.109,195.591 39.893,196.548 39.022 C 200.707 35.238,205.655 34.088,212.000 35.431 M135.962 57.372 C 135.538 57.606,134.793 58.159,134.306 58.601 C 133.724 59.128,133.496 59.205,133.642 58.825 C 133.878 58.209,135.700 56.943,136.346 56.945 C 136.558 56.946,136.385 57.138,135.962 57.372 M119.842 73.106 C 119.294 73.757,118.846 74.478,118.846 74.709 C 118.846 74.940,118.746 75.028,118.623 74.905 C 118.352 74.634,119.000 73.363,119.833 72.530 C 120.878 71.485,120.884 71.868,119.842 73.106 M109.038 84.295 C 108.615 84.529,107.870 85.082,107.382 85.524 C 106.801 86.051,106.572 86.128,106.718 85.748 C 106.955 85.132,108.777 83.866,109.423 83.868 C 109.635 83.869,109.462 84.061,109.038 84.295 M92.919 100.030 C 92.371 100.680,91.923 101.402,91.923 101.632 C 91.923 101.863,91.823 101.951,91.700 101.828 C 91.429 101.557,92.077 100.286,92.910 99.453 C 93.955 98.408,93.961 98.791,92.919 100.030 M85.962 107.372 C 85.538 107.606,84.793 108.159,84.306 108.601 C 83.724 109.128,83.496 109.205,83.642 108.825 C 83.878 108.209,85.700 106.943,86.346 106.945 C 86.558 106.946,86.385 107.138,85.962 107.372 M365.025 149.883 C 365.632 150.242,366.231 150.801,366.355 151.124 C 366.507 151.520,366.291 151.449,365.694 150.909 C 365.207 150.467,364.462 149.914,364.038 149.680 C 363.615 149.446,363.416 149.249,363.595 149.242 C 363.773 149.236,364.417 149.524,365.025 149.883 M215.000 156.115 C 217.010 157.025,219.123 158.266,219.696 158.873 C 220.268 159.480,221.346 160.231,222.091 160.542 C 222.836 160.853,223.774 161.649,224.176 162.311 C 224.579 162.972,225.491 163.805,226.204 164.161 C 226.917 164.516,227.788 165.385,228.140 166.090 C 228.493 166.796,229.358 167.661,230.064 168.013 C 230.769 168.366,231.646 169.254,232.012 169.988 C 232.379 170.723,233.270 171.626,233.999 172.000 C 234.871 172.447,235.465 173.116,235.745 173.965 C 236.031 174.832,236.573 175.431,237.405 175.799 C 238.084 176.100,239.022 176.919,239.489 177.619 C 239.957 178.319,240.912 179.274,241.612 179.741 C 242.312 180.208,243.131 181.148,243.433 181.829 C 243.734 182.511,244.340 183.176,244.779 183.309 C 245.902 183.648,247.204 184.919,247.455 185.921 C 247.574 186.395,248.270 187.056,249.031 187.419 C 249.837 187.803,250.643 188.593,251.005 189.353 C 251.342 190.059,252.197 190.949,252.904 191.330 C 253.611 191.711,254.467 192.605,254.805 193.318 C 255.143 194.031,255.943 194.885,256.583 195.215 C 257.223 195.546,258.091 196.401,258.512 197.115 C 258.934 197.829,259.881 198.769,260.617 199.203 C 261.353 199.637,262.250 200.512,262.612 201.148 C 262.973 201.783,263.386 202.304,263.528 202.305 C 264.076 202.310,266.236 204.396,266.550 205.223 C 266.732 205.701,267.358 206.322,267.942 206.603 C 268.527 206.885,269.446 207.767,269.986 208.563 C 270.526 209.359,271.520 210.347,272.196 210.757 C 272.871 211.168,273.695 212.028,274.026 212.669 C 274.357 213.309,275.157 214.106,275.803 214.440 C 276.449 214.774,277.332 215.649,277.766 216.384 C 278.199 217.119,279.065 217.984,279.689 218.307 C 280.313 218.630,281.178 219.495,281.612 220.230 C 282.045 220.965,282.911 221.831,283.535 222.153 C 284.159 222.476,285.014 223.324,285.436 224.038 C 285.857 224.753,286.804 225.692,287.540 226.126 C 288.276 226.561,289.168 227.422,289.523 228.040 C 289.878 228.658,290.650 229.449,291.238 229.796 C 291.826 230.144,292.308 230.575,292.308 230.755 C 292.308 230.935,293.389 232.192,294.712 233.549 C 296.034 234.905,298.673 237.627,300.577 239.597 C 302.481 241.567,304.990 243.972,306.154 244.941 C 308.964 247.281,316.200 254.300,327.521 265.668 C 332.626 270.794,337.468 275.517,338.281 276.163 C 342.493 279.510,356.229 293.582,359.329 297.726 C 364.717 304.927,365.586 312.758,361.822 320.192 C 358.357 327.034,338.933 344.750,332.132 347.270 C 330.642 347.822,328.212 349.002,326.731 349.891 C 318.987 354.542,307.143 354.065,300.564 348.836 C 299.748 348.188,298.516 347.389,297.826 347.062 C 295.444 345.931,290.511 341.336,272.692 323.643 C 262.856 313.876,253.510 304.693,251.923 303.237 C 248.117 299.743,229.962 281.550,219.808 271.054 C 210.373 261.301,210.201 261.159,207.552 260.885 C 204.895 260.611,202.264 261.901,200.197 264.490 C 198.873 266.149,169.585 295.753,157.346 307.804 C 154.723 310.387,149.531 315.597,145.808 319.383 C 125.869 339.655,125.117 340.364,120.112 343.571 C 116.411 345.943,115.429 346.429,111.769 347.698 C 110.056 348.292,107.356 349.263,105.769 349.856 C 100.744 351.735,95.892 351.475,89.231 348.969 C 86.375 347.895,83.671 346.904,83.222 346.767 C 79.191 345.537,57.134 326.914,52.882 321.150 C 52.310 320.375,51.170 319.568,49.950 319.075 C 47.176 317.955,46.757 316.776,46.794 310.192 C 46.832 303.331,47.274 302.012,49.878 300.976 C 51.491 300.333,52.804 299.186,57.173 294.601 C 66.327 284.993,104.824 246.989,112.781 239.704 C 116.955 235.883,121.397 231.480,122.651 229.920 C 123.906 228.360,127.133 224.928,129.821 222.292 C 132.510 219.656,139.072 213.173,144.404 207.885 C 156.144 196.241,188.247 164.622,191.060 161.932 C 192.171 160.870,193.309 160.000,193.589 160.000 C 193.868 160.000,194.516 159.550,195.029 159.000 C 196.025 157.931,200.346 155.593,202.885 154.750 C 206.047 153.699,210.866 154.242,215.000 156.115 M32.115 157.372 C 31.692 157.606,30.947 158.159,30.459 158.601 C 29.878 159.128,29.649 159.205,29.795 158.825 C 30.032 158.209,31.854 156.943,32.500 156.945 C 32.712 156.946,32.538 157.138,32.115 157.372 M23.688 165.414 C 23.140 166.065,22.692 166.873,22.692 167.209 C 22.692 167.545,22.590 167.718,22.465 167.593 C 22.115 167.243,22.616 165.996,23.481 165.068 C 24.662 163.800,24.822 164.067,23.688 165.414 M380.923 165.808 C 381.303 166.451,381.510 167.080,381.384 167.206 C 381.257 167.332,381.154 167.247,381.154 167.017 C 381.154 166.786,380.705 166.064,380.157 165.413 C 379.608 164.761,379.401 164.320,379.696 164.434 C 379.992 164.547,380.544 165.165,380.923 165.808 M384.839 173.661 C 385.226 174.381,385.421 175.092,385.272 175.241 C 385.122 175.391,385.000 175.238,385.000 174.901 C 385.000 174.565,384.551 173.757,384.003 173.105 C 383.455 172.453,383.260 172.017,383.570 172.136 C 383.880 172.255,384.451 172.942,384.839 173.661 M23.956 223.387 C 24.487 223.951,24.576 224.192,24.201 224.048 C 23.520 223.786,22.296 221.853,22.332 221.095 C 22.345 220.810,22.529 221.010,22.740 221.538 C 22.951 222.067,23.498 222.899,23.956 223.387 M384.839 222.493 C 384.451 223.212,383.880 223.898,383.570 224.017 C 383.260 224.136,383.455 223.701,384.003 223.049 C 384.551 222.397,385.000 221.589,385.000 221.253 C 385.000 220.916,385.122 220.763,385.272 220.913 C 385.421 221.062,385.226 221.773,384.839 222.493 M40.094 238.846 C 40.324 238.846,40.409 238.950,40.283 239.076 C 39.968 239.391,37.765 238.051,37.511 237.389 C 37.397 237.094,37.838 237.301,38.489 237.849 C 39.141 238.397,39.863 238.846,40.094 238.846 M370.168 237.424 C 369.970 237.940,368.019 239.232,367.441 239.229 C 367.262 239.229,367.659 238.896,368.323 238.491 C 368.988 238.086,369.647 237.568,369.788 237.339 C 370.146 236.761,370.401 236.818,370.168 237.424 M32.115 276.603 C 31.692 276.837,30.947 277.390,30.459 277.832 C 29.878 278.359,29.649 278.436,29.795 278.055 C 30.032 277.439,31.854 276.173,32.500 276.176 C 32.712 276.177,32.538 276.369,32.115 276.603 M23.688 284.645 C 23.140 285.296,22.692 286.103,22.692 286.440 C 22.692 286.776,22.590 286.949,22.465 286.824 C 22.115 286.473,22.616 285.227,23.481 284.299 C 24.662 283.030,24.822 283.297,23.688 284.645 M384.839 289.046 C 385.226 289.765,385.421 290.476,385.272 290.626 C 385.122 290.775,385.000 290.622,385.000 290.286 C 385.000 289.950,384.551 289.141,384.003 288.489 C 383.455 287.838,383.260 287.402,383.570 287.521 C 383.880 287.640,384.451 288.326,384.839 289.046 M384.839 337.877 C 384.451 338.597,383.880 339.283,383.570 339.402 C 383.260 339.521,383.455 339.085,384.003 338.434 C 384.551 337.782,385.000 336.973,385.000 336.637 C 385.000 336.301,385.122 336.148,385.272 336.297 C 385.421 336.447,385.226 337.158,384.839 337.877 M23.956 346.463 C 24.487 347.028,24.576 347.268,24.201 347.125 C 23.520 346.863,22.296 344.930,22.332 344.171 C 22.345 343.887,22.529 344.086,22.740 344.615 C 22.951 345.144,23.498 345.976,23.956 346.463 M380.923 345.731 C 380.544 346.373,379.992 346.992,379.696 347.105 C 379.401 347.218,379.608 346.778,380.157 346.126 C 380.705 345.474,381.154 344.752,381.154 344.522 C 381.154 344.291,381.257 344.206,381.384 344.332 C 381.510 344.459,381.303 345.088,380.923 345.731 M32.594 354.231 C 32.930 354.231,33.083 354.353,32.934 354.502 C 32.570 354.866,30.102 353.513,29.829 352.801 C 29.710 352.491,30.145 352.685,30.797 353.234 C 31.449 353.782,32.257 354.231,32.594 354.231 M374.014 352.809 C 373.816 353.325,371.865 354.617,371.287 354.614 C 371.108 354.613,371.505 354.281,372.170 353.876 C 372.834 353.471,373.493 352.952,373.635 352.723 C 373.992 352.145,374.247 352.202,374.014 352.809 M55.478 369.615 C 55.709 369.615,55.794 369.719,55.668 369.845 C 55.352 370.161,53.149 368.820,52.895 368.158 C 52.782 367.863,53.222 368.070,53.874 368.618 C 54.526 369.167,55.248 369.615,55.478 369.615 M67.209 377.308 C 67.545 377.308,67.698 377.430,67.549 377.579 C 67.186 377.943,64.717 376.590,64.444 375.878 C 64.325 375.567,64.761 375.762,65.413 376.311 C 66.064 376.859,66.873 377.308,67.209 377.308 M127.860 375.886 C 127.628 376.492,125.661 377.698,124.941 377.677 C 124.656 377.669,124.942 377.436,125.577 377.159 C 126.212 376.883,126.969 376.370,127.259 376.020 C 127.893 375.256,128.122 375.205,127.860 375.886 M278.747 377.308 C 279.084 377.308,279.237 377.430,279.087 377.579 C 278.724 377.943,276.256 376.590,275.983 375.878 C 275.864 375.567,276.299 375.762,276.951 376.311 C 277.603 376.859,278.411 377.308,278.747 377.308 M347.091 375.886 C 346.859 376.492,344.892 377.698,344.171 377.677 C 343.887 377.669,344.173 377.436,344.808 377.159 C 345.443 376.883,346.199 376.370,346.490 376.020 C 347.124 375.256,347.353 375.205,347.091 375.886 M87.601 381.418 C 87.233 381.514,86.541 381.518,86.062 381.426 C 85.584 381.334,85.885 381.255,86.731 381.251 C 87.577 381.247,87.968 381.322,87.601 381.418 M325.288 381.419 C 324.918 381.516,324.313 381.516,323.942 381.419 C 323.572 381.322,323.875 381.243,324.615 381.243 C 325.356 381.243,325.659 381.322,325.288 381.419 M95.865 381.820 C 94.966 381.901,93.495 381.901,92.596 381.820 C 91.697 381.739,92.433 381.673,94.231 381.673 C 96.029 381.673,96.764 381.739,95.865 381.820 " stroke="none" fill="#afd604" fill-rule="evenodd"></path><path id="path1" d="M203.768 50.786 C 202.985 51.200,202.033 51.977,201.653 52.513 C 198.692 56.690,201.620 53.714,151.887 103.077 C 114.251 140.432,102.802 151.858,88.462 166.374 C 82.627 172.280,77.579 176.966,75.511 178.396 C 71.984 180.836,72.522 185.630,76.627 188.345 C 77.953 189.222,80.163 190.905,81.538 192.084 C 82.913 193.263,85.420 195.224,87.108 196.441 C 100.542 206.125,100.046 206.400,138.826 167.789 C 188.930 117.904,193.146 113.653,196.947 109.170 C 203.651 101.265,211.213 101.210,215.304 109.038 C 216.051 110.469,253.722 148.445,271.385 165.575 C 277.710 171.709,283.539 177.436,284.340 178.301 C 287.383 181.591,301.936 195.938,302.587 196.289 C 302.962 196.491,304.727 197.971,306.508 199.578 L 309.747 202.500 313.816 202.500 C 318.372 202.500,319.489 202.118,323.462 199.201 C 324.625 198.347,326.529 197.021,327.692 196.255 C 328.856 195.488,330.933 193.751,332.308 192.394 C 333.683 191.037,335.720 189.319,336.835 188.575 C 341.615 185.386,341.607 180.712,336.815 177.882 C 336.134 177.480,334.076 175.692,332.241 173.910 C 330.406 172.127,328.480 170.389,327.962 170.046 C 327.444 169.703,321.138 163.538,313.948 156.346 C 306.758 149.154,298.645 141.095,295.919 138.438 C 293.192 135.780,289.923 132.534,288.654 131.224 C 287.385 129.913,280.462 122.954,273.269 115.758 C 266.077 108.563,259.933 102.406,259.615 102.077 C 258.420 100.836,252.287 94.776,251.479 94.038 C 251.016 93.615,249.326 91.896,247.723 90.218 C 246.119 88.540,244.396 86.809,243.892 86.372 C 242.966 85.568,231.309 73.939,227.288 69.808 C 223.053 65.457,220.889 63.309,220.172 62.745 C 218.825 61.685,212.779 55.059,211.106 52.807 C 209.018 49.999,206.547 49.318,203.768 50.786 M203.211 169.857 C 202.162 170.229,201.285 170.911,200.651 171.846 C 199.824 173.066,197.525 175.515,194.216 178.702 C 193.749 179.152,191.982 180.905,190.289 182.597 C 188.597 184.289,186.880 185.998,186.472 186.395 C 186.065 186.791,185.092 187.808,184.309 188.655 C 183.525 189.502,181.760 191.233,180.385 192.502 C 179.010 193.771,177.526 195.242,177.088 195.770 C 176.650 196.299,174.920 198.033,173.242 199.624 C 171.565 201.216,169.818 202.946,169.361 203.470 C 168.904 203.994,167.260 205.670,165.707 207.195 C 164.155 208.720,162.427 210.450,161.867 211.041 C 161.032 211.923,157.987 214.861,151.677 220.874 C 150.986 221.533,145.816 226.651,143.846 228.627 C 143.317 229.158,141.500 230.974,139.808 232.663 C 138.115 234.353,136.471 236.007,136.154 236.339 C 135.837 236.671,132.375 240.140,128.462 244.047 C 124.548 247.954,121.000 251.537,120.577 252.009 C 120.154 252.482,119.334 253.305,118.755 253.838 C 117.035 255.421,108.472 263.891,105.688 266.762 C 104.268 268.225,102.538 269.945,101.842 270.583 C 101.146 271.221,99.316 273.038,97.775 274.621 C 94.839 277.638,94.727 277.751,90.041 282.419 C 88.432 284.022,86.596 285.885,85.962 286.559 C 85.327 287.233,83.607 288.932,82.140 290.335 C 71.902 300.123,71.761 300.732,78.273 307.115 C 88.916 317.549,90.437 318.435,97.692 318.434 C 105.187 318.432,107.286 317.317,116.074 308.668 C 137.318 287.760,195.749 229.173,196.607 227.921 C 201.840 220.283,209.101 219.573,214.423 226.177 C 215.269 227.227,218.273 230.377,221.097 233.177 C 223.922 235.978,227.384 239.475,228.790 240.949 C 230.196 242.424,231.865 244.125,232.500 244.731 C 235.204 247.312,238.813 250.965,240.962 253.296 C 244.746 257.401,259.844 272.506,272.077 284.423 C 278.373 290.558,287.795 299.822,293.013 305.010 C 305.229 317.157,306.317 318.010,311.663 319.632 C 314.021 320.348,321.730 318.570,324.673 316.633 C 326.309 315.556,328.534 313.758,330.027 312.308 C 330.789 311.567,332.745 309.837,334.372 308.462 C 336.153 306.958,337.793 305.165,338.490 303.963 L 339.649 301.964 339.049 299.901 C 338.522 298.089,338.041 297.469,335.090 294.800 C 330.166 290.346,326.086 286.375,309.374 269.765 C 301.097 261.538,290.453 250.964,285.720 246.265 C 280.987 241.567,272.962 233.575,267.885 228.506 C 262.808 223.437,258.221 218.880,257.692 218.381 C 257.163 217.881,255.662 216.354,254.356 214.986 C 253.050 213.619,249.675 210.227,246.856 207.448 C 244.037 204.669,237.802 198.438,232.999 193.602 C 228.197 188.765,222.050 182.644,219.339 180.000 C 216.628 177.356,213.375 174.022,212.109 172.591 C 209.107 169.197,206.947 168.533,203.211 169.857 " stroke="none" fill="#f3f3f3" fill-rule="evenodd"></path><path id="path2" d="M203.462 39.568 C 202.510 39.946,201.058 40.717,200.235 41.281 C 199.412 41.846,198.547 42.309,198.312 42.312 C 197.120 42.323,188.045 51.056,150.669 88.164 C 70.994 167.266,58.791 179.544,56.209 183.201 C 49.309 192.973,50.859 197.285,66.514 211.872 C 83.940 228.109,94.394 231.631,109.328 226.294 C 118.086 223.165,118.175 223.087,153.654 187.742 C 170.365 171.093,186.375 155.223,189.231 152.475 C 192.087 149.727,196.067 145.738,198.077 143.612 C 205.478 135.779,209.602 136.290,218.573 146.154 C 220.977 148.798,231.404 159.269,241.743 169.423 C 252.082 179.577,266.434 193.762,273.636 200.946 C 295.004 222.259,298.311 225.136,304.645 227.921 C 314.802 232.386,330.182 228.862,340.860 219.621 C 367.747 196.353,367.409 189.420,338.077 162.500 C 334.798 159.491,306.500 131.431,275.192 100.145 L 218.269 43.261 213.996 41.054 C 209.174 38.562,206.831 38.232,203.462 39.568 M210.769 45.976 C 211.829 46.539,214.589 49.644,215.371 51.154 C 215.646 51.683,218.487 54.728,221.685 57.921 C 224.883 61.114,228.393 64.662,229.485 65.806 C 230.576 66.949,232.221 68.577,233.139 69.423 C 234.057 70.269,235.240 71.453,235.769 72.054 C 237.036 73.495,242.297 78.786,245.159 81.498 C 247.326 83.552,257.075 93.263,257.885 94.174 C 258.096 94.413,259.827 96.165,261.731 98.068 C 263.635 99.972,265.452 101.800,265.769 102.132 C 266.301 102.687,305.989 142.005,306.632 142.614 C 306.789 142.763,311.134 147.125,316.288 152.308 C 321.441 157.490,327.370 163.327,329.463 165.277 C 331.557 167.228,334.048 169.583,335.000 170.511 C 335.952 171.440,337.337 172.601,338.077 173.092 C 343.245 176.520,344.404 178.523,344.416 184.049 C 344.426 188.668,343.422 190.410,339.425 192.707 C 337.754 193.667,336.117 194.900,335.786 195.447 C 335.019 196.715,330.297 201.008,329.332 201.314 C 328.930 201.442,328.206 202.080,327.724 202.732 C 325.764 205.383,320.936 207.084,314.899 207.250 L 309.592 207.396 306.670 205.909 C 305.063 205.092,303.381 203.932,302.932 203.333 C 302.483 202.733,301.281 201.642,300.260 200.909 C 299.240 200.176,290.586 191.828,281.030 182.358 C 271.473 172.888,262.010 163.610,260.000 161.740 C 255.819 157.850,242.869 144.842,236.987 138.624 C 234.802 136.314,228.110 129.470,222.117 123.416 C 216.075 117.312,210.878 111.737,210.452 110.901 C 208.357 106.795,203.675 108.217,199.854 114.121 C 199.335 114.922,197.988 116.486,196.859 117.596 C 195.731 118.707,178.538 135.833,158.654 155.653 C 120.255 193.928,116.427 197.665,113.046 200.173 C 111.865 201.049,110.104 202.417,109.132 203.213 C 102.858 208.354,92.296 208.151,86.057 202.769 C 84.904 201.775,82.767 199.959,81.307 198.733 C 79.848 197.508,77.875 195.803,76.923 194.946 C 75.971 194.088,74.247 192.841,73.092 192.174 C 69.890 190.326,68.763 188.447,68.539 184.588 C 68.196 178.657,69.317 176.494,74.423 173.236 C 75.391 172.618,120.323 128.003,153.077 95.136 C 158.048 90.148,162.462 85.736,162.885 85.331 C 170.708 77.847,195.921 52.478,196.661 51.346 C 200.440 45.564,206.005 43.445,210.769 45.976 M203.479 158.097 C 202.325 158.512,200.929 159.286,200.377 159.815 C 199.825 160.344,198.045 161.598,196.422 162.600 C 193.977 164.111,189.341 168.536,169.331 188.462 C 133.566 224.076,121.985 235.425,115.577 241.138 C 107.612 248.239,60.081 295.684,57.379 299.231 C 51.463 306.995,50.640 310.567,53.652 315.406 C 57.400 321.429,58.267 322.414,66.460 329.960 C 79.838 342.284,84.793 345.140,94.650 346.209 C 104.086 347.232,112.251 345.041,120.769 339.197 C 123.943 337.020,189.504 271.817,198.366 262.024 C 201.815 258.212,204.088 256.923,207.360 256.923 C 210.612 256.923,211.031 257.275,224.038 270.958 C 230.793 278.063,249.406 296.762,254.078 301.138 C 255.537 302.504,264.779 311.595,274.615 321.341 C 299.066 345.567,300.407 346.571,309.755 347.662 C 325.284 349.474,338.875 342.290,355.472 323.497 C 365.182 312.503,362.864 304.480,344.904 286.923 C 339.818 281.952,328.976 271.288,320.810 263.226 C 312.643 255.164,304.663 247.386,303.077 245.941 C 297.205 240.596,286.674 230.237,253.037 196.721 C 232.105 175.863,217.986 162.080,217.075 161.616 C 216.251 161.195,215.254 160.494,214.859 160.057 C 213.053 158.060,206.645 156.956,203.479 158.097 M210.577 164.025 C 211.946 164.604,213.168 165.762,215.000 168.214 C 215.740 169.205,225.997 179.747,237.793 191.642 C 249.589 203.537,259.496 213.529,259.808 213.846 C 260.120 214.163,261.719 215.789,263.361 217.458 C 265.003 219.128,266.833 220.945,267.429 221.497 C 268.024 222.049,269.791 223.798,271.355 225.385 C 272.919 226.971,274.471 228.529,274.805 228.846 C 275.139 229.163,278.699 232.712,282.716 236.731 C 286.734 240.750,290.146 244.159,290.299 244.306 C 290.452 244.453,298.574 252.501,308.348 262.191 C 318.122 271.880,328.676 282.231,331.802 285.192 C 334.928 288.154,338.675 291.702,340.128 293.077 C 343.113 295.902,344.019 297.423,344.366 300.192 C 344.829 303.881,343.436 306.926,339.750 310.286 C 331.456 317.847,329.515 319.473,327.692 320.387 C 326.740 320.864,325.529 321.555,325.000 321.923 C 317.402 327.211,312.692 327.644,306.731 323.605 C 300.748 319.550,299.862 318.869,299.180 317.806 C 298.801 317.214,297.995 316.403,297.388 316.003 C 296.782 315.602,295.888 314.694,295.401 313.983 C 294.914 313.273,294.362 312.692,294.174 312.692 C 293.915 312.692,282.231 301.103,275.289 293.961 C 273.305 291.920,268.382 286.987,267.497 286.154 C 266.936 285.625,264.761 283.505,262.664 281.442 C 260.567 279.380,258.681 277.692,258.472 277.692 C 258.264 277.692,256.921 276.478,255.489 274.993 C 254.057 273.509,252.487 271.908,252.002 271.436 C 249.956 269.445,245.615 265.017,243.431 262.692 C 236.842 255.678,233.430 252.070,232.989 251.647 C 232.334 251.019,225.679 244.413,225.192 243.907 C 224.981 243.688,223.596 242.422,222.115 241.096 C 220.635 239.769,219.030 238.118,218.549 237.427 C 218.069 236.736,217.102 235.777,216.401 235.297 C 214.941 234.297,211.102 230.219,210.444 228.970 C 209.237 226.678,202.196 227.100,201.191 229.525 C 200.951 230.104,199.478 231.875,197.916 233.462 C 196.354 235.048,194.843 236.587,194.558 236.882 C 194.272 237.176,192.481 238.949,190.577 240.820 C 188.673 242.691,186.856 244.526,186.538 244.896 C 186.221 245.266,184.592 246.869,182.918 248.458 C 180.016 251.212,172.269 258.996,169.799 261.640 C 169.159 262.325,168.337 263.144,167.971 263.462 C 167.606 263.779,164.322 267.094,160.673 270.827 C 157.024 274.561,153.488 277.891,152.816 278.227 C 152.143 278.563,151.491 279.159,151.367 279.551 C 151.242 279.944,149.715 281.599,147.974 283.231 C 146.232 284.862,144.593 286.404,144.331 286.656 C 144.070 286.909,142.778 288.327,141.462 289.808 C 140.145 291.288,138.413 292.991,137.611 293.591 C 136.810 294.191,136.154 294.849,136.154 295.054 C 136.154 295.439,128.948 302.653,121.682 309.541 C 116.811 314.158,117.422 313.561,114.156 316.896 C 104.510 326.746,91.602 326.642,81.599 316.633 C 79.961 314.994,78.023 313.194,77.292 312.631 C 66.396 304.254,66.060 298.535,75.962 290.042 C 79.305 287.175,78.900 287.574,88.084 278.077 C 92.277 273.740,96.976 268.962,98.527 267.458 C 100.077 265.954,101.779 264.239,102.308 263.646 C 102.837 263.054,103.836 262.034,104.528 261.380 C 105.221 260.727,112.663 253.403,121.067 245.104 C 129.470 236.806,136.661 229.710,137.046 229.335 C 137.431 228.960,139.021 227.356,140.579 225.769 C 142.137 224.183,143.899 222.431,144.494 221.877 C 145.090 221.323,146.019 220.371,146.558 219.762 C 147.098 219.152,148.829 217.416,150.405 215.903 C 153.362 213.063,153.551 212.874,158.191 208.127 C 159.715 206.568,161.394 204.873,161.923 204.361 C 162.452 203.849,164.203 202.115,165.814 200.509 C 167.424 198.903,169.112 197.222,169.563 196.775 C 188.291 178.218,195.769 170.692,195.769 170.404 C 195.769 170.208,196.418 169.259,197.212 168.297 C 198.005 167.334,199.000 166.099,199.424 165.553 C 201.054 163.449,207.221 162.605,210.577 164.025 " stroke="none" fill="#111508" fill-rule="evenodd"></path><path id="path3" d="M173.374 19.132 C 172.798 19.490,172.226 20.044,172.103 20.363 C 171.965 20.722,172.218 20.626,172.767 20.110 C 173.255 19.652,174.087 19.104,174.616 18.894 C 175.144 18.683,175.317 18.504,175.000 18.496 C 174.683 18.488,173.951 18.775,173.374 19.132 M229.231 18.894 C 229.759 19.104,230.591 19.652,231.079 20.110 C 231.644 20.641,231.884 20.730,231.740 20.355 C 231.478 19.673,229.546 18.450,228.787 18.486 C 228.502 18.499,228.702 18.683,229.231 18.894 M158.294 34.068 C 157.461 34.901,156.814 36.173,157.084 36.443 C 157.207 36.566,157.308 36.478,157.308 36.247 C 157.308 36.017,157.756 35.296,158.303 34.645 C 159.346 33.406,159.339 33.023,158.294 34.068 M202.249 35.534 C 200.164 36.095,198.944 36.842,196.548 39.022 C 195.591 39.893,194.126 41.109,193.294 41.724 C 191.618 42.960,170.745 63.659,99.481 134.751 C 63.820 170.327,51.244 182.644,49.808 183.405 C 47.548 184.601,47.017 185.783,46.660 190.403 C 46.207 196.286,47.324 199.876,49.949 200.969 C 51.265 201.517,52.636 202.662,54.832 205.047 C 57.689 208.151,61.223 211.461,70.599 219.821 C 81.606 229.635,93.559 233.952,103.695 231.776 C 107.728 230.911,123.131 223.555,124.142 222.012 C 124.469 221.512,125.356 220.811,126.111 220.455 C 126.867 220.099,127.829 219.283,128.249 218.641 C 128.669 218.000,129.536 217.132,130.175 216.713 C 130.814 216.295,131.679 215.429,132.098 214.790 C 132.517 214.151,133.382 213.286,134.021 212.867 C 134.660 212.448,135.531 211.569,135.957 210.913 C 136.382 210.257,137.208 209.444,137.792 209.107 C 138.376 208.769,139.209 207.891,139.643 207.155 C 140.077 206.419,141.007 205.478,141.710 205.063 C 142.412 204.649,143.283 203.816,143.646 203.213 C 144.008 202.609,144.849 201.767,145.513 201.341 C 146.178 200.916,147.069 200.031,147.495 199.375 C 147.921 198.719,148.734 197.913,149.302 197.585 C 149.869 197.257,150.754 196.323,151.266 195.511 C 151.779 194.699,152.662 193.787,153.228 193.484 C 153.794 193.181,154.606 192.368,155.033 191.678 C 155.459 190.988,156.403 190.056,157.130 189.607 C 157.857 189.157,158.737 188.307,159.086 187.716 C 159.434 187.126,160.233 186.339,160.861 185.969 C 161.489 185.598,162.344 184.714,162.763 184.006 C 163.181 183.297,164.103 182.358,164.813 181.920 C 165.523 181.481,166.331 180.603,166.609 179.968 C 166.888 179.333,167.676 178.482,168.362 178.076 C 169.047 177.670,169.939 176.794,170.343 176.130 C 170.746 175.466,171.615 174.596,172.273 174.196 C 172.930 173.796,173.796 172.930,174.196 172.273 C 174.596 171.615,175.461 170.750,176.119 170.350 C 176.777 169.950,177.642 169.084,178.042 168.427 C 178.442 167.769,179.313 166.900,179.977 166.496 C 180.641 166.093,181.515 165.201,181.920 164.516 C 182.325 163.830,183.249 162.950,183.975 162.560 C 184.700 162.170,185.529 161.410,185.818 160.871 C 186.106 160.332,186.979 159.489,187.756 158.998 C 188.534 158.507,189.465 157.607,189.825 156.998 C 190.185 156.389,190.880 155.647,191.371 155.349 C 192.259 154.810,195.039 151.770,199.423 146.543 C 205.586 139.196,210.565 140.279,218.077 150.602 C 218.817 151.619,220.245 153.252,221.250 154.230 C 222.255 155.208,223.077 156.193,223.077 156.419 C 223.077 156.645,223.836 157.452,224.763 158.212 C 225.691 158.972,226.556 160.017,226.686 160.534 C 226.831 161.115,227.474 161.744,228.365 162.180 C 229.255 162.614,230.018 163.362,230.356 164.130 C 230.657 164.815,231.263 165.484,231.702 165.617 C 232.826 165.956,234.127 167.227,234.379 168.231 C 234.498 168.705,235.149 169.328,235.847 169.637 C 236.537 169.943,237.497 170.784,237.980 171.508 C 238.462 172.231,239.376 173.138,240.009 173.523 C 240.643 173.909,241.488 174.762,241.888 175.420 C 242.288 176.077,243.159 176.946,243.823 177.350 C 244.487 177.753,245.382 178.680,245.812 179.410 C 246.242 180.139,246.930 180.842,247.339 180.972 C 247.749 181.102,248.645 181.909,249.331 182.765 C 250.016 183.621,250.852 184.431,251.189 184.565 C 252.326 185.016,258.911 191.283,272.661 205.000 C 291.966 224.259,295.428 227.207,302.885 230.735 C 314.651 236.303,331.108 232.755,342.692 222.153 C 353.628 212.144,360.354 204.961,361.946 201.588 C 365.470 194.125,364.375 186.936,358.465 178.733 C 355.350 174.410,351.220 170.225,337.352 157.340 C 333.495 153.756,244.636 65.035,229.503 49.658 C 226.162 46.263,222.626 42.831,221.647 42.031 C 220.667 41.231,219.015 39.752,217.976 38.743 C 214.385 35.255,208.069 33.966,202.249 35.534 M213.996 41.054 L 218.269 43.261 275.192 100.145 C 306.500 131.431,334.798 159.491,338.077 162.500 C 367.409 189.420,367.747 196.353,340.860 219.621 C 330.182 228.862,314.802 232.386,304.645 227.921 C 298.311 225.136,295.004 222.259,273.636 200.946 C 266.434 193.762,252.082 179.577,241.743 169.423 C 231.404 159.269,220.977 148.798,218.573 146.154 C 209.602 136.290,205.478 135.779,198.077 143.612 C 196.067 145.738,192.087 149.727,189.231 152.475 C 186.375 155.223,170.365 171.093,153.654 187.742 C 118.175 223.087,118.086 223.165,109.328 226.294 C 94.394 231.631,83.940 228.109,66.514 211.872 C 50.859 197.285,49.309 192.973,56.209 183.201 C 60.991 176.427,196.243 42.331,198.312 42.312 C 198.547 42.309,199.412 41.846,200.235 41.281 C 204.898 38.082,208.139 38.028,213.996 41.054 M202.912 45.543 C 200.921 46.096,198.812 48.054,196.661 51.346 C 195.921 52.478,170.708 77.847,162.885 85.331 C 162.462 85.736,158.048 90.148,153.077 95.136 C 120.323 128.003,75.391 172.618,74.423 173.236 C 69.317 176.494,68.196 178.657,68.539 184.588 C 68.763 188.447,69.890 190.326,73.092 192.174 C 74.247 192.841,75.971 194.088,76.923 194.946 C 77.875 195.803,79.848 197.508,81.307 198.733 C 82.767 199.959,84.904 201.775,86.057 202.769 C 92.296 208.151,102.858 208.354,109.132 203.213 C 110.104 202.417,111.865 201.049,113.046 200.173 C 116.427 197.665,120.255 193.928,158.654 155.653 C 178.538 135.833,195.731 118.707,196.859 117.596 C 197.988 116.486,199.335 114.922,199.854 114.121 C 203.675 108.217,208.357 106.795,210.452 110.901 C 210.878 111.737,216.075 117.312,222.117 123.416 C 228.110 129.470,234.802 136.314,236.987 138.624 C 242.869 144.842,255.819 157.850,260.000 161.740 C 262.010 163.610,271.473 172.888,281.030 182.358 C 290.586 191.828,299.240 200.176,300.260 200.909 C 301.281 201.642,302.483 202.733,302.932 203.333 C 303.381 203.932,305.063 205.092,306.670 205.909 L 309.592 207.396 314.899 207.250 C 320.936 207.084,325.764 205.383,327.724 202.732 C 328.206 202.080,328.930 201.442,329.332 201.314 C 330.297 201.008,335.019 196.715,335.786 195.447 C 336.117 194.900,337.754 193.667,339.425 192.707 C 343.422 190.410,344.426 188.668,344.416 184.049 C 344.404 178.523,343.245 176.520,338.077 173.092 C 337.337 172.601,335.952 171.440,335.000 170.511 C 334.048 169.583,331.557 167.228,329.463 165.277 C 327.370 163.327,321.441 157.490,316.288 152.308 C 311.134 147.125,306.789 142.763,306.632 142.614 C 305.989 142.005,266.301 102.687,265.769 102.132 C 265.452 101.800,263.635 99.972,261.731 98.068 C 259.827 96.165,258.096 94.413,257.885 94.174 C 257.075 93.263,247.326 83.552,245.159 81.498 C 242.297 78.786,237.036 73.495,235.769 72.054 C 235.240 71.453,234.057 70.269,233.139 69.423 C 232.221 68.577,230.576 66.949,229.485 65.806 C 228.393 64.662,224.883 61.114,221.685 57.921 C 218.487 54.728,215.646 51.683,215.371 51.154 C 212.809 46.211,208.117 44.098,202.912 45.543 M209.143 47.760 C 210.027 48.029,211.218 49.131,213.153 51.475 C 214.667 53.308,220.245 59.182,225.549 64.529 C 248.179 87.342,321.379 160.261,327.115 165.705 C 329.442 167.914,332.385 170.726,333.654 171.954 C 334.923 173.183,337.078 175.020,338.443 176.036 C 344.070 180.227,344.282 186.131,338.948 190.114 C 337.758 191.003,335.387 193.041,333.680 194.641 C 324.742 203.025,320.134 205.294,312.801 204.925 C 307.167 204.642,306.011 203.702,282.115 179.982 C 272.808 170.743,263.332 161.472,261.059 159.380 C 258.786 157.288,252.815 151.363,247.790 146.213 C 242.765 141.063,233.745 131.889,227.745 125.828 C 221.746 119.767,215.412 113.163,213.671 111.154 C 207.594 104.138,205.009 104.111,199.166 110.997 C 192.991 118.276,115.357 195.246,110.513 198.893 C 99.465 207.210,94.562 206.746,82.115 196.209 C 80.846 195.134,78.520 193.254,76.947 192.031 C 71.692 187.947,71.149 187.335,70.569 184.841 C 69.740 181.273,70.545 179.377,74.231 176.225 C 75.817 174.868,93.921 157.032,114.462 136.590 C 135.002 116.148,161.692 89.594,173.772 77.581 C 185.853 65.569,197.001 54.232,198.546 52.389 C 202.726 47.403,204.872 46.466,209.143 47.760 M134.913 57.594 C 134.336 57.951,133.764 58.505,133.642 58.825 C 133.496 59.205,133.724 59.128,134.306 58.601 C 134.793 58.159,135.538 57.606,135.962 57.372 C 136.385 57.138,136.558 56.946,136.346 56.945 C 136.135 56.944,135.490 57.236,134.913 57.594 M119.833 72.530 C 119.000 73.363,118.352 74.634,118.623 74.905 C 118.746 75.028,118.846 74.940,118.846 74.709 C 118.846 74.478,119.294 73.757,119.842 73.106 C 120.884 71.868,120.878 71.485,119.833 72.530 M107.990 84.517 C 107.413 84.875,106.841 85.428,106.718 85.748 C 106.572 86.128,106.801 86.051,107.382 85.524 C 107.870 85.082,108.615 84.529,109.038 84.295 C 109.462 84.061,109.635 83.869,109.423 83.868 C 109.212 83.867,108.567 84.159,107.990 84.517 M92.910 99.453 C 92.077 100.286,91.429 101.557,91.700 101.828 C 91.823 101.951,91.923 101.863,91.923 101.632 C 91.923 101.402,92.371 100.680,92.919 100.030 C 93.961 98.791,93.955 98.408,92.910 99.453 M84.913 107.594 C 84.336 107.951,83.764 108.505,83.642 108.825 C 83.496 109.205,83.724 109.128,84.306 108.601 C 84.793 108.159,85.538 107.606,85.962 107.372 C 86.385 107.138,86.558 106.946,86.346 106.945 C 86.135 106.944,85.490 107.236,84.913 107.594 M77.846 114.525 C 77.613 114.681,76.972 115.528,76.420 116.408 C 75.869 117.289,74.726 118.398,73.881 118.873 C 73.035 119.348,72.249 119.982,72.134 120.281 C 71.674 121.480,75.871 117.770,77.625 115.426 C 78.543 114.200,78.584 114.032,77.846 114.525 M364.038 149.680 C 364.462 149.914,365.207 150.467,365.694 150.909 C 366.291 151.449,366.507 151.520,366.355 151.124 C 366.129 150.534,364.202 149.221,363.595 149.242 C 363.416 149.249,363.615 149.446,364.038 149.680 M202.885 154.750 C 200.346 155.593,196.025 157.931,195.029 159.000 C 194.516 159.550,193.868 160.000,193.589 160.000 C 193.309 160.000,192.171 160.870,191.060 161.932 C 188.247 164.622,156.144 196.241,144.404 207.885 C 139.072 213.173,132.510 219.656,129.821 222.292 C 127.133 224.928,123.906 228.360,122.651 229.920 C 121.397 231.480,116.955 235.883,112.781 239.704 C 104.824 246.989,66.327 284.993,57.173 294.601 C 52.804 299.186,51.491 300.333,49.878 300.976 C 47.274 302.012,46.832 303.331,46.794 310.192 C 46.757 316.776,47.176 317.955,49.950 319.075 C 51.170 319.568,52.310 320.375,52.882 321.150 C 57.134 326.914,79.191 345.537,83.222 346.767 C 83.671 346.904,86.375 347.895,89.231 348.969 C 95.892 351.475,100.744 351.735,105.769 349.856 C 107.356 349.263,110.056 348.292,111.769 347.698 C 115.429 346.429,116.411 345.943,120.112 343.571 C 125.117 340.364,125.869 339.655,145.808 319.383 C 149.531 315.597,154.723 310.387,157.346 307.804 C 169.585 295.753,198.873 266.149,200.197 264.490 C 202.264 261.901,204.895 260.611,207.552 260.885 C 210.201 261.159,210.373 261.301,219.808 271.054 C 229.962 281.550,248.117 299.743,251.923 303.237 C 253.510 304.693,262.856 313.876,272.692 323.643 C 290.511 341.336,295.444 345.931,297.826 347.062 C 298.516 347.389,299.748 348.188,300.564 348.836 C 307.143 354.065,318.987 354.542,326.731 349.891 C 328.212 349.002,330.642 347.822,332.132 347.270 C 338.933 344.750,358.357 327.034,361.822 320.192 C 365.586 312.758,364.717 304.927,359.329 297.726 C 356.229 293.582,342.493 279.510,338.281 276.163 C 337.468 275.517,332.626 270.794,327.521 265.668 C 316.200 254.300,308.964 247.281,306.154 244.941 C 304.990 243.972,302.481 241.567,300.577 239.597 C 298.673 237.627,296.034 234.905,294.712 233.549 C 293.389 232.192,292.308 230.935,292.308 230.755 C 292.308 230.575,291.826 230.144,291.238 229.796 C 290.650 229.449,289.878 228.658,289.523 228.040 C 289.168 227.422,288.276 226.561,287.540 226.126 C 286.804 225.692,285.857 224.753,285.436 224.038 C 285.014 223.324,284.159 222.476,283.535 222.153 C 282.911 221.831,282.045 220.965,281.612 220.230 C 281.178 219.495,280.313 218.630,279.689 218.307 C 279.065 217.984,278.199 217.119,277.766 216.384 C 277.332 215.649,276.449 214.774,275.803 214.440 C 275.157 214.106,274.357 213.309,274.026 212.669 C 273.695 212.028,272.871 211.168,272.196 210.757 C 271.520 210.347,270.526 209.359,269.986 208.563 C 269.446 207.767,268.527 206.885,267.942 206.603 C 267.358 206.322,266.732 205.701,266.550 205.223 C 266.236 204.396,264.076 202.310,263.528 202.305 C 263.386 202.304,262.973 201.783,262.612 201.148 C 262.250 200.512,261.353 199.637,260.617 199.203 C 259.881 198.769,258.934 197.829,258.512 197.115 C 258.091 196.401,257.223 195.546,256.583 195.215 C 255.943 194.885,255.143 194.031,254.805 193.318 C 254.467 192.605,253.611 191.711,252.904 191.330 C 252.197 190.949,251.342 190.059,251.005 189.353 C 250.643 188.593,249.837 187.803,249.031 187.419 C 248.270 187.056,247.574 186.395,247.455 185.921 C 247.204 184.919,245.902 183.648,244.779 183.309 C 244.340 183.176,243.734 182.511,243.433 181.829 C 243.131 181.148,242.312 180.208,241.612 179.741 C 240.912 179.274,239.957 178.319,239.489 177.619 C 239.022 176.919,238.084 176.100,237.405 175.799 C 236.573 175.431,236.031 174.832,235.745 173.965 C 235.465 173.116,234.871 172.447,233.999 172.000 C 233.270 171.626,232.379 170.723,232.012 169.988 C 231.646 169.254,230.769 168.366,230.064 168.013 C 229.358 167.661,228.493 166.796,228.140 166.090 C 227.788 165.385,226.917 164.516,226.204 164.161 C 225.491 163.805,224.579 162.972,224.176 162.311 C 223.774 161.649,222.836 160.853,222.091 160.542 C 221.346 160.231,220.268 159.480,219.696 158.873 C 216.560 155.552,207.304 153.282,202.885 154.750 M31.067 157.594 C 30.490 157.951,29.918 158.505,29.795 158.825 C 29.649 159.205,29.878 159.128,30.459 158.601 C 30.947 158.159,31.692 157.606,32.115 157.372 C 32.538 157.138,32.712 156.946,32.500 156.945 C 32.288 156.944,31.644 157.236,31.067 157.594 M211.782 158.504 C 213.080 158.922,214.464 159.621,214.859 160.057 C 215.254 160.494,216.251 161.195,217.075 161.616 C 217.986 162.080,232.105 175.863,253.037 196.721 C 286.674 230.237,297.205 240.596,303.077 245.941 C 304.663 247.386,312.643 255.164,320.810 263.226 C 328.976 271.288,339.818 281.952,344.904 286.923 C 362.864 304.480,365.182 312.503,355.472 323.497 C 338.875 342.290,325.284 349.474,309.755 347.662 C 300.407 346.571,299.066 345.567,274.615 321.341 C 264.779 311.595,255.537 302.504,254.078 301.138 C 249.406 296.762,230.793 278.063,224.038 270.958 C 211.031 257.275,210.612 256.923,207.360 256.923 C 204.088 256.923,201.815 258.212,198.366 262.024 C 189.504 271.817,123.943 337.020,120.769 339.197 C 106.460 349.013,91.041 349.011,77.010 339.191 C 72.784 336.233,58.239 322.464,56.414 319.693 C 48.251 307.301,47.784 308.100,84.692 271.314 C 98.506 257.546,112.404 243.967,115.577 241.138 C 121.985 235.425,133.566 224.076,169.331 188.462 C 189.341 168.536,193.977 164.111,196.422 162.600 C 198.045 161.598,199.825 160.344,200.377 159.815 C 202.896 157.402,206.923 156.939,211.782 158.504 M202.693 163.829 C 201.026 164.316,199.938 164.890,199.424 165.553 C 199.000 166.099,198.005 167.334,197.212 168.297 C 196.418 169.259,195.769 170.208,195.769 170.404 C 195.769 170.692,188.291 178.218,169.563 196.775 C 169.112 197.222,167.424 198.903,165.814 200.509 C 164.203 202.115,162.452 203.849,161.923 204.361 C 161.394 204.873,159.715 206.568,158.191 208.127 C 153.551 212.874,153.362 213.063,150.405 215.903 C 148.829 217.416,147.098 219.152,146.558 219.762 C 146.019 220.371,145.090 221.323,144.494 221.877 C 143.899 222.431,142.137 224.183,140.579 225.769 C 139.021 227.356,137.431 228.960,137.046 229.335 C 136.661 229.710,129.470 236.806,121.067 245.104 C 112.663 253.403,105.221 260.727,104.528 261.380 C 103.836 262.034,102.837 263.054,102.308 263.646 C 101.779 264.239,100.077 265.954,98.527 267.458 C 96.976 268.962,92.277 273.740,88.084 278.077 C 78.900 287.574,79.305 287.175,75.962 290.042 C 66.060 298.535,66.396 304.254,77.292 312.631 C 78.023 313.194,79.961 314.994,81.599 316.633 C 91.602 326.642,104.510 326.746,114.156 316.896 C 117.422 313.561,116.811 314.158,121.682 309.541 C 128.948 302.653,136.154 295.439,136.154 295.054 C 136.154 294.849,136.810 294.191,137.611 293.591 C 138.413 292.991,140.145 291.288,141.462 289.808 C 142.778 288.327,144.070 286.909,144.331 286.656 C 144.593 286.404,146.232 284.862,147.974 283.231 C 149.715 281.599,151.242 279.944,151.367 279.551 C 151.491 279.159,152.143 278.563,152.816 278.227 C 153.488 277.891,157.024 274.561,160.673 270.827 C 164.322 267.094,167.606 263.779,167.971 263.462 C 168.337 263.144,169.159 262.325,169.799 261.640 C 172.269 258.996,180.016 251.212,182.918 248.458 C 184.592 246.869,186.221 245.266,186.538 244.896 C 186.856 244.526,188.673 242.691,190.577 240.820 C 192.481 238.949,194.272 237.176,194.558 236.882 C 194.843 236.587,196.354 235.048,197.916 233.462 C 199.478 231.875,200.951 230.104,201.191 229.525 C 202.196 227.100,209.237 226.678,210.444 228.970 C 211.102 230.219,214.941 234.297,216.401 235.297 C 217.102 235.777,218.069 236.736,218.549 237.427 C 219.030 238.118,220.635 239.769,222.115 241.096 C 223.596 242.422,224.981 243.688,225.192 243.907 C 225.679 244.413,232.334 251.019,232.989 251.647 C 233.430 252.070,236.842 255.678,243.431 262.692 C 245.615 265.017,249.956 269.445,252.002 271.436 C 252.487 271.908,254.057 273.509,255.489 274.993 C 256.921 276.478,258.264 277.692,258.472 277.692 C 258.681 277.692,260.567 279.380,262.664 281.442 C 264.761 283.505,266.936 285.625,267.497 286.154 C 268.382 286.987,273.305 291.920,275.289 293.961 C 282.231 301.103,293.915 312.692,294.174 312.692 C 294.362 312.692,294.914 313.273,295.401 313.983 C 295.888 314.694,296.782 315.602,297.388 316.003 C 297.995 316.403,298.801 317.214,299.180 317.806 C 299.862 318.869,300.748 319.550,306.731 323.605 C 312.692 327.644,317.402 327.211,325.000 321.923 C 325.529 321.555,326.740 320.864,327.692 320.387 C 329.515 319.473,331.456 317.847,339.750 310.286 C 343.436 306.926,344.829 303.881,344.366 300.192 C 344.019 297.423,343.113 295.902,340.128 293.077 C 338.675 291.702,334.928 288.154,331.802 285.192 C 328.676 282.231,318.122 271.880,308.348 262.191 C 298.574 252.501,290.452 244.453,290.299 244.306 C 290.146 244.159,286.734 240.750,282.716 236.731 C 278.699 232.712,275.139 229.163,274.805 228.846 C 274.471 228.529,272.919 226.971,271.355 225.385 C 269.791 223.798,268.024 222.049,267.429 221.497 C 266.833 220.945,265.003 219.128,263.361 217.458 C 261.719 215.789,260.120 214.163,259.808 213.846 C 259.496 213.529,249.589 203.537,237.793 191.642 C 225.997 179.747,215.740 169.205,215.000 168.214 C 211.455 163.469,208.063 162.260,202.693 163.829 M23.481 165.068 C 22.616 165.996,22.115 167.243,22.465 167.593 C 22.590 167.718,22.692 167.545,22.692 167.209 C 22.692 166.873,23.140 166.065,23.688 165.414 C 24.822 164.067,24.662 163.800,23.481 165.068 M380.157 165.413 C 380.705 166.064,381.154 166.786,381.154 167.017 C 381.154 167.247,381.257 167.332,381.384 167.206 C 381.699 166.891,380.358 164.688,379.696 164.434 C 379.401 164.320,379.608 164.761,380.157 165.413 M210.004 166.673 C 210.334 166.916,216.743 173.326,224.245 180.918 C 255.254 212.297,321.356 278.119,333.548 289.757 C 341.857 297.690,342.300 298.279,342.306 301.410 C 342.317 308.085,322.738 323.197,314.011 323.250 L 310.906 323.269 306.763 320.771 C 302.798 318.379,301.886 317.541,285.445 301.180 C 275.998 291.779,266.279 282.194,263.846 279.878 C 255.927 272.342,244.556 261.020,242.338 258.462 C 236.965 252.265,209.614 225.480,208.414 225.241 C 204.598 224.477,202.398 225.277,199.672 228.417 C 196.751 231.782,115.700 312.803,111.943 316.113 C 108.763 318.915,105.087 320.601,100.179 321.508 C 95.328 322.405,87.811 319.845,84.020 316.005 C 82.952 314.923,80.183 312.326,77.866 310.233 C 70.811 303.860,69.413 300.676,72.109 297.115 C 73.265 295.588,105.157 263.688,154.974 214.231 C 177.240 192.125,196.705 172.567,198.230 170.769 C 202.125 166.177,207.017 164.475,210.004 166.673 M384.003 173.105 C 384.551 173.757,385.000 174.565,385.000 174.901 C 385.000 175.238,385.122 175.391,385.272 175.241 C 385.635 174.878,384.282 172.410,383.570 172.136 C 383.260 172.017,383.455 172.453,384.003 173.105 M22.332 221.095 C 22.296 221.853,23.520 223.786,24.201 224.048 C 24.576 224.192,24.487 223.951,23.956 223.387 C 23.498 222.899,22.951 222.067,22.740 221.538 C 22.529 221.010,22.345 220.810,22.332 221.095 M385.000 221.253 C 385.000 221.589,384.551 222.397,384.003 223.049 C 383.455 223.701,383.260 224.136,383.570 224.017 C 384.282 223.744,385.635 221.276,385.272 220.913 C 385.122 220.763,385.000 220.916,385.000 221.253 M37.511 237.389 C 37.765 238.051,39.968 239.391,40.283 239.076 C 40.409 238.950,40.324 238.846,40.094 238.846 C 39.863 238.846,39.141 238.397,38.489 237.849 C 37.838 237.301,37.397 237.094,37.511 237.389 M369.788 237.339 C 369.647 237.568,368.988 238.086,368.323 238.491 C 367.659 238.896,367.262 239.229,367.441 239.229 C 368.019 239.232,369.970 237.940,370.168 237.424 C 370.401 236.818,370.146 236.761,369.788 237.339 M31.067 276.825 C 30.490 277.182,29.918 277.736,29.795 278.055 C 29.649 278.436,29.878 278.359,30.459 277.832 C 30.947 277.390,31.692 276.837,32.115 276.603 C 32.538 276.369,32.712 276.177,32.500 276.176 C 32.288 276.175,31.644 276.467,31.067 276.825 M23.481 284.299 C 22.616 285.227,22.115 286.473,22.465 286.824 C 22.590 286.949,22.692 286.776,22.692 286.440 C 22.692 286.103,23.140 285.296,23.688 284.645 C 24.822 283.297,24.662 283.030,23.481 284.299 M384.003 288.489 C 384.551 289.141,385.000 289.950,385.000 290.286 C 385.000 290.622,385.122 290.775,385.272 290.626 C 385.635 290.262,384.282 287.794,383.570 287.521 C 383.260 287.402,383.455 287.838,384.003 288.489 M385.000 336.637 C 385.000 336.973,384.551 337.782,384.003 338.434 C 383.455 339.085,383.260 339.521,383.570 339.402 C 384.282 339.129,385.635 336.661,385.272 336.297 C 385.122 336.148,385.000 336.301,385.000 336.637 M22.332 344.171 C 22.296 344.930,23.520 346.863,24.201 347.125 C 24.576 347.268,24.487 347.028,23.956 346.463 C 23.498 345.976,22.951 345.144,22.740 344.615 C 22.529 344.086,22.345 343.887,22.332 344.171 M381.154 344.522 C 381.154 344.752,380.705 345.474,380.157 346.126 C 379.608 346.778,379.401 347.218,379.696 347.105 C 380.358 346.851,381.699 344.648,381.384 344.332 C 381.257 344.206,381.154 344.291,381.154 344.522 M245.211 345.103 C 245.326 345.403,246.121 346.042,246.978 346.523 C 247.869 347.024,248.969 348.116,249.549 349.077 C 250.107 350.000,250.795 350.844,251.079 350.953 C 251.704 351.193,250.264 349.220,248.599 347.555 C 246.882 345.838,244.959 344.447,245.211 345.103 M29.829 352.801 C 30.102 353.513,32.570 354.866,32.934 354.502 C 33.083 354.353,32.930 354.231,32.594 354.231 C 32.257 354.231,31.449 353.782,30.797 353.234 C 30.145 352.685,29.710 352.491,29.829 352.801 M373.635 352.723 C 373.493 352.952,372.834 353.471,372.170 353.876 C 371.505 354.281,371.108 354.613,371.287 354.614 C 371.865 354.617,373.816 353.325,374.014 352.809 C 374.247 352.202,373.992 352.145,373.635 352.723 M52.895 368.158 C 53.149 368.820,55.352 370.161,55.668 369.845 C 55.794 369.719,55.709 369.615,55.478 369.615 C 55.248 369.615,54.526 369.167,53.874 368.618 C 53.222 368.070,52.782 367.863,52.895 368.158 M64.444 375.878 C 64.717 376.590,67.186 377.943,67.549 377.579 C 67.698 377.430,67.545 377.308,67.209 377.308 C 66.873 377.308,66.064 376.859,65.413 376.311 C 64.761 375.762,64.325 375.567,64.444 375.878 M127.259 376.020 C 126.969 376.370,126.212 376.883,125.577 377.159 C 124.942 377.436,124.656 377.669,124.941 377.677 C 125.661 377.698,127.628 376.492,127.860 375.886 C 128.122 375.205,127.893 375.256,127.259 376.020 M275.983 375.878 C 276.256 376.590,278.724 377.943,279.087 377.579 C 279.237 377.430,279.084 377.308,278.747 377.308 C 278.411 377.308,277.603 376.859,276.951 376.311 C 276.299 375.762,275.864 375.567,275.983 375.878 M346.490 376.020 C 346.199 376.370,345.443 376.883,344.808 377.159 C 344.173 377.436,343.887 377.669,344.171 377.677 C 344.892 377.698,346.859 376.492,347.091 375.886 C 347.353 375.205,347.124 375.256,346.490 376.020 M86.062 381.426 C 86.541 381.518,87.233 381.514,87.601 381.418 C 87.968 381.322,87.577 381.247,86.731 381.251 C 85.885 381.255,85.584 381.334,86.062 381.426 M323.942 381.419 C 324.313 381.516,324.918 381.516,325.288 381.419 C 325.659 381.322,325.356 381.243,324.615 381.243 C 323.875 381.243,323.572 381.322,323.942 381.419 M92.596 381.820 C 93.495 381.901,94.966 381.901,95.865 381.820 C 96.764 381.739,96.029 381.673,94.231 381.673 C 92.433 381.673,91.697 381.739,92.596 381.820 M308.558 382.199 C 309.139 382.287,310.091 382.287,310.673 382.199 C 311.255 382.110,310.779 382.038,309.615 382.038 C 308.452 382.038,307.976 382.110,308.558 382.199 " stroke="none" fill="#606353" fill-rule="evenodd"></path><path id="path4" d="M203.405 47.997 C 201.905 48.759,200.602 49.937,198.546 52.389 C 197.001 54.232,185.853 65.569,173.772 77.581 C 161.692 89.594,135.002 116.148,114.462 136.590 C 93.921 157.032,75.817 174.868,74.231 176.225 C 70.545 179.377,69.740 181.273,70.569 184.841 C 71.149 187.335,71.692 187.947,76.947 192.031 C 78.520 193.254,80.846 195.134,82.115 196.209 C 94.562 206.746,99.465 207.210,110.513 198.893 C 115.357 195.246,192.991 118.276,199.166 110.997 C 205.009 104.111,207.594 104.138,213.671 111.154 C 215.412 113.163,221.746 119.767,227.745 125.828 C 233.745 131.889,242.765 141.063,247.790 146.213 C 252.815 151.363,258.786 157.288,261.059 159.380 C 263.332 161.472,272.808 170.743,282.115 179.982 C 306.011 203.702,307.167 204.642,312.801 204.925 C 320.134 205.294,324.742 203.025,333.680 194.641 C 335.387 193.041,337.758 191.003,338.948 190.114 C 344.282 186.131,344.070 180.227,338.443 176.036 C 337.078 175.020,334.923 173.183,333.654 171.954 C 332.385 170.726,329.442 167.914,327.115 165.705 C 321.379 160.261,248.179 87.342,225.549 64.529 C 220.245 59.182,214.667 53.308,213.153 51.475 C 209.493 47.043,207.021 46.161,203.405 47.997 M208.175 50.405 C 209.239 50.701,210.010 51.333,211.106 52.807 C 212.779 55.059,218.825 61.685,220.172 62.745 C 220.889 63.309,223.053 65.457,227.288 69.808 C 231.309 73.939,242.966 85.568,243.892 86.372 C 244.396 86.809,246.119 88.540,247.723 90.218 C 249.326 91.896,251.016 93.615,251.479 94.038 C 252.287 94.776,258.420 100.836,259.615 102.077 C 259.933 102.406,266.077 108.563,273.269 115.758 C 280.462 122.954,287.385 129.913,288.654 131.224 C 289.923 132.534,293.192 135.780,295.919 138.438 C 298.645 141.095,306.758 149.154,313.948 156.346 C 321.138 163.538,327.444 169.703,327.962 170.046 C 328.480 170.389,330.406 172.127,332.241 173.910 C 334.076 175.692,336.134 177.480,336.815 177.882 C 341.607 180.712,341.615 185.386,336.835 188.575 C 335.720 189.319,333.683 191.037,332.308 192.394 C 330.933 193.751,328.856 195.488,327.692 196.255 C 326.529 197.021,324.625 198.347,323.462 199.201 C 319.489 202.118,318.372 202.500,313.816 202.500 L 309.747 202.500 306.508 199.578 C 304.727 197.971,302.962 196.491,302.587 196.289 C 301.936 195.938,287.383 181.591,284.340 178.301 C 283.539 177.436,277.710 171.709,271.385 165.575 C 253.722 148.445,216.051 110.469,215.304 109.038 C 211.213 101.210,203.651 101.265,196.947 109.170 C 193.146 113.653,188.930 117.904,138.826 167.789 C 100.046 206.400,100.542 206.125,87.108 196.441 C 85.420 195.224,82.913 193.263,81.538 192.084 C 80.163 190.905,77.953 189.222,76.627 188.345 C 72.522 185.630,71.984 180.836,75.511 178.396 C 77.579 176.966,82.627 172.280,88.462 166.374 C 102.802 151.858,114.251 140.432,151.887 103.077 C 201.620 53.714,198.692 56.690,201.653 52.513 C 203.092 50.483,205.571 49.682,208.175 50.405 M203.098 166.629 C 201.396 167.337,200.483 168.113,198.230 170.769 C 196.705 172.567,177.240 192.125,154.974 214.231 C 105.157 263.688,73.265 295.588,72.109 297.115 C 69.413 300.676,70.811 303.860,77.866 310.233 C 80.183 312.326,82.952 314.923,84.020 316.005 C 87.811 319.845,95.328 322.405,100.179 321.508 C 105.087 320.601,108.763 318.915,111.943 316.113 C 115.700 312.803,196.751 231.782,199.672 228.417 C 202.398 225.277,204.598 224.477,208.414 225.241 C 209.614 225.480,236.965 252.265,242.338 258.462 C 244.556 261.020,255.927 272.342,263.846 279.878 C 266.279 282.194,275.998 291.779,285.445 301.180 C 301.886 317.541,302.798 318.379,306.763 320.771 L 310.906 323.269 314.011 323.250 C 320.995 323.208,338.590 311.109,341.577 304.295 C 343.530 299.840,342.884 298.671,333.548 289.757 C 321.356 278.119,255.254 212.297,224.245 180.918 C 207.508 163.982,208.254 164.486,203.098 166.629 M208.462 169.612 C 209.388 169.872,210.525 170.799,212.109 172.591 C 213.375 174.022,216.628 177.356,219.339 180.000 C 222.050 182.644,228.197 188.765,232.999 193.602 C 237.802 198.438,244.037 204.669,246.856 207.448 C 249.675 210.227,253.050 213.619,254.356 214.986 C 255.662 216.354,257.163 217.881,257.692 218.381 C 258.221 218.880,262.808 223.437,267.885 228.506 C 272.962 233.575,280.987 241.567,285.720 246.265 C 290.453 250.964,301.097 261.538,309.374 269.765 C 326.086 286.375,330.166 290.346,335.090 294.800 C 338.041 297.469,338.522 298.089,339.049 299.901 L 339.649 301.964 338.490 303.963 C 337.793 305.165,336.153 306.958,334.372 308.462 C 332.745 309.837,330.789 311.567,330.027 312.308 C 328.534 313.758,326.309 315.556,324.673 316.633 C 321.730 318.570,314.021 320.348,311.663 319.632 C 306.317 318.010,305.229 317.157,293.013 305.010 C 287.795 299.822,278.373 290.558,272.077 284.423 C 259.844 272.506,244.746 257.401,240.962 253.296 C 238.813 250.965,235.204 247.312,232.500 244.731 C 231.865 244.125,230.196 242.424,228.790 240.949 C 227.384 239.475,223.922 235.978,221.097 233.177 C 218.273 230.377,215.269 227.227,214.423 226.177 C 211.820 222.947,209.974 221.923,206.761 221.925 C 202.028 221.929,199.819 223.233,196.607 227.921 C 195.749 229.173,137.318 287.760,116.074 308.668 C 107.286 317.317,105.187 318.432,97.692 318.434 C 90.437 318.435,88.916 317.549,78.273 307.115 C 71.761 300.732,71.902 300.123,82.140 290.335 C 83.607 288.932,85.327 287.233,85.962 286.559 C 86.596 285.885,88.432 284.022,90.041 282.419 C 94.727 277.751,94.839 277.638,97.775 274.621 C 99.316 273.038,101.146 271.221,101.842 270.583 C 102.538 269.945,104.268 268.225,105.688 266.762 C 108.472 263.891,117.035 255.421,118.755 253.838 C 119.334 253.305,120.154 252.482,120.577 252.009 C 121.000 251.537,124.548 247.954,128.462 244.047 C 132.375 240.140,135.837 236.671,136.154 236.339 C 136.471 236.007,138.115 234.353,139.808 232.663 C 141.500 230.974,143.317 229.158,143.846 228.627 C 145.816 226.651,150.986 221.533,151.677 220.874 C 157.987 214.861,161.032 211.923,161.867 211.041 C 162.427 210.450,164.155 208.720,165.707 207.195 C 167.260 205.670,168.904 203.994,169.361 203.470 C 169.818 202.946,171.565 201.216,173.242 199.624 C 174.920 198.033,176.650 196.299,177.088 195.770 C 177.526 195.242,179.010 193.771,180.385 192.502 C 181.760 191.233,183.525 189.502,184.309 188.655 C 185.092 187.808,186.065 186.791,186.472 186.395 C 186.880 185.998,188.597 184.289,190.289 182.597 C 191.982 180.905,193.749 179.152,194.216 178.702 C 197.525 175.515,199.824 173.066,200.651 171.846 C 202.122 169.675,205.369 168.746,208.462 169.612 " stroke="none" fill="#888885" fill-rule="evenodd"></path></g></svg>