<svg id="svg" version="1.1" xmlns="http://www.w3.org/2000/svg" xmlns:xlink="http://www.w3.org/1999/xlink" width="400" height="384.6153846153846" viewBox="0, 0, 400,384.6153846153846"><g id="svgg"><path id="path0" d="M199.043 32.592 C 197.316 32.846,194.484 35.126,192.565 37.805 C 191.625 39.119,168.671 62.336,141.532 89.423 C 114.404 116.500,87.862 143.067,82.550 148.462 C 66.359 164.903,57.262 173.862,54.118 176.463 C 47.612 181.846,47.858 187.070,54.852 192.002 C 56.520 193.179,58.996 195.157,60.355 196.398 C 74.043 208.898,79.937 210.004,91.297 202.202 C 96.680 198.506,186.007 109.963,191.689 102.692 C 197.360 95.436,202.811 94.435,207.134 99.856 C 209.715 103.093,211.703 105.199,226.132 119.989 C 250.239 144.699,303.592 197.685,308.462 201.752 C 310.260 203.254,311.980 204.786,312.284 205.156 C 314.705 208.106,322.365 208.874,328.449 206.778 C 330.590 206.041,339.353 199.500,342.106 196.585 C 343.380 195.236,345.643 193.308,347.133 192.300 C 353.830 187.771,354.150 181.304,347.898 176.859 C 345.099 174.869,331.112 161.626,323.427 153.691 C 320.130 150.286,314.794 144.904,311.570 141.731 C 300.163 130.502,227.238 57.296,221.341 51.154 C 221.037 50.837,218.344 48.154,215.358 45.192 C 212.372 42.231,208.980 38.550,207.822 37.012 C 206.298 34.989,205.195 33.953,203.832 33.262 C 201.992 32.330,201.394 32.246,199.043 32.592 M203.353 35.821 C 204.084 36.273,205.436 37.701,206.357 38.994 C 207.278 40.288,213.104 46.491,219.304 52.779 C 242.096 75.894,335.257 169.070,336.550 170.044 C 337.284 170.596,339.280 172.426,340.986 174.110 C 342.692 175.794,345.060 177.817,346.248 178.606 C 351.574 182.141,351.369 186.467,345.695 190.314 C 344.149 191.362,342.190 192.975,341.340 193.898 C 339.246 196.174,337.069 197.987,335.414 198.832 C 334.658 199.219,333.000 200.347,331.731 201.340 C 327.731 204.468,325.330 205.470,321.325 205.682 L 317.842 205.866 315.075 203.847 C 313.553 202.737,312.308 201.683,312.308 201.506 C 312.308 201.328,311.313 200.506,310.096 199.680 C 308.880 198.853,306.584 196.813,304.994 195.146 C 303.405 193.479,301.068 191.144,299.802 189.957 C 298.536 188.771,296.808 187.040,295.962 186.111 C 295.115 185.183,293.511 183.644,292.396 182.692 C 291.280 181.740,289.755 180.183,289.007 179.231 C 288.258 178.279,286.432 176.431,284.950 175.125 C 283.468 173.819,281.670 172.002,280.955 171.087 C 280.240 170.172,278.428 168.385,276.929 167.115 C 275.429 165.846,273.750 164.156,273.198 163.359 C 272.646 162.562,270.792 160.724,269.078 159.274 C 265.974 156.647,248.301 139.063,237.692 128.046 C 234.625 124.861,227.529 117.628,221.923 111.973 C 216.317 106.319,211.038 100.756,210.192 99.612 C 204.188 91.494,196.748 91.694,190.283 100.147 C 188.469 102.519,113.166 178.593,108.576 182.691 C 107.984 183.219,106.288 184.943,104.808 186.521 C 103.327 188.100,101.515 189.918,100.781 190.561 C 100.048 191.204,97.882 193.221,95.968 195.042 C 94.055 196.863,91.713 198.744,90.764 199.221 C 89.815 199.698,88.519 200.469,87.885 200.936 C 81.920 205.318,77.554 205.529,72.185 201.693 C 70.878 200.759,69.207 199.718,68.473 199.380 C 67.738 199.041,65.575 197.340,63.665 195.599 C 61.755 193.857,59.154 191.728,57.885 190.867 C 50.383 185.779,50.132 182.567,56.847 177.607 C 57.972 176.775,62.301 172.660,66.466 168.461 C 87.128 147.632,102.708 132.017,103.702 131.140 C 104.310 130.604,106.052 128.873,107.573 127.294 C 111.102 123.632,116.599 118.113,117.713 117.115 C 118.185 116.692,119.888 115.012,121.497 113.381 C 123.106 111.751,129.150 105.693,134.928 99.920 C 140.705 94.147,147.629 87.209,150.312 84.502 C 152.996 81.796,156.461 78.334,158.012 76.810 C 159.563 75.286,164.796 70.058,169.642 65.192 C 174.488 60.327,179.515 55.308,180.813 54.038 C 187.124 47.865,193.077 41.783,193.077 41.507 C 193.077 41.204,195.273 38.468,197.122 36.467 C 197.983 35.535,198.746 35.279,201.301 35.062 C 201.699 35.028,202.623 35.370,203.353 35.821 M199.615 166.147 C 196.874 166.427,194.351 167.933,192.684 170.286 C 191.970 171.292,164.637 198.862,131.943 231.553 C 99.250 264.243,71.630 291.936,70.566 293.091 C 69.503 294.247,67.858 295.885,66.912 296.731 C 65.966 297.578,64.138 299.395,62.850 300.770 C 61.562 302.145,58.778 304.913,56.665 306.923 C 46.912 316.196,47.086 316.872,62.995 331.432 C 71.832 339.519,81.926 340.876,91.531 335.269 C 94.066 333.788,188.872 239.095,192.055 234.864 C 196.418 229.063,203.521 228.383,207.545 233.380 C 208.347 234.377,215.484 241.683,223.405 249.615 C 231.326 257.548,238.956 265.337,240.361 266.923 C 243.161 270.084,257.965 285.289,259.799 286.887 C 262.902 289.590,271.897 298.398,289.038 315.515 C 315.833 342.272,317.526 343.264,328.269 338.525 C 334.832 335.630,335.564 335.139,342.258 329.151 C 355.336 317.451,355.315 316.706,341.538 303.829 C 337.625 300.171,327.057 289.809,318.055 280.801 C 309.052 271.793,298.841 261.630,295.363 258.216 C 291.884 254.801,274.413 237.264,256.538 219.244 C 238.663 201.224,220.563 182.989,216.314 178.721 C 212.066 174.453,207.912 170.146,207.084 169.148 C 205.156 166.828,202.683 165.834,199.615 166.147 M203.788 170.163 C 204.866 170.709,206.035 171.705,206.610 172.567 C 207.769 174.303,210.936 177.498,212.325 178.332 C 212.864 178.655,213.708 179.509,214.202 180.229 C 214.696 180.950,216.332 182.663,217.838 184.035 C 219.345 185.408,220.837 186.806,221.154 187.141 C 221.471 187.477,225.279 191.345,229.615 195.737 C 233.952 200.129,238.643 204.919,240.040 206.381 C 241.438 207.842,243.168 209.558,243.887 210.192 C 244.605 210.827,246.333 212.558,247.728 214.038 C 249.122 215.519,250.750 217.163,251.346 217.692 C 251.942 218.221,263.302 229.558,276.591 242.885 C 289.880 256.212,301.025 267.375,301.356 267.692 C 301.688 268.010,303.330 269.654,305.006 271.346 C 308.185 274.557,308.286 274.658,313.269 279.633 C 314.962 281.322,316.558 282.918,316.818 283.179 C 327.314 293.745,332.074 298.479,335.229 301.488 C 337.364 303.526,340.739 306.767,342.729 308.691 C 344.718 310.615,346.795 312.477,347.344 312.830 C 349.675 314.329,349.504 319.185,347.046 321.261 C 346.489 321.731,343.143 324.712,339.610 327.885 L 333.187 333.654 328.228 335.262 C 321.854 337.328,321.607 337.374,319.242 336.925 C 315.114 336.142,310.928 333.644,306.694 329.436 C 299.367 322.153,296.987 319.806,295.955 318.846 C 295.386 318.317,293.684 316.613,292.172 315.058 C 290.660 313.503,288.849 311.686,288.148 311.019 C 287.447 310.353,285.716 308.624,284.302 307.177 C 276.242 298.929,266.357 289.360,261.731 285.328 C 260.250 284.037,258.779 282.613,258.462 282.163 C 258.144 281.713,254.553 278.008,250.481 273.930 C 246.409 269.851,243.077 266.342,243.077 266.131 C 243.077 265.920,236.128 258.786,227.635 250.278 C 219.142 241.769,211.281 233.667,210.168 232.274 C 204.204 224.809,195.503 224.718,190.987 232.071 C 189.381 234.686,187.172 237.372,185.940 238.209 C 185.244 238.682,183.526 240.361,182.123 241.939 C 180.720 243.517,178.994 245.240,178.287 245.769 C 177.580 246.298,175.658 248.245,174.015 250.096 C 172.373 251.947,170.898 253.462,170.739 253.462 C 170.579 253.462,169.179 254.768,167.628 256.365 C 166.077 257.962,156.546 267.524,146.448 277.615 C 136.350 287.706,127.829 296.221,127.513 296.538 C 86.964 337.245,91.041 333.603,84.657 334.825 C 76.077 336.466,69.740 334.850,64.937 329.794 C 63.440 328.218,61.627 326.565,60.909 326.121 C 59.189 325.058,55.625 321.299,54.186 319.030 C 51.942 315.492,53.319 313.130,62.705 304.423 C 64.073 303.154,65.896 301.337,66.756 300.385 C 67.616 299.433,69.346 297.699,70.602 296.531 C 71.857 295.363,73.750 293.455,74.808 292.290 C 75.865 291.125,77.478 289.484,78.392 288.643 C 79.305 287.803,86.834 280.327,95.123 272.031 C 103.411 263.734,110.418 256.724,110.694 256.454 C 110.970 256.183,117.905 249.212,126.105 240.962 C 134.305 232.712,141.958 225.096,143.110 224.038 C 144.263 222.981,145.983 221.250,146.933 220.192 C 147.882 219.135,149.313 217.663,150.112 216.923 C 150.911 216.183,153.135 213.994,155.054 212.060 C 156.973 210.126,158.708 208.395,158.909 208.214 C 159.110 208.033,160.606 206.499,162.234 204.806 C 163.861 203.113,165.971 201.024,166.923 200.165 C 167.875 199.307,169.616 197.577,170.791 196.321 C 171.967 195.066,173.784 193.251,174.830 192.289 C 175.875 191.326,177.683 189.509,178.846 188.250 C 180.010 186.991,181.740 185.258,182.692 184.398 C 183.644 183.538,185.390 181.807,186.571 180.552 C 187.753 179.296,189.588 177.484,190.649 176.525 C 191.710 175.566,193.040 174.050,193.604 173.156 C 195.907 169.508,200.077 168.282,203.788 170.163 " stroke="none" fill="#999999" fill-rule="evenodd"></path><path id="path1" d="M184.234 13.805 C 183.707 13.952,183.101 14.414,182.888 14.832 C 182.674 15.251,181.894 16.255,181.154 17.064 C 180.413 17.872,179.632 19.157,179.417 19.917 C 179.111 21.003,178.769 21.367,177.831 21.610 C 176.445 21.969,175.829 22.606,175.432 24.088 C 175.241 24.802,174.802 25.241,174.088 25.432 C 172.565 25.840,171.979 26.440,171.550 28.034 C 171.268 29.080,170.872 29.553,170.002 29.881 C 169.249 30.166,168.638 30.789,168.285 31.633 C 167.891 32.576,167.314 33.109,166.223 33.537 C 165.037 34.003,164.607 34.438,164.244 35.536 C 163.904 36.568,163.429 37.087,162.454 37.495 C 161.555 37.870,160.943 38.488,160.559 39.406 C 160.172 40.333,159.564 40.941,158.636 41.329 C 157.709 41.716,157.101 42.324,156.713 43.252 C 156.326 44.179,155.718 44.787,154.790 45.175 C 153.863 45.562,153.255 46.170,152.867 47.098 C 152.480 48.026,151.872 48.633,150.944 49.021 C 150.030 49.403,149.408 50.017,149.038 50.902 C 148.608 51.932,148.203 52.271,147.168 52.465 C 145.608 52.757,145.092 53.292,144.759 54.957 C 144.573 55.884,144.191 56.321,143.204 56.733 C 142.338 57.095,141.710 57.725,141.346 58.595 C 140.916 59.625,140.511 59.963,139.476 60.157 C 137.916 60.450,137.399 60.984,137.066 62.649 C 136.880 63.580,136.499 64.013,135.495 64.433 C 134.636 64.792,134.014 65.398,133.728 66.156 C 133.397 67.033,132.927 67.422,131.850 67.712 C 130.349 68.116,129.231 69.298,129.231 70.480 C 129.231 70.889,128.797 71.327,128.173 71.548 C 126.394 72.178,126.030 72.502,125.574 73.855 C 125.248 74.822,124.832 75.237,123.962 75.462 C 122.591 75.817,121.979 76.459,121.584 77.956 C 121.399 78.653,120.839 79.258,120.013 79.653 C 119.284 80.002,118.463 80.822,118.114 81.551 C 117.719 82.378,117.114 82.938,116.418 83.122 C 114.921 83.518,114.279 84.130,113.924 85.501 C 113.698 86.371,113.283 86.787,112.316 87.112 C 110.963 87.568,110.640 87.933,110.009 89.712 C 109.788 90.335,109.350 90.769,108.941 90.769 C 107.807 90.769,106.573 91.873,106.235 93.190 C 106.014 94.050,105.529 94.609,104.631 95.037 C 103.896 95.388,103.081 96.204,102.730 96.939 C 102.307 97.825,101.741 98.322,100.914 98.534 C 99.516 98.893,98.905 99.528,98.507 101.033 C 98.322 101.729,97.762 102.334,96.936 102.730 C 96.205 103.080,95.387 103.898,95.037 104.631 C 94.614 105.517,94.049 106.014,93.221 106.227 C 91.824 106.586,91.212 107.220,90.814 108.725 C 90.630 109.422,90.070 110.027,89.244 110.422 C 88.512 110.772,87.695 111.591,87.345 112.323 C 86.922 113.210,86.357 113.707,85.529 113.919 C 84.137 114.277,83.522 114.911,83.124 116.399 C 82.921 117.155,82.499 117.551,81.660 117.768 C 80.292 118.123,79.674 118.764,79.280 120.236 C 79.082 120.976,78.610 121.422,77.698 121.729 C 76.350 122.183,76.024 122.550,75.398 124.316 C 75.169 124.961,74.522 125.574,73.710 125.913 C 72.757 126.312,72.268 126.841,71.943 127.825 C 71.599 128.867,71.181 129.289,70.157 129.627 C 69.218 129.937,68.624 130.478,68.160 131.447 C 67.700 132.407,67.099 132.959,66.180 133.265 C 64.812 133.721,64.487 134.084,63.860 135.855 C 63.632 136.497,62.984 137.112,62.181 137.448 C 61.307 137.813,60.735 138.391,60.456 139.192 C 60.190 139.953,59.646 140.528,58.962 140.771 C 57.163 141.410,56.800 141.729,56.346 143.077 C 56.025 144.030,55.569 144.487,54.615 144.808 C 53.271 145.260,52.947 145.626,52.317 147.404 C 52.072 148.096,51.667 148.462,51.146 148.462 C 50.118 148.462,48.462 150.118,48.462 151.146 C 48.462 151.667,48.096 152.072,47.404 152.317 C 45.625 152.947,45.260 153.271,44.805 154.624 C 44.479 155.591,44.063 156.006,43.193 156.231 C 41.822 156.587,41.210 157.229,40.814 158.725 C 40.625 159.443,40.065 160.029,39.154 160.463 C 38.268 160.886,37.634 161.536,37.371 162.292 C 37.113 163.031,36.562 163.608,35.885 163.848 C 34.081 164.488,33.723 164.807,33.265 166.180 C 32.969 167.068,32.407 167.701,31.546 168.114 C 30.807 168.469,30.007 169.282,29.651 170.037 C 29.043 171.329,28.997 171.349,26.068 171.538 C 21.026 171.865,21.207 171.024,21.177 194.237 L 21.154 211.743 22.059 213.467 C 23.060 215.374,24.647 216.387,27.361 216.850 C 28.928 217.118,29.043 217.224,29.268 218.608 C 29.531 220.227,30.082 220.751,31.538 220.769 C 32.763 220.784,33.172 221.089,33.759 222.424 C 34.035 223.052,34.792 223.735,35.574 224.062 C 36.478 224.440,37.097 225.056,37.471 225.951 C 37.871 226.909,38.513 227.509,39.768 228.098 C 40.725 228.549,41.612 229.242,41.738 229.638 C 41.978 230.393,45.086 232.687,45.885 232.699 C 46.516 232.708,47.908 234.234,48.237 235.278 C 48.451 235.957,48.899 236.185,50.407 236.385 C 52.027 236.600,52.308 236.762,52.308 237.476 C 52.308 239.351,54.275 240.322,58.166 240.368 C 59.415 240.382,59.630 240.521,59.823 241.442 C 60.210 243.282,60.606 243.645,62.595 243.990 C 64.098 244.250,64.631 244.536,64.961 245.260 C 65.829 247.166,67.462 247.483,77.500 247.692 C 84.986 247.848,86.406 247.959,85.010 248.279 C 83.404 248.648,83.269 248.777,82.983 250.226 C 82.699 251.662,82.553 251.806,81.049 252.139 C 79.551 252.472,79.396 252.624,79.073 254.073 C 78.754 255.512,78.589 255.677,77.150 255.997 C 75.706 256.317,75.548 256.477,75.222 257.947 C 74.886 259.461,74.777 259.561,73.222 259.795 C 71.984 259.980,71.512 260.250,71.314 260.886 C 70.978 261.961,69.664 263.283,68.599 263.615 C 67.776 263.872,67.323 264.851,67.313 266.399 C 67.309 267.075,67.005 267.266,65.596 267.477 C 64.294 267.672,63.822 267.936,63.621 268.578 C 63.286 269.654,61.971 270.975,60.907 271.307 C 60.083 271.564,59.631 272.544,59.621 274.091 C 59.616 274.767,59.313 274.958,57.904 275.169 C 56.602 275.365,56.130 275.628,55.929 276.271 C 55.593 277.346,54.279 278.667,53.215 278.999 C 52.383 279.259,51.938 280.237,51.928 281.827 C 51.924 282.505,51.703 282.692,50.908 282.692 C 48.026 282.692,44.748 285.772,44.333 288.868 C 44.155 290.193,44.027 290.319,42.627 290.543 C 39.492 291.044,36.538 294.182,36.538 297.012 C 36.538 297.844,36.322 298.013,34.980 298.228 C 31.803 298.736,28.846 301.856,28.846 304.699 C 28.846 305.627,28.740 305.667,25.720 305.874 C 20.942 306.201,21.364 304.318,21.234 325.879 C 21.118 345.146,21.241 347.229,22.530 347.882 C 22.952 348.095,23.716 348.662,24.228 349.141 C 24.740 349.621,25.859 350.191,26.714 350.407 C 27.569 350.624,28.615 350.955,29.038 351.142 C 29.462 351.330,30.455 351.590,31.247 351.720 C 32.417 351.912,32.727 352.151,32.904 352.998 C 33.274 354.759,33.673 355.172,35.328 355.499 C 36.723 355.775,36.924 355.944,36.929 356.850 C 36.938 358.378,37.443 358.927,39.089 359.194 C 40.438 359.414,40.586 359.559,40.800 360.875 C 41.090 362.657,41.189 362.757,42.971 363.046 C 44.287 363.260,44.433 363.408,44.652 364.757 C 44.942 366.539,45.275 366.773,48.025 367.116 C 50.133 367.380,51.902 368.463,51.916 369.500 C 51.928 370.320,54.232 373.410,55.018 373.660 C 55.437 373.793,56.167 374.711,56.640 375.701 C 58.050 378.650,57.823 378.618,78.430 378.763 C 102.685 378.934,103.949 378.752,105.216 374.918 C 105.898 372.852,107.125 371.173,107.961 371.160 C 108.779 371.149,111.871 368.846,112.119 368.065 C 112.285 367.541,112.842 367.231,113.930 367.057 C 115.791 366.760,116.923 365.759,116.923 364.411 C 116.923 363.817,117.185 363.359,117.596 363.236 C 119.341 362.714,120.224 361.993,120.626 360.762 C 120.972 359.701,121.316 359.382,122.337 359.173 C 123.791 358.876,124.615 357.961,124.615 356.645 C 124.615 356.121,124.897 355.661,125.288 355.544 C 127.026 355.024,127.916 354.300,128.313 353.083 C 128.631 352.110,129.073 351.658,130.018 351.340 C 131.343 350.894,131.670 350.523,132.294 348.761 C 132.523 348.116,133.170 347.503,133.983 347.163 C 134.945 346.761,135.424 346.237,135.760 345.221 C 136.096 344.202,136.574 343.681,137.546 343.275 C 138.445 342.899,139.057 342.282,139.441 341.364 C 139.824 340.445,140.436 339.828,141.336 339.452 C 142.285 339.056,142.893 338.411,143.465 337.195 C 143.905 336.259,144.692 335.298,145.215 335.060 C 145.738 334.822,146.357 334.206,146.591 333.691 C 146.849 333.126,147.744 332.454,148.851 331.994 C 150.346 331.372,150.768 330.975,151.144 329.838 C 151.481 328.817,151.958 328.296,152.931 327.890 C 153.814 327.521,154.442 326.897,154.805 326.027 C 155.218 325.040,155.654 324.658,156.582 324.472 C 158.247 324.139,158.781 323.623,159.074 322.063 C 159.268 321.028,159.606 320.623,160.636 320.192 C 161.508 319.828,162.136 319.200,162.500 318.328 C 162.930 317.299,163.335 316.960,164.371 316.766 C 165.961 316.468,166.335 316.057,166.883 314.005 C 167.170 312.934,167.613 312.292,168.273 311.991 C 168.806 311.749,169.441 311.114,169.684 310.581 C 169.985 309.920,170.626 309.477,171.697 309.191 C 173.778 308.635,174.071 308.350,174.561 306.401 C 174.856 305.232,175.263 304.619,175.956 304.303 C 176.494 304.058,177.131 303.427,177.371 302.900 C 177.642 302.305,178.456 301.695,179.523 301.287 C 181.234 300.634,182.679 298.503,182.699 296.603 C 182.710 295.513,184.323 294.397,186.605 293.897 C 189.038 293.365,189.500 292.981,189.857 291.197 C 190.042 290.270,190.424 289.833,191.411 289.421 C 192.270 289.062,192.906 288.429,193.260 287.581 C 193.649 286.651,194.231 286.119,195.334 285.686 C 196.950 285.051,198.077 282.687,198.077 279.930 C 198.077 278.873,198.129 278.846,200.192 278.846 C 202.146 278.846,202.308 278.914,202.308 279.734 C 202.308 281.051,203.141 281.955,204.634 282.258 C 205.804 282.495,205.977 282.685,206.089 283.858 C 206.258 285.624,206.707 286.088,208.381 286.229 C 209.625 286.333,209.809 286.489,210.041 287.632 C 210.368 289.243,210.757 289.632,212.368 289.959 C 213.511 290.191,213.667 290.375,213.771 291.619 C 213.912 293.296,214.376 293.742,216.151 293.911 C 217.378 294.028,217.511 294.164,217.730 295.521 C 217.997 297.177,218.543 297.678,220.092 297.686 C 221.021 297.692,221.174 297.873,221.390 299.224 C 221.678 301.025,222.014 301.351,223.942 301.698 C 225.215 301.927,225.385 302.088,225.385 303.067 C 225.385 304.476,226.287 305.385,227.686 305.385 C 228.658 305.385,228.807 305.552,229.035 306.901 C 229.339 308.701,229.722 309.074,231.635 309.431 C 232.896 309.667,233.077 309.837,233.077 310.785 C 233.077 312.170,233.987 313.077,235.378 313.077 C 236.351 313.077,236.499 313.244,236.727 314.593 C 237.031 316.394,237.414 316.766,239.327 317.124 C 240.589 317.360,240.769 317.529,240.769 318.477 C 240.769 319.872,241.682 320.769,243.100 320.769 C 244.110 320.769,244.246 320.921,244.467 322.300 C 244.755 324.102,245.091 324.427,247.019 324.775 C 248.031 324.957,248.462 325.234,248.462 325.701 C 248.462 326.809,249.577 328.045,250.880 328.383 C 251.925 328.653,252.146 328.921,252.347 330.160 C 252.613 331.797,253.163 332.293,254.720 332.302 C 255.522 332.306,255.889 332.569,256.203 333.365 C 256.964 335.293,257.131 335.481,258.468 335.915 C 259.603 336.283,259.831 336.562,260.036 337.829 C 260.306 339.490,260.850 339.985,262.416 339.994 C 263.098 339.998,263.559 340.244,263.687 340.673 C 264.210 342.420,264.930 343.301,266.167 343.704 C 267.286 344.069,267.537 344.363,267.729 345.535 C 268.012 347.268,268.119 347.373,269.885 347.660 C 271.130 347.862,271.350 348.060,271.578 349.174 C 271.907 350.781,272.296 351.170,273.903 351.499 C 275.017 351.726,275.214 351.947,275.417 353.192 C 275.705 354.963,275.806 355.065,277.577 355.352 C 278.822 355.555,279.043 355.752,279.271 356.867 C 279.599 358.473,279.988 358.862,281.595 359.191 C 282.709 359.419,282.907 359.640,283.109 360.885 C 283.397 362.657,283.498 362.757,285.279 363.046 C 286.588 363.259,286.741 363.412,286.954 364.721 C 287.243 366.502,287.343 366.603,289.115 366.891 C 290.360 367.093,290.581 367.291,290.809 368.405 C 291.138 370.012,291.527 370.401,293.133 370.729 C 294.254 370.959,294.445 371.175,294.653 372.457 C 294.822 373.493,295.317 374.301,296.345 375.216 C 297.145 375.927,297.995 376.903,298.235 377.384 C 298.906 378.729,300.091 378.801,321.923 378.816 C 346.701 378.834,346.209 378.889,349.244 375.787 C 350.986 374.006,351.538 373.172,351.538 372.321 C 351.538 371.313,351.700 371.167,353.134 370.884 C 354.787 370.557,355.188 370.143,355.556 368.388 C 355.735 367.533,356.057 367.296,357.400 367.031 C 358.421 366.829,359.172 366.421,359.417 365.937 C 360.005 364.774,361.246 363.588,362.170 363.304 C 362.789 363.114,363.057 362.629,363.248 361.352 C 363.492 359.724,363.570 359.639,365.111 359.334 C 366.115 359.136,366.866 358.727,367.110 358.244 C 367.702 357.073,368.940 355.895,369.883 355.605 C 370.523 355.409,370.789 354.940,370.978 353.677 L 371.228 352.008 373.595 351.543 C 376.669 350.938,377.260 350.593,377.921 349.011 C 378.289 348.129,378.913 347.514,379.824 347.133 C 380.718 346.760,381.359 346.137,381.708 345.303 C 382.037 344.515,382.794 343.747,383.714 343.266 C 386.199 341.967,386.324 341.208,386.336 327.308 C 386.348 312.853,386.242 312.371,382.628 310.550 C 381.500 309.981,379.858 308.759,378.980 307.835 C 377.789 306.580,377.092 306.154,376.233 306.154 C 375.028 306.154,374.615 305.618,374.615 304.054 C 374.615 302.954,373.986 302.413,372.507 302.246 C 371.615 302.144,371.285 301.859,371.020 300.962 C 370.445 299.015,370.164 298.680,368.886 298.418 C 367.362 298.106,367.278 298.023,366.966 296.499 C 366.700 295.195,366.230 294.798,364.525 294.440 C 363.772 294.282,363.410 293.920,363.252 293.167 C 362.879 291.393,362.483 290.982,360.826 290.655 C 359.348 290.363,359.231 290.247,359.231 289.093 C 359.231 287.521,358.638 286.923,357.080 286.923 C 355.800 286.923,355.385 286.416,355.385 284.853 C 355.385 283.729,354.690 283.078,353.481 283.071 C 352.133 283.063,351.556 282.624,351.214 281.343 C 350.920 280.243,350.679 280.042,348.750 279.280 C 347.954 278.966,347.691 278.599,347.686 277.797 C 347.678 276.235,347.181 275.690,345.521 275.421 C 344.254 275.216,343.976 274.988,343.607 273.853 C 343.173 272.515,342.986 272.349,341.058 271.588 C 340.200 271.249,340.000 270.929,340.000 269.893 C 340.000 268.278,339.415 267.692,337.799 267.692 C 336.763 267.692,336.443 267.492,336.105 266.635 C 335.344 264.707,335.177 264.519,333.839 264.085 C 332.705 263.717,332.477 263.438,332.271 262.171 C 332.007 260.543,331.458 260.018,330.000 260.000 C 328.773 259.985,328.367 259.680,327.772 258.329 C 327.500 257.711,326.786 257.044,326.130 256.796 C 325.426 256.531,324.900 256.015,324.792 255.487 C 324.695 255.008,324.530 254.202,324.426 253.696 C 324.191 252.549,323.665 252.348,320.136 252.049 L 317.308 251.810 317.302 250.617 C 317.293 248.875,316.804 248.356,314.937 248.107 C 314.020 247.985,318.288 247.878,324.423 247.871 C 337.891 247.854,338.574 247.767,340.595 245.804 C 341.759 244.674,342.636 244.217,344.300 243.872 C 346.655 243.383,347.108 243.043,347.502 241.476 C 347.715 240.626,348.055 240.402,349.542 240.130 C 350.713 239.916,351.461 239.541,351.720 239.037 C 352.327 237.858,353.580 236.538,354.092 236.538 C 355.587 236.538,358.143 234.935,358.674 233.664 C 359.059 232.744,359.669 232.135,360.594 231.748 C 361.508 231.367,362.130 230.752,362.500 229.867 C 362.930 228.837,363.335 228.499,364.371 228.304 C 365.930 228.012,366.447 227.478,366.780 225.812 C 366.965 224.889,367.348 224.448,368.320 224.042 C 369.058 223.734,369.817 223.039,370.087 222.424 C 370.682 221.072,371.084 220.783,372.376 220.775 C 373.729 220.767,374.615 219.835,374.615 218.422 C 374.615 217.671,374.844 217.215,375.288 217.082 C 377.036 216.560,377.916 215.839,378.319 214.602 C 378.666 213.540,379.041 213.188,380.166 212.871 C 381.014 212.632,382.411 211.650,383.658 210.415 C 386.313 207.788,386.349 207.574,386.336 194.615 C 386.324 183.257,385.966 181.368,383.626 180.302 C 382.991 180.013,382.317 179.189,381.880 178.168 C 381.354 176.942,380.811 176.356,379.814 175.939 C 378.832 175.529,378.462 175.136,378.462 174.503 C 378.462 173.205,377.430 171.976,376.040 171.619 C 375.180 171.398,374.622 170.914,374.193 170.016 C 373.840 169.276,373.029 168.468,372.285 168.114 C 371.322 167.657,370.923 167.171,370.729 166.214 C 370.401 164.603,370.013 164.214,368.401 163.887 C 367.420 163.687,366.959 163.295,366.455 162.231 C 365.986 161.241,365.406 160.709,364.449 160.393 C 363.353 160.031,363.057 159.706,362.857 158.642 C 362.568 157.100,362.256 156.823,360.119 156.213 C 359.100 155.921,358.418 155.469,358.263 154.981 C 358.129 154.557,357.556 153.913,356.990 153.549 C 356.424 153.185,355.615 152.475,355.192 151.971 C 354.354 150.972,353.395 150.011,351.568 148.341 C 350.917 147.746,350.385 147.109,350.385 146.926 C 350.385 146.509,347.048 144.233,346.423 144.224 C 345.795 144.215,344.231 142.520,344.231 141.850 C 344.231 141.135,343.458 140.386,342.712 140.378 C 342.046 140.371,340.385 138.771,340.385 138.138 C 340.385 137.563,338.091 134.231,337.695 134.231 C 337.268 134.231,335.000 131.963,335.000 131.536 C 335.000 131.123,331.659 128.848,331.038 128.840 C 330.476 128.831,328.846 127.165,328.846 126.597 C 328.846 125.227,324.754 121.167,323.352 121.147 C 322.786 121.139,321.154 119.476,321.154 118.907 C 321.154 118.354,318.867 115.000,318.490 115.000 C 318.049 115.000,316.447 113.426,315.683 112.241 C 315.319 111.675,314.686 111.106,314.276 110.976 C 313.867 110.846,313.170 109.968,312.726 109.025 C 312.112 107.718,311.522 107.123,310.245 106.523 C 309.323 106.090,308.375 105.308,308.137 104.785 C 307.898 104.262,307.276 103.640,306.753 103.402 C 306.231 103.164,305.449 102.215,305.016 101.293 C 304.420 100.027,303.819 99.426,302.553 98.831 C 301.631 98.397,300.682 97.615,300.444 97.093 C 300.206 96.570,299.584 95.948,299.061 95.710 C 298.538 95.471,297.756 94.523,297.323 93.601 C 296.728 92.335,296.127 91.733,294.860 91.138 C 293.939 90.705,292.990 89.923,292.752 89.400 C 292.514 88.878,291.891 88.255,291.369 88.017 C 290.846 87.779,290.064 86.830,289.631 85.909 C 289.036 84.643,288.434 84.041,287.168 83.446 C 286.247 83.013,285.298 82.231,285.060 81.708 C 284.822 81.186,284.206 80.566,283.691 80.332 C 283.126 80.074,282.454 79.179,281.994 78.072 C 281.372 76.577,280.975 76.155,279.838 75.779 C 278.817 75.442,278.296 74.965,277.890 73.992 C 277.519 73.103,276.897 72.481,276.008 72.110 C 275.035 71.704,274.558 71.183,274.221 70.162 C 273.845 69.025,273.423 68.628,271.928 68.006 C 270.821 67.546,269.926 66.874,269.668 66.309 C 269.434 65.794,268.814 65.178,268.292 64.940 C 267.769 64.702,266.987 63.753,266.554 62.832 C 265.959 61.566,265.357 60.964,264.091 60.369 C 263.170 59.936,262.221 59.154,261.983 58.631 C 261.745 58.109,261.122 57.486,260.600 57.248 C 260.077 57.010,259.295 56.061,258.862 55.140 C 258.267 53.873,257.665 53.272,256.399 52.677 C 255.477 52.244,254.529 51.462,254.290 50.939 C 254.052 50.416,253.430 49.794,252.907 49.556 C 252.385 49.318,251.603 48.369,251.169 47.447 C 250.574 46.181,249.973 45.580,248.707 44.984 C 247.785 44.551,246.836 43.769,246.598 43.247 C 246.360 42.724,245.738 42.102,245.215 41.863 C 244.692 41.625,243.905 40.664,243.465 39.728 C 242.893 38.512,242.285 37.868,241.336 37.471 C 240.436 37.095,239.824 36.478,239.441 35.559 C 239.053 34.632,238.445 34.024,237.517 33.636 C 236.590 33.249,235.982 32.641,235.594 31.713 C 235.207 30.786,234.599 30.178,233.671 29.790 C 232.744 29.403,232.136 28.795,231.748 27.867 C 231.365 26.949,230.753 26.332,229.854 25.956 C 228.879 25.549,228.404 25.029,228.064 23.998 C 227.705 22.912,227.269 22.464,226.133 22.018 C 224.898 21.533,224.629 21.220,224.429 20.038 C 224.283 19.168,223.650 18.059,222.769 17.127 C 221.987 16.298,221.172 15.271,220.958 14.846 C 220.745 14.420,220.139 13.952,219.612 13.805 C 218.361 13.457,185.485 13.457,184.234 13.805 M204.986 30.175 C 206.008 30.522,207.159 31.652,209.615 34.719 C 212.904 38.826,215.877 42.050,219.408 45.338 C 221.962 47.717,231.541 57.388,238.654 64.768 C 241.827 68.060,245.029 71.184,245.769 71.710 C 246.510 72.236,248.216 73.959,249.560 75.540 C 250.905 77.120,252.661 78.869,253.464 79.425 C 254.267 79.981,256.075 81.801,257.482 83.469 C 258.890 85.137,260.632 86.866,261.353 87.312 C 262.073 87.757,263.802 89.487,265.193 91.155 C 266.584 92.823,268.538 94.790,269.534 95.526 C 270.531 96.262,272.212 97.983,273.269 99.349 C 274.327 100.716,275.644 102.110,276.197 102.446 C 276.750 102.783,278.134 104.037,279.274 105.235 C 280.414 106.432,283.337 109.444,285.769 111.928 C 288.202 114.412,290.395 116.653,290.642 116.907 C 291.053 117.328,297.400 123.682,298.470 124.742 C 298.719 124.990,307.790 134.019,318.627 144.808 C 340.686 166.768,346.771 172.559,349.947 174.611 C 354.108 177.301,355.267 179.868,354.923 185.631 C 354.648 190.239,353.462 192.071,349.411 194.140 C 348.572 194.568,346.662 196.192,345.167 197.748 C 343.672 199.304,341.269 201.529,339.826 202.692 C 338.383 203.856,336.472 205.457,335.578 206.250 C 332.178 209.267,326.967 210.879,320.664 210.865 C 314.689 210.851,313.036 210.040,305.686 203.521 C 299.923 198.409,242.656 141.607,233.846 132.264 C 231.413 129.685,224.816 122.939,219.186 117.273 C 213.556 111.608,208.129 105.880,207.126 104.544 C 202.423 98.278,197.391 98.895,192.887 106.291 C 192.463 106.988,174.202 125.491,152.308 147.408 C 130.413 169.326,111.327 188.438,109.894 189.879 C 103.963 195.844,99.336 200.295,97.957 201.364 C 89.607 207.834,88.832 208.320,85.013 209.487 C 79.727 211.102,72.707 210.184,68.803 207.367 C 67.065 206.114,58.320 199.035,57.136 197.923 C 55.203 196.108,52.417 193.923,51.302 193.346 C 45.261 190.222,44.541 179.096,50.144 175.455 C 53.400 173.339,55.867 171.040,67.500 159.280 C 74.058 152.650,82.576 144.086,86.431 140.248 C 90.285 136.409,93.746 132.954,94.123 132.570 C 94.500 132.185,96.279 130.425,98.077 128.659 C 99.875 126.894,101.567 125.218,101.836 124.936 C 105.078 121.544,107.818 118.788,109.058 117.671 C 109.893 116.919,111.717 115.102,113.110 113.633 C 114.503 112.164,116.198 110.442,116.877 109.808 C 117.555 109.173,119.509 107.247,121.218 105.528 C 122.927 103.809,124.653 102.079,125.052 101.682 C 125.451 101.286,127.148 99.577,128.822 97.885 C 130.496 96.192,132.145 94.548,132.488 94.231 C 132.830 93.913,134.451 92.269,136.090 90.577 C 137.729 88.885,139.582 87.063,140.208 86.530 C 140.834 85.996,142.569 84.265,144.063 82.684 C 145.557 81.102,147.288 79.371,147.909 78.838 C 148.530 78.304,150.255 76.573,151.742 74.991 C 153.229 73.410,154.873 71.763,155.396 71.333 C 155.919 70.903,157.670 69.172,159.288 67.487 C 160.906 65.802,164.260 62.433,166.742 60.000 C 169.224 57.567,172.563 54.192,174.163 52.500 C 175.763 50.808,178.294 48.306,179.786 46.940 C 183.348 43.682,189.187 37.378,191.598 34.189 C 194.971 29.726,199.590 28.341,204.986 30.175 M203.942 144.514 C 202.832 144.592,201.014 144.592,199.904 144.514 C 198.793 144.437,199.702 144.373,201.923 144.373 C 204.144 144.373,205.053 144.437,203.942 144.514 M204.680 162.670 C 206.913 163.672,207.591 164.281,210.487 167.885 C 211.846 169.577,221.478 179.529,231.891 190.000 C 265.634 223.933,302.411 260.805,309.073 267.382 C 312.650 270.913,319.663 277.923,324.656 282.959 C 332.542 290.912,337.694 295.892,347.458 305.000 C 353.949 311.055,354.808 312.425,354.808 316.731 C 354.808 321.425,353.023 324.188,346.359 329.808 C 345.104 330.865,343.550 332.271,342.904 332.930 C 340.590 335.296,337.172 337.796,334.666 338.957 C 333.263 339.607,331.584 340.537,330.935 341.023 C 324.948 345.511,317.262 345.569,312.169 341.165 C 311.505 340.591,310.010 339.510,308.846 338.763 C 307.683 338.017,306.004 336.648,305.116 335.722 C 304.228 334.796,302.919 333.433,302.208 332.692 C 301.497 331.952,299.628 330.101,298.054 328.578 C 296.480 327.056,294.846 325.434,294.423 324.974 C 294.000 324.514,292.183 322.718,290.385 320.982 C 288.587 319.246,286.025 316.714,284.691 315.355 C 283.358 313.996,281.626 312.279,280.842 311.538 C 280.058 310.798,278.274 308.981,276.877 307.500 C 275.481 306.019,273.925 304.454,273.419 304.022 C 272.914 303.590,271.237 301.946,269.694 300.368 C 268.151 298.791,264.971 295.683,262.628 293.462 C 260.285 291.240,256.997 288.038,255.322 286.346 C 253.647 284.654,252.067 283.060,251.811 282.805 C 251.555 282.549,250.171 281.260,248.734 279.940 C 247.298 278.620,245.775 276.978,245.350 276.290 C 244.925 275.602,244.002 274.684,243.300 274.250 C 242.598 273.816,241.092 272.314,239.954 270.913 C 238.816 269.512,236.067 266.500,233.846 264.219 C 231.625 261.939,229.548 259.805,229.231 259.477 C 228.913 259.149,227.183 257.421,225.385 255.637 C 223.587 253.853,221.856 252.123,221.538 251.791 C 221.221 251.460,219.490 249.753,217.692 247.998 C 215.893 246.243,214.129 244.462,213.772 244.038 C 213.414 243.615,212.007 242.317,210.645 241.154 C 209.283 239.990,207.681 238.288,207.085 237.371 C 204.019 232.655,196.038 232.698,193.584 237.443 C 193.140 238.301,180.280 251.390,171.609 259.808 C 171.391 260.019,166.804 264.692,161.417 270.192 C 156.029 275.692,151.043 280.712,150.337 281.346 C 149.631 281.981,148.186 283.452,147.127 284.615 C 146.068 285.779,144.456 287.423,143.546 288.269 C 142.635 289.115,138.826 292.890,135.080 296.657 C 95.173 336.793,94.077 337.831,90.000 339.375 C 88.625 339.896,86.548 340.760,85.385 341.296 C 80.529 343.534,77.215 343.267,70.200 340.074 C 65.874 338.105,63.133 336.167,61.500 333.923 C 60.992 333.224,59.971 332.228,59.231 331.708 C 56.777 329.987,48.869 322.222,47.935 320.617 C 45.127 315.792,46.712 311.979,54.569 304.656 C 56.977 302.413,61.336 298.154,64.256 295.192 C 78.060 281.196,85.002 274.126,87.152 271.876 C 88.441 270.527,93.422 265.615,98.220 260.962 C 103.018 256.308,107.934 251.483,109.145 250.241 C 110.355 248.998,128.740 230.564,150.000 209.275 C 171.260 187.987,189.260 169.740,190.000 168.728 C 192.613 165.153,193.159 164.614,195.510 163.281 C 198.408 161.638,201.865 161.408,204.680 162.670 " stroke="none" fill="#060606" fill-rule="evenodd"></path><path id="path2" d="M199.327 35.278 C 198.612 35.367,197.669 35.875,197.122 36.467 C 195.273 38.468,193.077 41.204,193.077 41.507 C 193.077 41.783,187.124 47.865,180.813 54.038 C 179.515 55.308,174.488 60.327,169.642 65.192 C 164.796 70.058,159.563 75.286,158.012 76.810 C 156.461 78.334,152.996 81.796,150.312 84.502 C 147.629 87.209,140.705 94.147,134.928 99.920 C 129.150 105.693,123.106 111.751,121.497 113.381 C 119.888 115.012,118.185 116.692,117.713 117.115 C 116.599 118.113,111.102 123.632,107.573 127.294 C 106.052 128.873,104.310 130.604,103.702 131.140 C 102.708 132.017,87.128 147.632,66.466 168.461 C 62.301 172.660,57.972 176.775,56.847 177.607 C 50.132 182.567,50.383 185.779,57.885 190.867 C 59.154 191.728,61.755 193.857,63.665 195.599 C 65.575 197.340,67.738 199.041,68.473 199.380 C 69.207 199.718,70.878 200.759,72.185 201.693 C 77.554 205.529,81.920 205.318,87.885 200.936 C 88.519 200.469,89.815 199.698,90.764 199.221 C 91.713 198.744,94.055 196.863,95.968 195.042 C 97.882 193.221,100.048 191.204,100.781 190.561 C 101.515 189.918,103.327 188.100,104.808 186.521 C 106.288 184.943,107.984 183.219,108.576 182.691 C 113.166 178.593,188.469 102.519,190.283 100.147 C 193.850 95.483,195.209 94.596,199.638 94.043 C 204.060 93.491,206.692 94.879,210.192 99.612 C 211.038 100.756,216.317 106.319,221.923 111.973 C 227.529 117.628,234.625 124.861,237.692 128.046 C 248.301 139.063,265.974 156.647,269.078 159.274 C 270.792 160.724,272.646 162.562,273.198 163.359 C 273.750 164.156,275.429 165.846,276.929 167.115 C 278.428 168.385,280.240 170.172,280.955 171.087 C 281.670 172.002,283.468 173.819,284.950 175.125 C 286.432 176.431,288.258 178.279,289.007 179.231 C 289.755 180.183,291.280 181.740,292.396 182.692 C 293.511 183.644,295.115 185.183,295.962 186.111 C 296.808 187.040,298.536 188.771,299.802 189.957 C 301.068 191.144,303.405 193.479,304.994 195.146 C 306.584 196.813,308.880 198.853,310.096 199.680 C 311.313 200.506,312.308 201.328,312.308 201.506 C 312.308 201.683,313.553 202.737,315.075 203.847 L 317.842 205.866 321.325 205.682 C 325.330 205.470,327.731 204.468,331.731 201.340 C 333.000 200.347,334.658 199.219,335.414 198.832 C 337.069 197.987,339.246 196.174,341.340 193.898 C 342.190 192.975,344.149 191.362,345.695 190.314 C 351.369 186.467,351.574 182.141,346.248 178.606 C 345.060 177.817,342.692 175.794,340.986 174.110 C 339.280 172.426,337.284 170.596,336.550 170.044 C 335.257 169.070,242.096 75.894,219.304 52.779 C 213.104 46.491,207.278 40.288,206.357 38.994 C 204.624 36.561,202.559 34.955,201.301 35.062 C 200.903 35.095,200.014 35.193,199.327 35.278 M196.450 170.388 C 195.449 171.017,194.168 172.262,193.604 173.156 C 193.040 174.050,191.710 175.566,190.649 176.525 C 189.588 177.484,187.753 179.296,186.571 180.552 C 185.390 181.807,183.644 183.538,182.692 184.398 C 181.740 185.258,180.010 186.991,178.846 188.250 C 177.683 189.509,175.875 191.326,174.830 192.289 C 173.784 193.251,171.967 195.066,170.791 196.321 C 169.616 197.577,167.875 199.307,166.923 200.165 C 165.971 201.024,163.861 203.113,162.234 204.806 C 160.606 206.499,159.110 208.033,158.909 208.214 C 158.708 208.395,156.973 210.126,155.054 212.060 C 153.135 213.994,150.911 216.183,150.112 216.923 C 149.313 217.663,147.882 219.135,146.933 220.192 C 145.983 221.250,144.263 222.981,143.110 224.038 C 141.958 225.096,134.305 232.712,126.105 240.962 C 117.905 249.212,110.970 256.183,110.694 256.454 C 110.418 256.724,103.411 263.734,95.123 272.031 C 86.834 280.327,79.305 287.803,78.392 288.643 C 77.478 289.484,75.865 291.125,74.808 292.290 C 73.750 293.455,71.857 295.363,70.602 296.531 C 69.346 297.699,67.616 299.433,66.756 300.385 C 65.896 301.337,64.073 303.154,62.705 304.423 C 53.319 313.130,51.942 315.492,54.186 319.030 C 55.625 321.299,59.189 325.058,60.909 326.121 C 61.627 326.565,63.440 328.218,64.937 329.794 C 69.740 334.850,76.077 336.466,84.657 334.825 C 91.041 333.603,86.964 337.245,127.513 296.538 C 127.829 296.221,136.350 287.706,146.448 277.615 C 156.546 267.524,166.077 257.962,167.628 256.365 C 169.179 254.768,170.579 253.462,170.739 253.462 C 170.898 253.462,172.373 251.947,174.015 250.096 C 175.658 248.245,177.580 246.298,178.287 245.769 C 178.994 245.240,180.720 243.517,182.123 241.939 C 183.526 240.361,185.244 238.682,185.940 238.209 C 187.172 237.372,189.381 234.686,190.987 232.071 C 195.503 224.718,204.204 224.809,210.168 232.274 C 211.281 233.667,219.142 241.769,227.635 250.278 C 236.128 258.786,243.077 265.920,243.077 266.131 C 243.077 266.342,246.409 269.851,250.481 273.930 C 254.553 278.008,258.144 281.713,258.462 282.163 C 258.779 282.613,260.250 284.037,261.731 285.328 C 266.357 289.360,276.242 298.929,284.302 307.177 C 285.716 308.624,287.447 310.353,288.148 311.019 C 288.849 311.686,290.660 313.503,292.172 315.058 C 293.684 316.613,295.386 318.317,295.955 318.846 C 296.987 319.806,299.367 322.153,306.694 329.436 C 310.928 333.644,315.114 336.142,319.242 336.925 C 321.607 337.374,321.854 337.328,328.228 335.262 L 333.187 333.654 339.610 327.885 C 343.143 324.712,346.489 321.731,347.046 321.261 C 349.504 319.185,349.675 314.329,347.344 312.830 C 346.795 312.477,344.718 310.615,342.729 308.691 C 340.739 306.767,337.364 303.526,335.229 301.488 C 332.074 298.479,327.314 293.745,316.818 283.179 C 316.558 282.918,314.962 281.322,313.269 279.633 C 308.286 274.658,308.185 274.557,305.006 271.346 C 303.330 269.654,301.688 268.010,301.356 267.692 C 301.025 267.375,289.880 256.212,276.591 242.885 C 263.302 229.558,251.942 218.221,251.346 217.692 C 250.750 217.163,249.122 215.519,247.728 214.038 C 246.333 212.558,244.605 210.827,243.887 210.192 C 243.168 209.558,241.438 207.842,240.040 206.381 C 238.643 204.919,233.952 200.129,229.615 195.737 C 225.279 191.345,221.471 187.477,221.154 187.141 C 220.837 186.806,219.345 185.408,217.838 184.035 C 216.332 182.663,214.696 180.950,214.202 180.229 C 213.708 179.509,212.864 178.655,212.325 178.332 C 210.936 177.498,207.769 174.303,206.610 172.567 C 204.421 169.287,199.786 168.293,196.450 170.388 " stroke="none" fill="#fafafa" fill-rule="evenodd"></path><path id="path3" d="M198.606 31.904 C 196.687 32.362,194.106 34.463,192.091 37.207 C 190.579 39.267,119.776 110.426,95.259 134.527 C 91.838 137.890,81.769 147.999,72.885 156.992 C 64.000 165.985,55.239 174.571,53.417 176.071 C 46.991 181.360,46.975 187.316,53.374 191.851 C 54.773 192.842,57.312 194.878,59.016 196.374 C 69.194 205.306,73.629 207.827,79.231 207.862 C 84.531 207.895,86.059 207.208,94.407 201.038 C 98.184 198.247,185.837 110.836,191.446 104.266 C 198.923 95.510,202.383 94.990,207.723 101.819 C 208.843 103.251,214.536 109.269,220.375 115.192 C 226.213 121.115,233.147 128.205,235.784 130.946 C 245.527 141.079,303.979 198.977,307.308 201.793 C 308.260 202.598,310.026 204.152,311.232 205.246 C 316.929 210.410,326.888 209.903,334.231 204.075 C 335.606 202.984,337.683 201.420,338.846 200.600 C 340.010 199.780,341.996 197.985,343.261 196.611 C 344.526 195.237,346.720 193.370,348.137 192.462 C 354.709 188.249,354.872 181.163,348.504 176.436 C 344.338 173.342,332.667 161.889,284.042 113.176 C 216.565 45.576,210.239 39.163,208.008 36.096 C 205.179 32.206,202.446 30.988,198.606 31.904 M203.832 33.262 C 205.195 33.953,206.298 34.989,207.822 37.012 C 208.980 38.550,212.372 42.231,215.358 45.192 C 218.344 48.154,221.037 50.837,221.341 51.154 C 227.238 57.296,300.163 130.502,311.570 141.731 C 314.794 144.904,320.130 150.286,323.427 153.691 C 331.112 161.626,345.099 174.869,347.898 176.859 C 354.150 181.304,353.830 187.771,347.133 192.300 C 345.643 193.308,343.380 195.236,342.106 196.585 C 339.353 199.500,330.590 206.041,328.449 206.778 C 322.365 208.874,314.705 208.106,312.284 205.156 C 311.980 204.786,310.260 203.254,308.462 201.752 C 303.592 197.685,250.239 144.699,226.132 119.989 C 211.703 105.199,209.715 103.093,207.134 99.856 C 202.811 94.435,197.360 95.436,191.689 102.692 C 186.007 109.963,96.680 198.506,91.297 202.202 C 79.937 210.004,74.043 208.898,60.355 196.398 C 58.996 195.157,56.520 193.179,54.852 192.002 C 47.858 187.070,47.612 181.846,54.118 176.463 C 57.262 173.862,66.359 164.903,82.550 148.462 C 87.862 143.067,114.404 116.500,141.532 89.423 C 168.671 62.336,191.625 39.119,192.565 37.805 C 194.484 35.126,197.316 32.846,199.043 32.592 C 201.394 32.246,201.992 32.330,203.832 33.262 M196.346 166.096 C 194.502 166.971,193.673 167.686,192.219 169.653 C 191.218 171.007,185.766 176.742,180.103 182.397 C 174.441 188.052,165.221 197.279,159.615 202.902 C 154.010 208.525,145.287 217.225,140.231 222.236 C 135.175 227.246,126.521 235.930,121.000 241.533 C 115.479 247.137,109.768 252.848,108.309 254.226 C 101.715 260.454,51.705 310.778,50.539 312.359 C 47.800 316.071,49.127 319.608,55.444 325.435 C 57.822 327.628,61.291 330.848,63.152 332.590 C 73.763 342.521,86.330 341.935,97.632 330.983 C 100.266 328.430,127.174 301.541,130.369 298.269 C 134.972 293.555,137.465 291.061,139.002 289.635 C 140.039 288.672,143.674 285.063,147.079 281.614 C 150.483 278.165,161.847 266.742,172.332 256.229 C 182.816 245.717,192.024 236.239,192.793 235.168 C 196.493 230.014,203.625 229.674,207.492 234.468 C 208.326 235.501,215.505 242.858,223.446 250.816 C 231.387 258.775,240.884 268.467,244.550 272.355 C 248.216 276.242,253.547 281.673,256.395 284.423 C 259.244 287.173,271.908 299.674,284.537 312.203 C 309.071 336.543,308.396 335.921,313.719 339.073 C 318.424 341.860,323.195 342.546,325.577 340.778 C 325.788 340.621,327.779 339.667,330.000 338.659 C 335.297 336.252,336.412 335.460,343.427 329.117 C 356.019 317.732,355.998 316.229,343.077 304.206 C 339.587 300.958,326.619 288.255,314.261 275.977 C 301.902 263.699,291.258 253.127,290.607 252.482 C 278.657 240.653,209.188 170.320,207.808 168.654 C 204.688 164.885,200.749 164.006,196.346 166.096 M207.084 169.148 C 207.912 170.146,212.066 174.453,216.314 178.721 C 220.563 182.989,238.663 201.224,256.538 219.244 C 274.413 237.264,291.884 254.801,295.363 258.216 C 298.841 261.630,309.052 271.793,318.055 280.801 C 327.057 289.809,337.625 300.171,341.538 303.829 C 355.315 316.706,355.336 317.451,342.258 329.151 C 335.564 335.139,334.832 335.630,328.269 338.525 C 317.526 343.264,315.833 342.272,289.038 315.515 C 271.897 298.398,262.902 289.590,259.799 286.887 C 257.965 285.289,243.161 270.084,240.361 266.923 C 238.956 265.337,231.326 257.548,223.405 249.615 C 215.484 241.683,208.347 234.377,207.545 233.380 C 203.521 228.383,196.418 229.063,192.055 234.864 C 188.872 239.095,94.066 333.788,91.531 335.269 C 81.926 340.876,71.832 339.519,62.995 331.432 C 47.086 316.872,46.912 316.196,56.665 306.923 C 58.778 304.913,61.562 302.145,62.850 300.770 C 64.138 299.395,65.966 297.578,66.912 296.731 C 67.858 295.885,69.503 294.247,70.566 293.091 C 71.630 291.936,99.250 264.243,131.943 231.553 C 164.637 198.862,191.970 171.292,192.684 170.286 C 196.310 165.170,203.318 164.616,207.084 169.148 " stroke="none" fill="#7c7c7c" fill-rule="evenodd"></path><path id="path4" d="M199.014 29.599 C 195.825 29.969,193.877 31.175,191.598 34.189 C 189.187 37.378,183.348 43.682,179.786 46.940 C 178.294 48.306,175.763 50.808,174.163 52.500 C 172.563 54.192,169.224 57.567,166.742 60.000 C 164.260 62.433,160.906 65.802,159.288 67.487 C 157.670 69.172,155.919 70.903,155.396 71.333 C 154.873 71.763,153.229 73.410,151.742 74.991 C 150.255 76.573,148.530 78.304,147.909 78.838 C 147.288 79.371,145.557 81.102,144.063 82.684 C 142.569 84.265,140.834 85.996,140.208 86.530 C 139.582 87.063,137.729 88.885,136.090 90.577 C 134.451 92.269,132.830 93.913,132.488 94.231 C 132.145 94.548,130.496 96.192,128.822 97.885 C 127.148 99.577,125.451 101.286,125.052 101.682 C 124.653 102.079,122.927 103.809,121.218 105.528 C 119.509 107.247,117.555 109.173,116.877 109.808 C 116.198 110.442,114.503 112.164,113.110 113.633 C 111.717 115.102,109.893 116.919,109.058 117.671 C 107.818 118.788,105.078 121.544,101.836 124.936 C 101.567 125.218,99.875 126.894,98.077 128.659 C 96.279 130.425,94.500 132.185,94.123 132.570 C 93.746 132.954,90.285 136.409,86.431 140.248 C 82.576 144.086,74.058 152.650,67.500 159.280 C 55.867 171.040,53.400 173.339,50.144 175.455 C 44.541 179.096,45.261 190.222,51.302 193.346 C 52.417 193.923,55.203 196.108,57.136 197.923 C 58.320 199.035,67.065 206.114,68.803 207.367 C 72.707 210.184,79.727 211.102,85.013 209.487 C 88.832 208.320,89.607 207.834,97.957 201.364 C 99.336 200.295,103.963 195.844,109.894 189.879 C 111.327 188.438,130.413 169.326,152.308 147.408 C 174.202 125.491,192.463 106.988,192.887 106.291 C 197.391 98.895,202.423 98.278,207.126 104.544 C 208.129 105.880,213.556 111.608,219.186 117.273 C 224.816 122.939,231.413 129.685,233.846 132.264 C 242.656 141.607,299.923 198.409,305.686 203.521 C 313.036 210.040,314.689 210.851,320.664 210.865 C 326.967 210.879,332.178 209.267,335.578 206.250 C 336.472 205.457,338.383 203.856,339.826 202.692 C 341.269 201.529,343.672 199.304,345.167 197.748 C 346.662 196.192,348.572 194.568,349.411 194.140 C 357.047 190.240,357.344 179.392,349.947 174.611 C 346.771 172.559,340.686 166.768,318.627 144.808 C 307.790 134.019,298.719 124.990,298.470 124.742 C 297.400 123.682,291.053 117.328,290.642 116.907 C 290.395 116.653,288.202 114.412,285.769 111.928 C 283.337 109.444,280.414 106.432,279.274 105.235 C 278.134 104.037,276.750 102.783,276.197 102.446 C 275.644 102.110,274.327 100.716,273.269 99.349 C 272.212 97.983,270.531 96.262,269.534 95.526 C 268.538 94.790,266.584 92.823,265.193 91.155 C 263.802 89.487,262.073 87.757,261.353 87.312 C 260.632 86.866,258.890 85.137,257.482 83.469 C 256.075 81.801,254.267 79.981,253.464 79.425 C 252.661 78.869,250.905 77.120,249.560 75.540 C 248.216 73.959,246.510 72.236,245.769 71.710 C 245.029 71.184,241.827 68.060,238.654 64.768 C 231.541 57.388,221.962 47.717,219.408 45.338 C 215.877 42.050,212.904 38.826,209.615 34.719 C 205.635 29.749,204.105 29.010,199.014 29.599 M204.202 32.485 C 205.563 33.175,206.597 34.156,208.008 36.096 C 210.239 39.163,216.565 45.576,284.042 113.176 C 332.667 161.889,344.338 173.342,348.504 176.436 C 354.872 181.163,354.709 188.249,348.137 192.462 C 346.720 193.370,344.526 195.237,343.261 196.611 C 341.996 197.985,340.010 199.780,338.846 200.600 C 337.683 201.420,335.606 202.984,334.231 204.075 C 326.888 209.903,316.929 210.410,311.232 205.246 C 310.026 204.152,308.260 202.598,307.308 201.793 C 303.979 198.977,245.527 141.079,235.784 130.946 C 233.147 128.205,226.213 121.115,220.375 115.192 C 214.536 109.269,208.843 103.251,207.723 101.819 C 202.383 94.990,198.923 95.510,191.446 104.266 C 185.837 110.836,98.184 198.247,94.407 201.038 C 80.356 211.422,75.422 210.772,59.016 196.374 C 57.312 194.878,54.773 192.842,53.374 191.851 C 46.975 187.316,46.991 181.360,53.417 176.071 C 55.239 174.571,64.000 165.985,72.885 156.992 C 81.769 147.999,91.838 137.890,95.259 134.527 C 119.776 110.426,190.579 39.267,192.091 37.207 C 195.897 32.025,200.077 30.395,204.202 32.485 M195.510 163.281 C 193.159 164.614,192.613 165.153,190.000 168.728 C 189.260 169.740,171.260 187.987,150.000 209.275 C 128.740 230.564,110.355 248.998,109.145 250.241 C 107.934 251.483,103.018 256.308,98.220 260.962 C 93.422 265.615,88.441 270.527,87.152 271.876 C 85.002 274.126,78.060 281.196,64.256 295.192 C 61.336 298.154,56.977 302.413,54.569 304.656 C 46.712 311.979,45.127 315.792,47.935 320.617 C 48.869 322.222,56.777 329.987,59.231 331.708 C 59.971 332.228,60.992 333.224,61.500 333.923 C 63.133 336.167,65.874 338.105,70.200 340.074 C 77.215 343.267,80.529 343.534,85.385 341.296 C 86.548 340.760,88.625 339.896,90.000 339.375 C 94.077 337.831,95.173 336.793,135.080 296.657 C 138.826 292.890,142.635 289.115,143.546 288.269 C 144.456 287.423,146.068 285.779,147.127 284.615 C 148.186 283.452,149.631 281.981,150.337 281.346 C 151.043 280.712,156.029 275.692,161.417 270.192 C 166.804 264.692,171.391 260.019,171.609 259.808 C 180.280 251.390,193.140 238.301,193.584 237.443 C 196.038 232.698,204.019 232.655,207.085 237.371 C 207.681 238.288,209.283 239.990,210.645 241.154 C 212.007 242.317,213.414 243.615,213.772 244.038 C 214.129 244.462,215.893 246.243,217.692 247.998 C 219.490 249.753,221.221 251.460,221.538 251.791 C 221.856 252.123,223.587 253.853,225.385 255.637 C 227.183 257.421,228.913 259.149,229.231 259.477 C 229.548 259.805,231.625 261.939,233.846 264.219 C 236.067 266.500,238.816 269.512,239.954 270.913 C 241.092 272.314,242.598 273.816,243.300 274.250 C 244.002 274.684,244.925 275.602,245.350 276.290 C 245.775 276.978,247.298 278.620,248.734 279.940 C 250.171 281.260,251.555 282.549,251.811 282.805 C 252.067 283.060,253.647 284.654,255.322 286.346 C 256.997 288.038,260.285 291.240,262.628 293.462 C 264.971 295.683,268.151 298.791,269.694 300.368 C 271.237 301.946,272.914 303.590,273.419 304.022 C 273.925 304.454,275.481 306.019,276.877 307.500 C 278.274 308.981,280.058 310.798,280.842 311.538 C 281.626 312.279,283.358 313.996,284.691 315.355 C 286.025 316.714,288.587 319.246,290.385 320.982 C 292.183 322.718,294.000 324.514,294.423 324.974 C 294.846 325.434,296.480 327.056,298.054 328.578 C 299.628 330.101,301.497 331.952,302.208 332.692 C 302.919 333.433,304.228 334.796,305.116 335.722 C 306.004 336.648,307.683 338.017,308.846 338.763 C 310.010 339.510,311.505 340.591,312.169 341.165 C 317.262 345.569,324.948 345.511,330.935 341.023 C 331.584 340.537,333.263 339.607,334.666 338.957 C 337.172 337.796,340.590 335.296,342.904 332.930 C 343.550 332.271,345.104 330.865,346.359 329.808 C 353.023 324.188,354.808 321.425,354.808 316.731 C 354.808 312.425,353.949 311.055,347.458 305.000 C 337.694 295.892,332.542 290.912,324.656 282.959 C 319.663 277.923,312.650 270.913,309.073 267.382 C 302.411 260.805,265.634 223.933,231.891 190.000 C 221.478 179.529,211.846 169.577,210.487 167.885 C 205.430 161.591,200.931 160.208,195.510 163.281 M204.007 165.671 C 205.459 166.189,206.342 166.882,207.808 168.654 C 209.188 170.320,278.657 240.653,290.607 252.482 C 291.258 253.127,301.902 263.699,314.261 275.977 C 326.619 288.255,339.587 300.958,343.077 304.206 C 355.998 316.229,356.019 317.732,343.427 329.117 C 336.412 335.460,335.297 336.252,330.000 338.659 C 327.779 339.667,325.788 340.621,325.577 340.778 C 323.195 342.546,318.424 341.860,313.719 339.073 C 308.396 335.921,309.071 336.543,284.537 312.203 C 271.908 299.674,259.244 287.173,256.395 284.423 C 253.547 281.673,248.216 276.242,244.550 272.355 C 240.884 268.467,231.387 258.775,223.446 250.816 C 215.505 242.858,208.326 235.501,207.492 234.468 C 203.625 229.674,196.493 230.014,192.793 235.168 C 192.024 236.239,182.816 245.717,172.332 256.229 C 161.847 266.742,150.483 278.165,147.079 281.614 C 143.674 285.063,140.039 288.672,139.002 289.635 C 137.465 291.061,134.972 293.555,130.369 298.269 C 127.174 301.541,100.266 328.430,97.632 330.983 C 86.330 341.935,73.763 342.521,63.152 332.590 C 61.291 330.848,57.822 327.628,55.444 325.435 C 49.127 319.608,47.800 316.071,50.539 312.359 C 51.705 310.778,101.715 260.454,108.309 254.226 C 109.768 252.848,115.479 247.137,121.000 241.533 C 126.521 235.930,135.175 227.246,140.231 222.236 C 145.287 217.225,154.010 208.525,159.615 202.902 C 165.221 197.279,174.441 188.052,180.103 182.397 C 185.766 176.742,191.218 171.007,192.219 169.653 C 195.277 165.516,199.538 164.076,204.007 165.671 " stroke="none" fill="#6f706f" fill-rule="evenodd"></path></g></svg>