<svg id="svg" version="1.1" xmlns="http://www.w3.org/2000/svg" xmlns:xlink="http://www.w3.org/1999/xlink" width="400" height="384.9624060150376" viewBox="0, 0, 400,384.9624060150376"><g id="svgg"><path id="path0" d="M154.957 75.435 C 130.395 99.995,105.052 125.336,98.640 131.748 C 73.512 156.876,47.811 182.893,47.617 183.399 C 47.369 184.045,62.607 199.308,66.103 201.915 C 67.417 202.894,69.583 204.058,70.916 204.500 C 72.249 204.943,73.566 205.483,73.841 205.700 C 74.502 206.221,83.731 206.219,84.388 205.698 C 84.664 205.479,86.015 204.929,87.392 204.475 C 91.670 203.065,93.571 201.249,147.270 147.264 C 176.024 118.358,199.827 94.706,200.165 94.706 C 200.504 94.706,209.309 103.325,219.733 113.859 C 271.129 165.799,309.243 203.657,310.139 203.657 C 310.552 203.657,311.527 204.090,312.306 204.620 C 313.085 205.149,313.948 205.585,314.224 205.588 C 314.595 205.593,314.607 205.670,314.271 205.883 C 313.939 206.094,314.009 206.427,314.531 207.119 L 315.245 208.065 317.103 207.399 C 318.180 207.013,320.065 206.734,321.591 206.735 C 324.731 206.738,329.629 205.559,332.820 204.033 C 335.202 202.895,353.417 185.579,353.417 184.453 C 353.417 183.557,352.728 182.681,349.123 178.989 C 347.144 176.963,344.991 174.711,344.338 173.985 C 343.686 173.260,342.831 172.481,342.439 172.255 C 342.047 172.029,341.541 171.521,341.315 171.126 C 340.770 170.171,338.509 167.854,338.123 167.854 C 337.955 167.854,337.601 167.507,337.337 167.084 C 337.072 166.660,336.625 166.314,336.342 166.314 C 336.059 166.314,310.724 141.098,280.041 110.278 C 207.936 37.852,201.065 31.012,200.274 30.886 C 199.840 30.816,184.352 46.041,154.957 75.435 M129.355 233.670 C 90.712 272.374,58.875 304.279,58.606 304.570 C 57.447 305.829,50.143 313.189,49.144 314.105 C 46.852 316.208,46.625 315.819,54.934 324.037 C 64.960 333.953,68.415 336.862,70.170 336.862 C 70.494 336.862,71.735 337.376,72.928 338.003 C 74.683 338.926,75.283 339.073,76.072 338.773 C 77.376 338.277,81.477 338.301,82.428 338.809 C 83.017 339.125,83.465 339.045,84.424 338.452 C 85.103 338.032,86.523 337.395,87.578 337.037 C 91.361 335.753,94.021 333.208,146.295 280.866 C 175.409 251.713,199.531 227.694,199.898 227.491 C 200.609 227.097,238.249 264.144,238.854 265.833 C 239.006 266.256,244.965 272.350,252.096 279.375 C 259.228 286.401,275.113 302.122,287.396 314.313 C 301.400 328.211,310.006 336.477,310.471 336.477 C 311.516 336.477,313.502 337.922,314.251 339.227 C 314.736 340.073,315.164 340.327,316.102 340.327 C 317.055 340.327,317.232 340.218,316.910 339.830 C 316.577 339.429,317.330 339.334,320.809 339.340 C 325.366 339.347,328.270 338.698,332.948 336.630 C 335.335 335.574,353.417 318.047,353.417 316.790 C 353.417 316.173,352.226 314.788,348.094 310.596 C 346.275 308.752,346.335 308.817,344.915 307.119 C 344.250 306.322,343.220 305.384,342.627 305.034 C 342.033 304.683,341.370 304.007,341.154 303.531 C 340.937 303.055,339.537 301.655,338.042 300.419 C 335.707 298.487,267.528 230.408,216.753 179.307 C 207.969 170.467,200.520 163.249,200.199 163.268 C 199.878 163.286,167.998 194.967,129.355 233.670 " stroke="none" fill="#fafafa" fill-rule="evenodd"></path><path id="path1" d="M192.161 11.937 C 191.662 12.359,190.747 12.705,190.128 12.705 C 189.510 12.705,188.911 12.946,188.798 13.242 C 188.649 13.628,188.162 13.722,187.069 13.575 C 185.467 13.360,184.023 14.171,184.023 15.283 C 184.023 15.578,183.807 15.790,183.542 15.756 C 182.343 15.600,182.051 15.800,182.306 16.603 C 182.472 17.125,182.421 17.332,182.167 17.174 C 180.977 16.439,178.106 19.239,178.837 20.422 C 178.962 20.624,178.880 20.789,178.656 20.789 C 178.432 20.789,178.248 20.616,178.248 20.404 C 178.248 20.192,177.902 20.019,177.478 20.019 C 177.051 20.019,176.708 20.276,176.708 20.597 C 176.708 20.937,177.060 21.174,177.564 21.174 L 178.419 21.174 177.607 21.987 C 177.159 22.434,176.279 22.826,175.650 22.857 C 174.317 22.924,173.302 23.666,172.825 24.919 C 172.639 25.408,172.051 25.974,171.518 26.176 C 170.985 26.379,170.549 26.809,170.549 27.132 C 170.549 27.839,169.931 27.910,169.622 27.238 C 169.500 26.973,169.497 27.146,169.616 27.623 C 169.839 28.525,169.218 28.849,168.879 28.008 C 168.753 27.696,168.674 27.743,168.654 28.141 C 168.637 28.478,168.271 29.074,167.840 29.464 C 167.409 29.854,167.142 30.395,167.246 30.666 C 167.350 30.937,167.269 31.262,167.067 31.387 C 166.864 31.512,166.699 32.033,166.699 32.544 C 166.699 33.373,166.572 33.449,165.544 33.244 C 164.591 33.053,164.387 33.139,164.377 33.734 C 164.356 34.940,163.390 35.997,163.070 35.163 C 162.787 34.424,161.309 36.423,161.309 37.545 C 161.309 38.094,160.875 38.273,159.865 38.142 C 159.601 38.108,159.384 38.347,159.384 38.674 C 159.384 39.001,159.570 39.269,159.797 39.269 C 160.023 39.269,159.908 39.569,159.541 39.936 C 159.166 40.312,158.456 40.549,157.920 40.479 C 157.106 40.373,156.998 40.478,157.187 41.197 C 157.373 41.910,157.280 42.006,156.577 41.823 C 155.581 41.562,153.994 42.892,153.994 43.988 C 153.994 44.399,153.785 44.653,153.520 44.564 C 152.982 44.385,151.959 46.094,152.287 46.623 C 152.656 47.221,151.802 46.997,151.271 46.357 C 150.815 45.807,150.734 45.827,150.467 46.549 C 150.303 46.992,149.900 47.353,149.572 47.353 C 149.118 47.353,149.036 47.598,149.230 48.371 C 149.466 49.310,149.406 49.374,148.458 49.193 C 147.590 49.027,147.466 49.108,147.658 49.715 C 147.811 50.195,147.698 50.433,147.317 50.433 C 146.655 50.433,144.755 52.565,144.755 53.308 C 144.755 53.587,144.321 53.923,143.792 54.056 C 143.091 54.232,142.830 54.555,142.830 55.248 C 142.830 55.987,142.649 56.178,142.018 56.107 C 141.547 56.054,141.022 56.332,140.767 56.769 C 140.133 57.857,139.648 58.334,138.884 58.624 C 138.513 58.764,138.210 59.144,138.210 59.468 C 138.210 59.792,137.991 60.058,137.724 60.058 C 137.456 60.058,137.066 60.447,136.857 60.922 C 136.648 61.398,136.001 62.014,135.419 62.291 C 134.836 62.568,134.360 63.049,134.360 63.359 C 134.360 63.670,133.920 64.124,133.383 64.369 C 132.845 64.614,132.483 65.017,132.578 65.264 C 132.689 65.555,132.425 65.650,131.822 65.535 C 131.290 65.433,130.895 65.541,130.895 65.788 C 130.895 66.024,131.068 66.218,131.280 66.218 C 131.492 66.218,131.319 66.564,130.895 66.987 C 130.472 67.411,129.952 67.757,129.740 67.757 C 129.528 67.757,129.355 67.943,129.355 68.170 C 129.355 68.917,128.275 69.687,127.594 69.425 C 127.035 69.211,126.971 69.333,127.187 70.197 C 127.344 70.820,127.286 71.222,127.041 71.222 C 126.819 71.222,126.090 71.845,125.421 72.607 C 124.753 73.368,123.805 74.144,123.315 74.330 C 122.710 74.560,122.425 74.979,122.425 75.640 C 122.425 76.427,122.237 76.612,121.437 76.612 C 120.624 76.612,120.492 76.749,120.693 77.382 C 120.861 77.911,120.762 78.152,120.379 78.152 C 120.072 78.152,119.722 78.527,119.602 78.985 C 119.424 79.668,119.282 79.734,118.820 79.350 C 118.359 78.967,118.208 79.030,117.998 79.694 C 117.856 80.141,117.321 80.665,116.810 80.859 C 116.299 81.054,115.881 81.477,115.881 81.800 C 115.881 82.123,115.648 82.387,115.363 82.387 C 115.078 82.387,114.515 82.763,114.112 83.222 C 113.453 83.972,113.447 84.032,114.052 83.812 C 114.503 83.647,114.726 83.757,114.726 84.144 C 114.726 84.461,114.460 84.823,114.134 84.948 C 113.604 85.151,113.605 85.269,114.143 86.091 C 114.731 86.987,114.469 87.355,113.744 86.652 C 112.766 85.702,110.418 85.715,110.541 86.669 C 110.712 87.988,110.269 88.471,109.097 88.247 C 108.147 88.066,108.089 88.128,108.327 89.077 C 108.676 90.466,107.990 91.627,106.820 91.627 C 106.298 91.627,105.871 91.821,105.871 92.059 C 105.871 92.340,105.646 92.306,105.229 91.962 C 104.645 91.482,104.610 91.553,104.843 92.732 C 105.071 93.879,105.031 93.972,104.499 93.531 C 103.973 93.094,103.929 93.158,104.151 94.040 C 104.344 94.812,104.169 95.299,103.397 96.128 L 102.391 97.209 102.656 95.861 C 102.909 94.575,102.887 94.540,102.182 95.091 C 101.086 95.949,100.861 96.366,101.093 97.113 C 101.240 97.584,101.093 97.787,100.603 97.788 C 99.132 97.791,95.977 101.172,97.046 101.600 C 97.963 101.966,97.959 101.973,96.824 101.998 C 96.056 102.015,95.088 102.529,93.936 103.530 L 92.204 105.037 93.167 105.430 C 94.111 105.815,94.106 105.823,92.878 105.847 C 92.190 105.860,91.627 106.044,91.627 106.256 C 91.627 106.468,91.173 106.641,90.619 106.641 C 89.754 106.641,89.638 106.776,89.795 107.597 C 89.956 108.440,89.870 108.526,89.070 108.325 C 88.525 108.189,88.162 108.268,88.162 108.524 C 88.162 108.759,88.436 108.951,88.771 108.951 C 89.560 108.951,89.260 109.875,88.419 110.038 C 88.023 110.115,87.777 109.912,87.777 109.509 C 87.777 108.969,87.676 108.940,87.191 109.343 C 86.852 109.624,86.700 110.132,86.831 110.545 C 86.988 111.037,86.868 111.261,86.448 111.261 C 85.993 111.261,85.897 111.500,86.072 112.196 C 86.270 112.985,86.189 113.101,85.555 112.935 C 85.094 112.815,84.715 112.968,84.576 113.331 C 84.451 113.656,83.661 114.357,82.821 114.887 C 81.981 115.418,81.181 116.205,81.044 116.636 C 80.907 117.068,80.581 117.421,80.319 117.421 C 79.209 117.421,77.183 120.093,77.684 120.896 C 78.097 121.557,78.059 121.655,77.385 121.655 C 76.844 121.655,76.609 121.915,76.600 122.522 C 76.590 123.295,76.547 123.316,76.196 122.714 C 75.487 121.497,73.683 122.620,74.123 124.006 C 74.310 124.596,74.160 124.735,73.340 124.735 C 72.501 124.735,72.368 124.868,72.570 125.505 C 72.766 126.122,72.637 126.278,71.922 126.288 C 70.555 126.306,69.329 127.347,70.069 127.861 C 70.515 128.170,70.411 128.223,69.609 128.096 C 68.764 127.961,68.491 128.128,68.130 129.000 C 67.886 129.588,67.443 130.163,67.145 130.278 C 66.847 130.392,66.603 130.732,66.603 131.034 C 66.603 131.335,66.169 131.690,65.640 131.823 C 64.530 132.102,64.394 133.014,65.277 134.274 C 65.841 135.079,65.827 135.130,65.048 135.130 C 64.544 135.130,64.142 135.431,64.019 135.900 C 63.908 136.323,63.558 136.670,63.241 136.670 C 62.741 136.670,62.747 136.544,63.286 135.721 C 64.451 133.943,63.794 133.302,62.372 134.829 C 61.721 135.528,61.621 135.983,61.822 137.323 L 62.068 138.963 60.836 138.349 C 59.322 137.593,56.347 139.910,56.840 141.462 C 57.060 142.154,57.014 142.184,56.456 141.721 C 56.043 141.378,55.823 141.346,55.823 141.628 C 55.823 142.197,54.706 143.275,53.425 143.943 C 52.860 144.238,52.345 144.844,52.281 145.290 C 52.204 145.832,51.739 146.227,50.886 146.478 C 49.822 146.791,49.636 147.006,49.780 147.759 C 49.928 148.537,49.831 148.633,49.082 148.445 C 47.870 148.141,47.044 149.144,48.006 149.753 C 48.590 150.123,48.521 150.155,47.575 149.952 C 46.612 149.746,46.517 149.793,46.921 150.280 C 47.309 150.748,47.247 150.896,46.571 151.111 C 45.930 151.314,45.799 151.577,45.980 152.298 C 46.171 153.057,46.066 153.224,45.400 153.224 C 44.906 153.224,44.506 153.531,44.382 154.005 C 44.237 154.561,43.970 154.720,43.456 154.557 C 42.600 154.285,42.464 155.070,43.311 155.395 C 44.350 155.794,43.917 156.304,42.541 156.304 C 41.424 156.304,41.193 156.444,41.193 157.121 C 41.193 157.761,41.081 157.845,40.677 157.510 C 40.063 157.000,39.654 157.316,39.654 158.298 C 39.654 159.478,38.846 160.423,37.964 160.276 C 36.941 160.105,35.414 161.985,36.188 162.463 C 36.902 162.905,36.287 163.619,35.194 163.619 C 34.543 163.619,34.133 163.913,33.889 164.554 C 33.656 165.166,33.175 165.532,32.494 165.613 C 31.922 165.681,31.263 166.080,31.030 166.501 C 30.797 166.921,30.303 167.548,29.933 167.893 C 29.562 168.239,29.259 168.804,29.259 169.150 C 29.259 169.516,28.946 169.779,28.511 169.779 C 27.906 169.779,27.741 170.092,27.645 171.415 C 27.535 172.936,26.758 173.631,26.755 172.212 C 26.752 171.235,25.839 171.148,25.057 172.050 C 24.672 172.495,24.203 172.860,24.016 172.862 C 23.510 172.866,22.728 174.757,22.971 175.389 C 23.099 175.724,22.940 175.938,22.563 175.938 C 22.223 175.938,21.944 176.160,21.944 176.430 C 21.944 176.701,21.598 177.219,21.174 177.582 C 20.262 178.362,20.174 179.018,20.982 179.018 C 21.299 179.018,21.559 179.346,21.559 179.745 C 21.559 180.202,21.308 180.453,20.886 180.419 C 20.440 180.384,20.167 180.692,20.079 181.328 C 20.005 181.858,19.780 182.492,19.579 182.738 C 19.342 183.026,19.362 183.277,19.634 183.446 C 19.939 183.634,19.935 183.853,19.620 184.233 C 19.380 184.522,19.287 184.928,19.414 185.134 C 19.542 185.340,19.276 185.564,18.823 185.632 C 17.411 185.844,17.383 190.152,18.794 190.209 C 19.282 190.229,19.228 190.338,18.576 190.653 C 17.641 191.104,17.301 193.735,18.113 194.237 C 18.393 194.410,18.394 194.635,18.117 194.968 C 17.324 195.924,17.695 200.597,18.590 200.928 C 19.380 201.220,19.380 201.224,18.546 201.442 C 17.545 201.703,17.769 202.713,18.893 203.006 C 19.355 203.127,19.555 203.416,19.420 203.767 C 19.134 204.513,20.391 208.331,20.832 208.058 C 21.020 207.942,21.177 207.467,21.180 207.003 C 21.184 206.402,21.278 206.306,21.508 206.667 C 21.685 206.946,21.671 208.047,21.477 209.112 C 21.192 210.683,21.239 211.176,21.727 211.715 C 22.058 212.081,22.329 212.547,22.329 212.752 C 22.329 212.956,23.369 214.192,24.639 215.498 C 25.910 216.805,26.949 218.065,26.949 218.299 C 26.949 218.548,27.266 218.623,27.719 218.479 C 28.223 218.319,28.490 218.410,28.491 218.742 C 28.494 219.321,30.551 220.597,31.481 220.597 C 31.993 220.597,31.971 220.695,31.354 221.162 C 30.644 221.699,30.666 221.728,31.793 221.739 C 32.691 221.749,33.111 222.009,33.525 222.810 C 34.231 224.178,35.312 225.366,34.928 224.350 C 34.577 223.425,35.861 223.447,36.706 224.381 C 37.496 225.254,37.513 225.602,36.766 225.602 C 35.601 225.602,36.988 227.469,38.566 228.023 C 38.920 228.148,39.503 228.867,39.861 229.621 C 40.219 230.375,40.764 230.991,41.072 230.991 C 41.724 230.991,42.733 231.906,42.733 232.496 C 42.733 232.962,44.446 233.478,44.953 233.165 C 45.337 232.927,46.145 233.800,46.914 235.285 C 47.800 236.995,50.088 237.551,49.455 235.903 C 49.295 235.484,49.517 235.395,50.400 235.524 L 51.555 235.694 50.176 236.995 L 48.797 238.296 50.289 238.227 C 51.109 238.190,52.047 238.283,52.372 238.434 C 52.737 238.605,53.288 238.407,53.815 237.916 C 54.284 237.479,54.668 237.313,54.668 237.549 C 54.668 238.094,53.695 239.076,53.156 239.076 C 52.564 239.076,52.647 239.672,53.316 240.227 C 53.780 240.612,53.934 240.585,54.127 240.082 C 54.520 239.059,55.355 239.339,55.147 240.423 C 54.947 241.473,55.252 241.584,56.760 241.010 C 57.588 240.696,57.748 240.744,57.748 241.311 C 57.748 242.200,60.005 243.126,60.300 242.358 C 60.686 241.351,63.523 241.229,63.523 242.220 C 63.523 242.421,63.330 242.467,63.095 242.322 C 62.859 242.176,62.513 242.296,62.325 242.588 C 62.038 243.033,61.916 243.026,61.568 242.541 C 61.200 242.028,61.172 242.028,61.313 242.541 C 61.400 242.859,61.728 243.121,62.043 243.125 C 62.357 243.128,63.107 243.454,63.710 243.849 C 64.717 244.509,64.843 244.517,65.265 243.939 C 65.841 243.152,66.603 243.123,66.603 243.888 C 66.603 244.304,67.028 244.466,68.120 244.466 C 68.954 244.466,69.744 244.639,69.875 244.851 C 70.006 245.063,70.525 245.236,71.030 245.236 C 71.534 245.236,72.068 245.431,72.215 245.670 C 72.398 245.965,72.601 245.896,72.848 245.455 C 73.183 244.855,73.284 244.852,74.153 245.421 C 74.670 245.760,75.296 245.913,75.544 245.760 C 76.214 245.345,80.435 245.265,80.680 245.662 C 80.972 246.134,82.913 246.096,83.400 245.609 C 83.632 245.376,84.141 245.340,84.631 245.521 C 85.396 245.804,85.159 246.135,81.809 249.471 C 79.798 251.474,78.152 253.287,78.152 253.499 C 78.152 254.010,70.387 261.790,69.877 261.790 C 69.374 261.790,57.748 273.412,57.748 273.915 C 57.748 274.418,49.976 282.194,49.473 282.194 C 48.960 282.194,37.729 293.437,37.729 293.950 C 37.729 294.164,36.343 295.717,34.649 297.401 C 32.955 299.085,31.569 300.684,31.569 300.953 C 31.569 301.223,31.175 301.444,30.694 301.444 C 29.791 301.444,23.484 307.387,23.484 308.238 C 23.484 308.472,23.228 308.877,22.915 309.137 C 22.174 309.751,21.174 311.767,21.174 312.645 C 21.174 313.023,21.001 313.440,20.789 313.571 C 20.577 313.702,20.404 314.578,20.404 315.518 C 20.404 316.459,20.231 317.228,20.019 317.228 C 19.808 317.228,19.634 317.820,19.634 318.544 C 19.634 320.240,19.302 321.078,18.631 321.078 C 18.197 321.078,18.094 322.145,18.094 326.660 C 18.094 331.175,18.197 332.243,18.631 332.243 C 19.339 332.243,19.634 333.094,19.634 335.139 C 19.634 336.062,19.808 336.924,20.019 337.055 C 20.231 337.186,20.404 337.889,20.404 338.618 C 20.404 339.346,20.577 339.942,20.789 339.942 C 21.001 339.942,21.174 340.262,21.174 340.653 C 21.174 341.550,22.166 343.562,22.915 344.184 C 23.228 344.444,23.484 344.856,23.484 345.100 C 23.484 345.745,28.981 351.105,29.653 351.116 C 30.283 351.126,33.109 353.533,33.109 354.059 C 33.109 354.553,41.712 363.041,42.212 363.041 C 42.448 363.041,43.429 363.908,44.392 364.966 C 45.356 366.025,46.347 366.891,46.594 366.891 C 46.842 366.891,47.530 367.411,48.123 368.046 C 48.717 368.681,49.533 369.201,49.937 369.201 C 50.342 369.201,51.009 369.506,51.419 369.880 C 53.287 371.577,64.122 376.131,66.294 376.131 C 66.624 376.131,67.117 376.401,67.391 376.731 C 67.753 377.167,68.271 377.267,69.282 377.096 C 70.048 376.966,71.448 377.063,72.392 377.310 C 74.758 377.930,85.572 378.124,85.924 377.553 C 86.085 377.294,87.434 377.110,89.287 377.095 C 91.176 377.080,92.564 376.887,92.851 376.600 C 93.109 376.342,93.709 376.131,94.183 376.131 C 94.658 376.131,95.153 375.958,95.284 375.746 C 95.415 375.534,95.935 375.361,96.439 375.361 C 96.943 375.361,97.463 375.188,97.594 374.976 C 97.725 374.764,98.163 374.591,98.567 374.591 C 98.972 374.591,99.920 374.244,100.674 373.821 C 101.428 373.397,102.294 373.051,102.599 373.051 C 102.903 373.051,103.770 372.705,104.524 372.281 C 105.278 371.858,106.236 371.511,106.653 371.511 C 107.070 371.511,107.411 371.338,107.411 371.126 C 107.411 370.914,107.757 370.741,108.181 370.741 C 108.604 370.741,108.951 370.568,108.951 370.356 C 108.951 370.144,109.297 369.971,109.721 369.971 C 110.144 369.971,110.491 369.798,110.491 369.586 C 110.491 369.374,110.750 369.201,111.067 369.201 C 111.593 369.201,123.990 356.897,124.286 356.080 C 124.357 355.886,124.586 355.727,124.795 355.727 C 125.258 355.727,126.275 354.750,126.275 354.305 C 126.275 354.127,127.271 353.020,128.489 351.843 C 146.500 334.435,145.910 335.021,145.910 334.551 C 145.910 334.080,149.030 330.882,149.710 330.655 C 150.458 330.405,166.314 314.494,166.314 313.992 C 166.314 313.430,169.077 310.683,169.643 310.683 C 170.109 310.683,186.055 294.772,186.287 294.074 C 186.511 293.404,189.711 290.279,190.174 290.279 C 190.391 290.279,192.761 288.027,195.439 285.274 C 201.298 279.251,200.804 279.308,205.582 284.119 C 207.685 286.237,209.589 287.969,209.813 287.969 C 210.487 287.969,215.977 293.786,215.977 294.500 C 215.977 295.194,229.494 309.143,230.166 309.143 C 230.672 309.143,235.226 313.656,235.226 314.157 C 235.226 314.612,244.702 324.158,245.154 324.158 C 245.325 324.158,246.141 324.851,246.968 325.698 C 247.795 326.545,248.638 327.238,248.840 327.238 C 249.356 327.238,257.940 335.769,257.940 336.282 C 257.940 336.513,260.276 338.947,263.131 341.691 C 269.821 348.121,276.694 354.985,283.927 362.458 C 287.103 365.740,290.005 368.426,290.375 368.428 C 290.746 368.430,291.049 368.604,291.049 368.816 C 291.049 369.028,291.272 369.201,291.543 369.201 C 291.815 369.201,292.985 370.169,294.142 371.353 C 295.299 372.536,296.653 373.664,297.150 373.860 C 297.647 374.055,298.145 374.564,298.256 374.991 C 298.401 375.543,298.668 375.701,299.182 375.538 C 299.580 375.412,299.904 375.493,299.904 375.720 C 299.904 375.946,300.423 376.131,301.059 376.131 C 301.835 376.131,302.214 376.323,302.214 376.716 C 302.214 377.150,302.466 377.237,303.192 377.055 C 303.853 376.889,304.409 377.026,304.909 377.478 C 305.393 377.917,305.969 378.066,306.581 377.913 C 307.179 377.763,307.687 377.885,307.992 378.252 C 308.319 378.647,309.208 378.826,310.846 378.826 C 312.154 378.826,313.409 379.011,313.636 379.237 C 314.434 380.035,332.422 379.120,333.412 378.231 C 333.750 377.928,334.374 377.797,334.868 377.926 C 335.412 378.068,336.008 377.904,336.475 377.481 C 336.969 377.034,337.535 376.890,338.171 377.049 C 338.696 377.181,339.233 377.114,339.365 376.901 C 339.595 376.529,342.714 374.976,343.232 374.976 C 343.370 374.976,344.029 374.740,344.696 374.453 C 347.358 373.304,348.092 373.051,348.756 373.051 C 349.638 373.051,351.652 372.053,352.268 371.311 C 352.528 370.997,352.935 370.741,353.172 370.741 C 353.409 370.741,357.377 366.973,361.989 362.368 C 368.540 355.827,370.453 354.118,370.729 354.559 C 371.015 355.016,371.153 354.944,371.456 354.174 C 371.662 353.651,373.231 351.842,374.943 350.153 C 376.655 348.464,378.056 346.883,378.056 346.639 C 378.056 346.396,378.312 345.984,378.625 345.724 C 379.366 345.109,380.366 343.094,380.366 342.216 C 380.366 341.837,380.539 341.421,380.751 341.290 C 380.962 341.159,381.136 340.456,381.136 339.727 C 381.136 338.998,381.287 338.402,381.472 338.402 C 381.801 338.402,381.957 337.469,382.658 331.280 C 383.032 327.982,382.825 322.150,382.290 320.885 C 382.110 320.462,381.877 319.682,381.770 319.153 C 380.968 315.159,380.251 312.359,379.951 312.050 C 379.755 311.849,379.596 311.313,379.596 310.859 C 379.596 310.404,379.249 309.719,378.826 309.336 C 378.402 308.953,378.056 308.441,378.056 308.199 C 378.056 307.958,377.363 307.083,376.516 306.256 C 375.669 305.429,374.976 304.566,374.976 304.338 C 374.976 303.817,370.279 299.134,369.757 299.134 C 369.267 299.134,364.581 294.425,364.581 293.933 C 364.581 293.431,356.804 285.659,356.301 285.659 C 356.081 285.659,354.609 284.360,353.032 282.772 C 351.454 281.184,349.969 279.885,349.730 279.885 C 349.492 279.885,347.755 278.224,345.871 276.195 C 341.507 271.495,332.283 262.271,327.268 257.592 C 325.134 255.601,323.388 253.778,323.388 253.541 C 323.388 253.304,322.002 251.732,320.308 250.048 C 318.614 248.364,317.228 246.850,317.228 246.684 C 317.228 246.277,320.368 246.776,321.011 247.285 C 321.376 247.573,321.609 247.548,321.826 247.197 C 322.070 246.802,322.281 246.800,322.900 247.186 C 323.370 247.479,323.954 247.545,324.396 247.355 C 324.794 247.183,325.813 246.983,326.660 246.912 C 327.507 246.840,328.677 246.586,329.259 246.347 C 330.072 246.013,330.454 246.025,330.903 246.397 C 331.377 246.791,331.612 246.772,332.154 246.295 C 332.575 245.924,333.264 245.776,334.026 245.894 C 334.689 245.996,335.349 245.890,335.492 245.658 C 335.635 245.426,336.240 245.236,336.835 245.236 C 337.641 245.236,338.153 244.891,338.834 243.891 C 339.875 242.362,340.327 242.190,340.327 243.323 C 340.327 244.249,341.350 244.752,341.970 244.132 C 342.210 243.892,342.783 243.696,343.244 243.696 C 343.706 243.696,344.287 243.450,344.537 243.148 C 344.787 242.847,345.674 242.486,346.509 242.345 C 348.109 242.074,348.483 241.583,347.353 241.235 C 346.983 241.120,347.439 241.094,348.368 241.177 C 349.297 241.259,350.337 241.180,350.678 240.999 C 351.020 240.819,351.613 240.574,351.997 240.454 C 352.405 240.327,352.581 240.051,352.419 239.789 C 352.247 239.511,352.311 239.446,352.588 239.617 C 352.856 239.783,353.170 239.533,353.376 238.992 C 353.576 238.465,354.068 238.065,354.561 238.028 C 355.902 237.927,356.497 237.170,356.497 235.564 C 356.497 234.743,356.670 234.071,356.882 234.071 C 357.093 234.071,357.267 234.504,357.267 235.034 C 357.267 235.638,357.484 235.996,357.851 235.996 C 358.283 235.996,358.373 235.744,358.195 235.034 C 358.046 234.441,358.117 234.071,358.380 234.071 C 358.615 234.071,358.810 234.374,358.815 234.745 C 358.821 235.145,359.084 234.891,359.465 234.119 C 360.036 232.959,360.042 232.772,359.519 232.386 C 359.006 232.008,359.039 231.842,359.779 231.056 C 360.547 230.241,360.649 230.221,360.883 230.832 C 361.075 231.330,361.254 231.393,361.575 231.072 C 361.895 230.751,361.867 230.468,361.466 229.981 C 360.968 229.377,361.039 229.342,362.348 229.552 C 363.691 229.768,366.457 227.723,366.521 226.467 C 366.529 226.308,367.308 225.573,368.253 224.833 C 369.995 223.469,370.362 222.744,369.490 222.392 C 369.151 222.255,369.143 222.188,369.462 222.167 C 369.712 222.150,370.168 222.388,370.475 222.696 C 371.151 223.371,371.511 223.088,371.511 221.880 C 371.511 221.386,371.692 220.982,371.912 220.982 C 372.944 220.982,376.558 217.839,376.126 217.318 C 375.886 217.029,375.399 216.903,375.044 217.037 C 374.440 217.265,374.441 217.239,375.045 216.629 C 375.400 216.270,376.066 215.977,376.524 215.977 C 377.034 215.977,377.436 215.678,377.559 215.207 C 377.670 214.783,377.988 214.437,378.265 214.437 C 378.847 214.437,379.960 212.391,380.025 211.202 C 380.061 210.552,380.104 210.526,380.246 211.068 C 380.680 212.730,381.353 211.353,381.226 209.063 C 381.209 208.754,381.372 208.170,381.589 207.764 C 381.806 207.358,382.027 206.658,382.080 206.208 C 382.268 204.594,382.771 202.687,383.124 202.248 C 383.351 201.965,383.328 201.705,383.061 201.540 C 382.762 201.355,382.758 201.135,383.047 200.787 C 383.342 200.431,383.294 200.161,382.873 199.811 C 382.049 199.128,382.129 197.883,382.996 197.883 C 384.048 197.883,384.290 197.444,383.541 196.897 C 382.918 196.441,382.921 196.365,383.607 195.607 C 384.251 194.895,384.262 194.803,383.698 194.803 C 382.889 194.803,382.868 194.189,383.667 193.883 C 384.218 193.671,384.218 193.595,383.667 193.044 C 382.880 192.257,382.900 191.822,383.734 191.599 C 384.296 191.449,384.258 191.372,383.510 191.133 C 382.680 190.868,382.621 190.670,382.740 188.559 C 382.847 186.648,382.745 186.181,382.121 185.725 C 381.710 185.424,381.580 185.178,381.832 185.178 C 382.589 185.178,382.349 183.696,381.521 183.253 C 380.609 182.765,380.478 182.018,381.364 182.358 C 381.854 182.546,381.800 182.254,381.095 180.902 C 380.609 179.972,380.254 178.993,380.306 178.727 C 380.358 178.461,379.786 177.881,379.036 177.438 C 377.429 176.489,377.305 176.217,378.633 176.550 C 379.843 176.854,379.886 176.239,378.730 175.159 C 378.227 174.689,377.519 174.414,377.045 174.504 C 376.302 174.644,376.207 174.447,376.020 172.383 C 375.762 169.538,375.022 168.602,373.256 168.889 C 372.051 169.084,371.996 169.042,372.183 168.066 C 372.337 167.262,372.208 166.993,371.596 166.832 C 371.165 166.720,370.721 166.280,370.610 165.854 C 370.499 165.429,370.248 165.180,370.053 165.300 C 369.858 165.421,369.504 165.092,369.266 164.569 C 368.834 163.621,366.891 163.158,366.891 164.004 C 366.891 164.216,366.631 164.389,366.314 164.389 C 365.633 164.389,365.603 164.202,366.127 163.223 C 366.372 162.764,366.749 162.581,367.140 162.731 C 367.572 162.897,367.491 162.659,366.872 161.947 C 365.888 160.816,365.490 160.683,365.243 161.405 C 365.153 161.670,365.134 161.535,365.201 161.105 C 365.279 160.605,365.028 160.190,364.503 159.950 C 364.051 159.745,363.494 159.237,363.265 158.823 C 363.036 158.408,362.676 157.866,362.464 157.619 C 362.252 157.371,361.824 156.801,361.513 156.351 C 360.929 155.508,359.962 155.239,359.962 155.919 C 359.962 156.131,359.680 156.304,359.336 156.304 C 358.848 156.304,358.760 156.053,358.938 155.164 C 359.161 154.050,359.059 153.865,357.493 152.555 C 357.180 152.292,356.664 152.177,356.348 152.298 C 356.010 152.428,355.568 152.189,355.272 151.717 C 354.997 151.275,354.459 150.914,354.077 150.914 C 353.695 150.914,353.411 150.698,353.445 150.433 C 353.586 149.351,353.390 148.917,352.852 149.124 C 352.138 149.398,351.656 148.672,352.194 148.134 C 352.847 147.480,350.097 145.537,349.255 146.057 C 348.756 146.365,345.685 144.732,345.952 144.301 C 346.064 144.120,346.657 144.269,347.272 144.632 C 347.886 144.995,348.505 145.175,348.647 145.032 C 348.992 144.687,348.067 143.600,347.428 143.600 C 347.151 143.600,346.814 143.253,346.679 142.830 C 346.545 142.406,346.214 142.060,345.943 142.060 C 345.673 142.060,345.142 141.717,344.763 141.299 C 343.960 140.412,343.407 140.606,343.407 141.774 C 343.407 142.370,343.291 142.482,342.986 142.178 C 342.688 141.879,342.684 141.536,342.974 140.995 C 343.447 140.111,342.760 138.218,341.963 138.213 C 341.699 138.211,341.482 137.950,341.482 137.632 C 341.482 137.315,341.284 137.055,341.043 137.055 C 340.509 137.055,338.402 134.907,338.402 134.363 C 338.402 133.814,337.740 133.880,337.476 134.456 C 337.355 134.721,337.359 134.357,337.483 133.648 C 337.695 132.445,337.650 132.374,336.805 132.586 C 336.307 132.711,336.116 132.713,336.381 132.592 C 337.238 132.198,336.890 131.643,335.936 131.883 C 335.196 132.069,334.955 131.935,334.737 131.216 C 334.392 130.080,333.040 128.585,332.358 128.585 C 332.072 128.585,331.742 128.109,331.624 127.526 C 331.470 126.763,330.965 126.253,329.813 125.698 C 328.934 125.274,328.025 124.543,327.793 124.072 C 327.470 123.419,327.264 123.323,326.919 123.668 C 326.574 124.013,326.468 123.920,326.468 123.272 C 326.468 122.807,326.295 122.425,326.083 122.425 C 325.871 122.425,325.698 122.160,325.698 121.836 C 325.698 121.512,325.395 121.135,325.024 121.000 C 324.654 120.864,323.872 120.264,323.288 119.665 C 322.704 119.066,321.995 118.576,321.712 118.576 C 320.969 118.576,319.923 117.298,319.923 116.391 C 319.923 115.415,318.591 114.167,317.963 114.555 C 317.663 114.740,317.594 114.684,317.771 114.397 C 318.133 113.812,317.038 112.732,316.172 112.820 C 315.023 112.938,314.533 112.817,314.533 112.416 C 314.533 112.204,314.793 112.031,315.111 112.031 C 315.432 112.031,315.688 111.689,315.688 111.261 C 315.688 110.837,315.461 110.491,315.183 110.491 C 314.905 110.491,314.179 109.971,313.571 109.336 C 312.962 108.701,312.237 108.181,311.959 108.181 C 311.670 108.181,311.453 107.749,311.453 107.174 C 311.453 106.343,311.313 106.203,310.653 106.376 C 310.080 106.525,309.910 106.434,310.056 106.055 C 310.177 105.739,310.066 105.600,309.780 105.709 C 309.224 105.923,307.603 104.198,307.603 103.392 C 307.603 103.091,307.231 102.789,306.777 102.722 C 306.322 102.654,305.759 102.259,305.525 101.845 C 304.920 100.769,304.429 100.283,303.652 99.988 C 303.278 99.847,302.816 99.337,302.626 98.855 C 302.212 97.807,297.310 92.907,296.009 92.241 C 295.379 91.919,295.114 91.478,295.163 90.833 C 295.203 90.317,295.145 90.111,295.035 90.375 C 294.470 91.733,292.595 90.390,291.331 87.722 C 290.484 85.932,288.211 83.927,287.029 83.927 C 286.301 83.927,286.158 83.769,286.321 83.144 C 286.562 82.224,285.463 80.847,284.489 80.847 C 283.761 80.847,281.852 78.339,281.193 76.516 C 281.059 76.145,280.773 75.842,280.557 75.842 C 280.342 75.842,279.776 75.422,279.300 74.908 C 278.508 74.053,278.365 74.023,277.619 74.545 C 276.708 75.184,276.543 74.711,277.270 73.546 C 277.727 72.815,276.576 71.222,275.591 71.222 C 275.411 71.222,275.265 71.041,275.265 70.820 C 275.265 70.311,273.501 68.527,272.998 68.527 C 272.791 68.527,272.508 68.168,272.368 67.730 C 272.224 67.274,271.894 67.017,271.601 67.129 C 270.957 67.376,270.102 66.400,270.457 65.825 C 270.643 65.524,270.286 65.480,269.249 65.675 C 267.855 65.936,267.812 65.915,268.441 65.287 C 269.427 64.300,268.643 62.931,266.699 62.245 C 266.328 62.114,266.025 61.752,266.025 61.441 C 266.025 61.064,265.541 60.834,264.581 60.755 C 263.276 60.647,263.148 60.538,263.242 59.617 C 263.327 58.788,263.130 58.523,262.183 58.193 C 261.299 57.885,261.020 57.552,261.020 56.805 C 261.020 56.050,260.825 55.823,260.173 55.823 C 259.514 55.823,259.429 55.926,259.788 56.285 C 260.300 56.797,260.413 57.750,259.962 57.745 C 259.565 57.741,258.710 55.831,258.710 54.950 C 258.710 54.424,258.518 54.292,257.995 54.458 C 257.567 54.594,257.065 54.427,256.746 54.044 C 256.270 53.470,256.305 53.431,257.077 53.676 C 258.459 54.115,258.112 53.281,256.015 51.129 C 254.957 50.042,254.090 48.921,254.090 48.638 C 254.090 47.622,253.320 48.146,253.290 49.182 C 253.273 49.764,253.173 49.981,253.067 49.663 C 252.961 49.346,252.769 48.826,252.640 48.508 C 252.511 48.191,252.395 47.588,252.382 47.168 C 252.368 46.731,251.906 46.188,251.299 45.896 C 250.717 45.616,250.241 45.115,250.241 44.783 C 250.241 44.290,250.135 44.267,249.663 44.658 C 249.181 45.059,249.086 45.003,249.086 44.320 C 249.086 43.461,247.813 43.144,247.353 43.888 C 246.935 44.566,246.006 44.300,246.006 43.503 C 246.006 43.058,246.262 42.733,246.615 42.733 C 246.951 42.733,247.148 42.517,247.054 42.252 C 246.960 41.987,246.513 41.812,246.060 41.863 C 245.173 41.961,244.925 41.383,245.717 41.063 C 246.041 40.933,246.006 40.859,245.610 40.839 C 244.965 40.806,243.982 39.800,243.587 38.770 C 243.441 38.391,242.924 38.114,242.360 38.114 C 241.635 38.114,241.386 37.912,241.386 37.326 C 241.386 36.436,239.557 34.414,239.149 34.853 C 239.003 35.010,239.100 35.216,239.365 35.311 C 239.878 35.494,240.043 36.576,239.557 36.571 C 239.207 36.567,238.306 34.699,238.306 33.977 C 238.306 33.040,236.608 31.672,235.797 31.956 C 235.039 32.222,234.071 31.010,234.071 29.792 C 234.071 29.499,233.886 29.259,233.660 29.259 C 233.420 29.259,233.354 28.928,233.501 28.465 C 233.733 27.735,233.684 27.712,232.900 28.176 C 232.223 28.576,232.009 28.581,231.871 28.200 C 231.776 27.936,231.400 27.719,231.036 27.719 C 229.593 27.719,228.811 25.633,230.125 25.289 C 230.767 25.122,230.767 25.111,230.125 25.069 C 229.713 25.041,229.451 24.712,229.451 24.220 C 229.451 23.502,229.295 23.443,227.977 23.665 C 226.884 23.850,226.375 23.760,226.006 23.315 C 225.567 22.787,225.664 22.739,226.806 22.917 C 227.902 23.088,227.969 23.060,227.238 22.737 C 226.761 22.526,226.372 22.115,226.372 21.824 C 226.372 21.047,224.874 19.827,223.922 19.827 C 223.355 19.827,223.060 19.550,222.973 18.937 C 222.904 18.448,222.600 17.953,222.299 17.837 C 221.998 17.722,221.752 17.460,221.752 17.256 C 221.752 16.690,220.925 15.989,219.533 15.376 C 218.843 15.072,218.182 14.519,218.064 14.148 C 217.939 13.756,217.468 13.474,216.936 13.474 C 216.434 13.474,215.901 13.278,215.752 13.037 C 215.578 12.755,215.302 12.926,214.973 13.519 C 214.693 14.024,214.458 14.248,214.451 14.017 C 214.443 13.787,213.744 13.369,212.897 13.090 C 212.050 12.810,211.357 12.359,211.357 12.088 C 211.357 11.234,210.492 11.018,209.964 11.740 C 209.685 12.121,209.541 12.569,209.643 12.735 C 210.027 13.356,209.113 13.440,208.610 12.830 C 208.198 12.331,208.189 12.159,208.568 12.032 C 208.834 11.942,208.954 11.710,208.834 11.517 C 208.517 11.003,206.585 11.086,206.035 11.636 C 205.663 12.008,205.404 12.008,204.808 11.636 C 203.442 10.783,202.184 11.037,202.047 12.194 C 201.900 13.430,200.962 13.899,200.962 12.737 C 200.962 12.280,200.714 11.935,200.385 11.935 C 200.067 11.935,199.808 12.108,199.808 12.320 C 199.808 13.025,198.968 12.716,198.764 11.935 C 198.653 11.511,198.398 11.165,198.197 11.165 C 197.453 11.165,196.343 11.979,196.343 12.526 C 196.343 13.429,195.638 13.175,195.503 12.223 C 195.336 11.045,193.412 10.880,192.161 11.937 M218.447 47.027 C 254.529 83.462,336.143 165.159,336.459 165.159 C 336.722 165.159,340.110 168.400,342.445 170.886 C 342.656 171.111,343.481 171.840,344.277 172.505 C 345.073 173.170,346.020 174.215,346.382 174.827 C 346.743 175.439,347.326 176.031,347.677 176.142 C 348.028 176.253,349.119 177.369,350.103 178.620 C 351.086 179.872,352.191 180.991,352.558 181.107 C 352.924 181.224,353.635 182.214,354.137 183.307 L 355.049 185.295 351.442 188.759 C 349.458 190.664,344.783 195.229,341.053 198.903 C 336.457 203.430,334.002 205.582,333.434 205.582 C 332.452 205.582,328.179 206.858,325.698 207.892 C 322.346 209.289,313.378 209.254,313.378 207.843 C 313.378 207.167,310.834 204.812,310.104 204.812 C 309.590 204.812,301.835 197.316,287.203 182.676 C 275.034 170.500,264.940 160.539,264.771 160.539 C 264.251 160.539,238.360 134.425,237.765 133.300 C 237.135 132.110,200.796 95.861,200.232 95.861 C 199.845 95.861,189.027 106.647,130.543 165.344 C 92.844 203.180,91.856 204.104,87.672 205.449 C 86.565 205.805,85.234 206.423,84.713 206.823 C 84.051 207.333,83.474 207.470,82.789 207.282 C 81.166 206.838,77.659 206.803,76.263 207.217 C 75.149 207.548,74.655 207.460,72.990 206.629 C 71.912 206.091,70.553 205.462,69.971 205.232 C 68.006 204.453,67.003 203.922,66.320 203.297 C 65.946 202.954,65.034 202.246,64.293 201.724 C 63.551 201.201,60.863 198.694,58.318 196.152 C 55.773 193.610,51.918 189.996,49.752 188.122 C 45.002 184.011,45.032 184.425,49.182 180.205 C 51.035 178.321,53.536 175.767,54.741 174.530 C 56.962 172.251,63.139 166.057,63.896 165.351 C 64.123 165.140,65.648 163.583,67.284 161.892 C 69.640 159.459,138.365 90.780,139.455 89.771 C 139.610 89.627,152.987 76.226,169.182 59.992 C 200.373 28.725,199.969 29.112,200.926 29.625 C 201.264 29.806,209.148 37.637,218.447 47.027 M234.628 29.677 C 234.486 29.908,234.562 30.289,234.798 30.524 C 235.112 30.839,235.226 30.728,235.226 30.106 C 235.226 29.176,235.026 29.033,234.628 29.677 M164.774 31.954 C 164.774 32.166,165.034 32.339,165.351 32.339 C 165.669 32.339,165.929 32.166,165.929 31.954 C 165.929 31.742,165.669 31.569,165.351 31.569 C 165.034 31.569,164.774 31.742,164.774 31.954 M237.366 34.612 C 236.894 35.376,236.381 35.052,236.381 33.989 C 236.381 33.026,236.430 32.993,237.004 33.567 C 237.347 33.909,237.510 34.380,237.366 34.612 M274.110 70.645 C 274.502 71.118,274.476 71.222,273.964 71.222 C 273.621 71.222,273.340 70.962,273.340 70.645 C 273.340 70.327,273.405 70.067,273.485 70.067 C 273.565 70.067,273.846 70.327,274.110 70.645 M125.890 76.035 C 125.890 76.352,125.736 76.612,125.546 76.612 C 125.357 76.612,125.103 76.352,124.981 76.035 C 124.846 75.683,124.980 75.457,125.325 75.457 C 125.636 75.457,125.890 75.717,125.890 76.035 M293.288 91.886 C 293.149 93.064,292.318 93.528,291.971 92.621 C 291.642 91.764,292.066 90.857,292.795 90.857 C 293.235 90.857,293.376 91.149,293.288 91.886 M97.128 105.529 C 96.900 105.757,96.392 105.867,95.999 105.773 C 95.380 105.626,95.413 105.550,96.246 105.205 C 97.332 104.755,97.749 104.908,97.128 105.529 M320.940 120.308 C 321.441 120.809,321.443 120.885,320.954 120.885 C 320.644 120.885,320.291 120.626,320.169 120.308 C 320.047 119.990,320.041 119.731,320.155 119.731 C 320.269 119.731,320.623 119.990,320.940 120.308 M326.083 124.735 C 326.083 124.947,325.823 125.120,325.505 125.120 C 325.188 125.120,324.928 124.947,324.928 124.735 C 324.928 124.524,325.188 124.350,325.505 124.350 C 325.823 124.350,326.083 124.524,326.083 124.735 M351.877 147.834 C 351.877 148.046,351.804 148.219,351.716 148.219 C 351.627 148.219,351.279 148.325,350.941 148.455 C 350.493 148.627,350.392 148.524,350.566 148.070 C 350.825 147.396,351.877 147.207,351.877 147.834 M224.588 185.835 C 254.587 216.114,334.147 295.620,343.550 304.716 C 347.490 308.527,350.716 311.825,350.718 312.044 C 350.720 312.263,351.242 312.750,351.879 313.126 C 352.978 313.775,353.765 314.914,354.561 317.009 C 354.890 317.872,354.476 318.384,349.501 323.267 C 346.521 326.192,342.155 330.499,339.799 332.839 C 335.408 337.199,333.894 338.402,332.800 338.402 C 331.483 338.402,326.238 340.103,325.480 340.776 C 324.306 341.820,313.867 341.848,313.503 340.808 C 313.117 339.706,310.971 337.632,310.218 337.632 C 309.805 337.632,300.438 328.534,287.427 315.496 C 275.277 303.321,265.187 293.359,265.005 293.359 C 264.504 293.359,237.536 266.236,237.536 265.733 C 237.536 265.073,201.081 228.891,200.286 228.762 C 199.812 228.686,183.025 245.297,146.286 282.196 C 89.002 339.731,90.410 338.402,86.704 338.402 C 86.292 338.402,85.514 338.750,84.974 339.175 C 84.079 339.879,83.681 339.919,80.469 339.638 C 78.531 339.468,76.861 339.467,76.756 339.635 C 76.430 340.164,73.650 339.971,73.165 339.386 C 72.911 339.080,71.807 338.534,70.711 338.172 C 67.192 337.009,64.974 335.305,57.555 328.059 C 54.379 324.956,50.438 321.299,48.797 319.931 C 47.022 318.451,45.813 317.152,45.813 316.723 C 45.813 315.740,199.362 162.062,200.334 162.072 C 200.768 162.076,210.367 171.481,224.588 185.835 M369.201 166.121 C 369.201 166.439,369.028 166.699,368.816 166.699 C 368.604 166.699,368.431 166.439,368.431 166.121 C 368.431 165.804,368.604 165.544,368.816 165.544 C 369.028 165.544,369.201 165.804,369.201 166.121 M376.901 172.831 C 376.901 173.283,377.151 173.628,377.478 173.628 C 377.796 173.628,378.056 173.529,378.056 173.408 C 378.056 173.288,377.796 172.929,377.478 172.611 C 376.965 172.098,376.901 172.122,376.901 172.831 M24.176 212.110 C 23.644 212.960,23.270 212.854,23.617 211.951 C 23.742 211.624,24.025 211.357,24.245 211.357 C 24.499 211.357,24.473 211.633,24.176 212.110 M371.795 220.478 C 371.437 220.836,371.036 221.020,370.904 220.888 C 370.525 220.509,371.107 219.827,371.809 219.827 C 372.396 219.827,372.395 219.877,371.795 220.478 " stroke="none" fill="#040404" fill-rule="evenodd"></path><path id="path2" d="M211.935 41.578 C 216.165 45.813,219.714 49.278,219.820 49.278 C 219.925 49.278,216.550 45.813,212.320 41.578 C 208.089 37.344,204.540 33.879,204.435 33.879 C 204.329 33.879,207.704 37.344,211.935 41.578 M228.104 57.748 C 230.213 59.865,232.026 61.598,232.132 61.598 C 232.238 61.598,230.598 59.865,228.489 57.748 C 226.379 55.630,224.567 53.898,224.461 53.898 C 224.355 53.898,225.994 55.630,228.104 57.748 M195.181 99.615 L 190.760 104.139 195.284 99.718 C 199.486 95.611,199.982 95.091,199.705 95.091 C 199.649 95.091,197.613 97.127,195.181 99.615 M186.326 108.470 L 182.291 112.608 186.429 108.573 C 190.273 104.825,190.743 104.331,190.465 104.331 C 190.408 104.331,188.546 106.193,186.326 108.470 M275.650 105.679 C 276.368 106.420,277.042 107.026,277.148 107.026 C 277.254 107.026,276.753 106.420,276.035 105.679 C 275.316 104.937,274.642 104.331,274.536 104.331 C 274.430 104.331,274.931 104.937,275.650 105.679 M122.988 106.737 L 121.078 108.758 123.099 106.848 C 124.211 105.797,125.120 104.888,125.120 104.827 C 125.120 104.540,124.764 104.859,122.988 106.737 M178.817 115.977 L 175.746 119.153 178.922 116.082 C 180.669 114.393,182.098 112.964,182.098 112.906 C 182.098 112.625,181.669 113.027,178.817 115.977 M287.392 117.421 C 288.649 118.691,289.764 119.731,289.870 119.731 C 289.976 119.731,289.034 118.691,287.777 117.421 C 286.520 116.150,285.404 115.111,285.298 115.111 C 285.193 115.111,286.135 116.150,287.392 117.421 M294.514 124.543 C 296.942 126.978,299.015 128.970,299.121 128.970 C 299.227 128.970,297.327 126.978,294.899 124.543 C 292.471 122.108,290.398 120.115,290.292 120.115 C 290.186 120.115,292.086 122.108,294.514 124.543 M104.513 125.217 L 101.829 128.008 104.620 125.323 C 107.212 122.830,107.587 122.425,107.304 122.425 C 107.246 122.425,105.990 123.681,104.513 125.217 M168.998 125.794 L 166.506 128.393 169.105 125.901 C 170.534 124.531,171.704 123.362,171.704 123.303 C 171.704 123.019,171.312 123.380,168.998 125.794 M164.182 130.606 L 162.271 132.628 164.293 130.717 C 165.404 129.666,166.314 128.757,166.314 128.696 C 166.314 128.409,165.957 128.728,164.182 130.606 M91.410 138.306 L 90.279 139.557 91.530 138.427 C 92.218 137.805,92.782 137.242,92.782 137.175 C 92.782 136.878,92.464 137.140,91.410 138.306 M86.622 143.022 C 85.687 143.975,85.008 144.755,85.114 144.755 C 85.220 144.755,86.072 143.975,87.007 143.022 C 87.942 142.069,88.620 141.290,88.515 141.290 C 88.409 141.290,87.557 142.069,86.622 143.022 M343.022 172.209 C 343.022 172.275,343.585 172.838,344.273 173.460 L 345.525 174.591 344.394 173.340 C 343.340 172.173,343.022 171.912,343.022 172.209 M350.519 188.354 L 347.834 191.145 350.626 188.461 C 352.161 186.984,353.417 185.728,353.417 185.670 C 353.417 185.387,353.012 185.762,350.519 188.354 M170.723 191.819 L 169.201 193.455 170.837 191.933 C 172.359 190.518,172.650 190.183,172.359 190.183 C 172.296 190.183,171.560 190.919,170.723 191.819 M235.034 197.498 C 236.291 198.768,237.406 199.808,237.512 199.808 C 237.618 199.808,236.676 198.768,235.419 197.498 C 234.161 196.227,233.046 195.188,232.940 195.188 C 232.834 195.188,233.776 196.227,235.034 197.498 M239.076 201.540 C 239.794 202.281,240.469 202.887,240.575 202.887 C 240.680 202.887,240.179 202.281,239.461 201.540 C 238.743 200.799,238.068 200.192,237.963 200.192 C 237.857 200.192,238.358 200.799,239.076 201.540 M215.592 242.733 C 216.310 243.474,216.985 244.081,217.090 244.081 C 217.196 244.081,216.695 243.474,215.977 242.733 C 215.259 241.992,214.584 241.386,214.478 241.386 C 214.373 241.386,214.874 241.992,215.592 242.733 M230.606 257.676 C 230.606 257.742,231.169 258.305,231.858 258.927 L 233.109 260.058 231.978 258.807 C 230.924 257.640,230.606 257.378,230.606 257.676 M131.280 296.246 C 130.345 297.199,129.666 297.979,129.772 297.979 C 129.878 297.979,130.730 297.199,131.665 296.246 C 132.600 295.294,133.279 294.514,133.173 294.514 C 133.067 294.514,132.215 295.294,131.280 296.246 M124.152 303.465 L 119.153 308.566 124.254 303.567 C 127.060 300.817,129.355 298.522,129.355 298.466 C 129.355 298.189,128.796 298.726,124.152 303.465 M111.833 315.784 L 106.449 321.270 111.935 315.886 C 117.031 310.884,117.595 310.298,117.319 310.298 C 117.263 310.298,114.795 312.767,111.833 315.784 M55.823 325.505 C 56.541 326.246,57.216 326.853,57.321 326.853 C 57.427 326.853,56.926 326.246,56.208 325.505 C 55.490 324.764,54.815 324.158,54.709 324.158 C 54.604 324.158,55.105 324.764,55.823 325.505 M337.632 333.590 C 336.055 335.178,334.851 336.477,334.957 336.477 C 335.063 336.477,336.440 335.178,338.017 333.590 C 339.595 332.002,340.799 330.703,340.693 330.703 C 340.587 330.703,339.210 332.002,337.632 333.590 " stroke="none" fill="#868686" fill-rule="evenodd"></path><path id="path3" d="M204.042 33.301 C 205.833 35.101,207.384 36.574,207.490 36.574 C 207.596 36.574,206.218 35.101,204.427 33.301 C 202.637 31.501,201.085 30.029,200.979 30.029 C 200.874 30.029,202.252 31.501,204.042 33.301 M222.137 51.396 C 223.501 52.772,224.703 53.898,224.809 53.898 C 224.915 53.898,223.886 52.772,222.522 51.396 C 221.158 50.019,219.955 48.893,219.849 48.893 C 219.743 48.893,220.773 50.019,222.137 51.396 M171.497 58.229 L 169.586 60.250 171.607 58.340 C 172.719 57.289,173.628 56.380,173.628 56.319 C 173.628 56.031,173.272 56.351,171.497 58.229 M246.583 76.227 C 253.145 82.791,258.600 88.162,258.706 88.162 C 258.812 88.162,253.530 82.791,246.968 76.227 C 240.407 69.663,234.952 64.293,234.846 64.293 C 234.740 64.293,240.022 69.663,246.583 76.227 M212.705 107.411 C 215.026 109.740,217.013 111.646,217.119 111.646 C 217.225 111.646,215.411 109.740,213.090 107.411 C 210.768 105.082,208.781 103.176,208.675 103.176 C 208.569 103.176,210.383 105.082,212.705 107.411 M229.259 123.965 C 231.156 125.871,232.794 127.430,232.900 127.430 C 233.006 127.430,231.541 125.871,229.644 123.965 C 227.747 122.060,226.108 120.500,226.003 120.500 C 225.897 120.500,227.362 122.060,229.259 123.965 M235.419 130.125 C 236.676 131.396,237.791 132.435,237.897 132.435 C 238.003 132.435,237.061 131.396,235.804 130.125 C 234.546 128.855,233.431 127.815,233.325 127.815 C 233.219 127.815,234.161 128.855,235.419 130.125 M155.324 139.846 L 153.802 141.482 155.438 139.960 C 156.960 138.545,157.251 138.210,156.960 138.210 C 156.897 138.210,156.161 138.946,155.324 139.846 M124.734 170.452 L 106.064 189.220 124.832 170.550 C 135.154 160.281,143.600 151.836,143.600 151.782 C 143.600 151.511,142.088 153.007,124.734 170.452 M69.851 159.865 L 68.720 161.116 69.971 159.986 C 71.137 158.932,71.399 158.614,71.102 158.614 C 71.036 158.614,70.473 159.177,69.851 159.865 M268.720 163.811 C 270.084 165.188,271.287 166.314,271.393 166.314 C 271.498 166.314,270.469 165.188,269.105 163.811 C 267.741 162.435,266.538 161.309,266.432 161.309 C 266.326 161.309,267.356 162.435,268.720 163.811 M192.104 170.067 L 185.371 176.901 192.204 170.168 C 195.962 166.465,199.038 163.389,199.038 163.334 C 199.038 163.060,198.359 163.719,192.104 170.067 M282.387 177.478 C 286.194 181.290,289.395 184.408,289.501 184.408 C 289.607 184.408,286.579 181.290,282.772 177.478 C 278.965 173.667,275.764 170.549,275.658 170.549 C 275.552 170.549,278.580 173.667,282.387 177.478 M215.784 177.863 C 217.894 179.981,219.706 181.713,219.812 181.713 C 219.918 181.713,218.279 179.981,216.169 177.863 C 214.060 175.746,212.247 174.013,212.141 174.013 C 212.036 174.013,213.675 175.746,215.784 177.863 M299.599 194.597 C 305.043 200.092,309.548 204.508,309.609 204.411 C 309.671 204.314,305.217 199.819,299.711 194.421 L 289.702 184.608 299.599 194.597 M349.961 189.220 L 345.927 193.455 350.136 189.332 C 352.451 187.064,354.266 185.158,354.170 185.096 C 354.073 185.035,352.179 186.891,349.961 189.220 M174.567 187.584 L 173.436 188.835 174.687 187.705 C 175.853 186.651,176.115 186.333,175.818 186.333 C 175.752 186.333,175.189 186.896,174.567 187.584 M50.048 187.608 C 50.048 187.675,50.611 188.238,51.299 188.860 L 52.551 189.990 51.420 188.739 C 50.366 187.573,50.048 187.311,50.048 187.608 M230.991 192.998 C 230.991 193.064,231.554 193.628,232.243 194.249 L 233.494 195.380 232.363 194.129 C 231.309 192.963,230.991 192.701,230.991 192.998 M165.150 197.016 L 161.886 200.385 165.255 197.121 C 168.384 194.090,168.799 193.648,168.519 193.648 C 168.461 193.648,166.945 195.164,165.150 197.016 M153.028 209.143 L 144.562 217.709 153.128 209.243 C 161.087 201.376,161.868 200.577,161.594 200.577 C 161.540 200.577,157.685 204.432,153.028 209.143 M311.068 204.548 C 311.068 204.614,311.631 205.177,312.320 205.799 L 313.571 206.930 312.440 205.679 C 311.386 204.512,311.068 204.250,311.068 204.548 M324.776 207.403 C 324.622 207.557,323.597 207.792,322.498 207.926 L 320.500 208.169 322.256 208.223 C 323.585 208.264,326.534 207.203,325.281 207.134 C 325.157 207.128,324.930 207.248,324.776 207.403 M141.654 220.500 L 140.327 221.944 141.771 220.617 C 143.115 219.383,143.392 219.057,143.098 219.057 C 143.033 219.057,142.384 219.706,141.654 220.500 M124.926 237.247 L 111.453 250.818 125.024 237.346 C 137.637 224.824,138.768 223.677,138.496 223.677 C 138.442 223.677,132.336 229.783,124.926 237.247 M192.296 235.322 L 184.986 242.733 192.397 235.422 C 196.473 231.401,199.808 228.067,199.808 228.011 C 199.808 227.738,199.089 228.437,192.296 235.322 M200.577 228.017 C 200.577 228.076,201.920 229.418,203.561 231.001 L 206.545 233.879 203.667 230.895 C 200.994 228.124,200.577 227.736,200.577 228.017 M272.377 234.841 C 275.124 237.594,277.458 239.846,277.563 239.846 C 277.669 239.846,275.509 237.594,272.762 234.841 C 270.016 232.089,267.682 229.836,267.576 229.836 C 267.470 229.836,269.631 232.089,272.377 234.841 M208.261 235.707 C 209.205 236.713,210.028 237.536,210.090 237.536 C 210.379 237.536,210.073 237.190,208.373 235.595 L 206.545 233.879 208.261 235.707 M295.091 257.555 C 302.077 264.543,307.878 270.260,307.984 270.260 C 308.090 270.260,302.462 264.543,295.476 257.555 C 288.491 250.568,282.690 244.851,282.584 244.851 C 282.478 244.851,288.106 250.568,295.091 257.555 M174.206 253.321 C 171.035 256.497,168.527 259.095,168.633 259.095 C 168.739 259.095,171.420 256.497,174.591 253.321 C 177.762 250.144,180.269 247.546,180.164 247.546 C 180.058 247.546,177.377 250.144,174.206 253.321 M92.780 269.394 L 75.650 286.622 92.878 269.492 C 108.891 253.569,110.279 252.166,110.008 252.166 C 109.954 252.166,102.202 259.918,92.780 269.394 M227.895 255.342 C 228.839 256.347,229.662 257.170,229.724 257.170 C 230.013 257.170,229.707 256.825,228.008 255.229 L 226.179 253.513 227.895 255.342 M246.968 275.265 C 251.835 280.135,255.903 284.119,256.009 284.119 C 256.115 284.119,252.220 280.135,247.353 275.265 C 242.487 270.395,238.418 266.410,238.312 266.410 C 238.206 266.410,242.102 270.395,246.968 275.265 M310.491 272.955 C 311.318 273.802,312.081 274.495,312.187 274.495 C 312.293 274.495,311.703 273.802,310.876 272.955 C 310.049 272.108,309.286 271.415,309.180 271.415 C 309.074 271.415,309.664 272.108,310.491 272.955 M314.726 277.190 C 315.553 278.037,316.316 278.730,316.422 278.730 C 316.528 278.730,315.938 278.037,315.111 277.190 C 314.284 276.343,313.520 275.650,313.414 275.650 C 313.309 275.650,313.899 276.343,314.726 277.190 M326.468 288.932 C 331.652 294.119,335.981 298.364,336.087 298.364 C 336.192 298.364,332.037 294.119,326.853 288.932 C 321.668 283.744,317.340 279.500,317.234 279.500 C 317.128 279.500,321.283 283.744,326.468 288.932 M260.243 288.450 C 263.992 292.294,264.485 292.764,264.485 292.486 C 264.485 292.429,262.623 290.567,260.346 288.347 L 256.208 284.312 260.243 288.450 M72.552 289.605 L 71.030 291.242 72.666 289.720 C 74.188 288.304,74.479 287.969,74.188 287.969 C 74.125 287.969,73.389 288.705,72.552 289.605 M339.750 301.444 C 340.577 302.291,341.340 302.984,341.446 302.984 C 341.552 302.984,340.962 302.291,340.135 301.444 C 339.308 300.597,338.544 299.904,338.439 299.904 C 338.333 299.904,338.923 300.597,339.750 301.444 M344.370 306.064 C 345.197 306.910,345.960 307.603,346.066 307.603 C 346.172 307.603,345.582 306.910,344.755 306.064 C 343.928 305.217,343.164 304.524,343.058 304.524 C 342.952 304.524,343.543 305.217,344.370 306.064 M51.381 311.165 L 49.471 313.186 51.492 311.275 C 52.603 310.225,53.513 309.315,53.513 309.254 C 53.513 308.967,53.156 309.286,51.381 311.165 M48.508 318.889 C 48.508 318.955,49.071 319.518,49.759 320.140 L 51.011 321.270 49.880 320.019 C 48.826 318.853,48.508 318.591,48.508 318.889 M100.285 327.719 L 93.359 334.745 100.385 327.819 C 106.913 321.385,107.585 320.693,107.311 320.693 C 107.256 320.693,104.094 323.855,100.285 327.719 M53.321 323.388 C 54.148 324.235,54.911 324.928,55.017 324.928 C 55.123 324.928,54.533 324.235,53.705 323.388 C 52.878 322.541,52.115 321.848,52.009 321.848 C 51.903 321.848,52.493 322.541,53.321 323.388 M341.478 330.221 L 334.745 337.055 341.578 330.322 C 345.337 326.619,348.412 323.543,348.412 323.488 C 348.412 323.214,347.734 323.873,341.478 330.221 M60.443 330.510 C 61.161 331.251,61.835 331.858,61.941 331.858 C 62.047 331.858,61.546 331.251,60.828 330.510 C 60.109 329.769,59.435 329.163,59.329 329.163 C 59.223 329.163,59.724 329.769,60.443 330.510 M324.385 340.229 C 324.227 340.386,323.115 340.621,321.914 340.750 L 319.731 340.984 321.678 341.041 C 323.159 341.084,326.281 340.030,324.896 339.954 C 324.772 339.948,324.542 340.071,324.385 340.229 " stroke="none" fill="#626362" fill-rule="evenodd"></path><path id="path4" d="M197.113 32.531 C 196.177 33.484,195.499 34.264,195.605 34.264 C 195.711 34.264,196.562 33.484,197.498 32.531 C 198.433 31.578,199.111 30.799,199.005 30.799 C 198.899 30.799,198.048 31.578,197.113 32.531 M186.522 43.215 L 178.826 51.011 186.622 43.314 C 193.865 36.164,194.592 35.419,194.318 35.419 C 194.263 35.419,190.755 38.927,186.522 43.215 M167.647 62.079 L 165.736 64.100 167.757 62.190 C 168.869 61.139,169.779 60.229,169.779 60.168 C 169.779 59.881,169.422 60.201,167.647 62.079 M154.376 75.361 L 144.177 85.659 154.475 75.460 C 164.046 65.982,164.947 65.063,164.675 65.063 C 164.620 65.063,159.986 69.697,154.376 75.361 M141.849 87.873 L 140.327 89.509 141.963 87.987 C 143.485 86.572,143.777 86.237,143.485 86.237 C 143.422 86.237,142.686 86.973,141.849 87.873 M243.503 138.980 C 245.187 140.674,246.652 142.060,246.758 142.060 C 246.864 142.060,245.572 140.674,243.888 138.980 C 242.204 137.286,240.740 135.900,240.634 135.900 C 240.528 135.900,241.819 137.286,243.503 138.980 M260.243 155.630 C 263.992 159.474,264.485 159.944,264.485 159.666 C 264.485 159.609,262.623 157.747,260.346 155.527 L 256.208 151.492 260.243 155.630 M325.505 155.534 C 327.189 157.228,328.654 158.614,328.760 158.614 C 328.865 158.614,327.574 157.228,325.890 155.534 C 324.206 153.840,322.742 152.454,322.636 152.454 C 322.530 152.454,323.821 153.840,325.505 155.534 M200.962 162.955 C 200.962 163.013,202.305 164.356,203.946 165.938 L 206.930 168.816 204.052 165.833 C 201.379 163.061,200.962 162.673,200.962 162.955 M50.805 179.307 L 48.701 181.521 50.914 179.416 C 52.132 178.259,53.128 177.263,53.128 177.203 C 53.128 176.917,52.760 177.250,50.805 179.307 M53.128 190.303 C 53.128 190.370,53.691 190.933,54.379 191.555 L 55.630 192.685 54.500 191.434 C 53.446 190.268,53.128 190.006,53.128 190.303 M341.285 197.594 L 334.745 204.235 341.386 197.694 C 345.038 194.097,348.027 191.109,348.027 191.053 C 348.027 190.779,347.362 191.424,341.285 197.594 M60.250 197.498 C 61.934 199.192,63.399 200.577,63.505 200.577 C 63.610 200.577,62.319 199.192,60.635 197.498 C 58.951 195.804,57.487 194.418,57.381 194.418 C 57.275 194.418,58.566 195.804,60.250 197.498 M96.620 198.556 L 94.129 201.155 96.728 198.664 C 98.157 197.293,99.326 196.124,99.326 196.065 C 99.326 195.782,98.934 196.143,96.620 198.556 M244.658 207.122 C 245.701 208.181,246.641 209.047,246.747 209.047 C 246.853 209.047,246.086 208.181,245.043 207.122 C 244.001 206.064,243.061 205.197,242.955 205.197 C 242.849 205.197,243.616 206.064,244.658 207.122 M256.394 218.768 C 258.613 221.044,260.475 222.907,260.532 222.907 C 260.810 222.907,260.341 222.413,256.497 218.665 L 252.358 214.629 256.394 218.768 M147.640 279.981 L 136.092 291.627 147.738 280.079 C 158.561 269.348,159.557 268.335,159.285 268.335 C 159.231 268.335,153.990 273.576,147.640 279.981 M286.044 313.571 C 296.947 324.475,305.955 333.397,306.061 333.397 C 306.167 333.397,297.332 324.475,286.429 313.571 C 275.526 302.666,266.519 293.744,266.413 293.744 C 266.307 293.744,275.141 302.666,286.044 313.571 M351.670 320.019 L 349.759 322.040 351.781 320.130 C 353.659 318.355,353.978 317.998,353.691 317.998 C 353.630 317.998,352.721 318.908,351.670 320.019 M78.633 339.053 C 79.004 339.150,79.610 339.150,79.981 339.053 C 80.351 338.956,80.048 338.877,79.307 338.877 C 78.566 338.877,78.263 338.956,78.633 339.053 M321.944 340.593 C 322.315 340.689,322.921 340.689,323.292 340.593 C 323.662 340.496,323.359 340.417,322.618 340.417 C 321.877 340.417,321.574 340.496,321.944 340.593 " stroke="none" fill="#7c7c7c" fill-rule="evenodd"></path><path id="path5" d="M153.030 77.089 C 127.410 102.760,107.401 122.860,108.566 121.756 C 109.731 120.652,130.693 99.731,155.149 75.265 C 184.424 45.978,199.840 30.816,200.274 30.886 C 200.966 30.996,211.494 41.391,243.454 73.517 C 254.014 84.131,262.708 92.762,262.774 92.696 C 263.063 92.407,200.833 30.414,200.255 30.414 C 199.901 30.414,178.650 51.417,153.030 77.089 M264.485 94.899 C 264.982 95.428,265.524 95.861,265.690 95.861 C 265.855 95.861,265.557 95.428,265.028 94.899 C 264.498 94.370,263.956 93.936,263.823 93.936 C 263.690 93.936,263.988 94.370,264.485 94.899 M180.845 113.476 C 170.524 123.799,162.079 132.346,162.079 132.469 C 162.079 132.592,170.524 124.233,180.845 113.892 C 191.167 103.552,199.872 95.091,200.190 95.091 C 200.507 95.091,209.257 103.537,219.633 113.859 L 238.499 132.628 219.636 113.667 C 209.261 103.239,200.512 94.706,200.192 94.706 C 199.873 94.706,191.167 103.153,180.845 113.476 M269.682 100.096 C 272.615 103.047,273.651 103.929,272.521 102.515 C 271.498 101.235,267.191 97.016,266.907 97.016 C 266.750 97.016,267.998 98.402,269.682 100.096 M277.190 107.164 C 277.190 107.561,279.126 109.453,279.326 109.252 C 279.417 109.162,278.974 108.591,278.341 107.985 C 277.708 107.378,277.190 107.009,277.190 107.164 M285.467 115.881 C 287.576 117.998,289.388 119.731,289.492 119.731 C 289.597 119.731,288.387 118.403,286.805 116.781 C 285.222 115.159,283.545 113.427,283.078 112.931 C 282.611 112.436,282.095 112.031,281.930 112.031 C 281.766 112.031,283.357 113.763,285.467 115.881 M289.894 119.968 C 289.894 120.170,290.890 121.281,292.108 122.439 L 294.321 124.543 292.204 122.242 C 291.039 120.976,290.043 119.865,289.990 119.772 C 289.937 119.678,289.894 119.767,289.894 119.968 M301.636 132.050 C 304.807 135.226,307.488 137.825,307.594 137.825 C 307.700 137.825,305.192 135.226,302.021 132.050 C 298.850 128.874,296.169 126.275,296.064 126.275 C 295.958 126.275,298.465 128.874,301.636 132.050 M95.439 134.577 C 91.331 138.720,87.889 142.228,87.791 142.373 C 87.693 142.518,91.114 139.174,95.394 134.941 C 99.674 130.708,103.176 127.200,103.176 127.145 C 103.176 126.822,102.218 127.742,95.439 134.577 M238.306 133.200 C 238.306 133.519,265.212 160.332,265.336 160.137 C 265.397 160.040,259.341 153.895,251.877 146.480 C 244.413 139.065,238.306 133.089,238.306 133.200 M159.065 135.253 C 157.878 136.516,158.024 136.909,159.232 135.702 C 159.784 135.150,160.160 134.623,160.068 134.531 C 159.976 134.438,159.524 134.763,159.065 135.253 M308.006 138.037 C 308.016 138.238,308.824 139.182,309.802 140.135 L 311.580 141.867 310.115 140.135 C 308.015 137.651,307.986 137.623,308.006 138.037 M154.261 140.339 C 153.667 140.862,153.334 141.290,153.521 141.290 C 153.707 141.290,154.267 140.857,154.764 140.327 C 155.915 139.103,155.660 139.109,154.261 140.339 M124.350 170.258 C 95.990 198.817,92.460 202.204,89.540 203.649 C 88.676 204.077,88.206 204.427,88.496 204.427 C 90.435 204.428,94.658 200.470,123.387 171.722 C 139.902 155.196,153.242 141.695,153.031 141.719 C 152.820 141.744,139.913 154.586,124.350 170.258 M76.781 153.296 C 71.077 159.053,65.630 164.535,64.678 165.478 C 63.725 166.421,63.465 166.774,64.100 166.263 C 64.914 165.609,83.320 147.197,87.360 142.996 C 87.448 142.905,87.437 142.830,87.336 142.830 C 87.235 142.830,82.485 147.540,76.781 153.296 M316.258 146.571 C 317.948 148.297,319.378 149.663,319.435 149.606 C 319.588 149.453,316.918 146.699,314.918 144.949 C 313.965 144.114,314.568 144.844,316.258 146.571 M319.923 150.138 C 319.923 150.565,335.942 166.152,336.862 166.620 L 337.825 167.110 336.877 166.423 C 336.356 166.045,332.328 162.180,327.926 157.834 C 323.524 153.488,319.923 150.024,319.923 150.138 M266.684 161.116 C 267.639 162.464,270.965 165.766,271.119 165.520 C 271.177 165.427,270.019 164.139,268.545 162.656 C 267.072 161.174,266.234 160.481,266.684 161.116 M193.143 169.332 C 189.821 172.677,187.103 175.574,187.103 175.771 C 187.103 175.969,189.884 173.295,193.283 169.830 C 196.681 166.365,199.400 163.468,199.323 163.391 C 199.246 163.314,196.465 165.988,193.143 169.332 M216.749 179.211 C 239.244 201.980,335.813 298.749,336.042 298.749 C 336.212 298.749,240.870 203.047,212.351 174.591 C 205.984 168.239,207.964 170.318,216.749 179.211 M290.664 185.371 C 305.115 199.824,309.545 204.042,310.274 204.042 C 310.921 204.042,311.827 204.706,313.178 206.168 L 315.140 208.294 318.590 208.070 C 321.948 207.852,327.394 206.540,332.539 204.709 C 335.005 203.831,353.802 185.964,353.802 184.497 C 353.802 183.488,352.923 182.354,349.362 178.764 C 347.388 176.774,345.717 175.021,345.648 174.869 C 345.579 174.716,345.008 174.158,344.379 173.628 C 342.761 172.266,344.886 174.660,349.333 179.211 C 352.737 182.694,353.417 183.566,353.417 184.453 C 353.417 185.579,335.202 202.895,332.820 204.033 C 329.629 205.559,324.731 206.738,321.591 206.735 C 320.065 206.734,318.180 207.013,317.103 207.399 L 315.245 208.065 314.531 207.119 C 314.009 206.427,313.939 206.094,314.271 205.883 C 314.607 205.670,314.595 205.593,314.224 205.588 C 313.948 205.585,313.085 205.149,312.306 204.620 C 311.527 204.090,310.548 203.657,310.130 203.657 C 309.641 203.657,302.838 197.094,290.977 185.178 C 280.861 175.014,272.451 166.699,272.289 166.699 C 272.128 166.699,280.396 175.101,290.664 185.371 M60.830 169.317 C 59.878 170.312,59.445 170.877,59.867 170.572 C 60.896 169.829,63.168 167.464,62.829 167.488 C 62.681 167.499,61.782 168.322,60.830 169.317 M341.097 170.888 C 341.097 171.263,342.594 172.664,342.755 172.439 C 342.818 172.352,342.470 171.897,341.983 171.429 C 341.496 170.960,341.097 170.716,341.097 170.888 M53.114 177.120 C 46.146 184.180,46.285 183.854,49.155 186.415 C 50.387 187.514,54.254 191.208,57.748 194.622 C 63.524 200.267,66.147 202.582,67.757 203.457 C 68.692 203.964,67.769 203.135,65.640 201.555 C 62.625 199.317,47.387 183.999,47.606 183.427 C 47.713 183.150,50.375 180.312,53.524 177.121 C 56.672 173.930,59.156 171.319,59.044 171.319 C 58.932 171.319,56.263 173.929,53.114 177.120 M181.509 180.955 C 179.618 182.854,178.201 184.408,178.358 184.408 C 178.742 184.408,185.289 177.846,185.097 177.654 C 185.014 177.570,183.399 179.056,181.509 180.955 M174.789 187.777 C 174.089 188.571,172.638 190.130,171.564 191.242 C 170.491 192.353,169.707 193.263,169.823 193.263 C 169.938 193.263,171.545 191.704,173.394 189.798 C 175.242 187.892,176.599 186.333,176.408 186.333 C 176.218 186.333,175.489 186.983,174.789 187.777 M161.580 200.884 C 157.831 204.637,154.764 207.812,154.764 207.941 C 154.764 208.069,157.899 205.067,161.731 201.269 C 165.563 197.471,168.630 194.295,168.546 194.212 C 168.463 194.129,165.328 197.131,161.580 200.884 M71.852 205.190 C 72.728 205.580,73.561 206.087,73.703 206.318 C 74.028 206.843,75.462 206.853,76.227 206.335 C 76.654 206.046,76.525 206.009,75.730 206.194 C 75.028 206.357,74.429 206.247,73.998 205.875 C 73.390 205.350,71.025 204.392,70.491 204.455 C 70.364 204.469,70.976 204.800,71.852 205.190 M84.284 205.808 C 83.932 206.233,83.419 206.350,82.601 206.193 C 81.753 206.031,81.586 206.074,82.002 206.347 C 82.867 206.914,83.508 206.820,84.592 205.967 C 85.130 205.544,85.395 205.197,85.181 205.197 C 84.966 205.197,84.563 205.472,84.284 205.808 M149.554 212.910 C 147.027 215.444,145.088 217.517,145.246 217.517 C 145.628 217.517,154.489 208.644,154.298 208.453 C 154.216 208.371,152.081 210.376,149.554 212.910 M143.022 219.627 C 141.963 220.568,141.207 221.344,141.340 221.352 C 141.474 221.360,142.427 220.589,143.458 219.638 C 145.881 217.404,145.536 217.395,143.022 219.627 M139.774 223.024 L 138.837 224.254 140.063 223.123 C 141.339 221.947,141.485 221.737,141.001 221.773 C 140.842 221.785,140.290 222.348,139.774 223.024 M104.890 257.668 C 86.475 276.133,70.803 291.907,70.064 292.720 C 69.325 293.533,84.433 278.466,103.637 259.238 C 122.842 240.010,138.513 224.236,138.463 224.186 C 138.412 224.136,123.304 239.202,104.890 257.668 M160.418 266.822 L 120.693 306.637 160.442 266.991 L 200.191 227.345 204.619 231.760 C 207.054 234.189,209.047 236.051,209.047 235.899 C 209.047 235.611,202.068 228.513,200.842 227.553 C 200.199 227.050,196.976 230.180,160.418 266.822 M212.698 239.839 C 213.521 240.682,214.266 241.300,214.354 241.212 C 214.552 241.015,211.876 238.306,211.484 238.306 C 211.328 238.306,211.874 238.996,212.698 239.839 M216.765 243.599 C 217.461 244.499,218.108 245.158,218.202 245.064 C 218.297 244.969,217.727 244.233,216.936 243.428 L 215.499 241.963 216.765 243.599 M218.693 245.525 C 218.705 245.683,219.268 246.235,219.944 246.751 L 221.174 247.689 220.043 246.462 C 218.867 245.186,218.657 245.041,218.693 245.525 M221.752 248.893 C 222.249 249.423,222.807 249.856,222.991 249.856 C 223.176 249.856,222.894 249.423,222.364 248.893 C 221.835 248.364,221.277 247.931,221.125 247.931 C 220.972 247.931,221.254 248.364,221.752 248.893 M227.526 254.668 C 229.104 256.256,230.532 257.555,230.699 257.555 C 230.867 257.555,229.704 256.256,228.116 254.668 C 226.528 253.080,225.101 251.781,224.944 251.781 C 224.787 251.781,225.949 253.080,227.526 254.668 M232.951 259.673 C 233.135 260.123,238.306 265.081,238.306 264.808 C 238.306 264.706,237.066 263.423,235.550 261.955 C 234.034 260.488,232.864 259.461,232.951 259.673 M238.318 265.627 C 238.306 266.182,263.308 291.539,264.541 292.222 C 264.889 292.415,259.328 286.718,252.184 279.563 C 245.040 272.408,239.000 266.218,238.762 265.808 C 238.460 265.288,238.326 265.233,238.318 265.627 M287.583 314.629 C 303.259 330.375,309.962 336.862,310.553 336.862 C 311.067 336.862,312.006 337.566,312.995 338.691 C 313.878 339.697,314.813 340.640,315.072 340.787 C 315.832 341.218,323.686 340.091,327.238 339.042 C 334.659 336.848,333.666 337.537,344.179 327.300 C 355.187 316.581,354.850 317.181,351.684 313.939 C 350.520 312.746,349.567 311.880,349.567 312.015 C 349.567 312.150,350.433 313.126,351.492 314.185 C 352.551 315.244,353.417 316.416,353.417 316.790 C 353.417 318.047,335.335 335.574,332.948 336.630 C 328.270 338.698,325.366 339.347,320.809 339.340 C 317.330 339.334,316.577 339.429,316.910 339.830 C 317.232 340.218,317.055 340.327,316.102 340.327 C 315.164 340.327,314.736 340.073,314.251 339.227 C 313.501 337.921,311.515 336.477,310.468 336.477 C 309.998 336.477,301.556 328.346,287.585 314.437 L 265.448 292.397 287.583 314.629 M65.288 297.398 C 61.468 301.309,60.270 302.812,63.515 299.622 C 65.503 297.667,67.055 296.020,66.962 295.961 C 66.870 295.902,66.117 296.549,65.288 297.398 M338.660 300.969 C 339.967 302.183,341.217 303.523,341.440 303.946 C 341.696 304.434,341.848 304.514,341.855 304.163 C 341.867 303.610,337.113 298.743,336.572 298.755 C 336.414 298.759,337.354 299.755,338.660 300.969 M53.430 309.340 C 45.905 316.977,46.149 316.354,49.484 319.409 C 55.741 325.140,57.188 326.213,52.408 321.576 C 46.764 316.101,46.822 316.235,49.144 314.105 C 49.747 313.552,52.027 311.257,54.209 309.004 C 56.392 306.752,58.299 304.909,58.448 304.909 C 58.596 304.909,58.934 304.562,59.198 304.139 C 60.138 302.634,59.244 303.440,53.430 309.340 M342.445 304.766 C 342.656 304.952,343.522 305.709,344.369 306.450 L 345.908 307.796 344.754 306.512 C 344.119 305.805,343.253 305.048,342.830 304.828 C 342.406 304.609,342.233 304.581,342.445 304.766 M106.819 320.362 C 93.218 334.033,91.064 335.890,87.440 337.076 C 86.338 337.436,85.507 337.801,85.593 337.887 C 85.851 338.145,89.081 336.938,91.091 335.833 C 92.239 335.201,95.667 332.082,99.874 327.841 C 117.060 310.515,120.672 306.833,120.482 306.833 C 120.370 306.833,114.221 312.921,106.819 320.362 M345.957 308.551 C 346.082 308.877,346.319 309.143,346.483 309.143 C 346.646 309.143,347.343 309.706,348.029 310.395 C 348.855 311.222,349.138 311.372,348.864 310.839 C 348.351 309.842,345.631 307.701,345.957 308.551 M59.470 329.153 C 60.722 330.418,61.816 331.383,61.901 331.298 C 62.095 331.104,57.867 326.853,57.480 326.853 C 57.323 326.853,58.219 327.888,59.470 329.153 M62.368 331.666 C 62.368 332.318,68.355 336.874,69.188 336.856 C 69.354 336.852,68.884 336.476,68.142 336.019 C 67.401 335.563,65.799 334.341,64.581 333.305 C 63.364 332.268,62.368 331.531,62.368 331.666 M70.975 337.461 C 71.792 337.761,73.024 338.354,73.713 338.780 C 74.760 339.427,75.162 339.486,76.162 339.137 C 77.408 338.703,81.746 338.813,82.805 339.307 C 83.192 339.487,83.755 339.295,84.345 338.781 L 85.274 337.972 84.241 338.599 C 83.453 339.079,83.026 339.130,82.438 338.815 C 81.479 338.302,77.383 338.275,76.072 338.773 C 75.283 339.073,74.683 338.926,72.928 338.003 C 71.735 337.376,70.474 336.875,70.125 336.889 C 69.775 336.904,70.158 337.162,70.975 337.461 " stroke="none" fill="#949494" fill-rule="evenodd"></path><path id="path6" d="M215.207 44.466 C 217.635 46.901,219.708 48.893,219.814 48.893 C 219.920 48.893,218.020 46.901,215.592 44.466 C 213.164 42.031,211.091 40.038,210.985 40.038 C 210.879 40.038,212.779 42.031,215.207 44.466 M229.644 58.903 C 231.541 60.808,233.179 62.368,233.285 62.368 C 233.391 62.368,231.926 60.808,230.029 58.903 C 228.132 56.997,226.493 55.438,226.388 55.438 C 226.282 55.438,227.747 56.997,229.644 58.903 M164.182 65.159 L 162.271 67.180 164.293 65.270 C 165.404 64.219,166.314 63.309,166.314 63.248 C 166.314 62.961,165.957 63.281,164.182 65.159 M130.695 98.653 L 126.853 102.599 130.799 98.756 C 134.464 95.187,134.920 94.706,134.641 94.706 C 134.585 94.706,132.809 96.482,130.695 98.653 M267.950 97.522 C 267.950 97.588,268.513 98.151,269.201 98.773 L 270.452 99.904 269.322 98.653 C 268.268 97.486,267.950 97.224,267.950 97.522 M188.638 106.545 L 182.676 112.608 188.739 106.646 C 194.372 101.106,194.977 100.481,194.702 100.481 C 194.646 100.481,191.918 103.210,188.638 106.545 M114.909 114.437 L 111.838 117.613 115.014 114.542 C 117.964 111.690,118.366 111.261,118.085 111.261 C 118.027 111.261,116.598 112.690,114.909 114.437 M286.237 115.881 C 288.134 117.786,289.772 119.346,289.878 119.346 C 289.984 119.346,288.519 117.786,286.622 115.881 C 284.725 113.975,283.086 112.416,282.980 112.416 C 282.875 112.416,284.340 113.975,286.237 115.881 M172.854 122.329 L 166.891 128.393 172.955 122.430 C 178.588 116.891,179.192 116.266,178.917 116.266 C 178.862 116.266,176.133 118.994,172.854 122.329 M98.359 130.991 L 92.974 136.477 98.460 131.093 C 103.556 126.091,104.120 125.505,103.845 125.505 C 103.789 125.505,101.320 127.974,98.359 130.991 M300.096 129.740 C 302.418 132.069,304.405 133.975,304.510 133.975 C 304.616 133.975,302.803 132.069,300.481 129.740 C 298.159 127.411,296.173 125.505,296.067 125.505 C 295.961 125.505,297.774 127.411,300.096 129.740 M85.647 143.696 L 83.349 146.102 85.756 143.804 C 87.991 141.670,88.338 141.290,88.053 141.290 C 87.994 141.290,86.911 142.372,85.647 143.696 M314.918 144.562 C 315.636 145.303,316.311 145.910,316.417 145.910 C 316.523 145.910,316.021 145.303,315.303 144.562 C 314.585 143.821,313.911 143.215,313.805 143.215 C 313.699 143.215,314.200 143.821,314.918 144.562 M80.451 148.893 L 77.960 151.492 80.558 149.001 C 81.987 147.630,83.157 146.461,83.157 146.402 C 83.157 146.119,82.765 146.479,80.451 148.893 M318.383 148.027 C 319.101 148.768,319.776 149.374,319.882 149.374 C 319.987 149.374,319.486 148.768,318.768 148.027 C 318.050 147.286,317.375 146.679,317.270 146.679 C 317.164 146.679,317.665 147.286,318.383 148.027 M332.820 162.464 C 333.647 163.311,334.410 164.004,334.516 164.004 C 334.622 164.004,334.032 163.311,333.205 162.464 C 332.378 161.617,331.615 160.924,331.509 160.924 C 331.403 160.924,331.993 161.617,332.820 162.464 M200.611 162.560 C 200.701 162.613,201.379 163.176,202.119 163.811 L 203.465 164.966 202.334 163.715 C 201.712 163.027,201.034 162.464,200.826 162.464 C 200.619 162.464,200.522 162.507,200.611 162.560 M46.229 184.060 C 46.212 184.397,46.588 185.004,47.064 185.407 C 47.923 186.134,47.925 186.134,47.307 185.371 C 46.964 184.947,46.588 184.341,46.471 184.023 C 46.291 183.533,46.254 183.538,46.229 184.060 M170.723 191.434 L 169.201 193.070 170.837 191.548 C 172.359 190.133,172.650 189.798,172.359 189.798 C 172.296 189.798,171.560 190.534,170.723 191.434 M340.322 198.941 L 334.745 204.620 340.423 199.043 C 345.699 193.861,346.276 193.263,346.001 193.263 C 345.945 193.263,343.390 195.818,340.322 198.941 M97.587 197.979 L 93.744 201.925 97.690 198.082 C 99.860 195.969,101.636 194.193,101.636 194.136 C 101.636 193.858,101.156 194.314,97.587 197.979 M243.118 205.197 C 248.621 210.703,253.209 215.207,253.315 215.207 C 253.421 215.207,249.006 210.703,243.503 205.197 C 238.001 199.692,233.413 195.188,233.307 195.188 C 233.201 195.188,237.616 199.692,243.118 205.197 M78.633 206.628 C 79.216 206.716,80.168 206.716,80.751 206.628 C 81.333 206.540,80.857 206.468,79.692 206.468 C 78.527 206.468,78.051 206.540,78.633 206.628 M315.592 208.556 C 316.280 208.641,317.406 208.641,318.094 208.556 C 318.782 208.470,318.219 208.400,316.843 208.400 C 315.467 208.400,314.904 208.470,315.592 208.556 M215.576 243.022 C 217.171 244.722,217.517 245.028,217.517 244.738 C 217.517 244.677,216.694 243.854,215.688 242.910 L 213.859 241.193 215.576 243.022 M219.634 247.161 C 220.677 248.219,221.617 249.086,221.723 249.086 C 221.829 249.086,221.062 248.219,220.019 247.161 C 218.976 246.102,218.037 245.236,217.931 245.236 C 217.825 245.236,218.591 246.102,219.634 247.161 M223.292 250.818 C 224.010 251.559,224.684 252.166,224.790 252.166 C 224.896 252.166,224.395 251.559,223.677 250.818 C 222.958 250.077,222.284 249.471,222.178 249.471 C 222.072 249.471,222.573 250.077,223.292 250.818 M230.606 258.061 C 230.606 258.127,231.169 258.690,231.858 259.312 L 233.109 260.443 231.978 259.192 C 230.924 258.025,230.606 257.763,230.606 258.061 M235.419 262.945 C 236.676 264.216,237.791 265.255,237.897 265.255 C 238.003 265.255,237.061 264.216,235.804 262.945 C 234.546 261.675,233.431 260.635,233.325 260.635 C 233.219 260.635,234.161 261.675,235.419 262.945 M128.968 299.038 L 112.608 315.496 129.066 299.135 C 144.364 283.929,145.698 282.579,145.427 282.579 C 145.373 282.579,137.967 289.986,128.968 299.038 M289.509 317.349 C 289.509 317.415,290.072 317.978,290.760 318.600 L 292.012 319.731 290.881 318.479 C 289.827 317.313,289.509 317.051,289.509 317.349 M349.174 322.907 L 345.525 326.660 349.278 323.010 C 352.764 319.621,353.207 319.153,352.928 319.153 C 352.871 319.153,351.182 320.842,349.174 322.907 M306.822 334.649 C 308.193 336.078,309.579 337.234,309.902 337.217 C 310.418 337.190,310.419 337.161,309.913 336.980 C 309.596 336.866,308.210 335.710,306.833 334.411 L 304.331 332.050 306.822 334.649 M311.068 337.368 C 311.068 337.434,311.631 337.997,312.320 338.619 L 313.571 339.750 312.440 338.499 C 311.386 337.332,311.068 337.070,311.068 337.368 M317.139 341.376 C 317.831 341.462,318.870 341.460,319.449 341.372 C 320.027 341.284,319.461 341.214,318.191 341.217 C 316.920 341.219,316.447 341.291,317.139 341.376 " stroke="none" fill="#444444" fill-rule="evenodd"></path><path id="path7" d="M194.586 34.745 L 193.455 35.996 194.706 34.865 C 195.395 34.244,195.958 33.680,195.958 33.614 C 195.958 33.317,195.640 33.579,194.586 34.745 M178.045 51.299 L 175.361 54.090 178.152 51.406 C 179.687 49.929,180.943 48.673,180.943 48.615 C 180.943 48.332,180.539 48.707,178.045 51.299 M236.959 66.218 C 239.068 68.335,240.881 70.067,240.987 70.067 C 241.092 70.067,239.453 68.335,237.344 66.218 C 235.234 64.100,233.422 62.368,233.316 62.368 C 233.210 62.368,234.849 64.100,236.959 66.218 M146.854 82.483 L 145.332 84.119 146.968 82.598 C 148.490 81.182,148.781 80.847,148.490 80.847 C 148.427 80.847,147.691 81.583,146.854 82.483 M205.582 100.674 C 206.946 102.050,208.149 103.176,208.255 103.176 C 208.361 103.176,207.331 102.050,205.967 100.674 C 204.603 99.297,203.400 98.171,203.295 98.171 C 203.189 98.171,204.218 99.297,205.582 100.674 M220.019 115.111 C 221.703 116.805,223.168 118.191,223.274 118.191 C 223.379 118.191,222.088 116.805,220.404 115.111 C 218.720 113.417,217.256 112.031,217.150 112.031 C 217.044 112.031,218.335 113.417,220.019 115.111 M252.358 148.219 C 253.401 149.278,254.341 150.144,254.447 150.144 C 254.552 150.144,253.786 149.278,252.743 148.219 C 251.700 147.161,250.760 146.295,250.655 146.295 C 250.549 146.295,251.315 147.161,252.358 148.219 M210.965 172.570 C 214.713 176.414,215.207 176.883,215.207 176.605 C 215.207 176.549,213.345 174.686,211.068 172.467 L 206.930 168.431 210.965 172.570 M113.749 181.809 L 111.838 183.831 113.859 181.920 C 114.971 180.869,115.881 179.960,115.881 179.899 C 115.881 179.612,115.524 179.931,113.749 181.809 M227.520 189.124 C 231.268 192.968,231.761 193.438,231.761 193.160 C 231.761 193.103,229.899 191.241,227.623 189.021 L 223.484 184.986 227.520 189.124 M320.025 208.553 C 320.610 208.642,321.476 208.640,321.949 208.548 C 322.423 208.457,321.944 208.384,320.885 208.387 C 319.827 208.390,319.439 208.465,320.025 208.553 M266.025 228.032 C 266.025 228.098,266.588 228.661,267.276 229.283 L 268.527 230.414 267.397 229.163 C 266.343 227.996,266.025 227.734,266.025 228.032 M181.496 246.487 L 180.366 247.738 181.617 246.607 C 182.783 245.553,183.045 245.236,182.748 245.236 C 182.681 245.236,182.118 245.799,181.496 246.487 M172.474 255.438 C 170.896 257.026,169.692 258.325,169.798 258.325 C 169.904 258.325,171.281 257.026,172.859 255.438 C 174.436 253.850,175.640 252.551,175.534 252.551 C 175.428 252.551,174.051 253.850,172.474 255.438 M160.145 267.854 L 156.882 271.222 160.250 267.958 C 163.379 264.927,163.794 264.485,163.514 264.485 C 163.457 264.485,161.941 266.001,160.145 267.854 M275.072 302.984 C 276.115 304.042,277.055 304.909,277.161 304.909 C 277.267 304.909,276.500 304.042,275.457 302.984 C 274.414 301.925,273.475 301.059,273.369 301.059 C 273.263 301.059,274.029 301.925,275.072 302.984 M336.072 335.996 L 334.745 337.440 336.189 336.113 C 337.532 334.878,337.809 334.552,337.515 334.552 C 337.451 334.552,336.801 335.202,336.072 335.996 M320.982 341.369 C 321.458 341.461,322.238 341.461,322.714 341.369 C 323.191 341.277,322.801 341.202,321.848 341.202 C 320.895 341.202,320.505 341.277,320.982 341.369 " stroke="none" fill="#3c3c3c" fill-rule="evenodd"></path><path id="path8" d="M213.859 42.733 C 221.056 49.933,227.031 55.823,227.137 55.823 C 227.243 55.823,221.441 49.933,214.244 42.733 C 207.048 35.534,201.073 29.644,200.967 29.644 C 200.861 29.644,206.663 35.534,213.859 42.733 M268.912 98.171 C 283.521 112.782,295.561 124.735,295.667 124.735 C 295.773 124.735,283.906 112.782,269.297 98.171 C 254.688 83.561,242.649 71.607,242.543 71.607 C 242.437 71.607,254.303 83.561,268.912 98.171 M133.184 95.765 L 131.858 97.209 133.301 95.882 C 134.095 95.152,134.745 94.503,134.745 94.438 C 134.745 94.144,134.419 94.421,133.184 95.765 M122.215 106.737 L 120.693 108.373 122.329 106.852 C 123.851 105.436,124.142 105.101,123.851 105.101 C 123.788 105.101,123.052 105.837,122.215 106.737 M180.357 115.207 L 177.286 118.383 180.462 115.312 C 182.209 113.623,183.638 112.194,183.638 112.136 C 183.638 111.855,183.209 112.257,180.357 115.207 M102.977 125.987 L 98.749 130.318 103.080 126.089 C 105.462 123.764,107.411 121.815,107.411 121.758 C 107.411 121.481,106.904 121.964,102.977 125.987 M147.063 148.508 L 126.468 169.201 147.161 148.606 C 166.395 129.462,168.027 127.815,167.756 127.815 C 167.702 127.815,158.391 137.127,147.063 148.508 M235.595 130.606 C 236.539 131.612,237.362 132.435,237.424 132.435 C 237.713 132.435,237.407 132.089,235.707 130.494 L 233.879 128.778 235.595 130.606 M93.353 135.611 L 88.354 140.712 93.455 135.713 C 98.194 131.069,98.731 130.510,98.455 130.510 C 98.399 130.510,96.103 132.806,93.353 135.611 M309.336 138.595 C 310.379 139.654,311.319 140.520,311.424 140.520 C 311.530 140.520,310.764 139.654,309.721 138.595 C 308.678 137.536,307.738 136.670,307.632 136.670 C 307.527 136.670,308.293 137.536,309.336 138.595 M312.993 142.252 C 313.712 142.993,314.386 143.600,314.492 143.600 C 314.598 143.600,314.097 142.993,313.378 142.252 C 312.660 141.511,311.986 140.905,311.880 140.905 C 311.774 140.905,312.275 141.511,312.993 142.252 M320.693 149.952 C 321.411 150.693,322.086 151.299,322.191 151.299 C 322.297 151.299,321.796 150.693,321.078 149.952 C 320.360 149.211,319.685 148.604,319.579 148.604 C 319.474 148.604,319.975 149.211,320.693 149.952 M72.733 156.208 L 71.800 157.267 72.955 156.304 C 73.590 155.775,74.182 155.298,74.270 155.245 C 74.358 155.192,74.259 155.149,74.049 155.149 C 73.838 155.149,73.246 155.626,72.733 156.208 M69.518 159.733 L 68.391 161.116 69.691 159.878 C 70.405 159.196,70.913 158.574,70.818 158.494 C 70.723 158.414,70.138 158.972,69.518 159.733 M287.583 182.964 C 299.546 194.981,309.594 204.799,309.912 204.782 C 310.426 204.755,310.426 204.729,309.913 204.548 C 309.596 204.436,299.548 194.618,287.584 182.730 L 265.833 161.116 287.583 182.964 M200.385 162.351 C 200.808 162.451,202.108 163.427,203.272 164.520 L 205.390 166.506 203.286 164.293 C 201.974 162.913,200.886 162.096,200.398 162.124 C 199.626 162.168,199.626 162.171,200.385 162.351 M185.946 175.842 L 172.666 189.220 186.044 175.940 C 198.478 163.598,199.596 162.464,199.324 162.464 C 199.270 162.464,193.250 168.484,185.946 175.842 M339.172 167.589 C 339.172 167.655,339.735 168.218,340.423 168.840 L 341.675 169.971 340.544 168.720 C 339.490 167.554,339.172 167.292,339.172 167.589 M342.830 171.561 C 343.041 171.747,343.907 172.504,344.754 173.245 L 346.293 174.591 345.139 173.307 C 344.504 172.600,343.638 171.843,343.215 171.623 C 342.791 171.404,342.618 171.376,342.830 171.561 M45.939 183.865 C 45.788 184.260,46.164 184.908,47.001 185.694 L 48.298 186.910 47.198 185.682 C 46.539 184.946,46.191 184.213,46.329 183.854 C 46.455 183.523,46.472 183.253,46.367 183.253 C 46.261 183.253,46.068 183.528,45.939 183.865 M353.246 186.694 L 351.727 188.450 353.419 186.827 C 354.350 185.935,355.033 185.144,354.938 185.071 C 354.842 184.997,354.081 185.727,353.246 186.694 M48.508 186.838 C 48.508 186.905,49.071 187.468,49.759 188.090 L 51.011 189.220 49.880 187.969 C 48.826 186.803,48.508 186.541,48.508 186.838 M52.551 190.568 C 53.378 191.415,54.141 192.108,54.247 192.108 C 54.353 192.108,53.763 191.415,52.936 190.568 C 52.108 189.721,51.345 189.028,51.239 189.028 C 51.133 189.028,51.723 189.721,52.551 190.568 M157.842 203.946 L 143.407 218.479 157.940 204.044 C 171.448 190.628,172.647 189.413,172.375 189.413 C 172.321 189.413,165.781 195.953,157.842 203.946 M342.056 197.580 C 338.035 201.648,334.861 204.896,335.004 204.798 C 335.708 204.313,349.839 190.183,349.620 190.183 C 349.481 190.183,346.077 193.511,342.056 197.580 M240.231 201.925 C 244.568 206.266,248.203 209.817,248.309 209.817 C 248.415 209.817,244.953 206.266,240.616 201.925 C 236.279 197.584,232.644 194.033,232.538 194.033 C 232.432 194.033,235.894 197.584,240.231 201.925 M315.784 208.938 C 316.367 209.026,317.320 209.026,317.902 208.938 C 318.484 208.850,318.008 208.778,316.843 208.778 C 315.679 208.778,315.202 208.850,315.784 208.938 M141.290 220.404 C 140.355 221.357,139.676 222.137,139.782 222.137 C 139.888 222.137,140.740 221.357,141.675 220.404 C 142.610 219.451,143.288 218.672,143.182 218.672 C 143.077 218.672,142.225 219.451,141.290 220.404 M124.733 237.055 L 110.298 251.588 124.832 237.153 C 138.339 223.737,139.538 222.522,139.267 222.522 C 139.213 222.522,132.673 229.062,124.733 237.055 M198.057 229.933 L 196.535 231.569 198.075 230.172 C 198.922 229.403,199.875 228.681,200.192 228.566 C 200.694 228.385,200.691 228.353,200.174 228.327 C 199.847 228.310,198.894 229.033,198.057 229.933 M208.855 236.766 C 212.238 240.154,215.092 242.926,215.198 242.926 C 215.304 242.926,212.623 240.154,209.240 236.766 C 205.857 233.378,203.002 230.606,202.896 230.606 C 202.791 230.606,205.472 233.378,208.855 236.766 M284.697 246.776 C 286.168 248.258,287.458 249.471,287.564 249.471 C 287.669 249.471,286.553 248.258,285.082 246.776 C 283.611 245.294,282.321 244.081,282.215 244.081 C 282.109 244.081,283.226 245.294,284.697 246.776 M226.179 254.090 C 228.713 256.631,230.873 258.710,230.979 258.710 C 231.085 258.710,229.098 256.631,226.564 254.090 C 224.030 251.550,221.870 249.471,221.764 249.471 C 221.658 249.471,223.645 251.550,226.179 254.090 M107.974 253.802 L 106.064 255.823 108.085 253.912 C 109.196 252.862,110.106 251.952,110.106 251.891 C 110.106 251.604,109.749 251.924,107.974 253.802 M300.096 262.175 C 304.327 266.410,307.875 269.875,307.981 269.875 C 308.087 269.875,304.712 266.410,300.481 262.175 C 296.250 257.940,292.702 254.475,292.596 254.475 C 292.490 254.475,295.865 257.940,300.096 262.175 M99.514 262.271 L 94.129 267.757 99.615 262.373 C 102.632 259.411,105.101 256.943,105.101 256.887 C 105.101 256.611,104.516 257.175,99.514 262.271 M237.548 265.611 C 237.541 265.913,239.745 268.342,242.445 271.009 L 247.353 275.858 242.876 271.230 C 240.413 268.685,238.210 266.256,237.979 265.833 C 237.714 265.345,237.555 265.264,237.548 265.611 M87.193 274.591 L 82.964 278.922 87.295 274.694 C 89.678 272.368,91.627 270.419,91.627 270.363 C 91.627 270.085,91.120 270.568,87.193 274.591 M315.002 277.002 C 315.789 277.825,316.495 278.421,316.571 278.325 C 316.647 278.230,316.004 277.557,315.140 276.829 L 313.571 275.506 315.002 277.002 M317.228 278.975 C 317.228 279.180,317.878 279.946,318.672 280.675 L 320.115 282.002 318.768 280.466 C 318.027 279.622,317.377 278.856,317.324 278.766 C 317.271 278.675,317.228 278.769,317.228 278.975 M78.722 283.061 L 74.880 287.007 78.826 283.164 C 82.491 279.595,82.947 279.115,82.668 279.115 C 82.612 279.115,80.836 280.890,78.722 283.061 M258.214 286.803 C 261.858 290.496,264.890 293.439,264.951 293.342 C 265.012 293.246,262.031 290.224,258.325 286.627 L 251.588 280.088 258.214 286.803 M328.585 290.597 C 332.397 294.472,335.861 297.829,336.285 298.056 C 336.708 298.283,336.966 298.401,336.858 298.320 C 336.750 298.238,333.285 294.882,329.159 290.861 L 321.655 283.551 328.585 290.597 M72.364 289.413 L 70.260 291.627 72.474 289.522 C 73.691 288.365,74.687 287.369,74.687 287.309 C 74.687 287.023,74.319 287.356,72.364 289.413 M67.744 294.033 L 65.640 296.246 67.854 294.142 C 69.071 292.985,70.067 291.989,70.067 291.928 C 70.067 291.643,69.699 291.976,67.744 294.033 M125.304 303.080 L 122.233 306.256 125.409 303.185 C 128.359 300.333,128.761 299.904,128.480 299.904 C 128.422 299.904,126.993 301.333,125.304 303.080 M341.830 303.218 C 342.045 303.664,342.704 304.324,343.295 304.684 L 344.370 305.339 343.433 304.524 C 342.918 304.076,342.259 303.416,341.968 303.058 C 341.495 302.475,341.481 302.491,341.830 303.218 M349.011 310.323 C 349.846 311.289,350.607 312.019,350.703 311.946 C 350.798 311.872,350.115 311.082,349.184 310.189 L 347.492 308.566 349.011 310.323 M50.422 311.742 L 47.931 314.341 50.529 311.849 C 52.943 309.535,53.304 309.143,53.021 309.143 C 52.962 309.143,51.792 310.313,50.422 311.742 M103.933 324.352 C 97.468 330.809,92.272 336.092,92.386 336.092 C 92.500 336.092,97.876 330.808,104.331 324.350 C 110.787 317.892,115.983 312.609,115.878 312.610 C 115.774 312.611,110.398 317.895,103.933 324.352 M351.107 312.748 C 351.107 312.854,351.627 313.311,352.262 313.763 C 352.897 314.216,353.417 314.499,353.417 314.393 C 353.417 314.287,352.897 313.831,352.262 313.378 C 351.627 312.926,351.107 312.642,351.107 312.748 M46.275 315.765 C 45.623 316.417,45.702 317.427,46.453 318.047 C 47.038 318.531,47.046 318.502,46.552 317.709 C 46.115 317.007,46.104 316.697,46.494 316.073 C 47.038 315.201,46.956 315.085,46.275 315.765 M349.182 323.286 L 343.600 328.946 348.988 323.761 C 353.764 319.164,355.266 317.599,354.880 317.619 C 354.816 317.623,352.252 320.173,349.182 323.286 M47.353 318.504 C 47.353 318.570,47.916 319.133,48.604 319.755 L 49.856 320.885 48.725 319.634 C 47.671 318.468,47.353 318.206,47.353 318.504 M58.710 329.163 C 61.457 331.915,63.791 334.167,63.896 334.167 C 64.002 334.167,61.842 331.915,59.095 329.163 C 56.349 326.410,54.015 324.158,53.909 324.158 C 53.803 324.158,55.964 326.410,58.710 329.163 M341.948 330.263 C 341.251 330.981,340.743 331.631,340.819 331.708 C 340.895 331.784,341.540 331.245,342.252 330.510 C 342.964 329.775,343.472 329.125,343.381 329.065 C 343.289 329.005,342.644 329.544,341.948 330.263 M307.396 335.611 C 308.456 336.732,309.648 337.632,310.073 337.632 C 310.494 337.632,311.454 338.195,312.205 338.884 L 313.571 340.135 312.244 338.691 C 311.514 337.897,310.567 337.247,310.140 337.247 C 309.712 337.247,308.490 336.424,307.424 335.419 L 305.486 333.590 307.396 335.611 M336.502 335.870 L 335.178 337.440 336.675 336.009 C 337.498 335.222,338.093 334.516,337.998 334.439 C 337.903 334.363,337.229 335.007,336.502 335.870 M332.820 338.017 L 331.665 338.311 332.701 338.357 C 333.271 338.382,333.844 338.229,333.975 338.017 C 334.106 337.806,334.159 337.653,334.094 337.678 C 334.029 337.703,333.455 337.856,332.820 338.017 M78.448 339.451 C 79.140 339.537,80.179 339.535,80.758 339.447 C 81.336 339.360,80.770 339.289,79.500 339.292 C 78.229 339.294,77.756 339.366,78.448 339.451 M324.549 340.734 C 323.501 341.318,323.383 341.482,324.008 341.482 C 324.448 341.482,325.122 341.136,325.505 340.712 C 326.351 339.778,326.261 339.780,324.549 340.734 " stroke="none" fill="#2f2f2f" fill-rule="evenodd"></path></g></svg>