<svg id="svg" version="1.1" xmlns="http://www.w3.org/2000/svg" xmlns:xlink="http://www.w3.org/1999/xlink" width="400" height="610.15625" viewBox="0, 0, 400,610.15625"><g id="svgg"><path id="path0" d="M192.238 9.138 C 192.123 9.324,189.387 9.584,186.158 9.714 C 182.892 9.847,180.100 10.140,179.864 10.376 C 179.631 10.609,178.857 10.800,178.144 10.800 C 177.431 10.800,176.736 10.980,176.600 11.200 C 176.464 11.420,175.913 11.600,175.376 11.600 C 174.839 11.600,174.400 11.780,174.400 12.000 C 174.400 12.220,174.040 12.400,173.600 12.400 C 173.160 12.400,172.800 12.580,172.800 12.800 C 172.800 13.020,172.440 13.200,172.000 13.200 C 171.560 13.200,171.200 13.380,171.200 13.600 C 171.200 13.820,170.840 14.000,170.400 14.000 C 169.960 14.000,169.600 14.180,169.600 14.400 C 169.600 14.620,169.280 14.800,168.888 14.800 C 168.497 14.800,167.917 15.160,167.600 15.600 C 167.283 16.040,166.832 16.400,166.599 16.400 C 166.366 16.400,165.106 17.480,163.800 18.800 C 162.494 20.120,161.246 21.200,161.028 21.200 C 160.489 21.200,157.200 24.459,157.200 24.992 C 157.200 25.521,99.900 82.800,99.371 82.800 C 98.919 82.800,88.400 93.269,88.400 93.719 C 88.400 94.192,71.878 110.800,71.408 110.800 C 70.888 110.800,44.400 137.268,44.400 137.787 C 44.400 138.329,41.126 141.600,40.583 141.600 C 40.090 141.600,23.899 157.703,23.654 158.437 C 23.572 158.685,20.015 162.406,15.752 166.704 C 11.488 171.003,8.000 174.723,8.000 174.972 C 8.000 175.220,7.640 175.683,7.200 176.000 C 6.760 176.317,6.400 176.897,6.400 177.288 C 6.400 177.680,6.220 178.000,6.000 178.000 C 5.780 178.000,5.600 178.360,5.600 178.800 C 5.600 179.240,5.420 179.600,5.200 179.600 C 4.980 179.600,4.800 179.960,4.800 180.400 C 4.800 180.840,4.620 181.200,4.400 181.200 C 4.180 181.200,4.000 181.639,4.000 182.176 C 4.000 182.713,3.820 183.264,3.600 183.400 C 3.380 183.536,3.200 184.256,3.200 185.000 C 3.200 185.744,3.020 186.464,2.800 186.600 C 2.580 186.736,2.400 187.636,2.400 188.600 C 2.400 189.564,2.220 190.464,2.000 190.600 C 1.775 190.739,1.600 192.671,1.600 195.024 C 1.600 197.541,1.441 199.200,1.200 199.200 C 0.656 199.200,0.656 216.664,1.200 217.000 C 1.425 217.139,1.600 219.063,1.600 221.400 C 1.600 223.737,1.775 225.661,2.000 225.800 C 2.220 225.936,2.400 226.847,2.400 227.824 C 2.400 228.801,2.580 229.600,2.800 229.600 C 3.020 229.600,3.200 230.320,3.200 231.200 C 3.200 232.080,3.380 232.800,3.600 232.800 C 3.820 232.800,4.000 233.113,4.000 233.496 C 4.000 234.400,6.661 239.787,7.418 240.415 C 7.738 240.681,8.000 241.104,8.000 241.355 C 8.000 241.916,17.653 251.600,18.212 251.600 C 18.432 251.600,20.857 253.850,23.600 256.600 C 26.343 259.350,28.779 261.600,29.013 261.600 C 29.246 261.600,30.141 262.320,31.000 263.200 C 31.859 264.080,32.768 264.800,33.019 264.800 C 33.270 264.800,33.802 265.160,34.200 265.600 C 34.598 266.040,35.144 266.400,35.413 266.400 C 35.682 266.400,36.113 266.655,36.371 266.966 C 36.983 267.702,46.419 272.400,47.287 272.400 C 47.653 272.400,48.064 272.580,48.200 272.800 C 48.336 273.020,49.056 273.200,49.800 273.200 C 50.544 273.200,51.264 273.380,51.400 273.600 C 51.536 273.820,52.256 274.000,53.000 274.000 C 53.744 274.000,54.464 274.180,54.600 274.400 C 54.736 274.620,55.636 274.800,56.600 274.800 C 57.564 274.800,58.464 274.980,58.600 275.200 C 58.736 275.420,60.367 275.600,62.224 275.600 C 64.208 275.600,65.600 275.765,65.600 276.000 C 65.600 276.245,67.533 276.400,70.600 276.400 C 73.350 276.400,75.600 276.536,75.600 276.701 C 75.600 276.867,65.790 286.812,53.800 298.800 C 41.810 310.788,32.000 320.783,32.000 321.010 C 32.000 321.545,27.107 326.400,26.568 326.400 C 26.029 326.400,23.600 328.913,23.600 329.470 C 23.600 329.708,23.338 330.119,23.018 330.385 C 22.105 331.143,19.600 336.489,19.600 337.680 C 19.600 338.270,19.420 338.864,19.200 339.000 C 18.980 339.136,18.800 340.587,18.800 342.224 C 18.800 343.941,18.631 345.200,18.400 345.200 C 17.861 345.200,17.861 356.667,18.400 357.000 C 18.620 357.136,18.800 358.587,18.800 360.224 C 18.800 361.941,18.969 363.200,19.200 363.200 C 19.420 363.200,19.600 363.693,19.600 364.296 C 19.600 365.506,22.096 370.850,23.018 371.615 C 23.338 371.881,23.600 372.311,23.600 372.571 C 23.600 373.134,26.068 375.600,26.632 375.600 C 26.848 375.600,28.094 376.680,29.400 378.000 C 30.706 379.320,31.963 380.400,32.193 380.400 C 32.423 380.400,35.036 382.830,38.000 385.800 C 40.964 388.770,43.583 391.200,43.820 391.200 C 44.057 391.200,44.768 391.740,45.400 392.400 C 46.032 393.060,46.758 393.600,47.013 393.600 C 47.268 393.600,47.802 393.960,48.200 394.400 C 48.598 394.840,49.166 395.200,49.462 395.200 C 49.758 395.200,50.000 395.380,50.000 395.600 C 50.000 395.820,50.320 396.000,50.712 396.000 C 51.103 396.000,51.683 396.360,52.000 396.800 C 52.339 397.270,53.035 397.600,53.688 397.600 C 54.300 397.600,54.800 397.780,54.800 398.000 C 54.800 398.220,55.160 398.400,55.600 398.400 C 56.040 398.400,56.400 398.580,56.400 398.800 C 56.400 399.020,56.839 399.200,57.376 399.200 C 57.913 399.200,58.464 399.380,58.600 399.600 C 58.736 399.820,59.276 400.000,59.800 400.000 C 60.324 400.000,60.864 400.180,61.000 400.400 C 61.136 400.620,61.831 400.800,62.544 400.800 C 63.257 400.800,64.063 401.023,64.335 401.295 C 64.708 401.668,68.118 401.791,78.213 401.795 L 91.597 401.800 71.500 421.900 C 60.447 432.955,51.211 442.000,50.976 442.000 C 50.466 442.000,48.400 444.090,48.400 444.607 C 48.400 445.128,45.118 448.400,44.595 448.400 C 44.062 448.400,41.600 450.885,41.600 451.422 C 41.600 451.633,37.274 456.125,31.987 461.403 C 24.476 468.901,22.139 471.481,21.301 473.200 C 20.712 474.410,20.088 475.460,19.915 475.533 C 19.742 475.607,19.600 476.192,19.600 476.833 C 19.600 477.475,19.420 478.000,19.200 478.000 C 18.980 478.000,18.800 478.979,18.800 480.176 C 18.800 481.373,18.620 482.464,18.400 482.600 C 17.860 482.934,17.860 498.666,18.400 499.000 C 18.620 499.136,18.800 500.216,18.800 501.400 C 18.800 502.584,18.980 503.664,19.200 503.800 C 19.420 503.936,19.600 504.362,19.600 504.747 C 19.600 507.255,28.250 518.400,30.197 518.400 C 30.424 518.400,33.306 521.100,36.600 524.400 C 39.894 527.700,42.765 530.400,42.978 530.400 C 43.192 530.400,44.032 531.050,44.845 531.844 C 46.498 533.458,46.480 533.447,52.603 536.561 C 55.024 537.792,57.309 538.800,57.679 538.800 C 58.050 538.800,58.464 538.980,58.600 539.200 C 58.736 539.420,59.276 539.600,59.800 539.600 C 60.324 539.600,60.864 539.780,61.000 540.000 C 61.136 540.220,61.867 540.400,62.624 540.400 C 63.381 540.400,64.000 540.580,64.000 540.800 C 64.000 541.029,65.200 541.200,66.800 541.200 C 68.400 541.200,69.600 541.371,69.600 541.600 C 69.600 542.145,87.863 542.145,88.200 541.600 C 88.336 541.380,89.776 541.200,91.400 541.200 C 93.024 541.200,94.464 541.020,94.600 540.800 C 94.736 540.580,95.456 540.400,96.200 540.400 C 96.944 540.400,97.664 540.220,97.800 540.000 C 97.936 539.780,98.487 539.600,99.024 539.600 C 99.561 539.600,100.000 539.420,100.000 539.200 C 100.000 538.980,100.360 538.800,100.800 538.800 C 101.240 538.800,101.600 538.620,101.600 538.400 C 101.600 538.180,102.140 538.000,102.800 538.000 C 103.460 538.000,104.000 537.820,104.000 537.600 C 104.000 537.380,104.360 537.200,104.800 537.200 C 105.240 537.200,105.601 537.065,105.603 536.900 C 105.607 536.508,107.573 535.600,108.418 535.600 C 108.780 535.600,109.402 535.240,109.800 534.800 C 110.198 534.360,110.735 534.000,110.992 534.000 C 111.250 534.000,111.883 533.550,112.400 533.000 C 112.917 532.450,113.534 532.000,113.772 532.000 C 114.316 532.000,138.400 507.940,138.400 507.397 C 138.400 507.177,151.945 493.453,168.501 476.899 L 198.602 446.800 200.345 446.800 C 202.048 446.800,212.400 455.880,212.400 457.374 C 212.400 457.924,287.265 532.800,287.814 532.800 C 288.042 532.800,289.205 533.790,290.400 535.000 C 291.595 536.210,292.770 537.200,293.011 537.200 C 293.253 537.200,293.968 537.740,294.600 538.400 C 295.232 539.060,295.986 539.600,296.275 539.600 C 296.564 539.600,296.800 539.780,296.800 540.000 C 296.800 540.220,297.340 540.400,298.000 540.400 C 298.660 540.400,299.200 540.580,299.200 540.800 C 299.200 541.020,299.740 541.200,300.400 541.200 C 301.060 541.200,301.600 541.380,301.600 541.600 C 301.600 541.820,302.219 542.000,302.976 542.000 C 303.733 542.000,304.464 542.180,304.600 542.400 C 304.736 542.620,305.816 542.800,307.000 542.800 C 308.184 542.800,309.264 542.980,309.400 543.200 C 309.554 543.449,313.404 543.600,319.624 543.600 C 326.008 543.600,329.600 543.456,329.600 543.200 C 329.600 542.975,330.725 542.800,332.176 542.800 C 333.593 542.800,334.864 542.620,335.000 542.400 C 335.136 542.180,336.036 542.000,337.000 542.000 C 337.964 542.000,338.864 541.820,339.000 541.600 C 339.136 541.380,339.676 541.200,340.200 541.200 C 340.724 541.200,341.264 541.020,341.400 540.800 C 341.536 540.580,341.991 540.400,342.411 540.400 C 342.832 540.400,343.817 540.040,344.600 539.600 C 345.383 539.160,346.242 538.800,346.509 538.800 C 347.350 538.800,354.267 535.210,355.012 534.387 C 355.403 533.954,355.887 533.600,356.086 533.600 C 356.726 533.600,378.000 512.137,378.000 511.490 C 378.000 511.147,378.135 510.807,378.300 510.733 C 378.791 510.515,380.400 507.184,380.400 506.386 C 380.400 505.980,380.580 505.536,380.800 505.400 C 381.020 505.264,381.200 504.364,381.200 503.400 C 381.200 502.436,381.380 501.536,381.600 501.400 C 382.143 501.065,382.143 482.135,381.600 481.800 C 381.380 481.664,381.200 480.753,381.200 479.776 C 381.200 478.799,381.020 478.000,380.800 478.000 C 380.580 478.000,380.400 477.475,380.400 476.833 C 380.400 476.192,380.258 475.607,380.085 475.533 C 379.912 475.460,379.278 474.384,378.676 473.141 C 378.074 471.899,377.316 470.662,376.991 470.392 C 376.666 470.123,376.400 469.703,376.400 469.460 C 376.400 469.218,375.124 467.734,373.564 466.164 C 372.004 464.593,370.516 462.883,370.256 462.362 C 369.997 461.842,369.360 461.204,368.842 460.946 C 367.651 460.352,363.200 455.970,363.200 455.391 C 363.200 454.856,360.711 452.400,360.168 452.400 C 359.952 452.400,358.706 451.320,357.400 450.000 C 356.094 448.680,354.837 447.600,354.607 447.600 C 354.079 447.600,342.800 436.327,342.800 435.799 C 342.800 435.277,328.722 421.200,328.200 421.200 C 327.659 421.200,314.000 407.513,314.000 406.971 C 314.000 406.739,313.466 406.038,312.814 405.414 C 311.018 403.692,311.404 403.600,320.400 403.600 C 325.537 403.600,328.848 403.446,329.000 403.200 C 329.136 402.980,330.576 402.800,332.200 402.800 C 333.824 402.800,335.253 402.638,335.375 402.441 C 335.497 402.243,336.858 401.955,338.398 401.800 C 339.939 401.645,341.200 401.357,341.200 401.159 C 341.200 400.962,341.740 400.800,342.400 400.800 C 343.060 400.800,343.600 400.620,343.600 400.400 C 343.600 400.180,343.960 400.000,344.400 400.000 C 344.840 400.000,345.200 399.820,345.200 399.600 C 345.200 399.380,345.514 399.200,345.897 399.200 C 346.796 399.200,353.791 395.734,354.419 394.977 C 354.682 394.660,355.102 394.400,355.352 394.400 C 355.602 394.400,359.854 390.350,364.800 385.400 C 369.746 380.450,373.988 376.400,374.227 376.400 C 374.772 376.400,376.400 374.694,376.400 374.123 C 376.400 373.889,376.662 373.481,376.982 373.215 C 377.904 372.450,380.400 367.106,380.400 365.896 C 380.400 365.293,380.580 364.800,380.800 364.800 C 381.022 364.800,381.200 363.733,381.200 362.400 C 381.200 361.067,381.378 360.000,381.600 360.000 C 381.853 360.000,382.000 357.075,382.000 352.024 C 382.000 347.137,381.845 343.951,381.600 343.800 C 381.380 343.664,381.200 342.584,381.200 341.400 C 381.200 340.216,381.020 339.136,380.800 339.000 C 380.580 338.864,380.400 338.270,380.400 337.679 C 380.400 335.907,377.007 329.569,375.007 327.607 C 374.013 326.631,373.200 325.644,373.200 325.411 C 373.200 324.913,359.038 310.800,358.538 310.800 C 358.119 310.800,326.000 278.716,326.000 278.298 C 326.000 278.134,327.890 278.000,330.200 278.000 C 332.733 278.000,334.400 277.841,334.400 277.600 C 334.400 277.369,335.659 277.200,337.376 277.200 C 339.013 277.200,340.464 277.020,340.600 276.800 C 340.736 276.580,341.816 276.400,343.000 276.400 C 344.184 276.400,345.264 276.220,345.400 276.000 C 345.536 275.780,346.256 275.600,347.000 275.600 C 347.744 275.600,348.464 275.420,348.600 275.200 C 348.736 274.980,349.276 274.800,349.800 274.800 C 350.324 274.800,350.864 274.620,351.000 274.400 C 351.136 274.180,351.687 274.000,352.224 274.000 C 352.761 274.000,353.200 273.820,353.200 273.600 C 353.200 273.380,353.740 273.200,354.400 273.200 C 355.060 273.200,355.600 273.020,355.600 272.800 C 355.600 272.580,355.935 272.400,356.344 272.400 C 356.753 272.400,358.148 271.869,359.444 271.221 C 360.740 270.573,362.626 269.681,363.635 269.241 C 364.644 268.800,365.701 268.161,365.984 267.820 C 366.266 267.479,366.712 267.200,366.974 267.200 C 367.236 267.200,367.968 266.660,368.600 266.000 C 369.232 265.340,369.942 264.800,370.178 264.800 C 370.750 264.800,392.000 243.519,392.000 242.946 C 392.000 242.700,392.262 242.281,392.582 242.015 C 393.328 241.395,396.000 236.006,396.000 235.120 C 396.000 234.750,396.180 234.336,396.400 234.200 C 396.620 234.064,396.800 233.333,396.800 232.576 C 396.800 231.819,396.980 231.200,397.200 231.200 C 397.420 231.200,397.600 230.401,397.600 229.424 C 397.600 228.447,397.780 227.536,398.000 227.400 C 398.220 227.264,398.400 225.824,398.400 224.200 C 398.400 222.576,398.580 221.136,398.800 221.000 C 399.052 220.844,399.200 216.329,399.200 208.776 C 399.200 201.059,399.058 196.800,398.800 196.800 C 398.569 196.800,398.400 195.541,398.400 193.824 C 398.400 192.187,398.220 190.736,398.000 190.600 C 397.780 190.464,397.600 189.564,397.600 188.600 C 397.600 187.636,397.420 186.736,397.200 186.600 C 396.980 186.464,396.800 185.859,396.800 185.256 C 396.800 184.060,395.980 182.008,395.500 182.003 C 395.335 182.001,395.200 181.460,395.200 180.800 C 395.200 180.140,395.020 179.600,394.800 179.600 C 394.580 179.600,394.400 179.240,394.400 178.800 C 394.400 178.360,394.220 178.000,394.000 178.000 C 393.780 178.000,393.600 177.680,393.600 177.288 C 393.600 176.897,393.240 176.317,392.800 176.000 C 392.360 175.683,392.000 175.215,392.000 174.961 C 392.000 174.706,391.710 174.257,391.355 173.963 C 391.001 173.669,390.596 173.121,390.455 172.746 C 390.315 172.370,388.715 170.518,386.900 168.630 C 385.085 166.742,383.600 165.059,383.600 164.890 C 383.600 164.417,376.241 157.200,375.758 157.200 C 375.524 157.200,373.399 155.220,371.036 152.800 C 368.673 150.380,366.582 148.400,366.388 148.400 C 365.873 148.400,357.600 140.324,357.600 139.821 C 357.600 139.288,340.338 122.000,339.807 122.000 C 339.373 122.000,332.000 114.519,332.000 114.079 C 332.000 113.610,233.831 15.600,233.361 15.600 C 233.121 15.600,232.630 15.275,232.271 14.878 C 231.911 14.481,230.983 13.907,230.209 13.603 C 229.434 13.299,228.800 12.904,228.800 12.725 C 228.800 12.546,228.440 12.400,228.000 12.400 C 227.560 12.400,227.200 12.220,227.200 12.000 C 227.200 11.780,226.660 11.600,226.000 11.600 C 225.340 11.600,224.800 11.420,224.800 11.200 C 224.800 10.980,224.206 10.800,223.480 10.800 C 222.754 10.800,221.969 10.609,221.736 10.376 C 221.500 10.140,218.708 9.847,215.442 9.714 C 212.213 9.584,209.477 9.324,209.362 9.138 C 209.089 8.696,192.511 8.696,192.238 9.138 M206.292 55.679 C 208.661 58.143,224.010 73.657,240.400 90.154 C 307.279 157.470,337.804 188.000,338.229 188.000 C 338.602 188.000,340.574 189.889,344.429 193.939 C 344.776 194.302,345.766 195.253,346.629 196.051 C 347.493 196.850,348.479 197.840,348.820 198.251 C 349.161 198.663,350.089 199.564,350.882 200.254 C 351.675 200.944,352.388 201.843,352.467 202.251 C 352.545 202.660,353.103 203.230,353.705 203.519 C 354.307 203.807,354.800 204.180,354.800 204.346 C 354.800 204.513,355.189 205.067,355.664 205.577 C 356.329 206.291,356.536 207.029,356.559 208.784 L 356.590 211.063 351.827 215.632 C 349.207 218.144,344.592 222.641,341.572 225.624 L 336.081 231.049 332.813 232.021 C 331.015 232.556,329.229 233.286,328.845 233.644 C 327.926 234.500,326.011 234.815,320.208 235.065 C 314.485 235.311,312.907 234.940,311.425 232.997 C 310.838 232.228,309.791 231.306,309.098 230.947 C 308.405 230.589,297.962 220.464,285.891 208.448 C 273.821 196.432,257.702 180.480,250.072 173.000 C 242.443 165.520,236.005 158.981,235.767 158.469 C 235.341 157.552,200.839 122.800,200.354 122.800 C 200.127 122.800,134.485 188.550,105.809 217.500 C 99.217 224.155,93.632 229.600,93.397 229.600 C 93.161 229.600,92.346 229.917,91.585 230.304 C 90.823 230.692,89.390 231.265,88.400 231.579 C 87.410 231.892,86.150 232.446,85.600 232.808 C 84.194 233.734,73.802 233.684,72.357 232.744 C 71.831 232.402,70.710 231.895,69.867 231.619 C 66.306 230.451,64.308 228.945,56.846 221.800 C 51.436 216.621,47.312 212.964,44.672 211.005 C 42.869 209.668,43.097 206.467,45.100 204.986 C 46.896 203.658,57.600 192.831,57.600 192.342 C 57.600 192.154,57.872 192.000,58.204 192.000 C 58.536 192.000,59.301 191.305,59.904 190.455 C 60.507 189.605,61.675 188.400,62.500 187.778 C 63.325 187.156,64.000 186.411,64.000 186.123 C 64.000 185.835,64.163 185.600,64.361 185.600 C 64.560 185.600,65.595 184.672,66.661 183.538 C 67.728 182.403,68.891 181.188,69.247 180.838 C 72.990 177.152,149.326 100.875,170.200 79.963 C 185.160 64.976,197.940 52.374,198.600 51.958 C 200.942 50.484,201.603 50.804,206.292 55.679 M203.866 196.146 C 208.486 201.322,337.480 330.800,338.017 330.800 C 338.563 330.800,344.000 336.200,344.000 336.742 C 344.000 336.994,344.182 337.200,344.405 337.200 C 344.822 337.200,352.400 344.610,352.400 345.017 C 352.400 345.143,353.277 346.135,354.348 347.224 C 357.140 350.061,357.536 355.600,354.947 355.600 C 354.776 355.600,350.398 359.785,345.218 364.900 L 335.800 374.200 332.600 375.176 C 330.840 375.713,328.919 376.502,328.332 376.928 C 325.861 378.721,311.600 378.225,311.600 376.346 C 311.600 375.627,309.965 374.000,309.242 374.000 C 308.902 374.000,298.447 363.875,286.010 351.500 C 273.572 339.125,257.142 322.804,249.498 315.230 C 241.854 307.657,235.600 301.293,235.600 301.089 C 235.600 300.884,227.635 292.807,217.900 283.139 L 200.200 265.562 159.000 306.905 C 136.340 329.644,112.326 353.773,105.635 360.524 C 98.945 367.276,93.176 372.800,92.815 372.800 C 92.455 372.800,91.989 372.951,91.780 373.135 C 91.571 373.320,90.230 373.881,88.800 374.384 C 87.370 374.886,85.952 375.496,85.649 375.740 C 84.633 376.556,73.647 376.407,72.000 375.555 C 71.230 375.156,69.603 374.400,68.384 373.876 C 65.677 372.710,62.196 370.083,59.000 366.795 C 56.368 364.086,46.164 354.800,45.821 354.800 C 44.810 354.800,43.600 352.894,43.600 351.301 L 43.600 349.547 121.162 272.006 C 172.354 220.828,199.043 194.418,199.662 194.325 C 201.409 194.064,202.385 194.486,203.866 196.146 M201.800 307.600 C 202.517 308.392,202.499 308.400,199.995 308.400 C 197.423 308.400,197.282 308.270,198.893 307.380 C 200.224 306.644,200.987 306.702,201.800 307.600 M203.266 335.300 C 213.803 346.359,337.761 470.800,338.239 470.800 C 338.738 470.800,343.998 475.859,344.003 476.344 C 344.004 476.485,344.994 477.410,346.203 478.400 C 347.412 479.390,348.501 480.470,348.623 480.800 C 348.745 481.130,349.634 482.030,350.598 482.800 C 351.563 483.570,352.362 484.438,352.376 484.729 C 352.405 485.367,353.382 486.400,353.957 486.400 C 354.185 486.400,354.557 486.746,354.783 487.169 C 355.010 487.592,355.485 488.228,355.839 488.582 C 356.281 489.024,356.491 489.975,356.506 491.607 L 356.529 493.988 353.785 496.494 C 352.275 497.872,347.611 502.371,343.420 506.490 C 338.267 511.556,335.516 513.984,334.924 513.990 C 334.442 513.996,333.936 514.180,333.800 514.400 C 333.664 514.620,333.124 514.800,332.600 514.800 C 332.076 514.800,331.536 514.980,331.400 515.200 C 331.264 515.420,330.741 515.600,330.238 515.600 C 329.735 515.600,329.014 515.942,328.636 516.360 C 326.369 518.865,312.705 518.385,311.508 515.758 C 311.253 515.198,310.404 514.411,309.623 514.010 C 308.841 513.609,298.264 503.408,286.119 491.340 C 273.973 479.273,257.773 463.280,250.118 455.800 C 242.463 448.320,236.005 441.781,235.767 441.269 C 235.253 440.163,200.785 405.598,200.202 405.604 C 199.856 405.607,148.207 457.428,107.116 499.000 C 98.130 508.091,93.654 512.343,92.735 512.661 C 88.246 514.212,86.140 515.053,85.698 515.472 C 84.878 516.248,83.624 516.495,82.065 516.186 C 79.333 515.645,78.204 515.628,76.270 516.098 C 74.538 516.519,74.169 516.479,72.670 515.708 C 71.751 515.235,69.788 514.310,68.306 513.652 C 64.914 512.146,63.580 511.081,56.630 504.333 C 53.534 501.327,49.335 497.486,47.300 495.799 L 43.600 492.732 43.600 490.813 C 43.600 489.062,43.730 488.798,45.100 487.779 C 46.873 486.460,56.699 476.536,57.248 475.510 C 57.457 475.119,57.883 474.800,58.194 474.800 C 58.505 474.800,59.263 474.125,59.880 473.300 C 61.350 471.332,61.599 471.078,62.900 470.227 C 63.505 469.832,64.000 469.259,64.000 468.954 C 64.000 468.649,64.146 468.400,64.325 468.400 C 64.728 468.400,55.715 477.375,131.800 401.215 C 167.880 365.099,197.850 335.207,198.400 334.788 C 199.982 333.581,201.812 333.774,203.266 335.300 " stroke="none" fill="#bbe304" fill-rule="evenodd"></path><path id="path1" d="M198.600 52.124 C 198.160 52.386,197.686 52.756,197.547 52.948 C 197.296 53.292,168.918 81.706,102.909 147.703 C 84.039 166.570,67.880 182.725,67.000 183.604 C 66.120 184.483,65.130 185.505,64.800 185.875 C 64.470 186.246,63.770 186.920,63.244 187.375 C 62.718 187.829,61.908 188.631,61.444 189.158 C 60.690 190.015,59.152 191.549,57.677 192.915 C 57.389 193.182,54.779 195.832,51.877 198.804 C 48.975 201.777,45.925 204.776,45.100 205.470 C 43.271 207.009,43.025 209.000,44.500 210.324 C 46.082 211.744,48.569 213.850,49.593 214.637 C 50.139 215.057,53.406 218.100,56.852 221.400 C 64.196 228.433,65.168 229.233,67.812 230.411 C 68.905 230.898,70.700 231.699,71.800 232.190 C 74.001 233.173,84.552 233.419,85.680 232.514 C 85.966 232.284,87.331 231.689,88.712 231.190 C 90.094 230.692,91.320 230.130,91.436 229.942 C 91.552 229.754,92.047 229.600,92.535 229.600 C 93.170 229.600,96.909 226.082,105.610 217.300 C 135.670 186.960,200.122 122.400,200.351 122.400 C 200.817 122.400,235.933 157.792,236.069 158.400 C 236.143 158.730,242.503 165.197,250.202 172.770 C 257.901 180.344,274.100 196.392,286.200 208.433 C 298.300 220.474,308.584 230.438,309.052 230.575 C 310.073 230.873,311.600 232.138,311.600 232.685 C 311.600 235.031,325.961 235.787,328.345 233.566 C 328.797 233.144,329.523 232.800,329.960 232.800 C 330.396 232.800,330.864 232.620,331.000 232.400 C 331.136 232.180,331.676 232.000,332.200 232.000 C 332.724 232.000,333.264 231.820,333.400 231.600 C 333.536 231.380,334.055 231.200,334.553 231.200 C 335.175 231.200,337.141 229.557,340.829 225.954 C 343.783 223.069,348.495 218.484,351.300 215.766 L 356.400 210.823 356.400 208.876 C 356.400 206.776,355.101 204.549,353.300 203.559 C 352.805 203.287,352.400 202.867,352.400 202.625 C 352.400 202.383,350.420 200.244,348.000 197.872 C 345.580 195.500,343.600 193.516,343.600 193.462 C 343.600 193.093,338.688 188.418,338.105 188.233 C 337.441 188.023,308.653 159.248,238.225 88.400 C 223.901 73.990,209.894 59.815,207.100 56.900 C 201.699 51.267,200.845 50.786,198.600 52.124 M217.027 70.100 C 225.834 78.955,256.182 109.465,284.466 137.900 C 312.751 166.335,336.064 189.600,336.274 189.600 C 336.484 189.600,337.024 190.005,337.473 190.500 C 337.923 190.995,338.862 191.850,339.560 192.400 C 340.258 192.950,341.176 193.985,341.601 194.700 C 342.026 195.415,342.604 196.000,342.887 196.001 C 343.169 196.001,344.076 196.766,344.902 197.701 C 345.729 198.635,346.673 199.670,347.000 200.000 C 347.328 200.330,348.092 201.135,348.698 201.789 C 349.304 202.443,350.755 203.946,351.922 205.129 C 355.096 208.344,355.342 207.910,344.142 218.827 L 334.484 228.240 330.342 229.520 C 326.380 230.745,325.268 231.003,319.776 231.972 C 315.670 232.697,315.347 232.616,313.254 230.339 C 312.127 229.113,310.981 228.250,310.427 228.209 C 309.777 228.161,302.819 221.512,287.366 206.170 C 275.194 194.087,259.204 178.260,251.833 171.000 C 244.461 163.740,238.423 157.559,238.415 157.265 C 238.397 156.616,200.831 119.200,200.198 119.200 C 199.952 119.200,175.822 143.168,146.576 172.463 C 93.153 225.973,91.413 227.629,87.200 228.994 C 85.990 229.385,84.766 229.891,84.481 230.118 C 83.760 230.690,74.363 230.743,73.600 230.180 C 73.270 229.936,71.939 229.342,70.642 228.860 C 67.219 227.587,65.023 225.845,57.200 218.199 C 53.350 214.436,49.345 210.751,48.300 210.011 C 47.255 209.270,46.400 208.593,46.400 208.506 C 46.400 207.882,47.742 206.230,50.544 203.405 C 52.335 201.600,54.476 199.421,55.302 198.562 C 69.269 184.037,199.786 54.017,200.407 54.009 C 200.740 54.004,208.219 61.245,217.027 70.100 M121.349 272.159 C 50.566 342.951,43.600 350.033,43.600 351.190 C 43.600 352.582,43.838 352.845,49.062 357.200 C 50.777 358.630,54.525 362.060,57.390 364.822 C 63.452 370.666,66.377 372.959,69.065 373.975 C 70.129 374.377,71.867 375.101,72.926 375.583 C 74.524 376.311,75.061 376.387,76.085 376.030 C 77.628 375.493,80.179 375.478,81.985 375.996 C 83.088 376.312,83.690 376.241,84.983 375.644 C 85.872 375.233,88.155 374.303,90.056 373.577 L 93.512 372.257 146.610 318.910 C 175.814 289.568,199.936 265.616,200.215 265.681 C 200.894 265.840,236.000 300.579,236.000 301.092 C 236.000 301.313,242.165 307.589,249.700 315.039 C 257.235 322.489,273.480 338.603,285.800 350.847 C 298.120 363.092,308.733 373.355,309.385 373.655 C 310.037 373.955,310.992 374.826,311.507 375.592 C 312.882 377.634,314.286 377.906,321.557 377.541 C 326.953 377.270,327.822 377.131,328.583 376.416 C 329.061 375.967,329.834 375.600,330.302 375.600 C 330.770 375.600,331.264 375.420,331.400 375.200 C 331.536 374.980,332.076 374.800,332.600 374.800 C 333.124 374.800,333.664 374.620,333.800 374.400 C 333.936 374.180,334.437 374.000,334.913 374.000 C 335.504 374.000,338.821 371.011,345.389 364.560 C 350.675 359.367,355.315 354.867,355.700 354.560 C 357.449 353.161,356.037 348.364,353.359 346.610 C 352.831 346.264,352.400 345.809,352.400 345.597 C 352.400 345.061,338.613 331.200,338.080 331.200 C 337.563 331.200,208.622 201.842,203.615 196.300 C 200.232 192.556,209.327 184.169,121.349 272.159 M229.743 225.898 C 281.836 278.425,336.166 332.800,336.556 332.800 C 337.088 332.800,352.878 348.781,353.497 349.946 C 354.169 351.209,354.131 351.887,353.364 352.316 C 353.014 352.512,348.865 356.425,344.144 361.013 C 333.322 371.528,332.829 371.853,325.389 373.390 C 322.141 374.060,314.800 373.891,314.800 373.145 C 314.800 372.955,314.610 372.800,314.379 372.800 C 314.147 372.800,313.295 372.350,312.486 371.800 C 311.677 371.250,310.743 370.800,310.412 370.800 C 310.081 370.800,299.866 360.945,287.713 348.900 C 275.559 336.855,259.837 321.330,252.774 314.400 C 245.711 307.470,239.428 301.078,238.813 300.196 C 237.646 298.524,201.651 262.484,200.510 261.846 C 199.985 261.552,189.589 271.780,146.754 314.730 C 92.792 368.838,91.908 369.679,87.000 371.594 C 85.680 372.109,84.420 372.641,84.200 372.776 C 83.227 373.372,74.505 372.969,72.754 372.247 C 66.456 369.650,66.301 369.532,56.800 360.179 C 52.730 356.172,48.815 352.598,48.100 352.237 C 47.259 351.811,46.800 351.285,46.800 350.745 C 46.800 349.798,199.410 196.783,200.343 196.794 C 200.641 196.797,213.871 209.894,229.743 225.898 M198.690 334.924 C 198.118 335.308,183.822 349.569,142.539 390.938 C 142.286 391.192,125.491 407.960,105.218 428.200 C 69.099 464.259,66.297 467.061,64.891 468.516 C 64.511 468.909,63.768 469.629,63.241 470.116 C 62.713 470.602,61.813 471.526,61.241 472.169 C 60.668 472.812,59.799 473.712,59.309 474.169 C 58.819 474.626,58.131 475.270,57.779 475.600 C 57.428 475.930,54.769 478.632,51.870 481.604 C 48.972 484.576,45.925 487.575,45.100 488.270 C 42.421 490.524,43.002 492.066,48.014 496.000 C 48.995 496.770,52.608 500.100,56.043 503.400 C 62.634 509.732,65.162 511.912,66.800 512.677 C 73.749 515.921,72.936 515.711,78.779 515.781 C 83.683 515.840,84.389 515.758,86.175 514.923 C 87.261 514.415,88.305 514.000,88.494 514.000 C 88.684 514.000,89.584 513.640,90.494 513.200 C 91.405 512.760,92.449 512.400,92.813 512.400 C 93.178 512.400,99.484 506.325,106.825 498.900 C 149.977 455.259,199.451 405.589,199.964 405.392 C 200.620 405.141,235.873 440.072,236.083 441.181 C 236.147 441.522,242.449 447.920,250.087 455.400 C 257.724 462.880,273.862 478.843,285.949 490.872 C 299.850 504.709,308.532 513.055,309.578 513.589 C 310.488 514.053,311.386 514.838,311.574 515.333 C 312.307 517.261,312.881 517.400,320.039 517.393 C 326.139 517.388,326.853 517.313,327.875 516.576 C 328.494 516.130,329.810 515.527,330.800 515.237 C 331.790 514.946,332.960 514.559,333.400 514.375 C 333.840 514.191,334.501 513.987,334.870 513.921 C 335.238 513.854,339.680 509.750,344.740 504.800 C 349.800 499.850,354.516 495.305,355.220 494.701 C 357.427 492.804,356.387 488.100,353.389 486.415 C 352.943 486.165,352.356 485.474,352.085 484.880 C 351.815 484.286,350.875 483.270,349.997 482.623 C 349.119 481.976,348.400 481.285,348.400 481.087 C 348.400 480.721,345.159 477.663,344.152 477.080 C 343.848 476.904,343.600 476.600,343.600 476.404 C 343.600 475.874,338.375 470.800,337.829 470.800 C 337.570 470.800,312.891 446.185,282.988 416.100 C 253.085 386.015,225.824 358.595,222.409 355.167 C 218.994 351.739,212.997 345.664,209.083 341.667 C 201.537 333.962,200.818 333.495,198.690 334.924 M219.205 355.100 C 263.829 400.139,336.171 472.400,336.851 472.616 C 337.263 472.747,337.600 473.112,337.600 473.427 C 337.600 473.742,337.833 474.000,338.119 474.000 C 338.742 474.000,341.384 476.710,341.733 477.706 C 341.868 478.094,342.400 478.572,342.915 478.767 C 343.429 478.963,344.425 479.815,345.129 480.661 C 345.833 481.508,346.712 482.470,347.082 482.800 C 347.452 483.130,348.215 483.939,348.777 484.597 C 349.340 485.255,350.537 486.515,351.438 487.397 C 354.507 490.400,354.564 491.248,351.799 492.814 C 350.814 493.372,347.172 496.613,343.704 500.017 C 333.533 510.003,333.852 509.753,329.398 511.180 C 321.340 513.761,317.504 513.592,312.338 510.426 C 309.217 508.513,274.102 473.843,221.000 420.245 C 207.937 407.059,201.895 401.225,201.200 401.124 C 198.684 400.760,198.092 401.287,175.542 423.957 C 83.257 516.731,91.798 508.416,86.716 510.436 C 76.866 514.353,70.418 511.944,57.800 499.632 C 53.158 495.103,50.768 493.074,49.100 492.246 C 46.139 490.776,46.175 490.571,50.100 486.578 C 51.915 484.732,54.239 482.361,55.265 481.311 C 56.291 480.260,58.181 478.391,59.465 477.158 C 60.749 475.925,62.351 474.305,63.023 473.558 C 63.696 472.811,64.528 471.930,64.871 471.600 C 65.214 471.270,95.639 440.805,132.481 403.900 C 177.053 359.253,199.737 336.800,200.271 336.800 C 200.798 336.800,207.287 343.072,219.205 355.100 " stroke="none" fill="#202319" fill-rule="evenodd"></path><path id="path2" d="M133.089 121.362 C 96.617 157.903,66.449 188.160,66.049 188.600 C 65.648 189.040,64.978 189.687,64.560 190.039 C 64.142 190.390,63.046 191.470,62.124 192.439 C 61.203 193.407,60.213 194.426,59.924 194.702 C 58.167 196.385,56.950 197.605,55.472 199.169 C 54.552 200.143,52.479 202.245,50.865 203.842 C 47.445 207.226,47.378 207.781,50.267 208.757 C 52.896 209.645,53.677 210.266,61.253 217.510 C 71.272 227.087,76.602 229.032,85.061 226.192 C 90.612 224.329,91.853 223.128,177.602 136.655 C 195.431 118.675,197.539 116.800,199.918 116.800 C 202.645 116.800,204.064 118.044,222.600 136.695 C 260.682 175.013,309.001 223.061,311.067 224.667 C 315.962 228.473,320.217 229.164,326.988 227.254 C 332.153 225.797,333.618 224.764,341.598 216.966 C 347.419 211.277,349.406 209.578,350.900 209.011 C 353.277 208.110,353.371 207.225,351.300 205.239 C 350.475 204.447,349.322 203.260,348.738 202.600 C 348.153 201.940,347.253 201.024,346.738 200.563 C 346.222 200.103,345.260 199.108,344.600 198.351 C 343.940 197.594,342.905 196.661,342.300 196.278 C 341.695 195.895,341.200 195.382,341.200 195.139 C 341.200 194.647,337.957 191.485,336.400 190.459 C 335.850 190.097,312.090 166.407,283.600 137.815 C 200.259 54.176,200.883 54.795,200.114 54.862 C 199.721 54.896,169.560 84.821,133.089 121.362 M123.953 273.500 C 82.263 315.245,48.024 349.615,47.867 349.877 C 47.681 350.187,48.226 350.639,49.423 351.169 C 51.713 352.182,52.292 352.670,60.265 360.296 C 67.572 367.284,68.664 368.114,72.595 369.665 C 77.923 371.768,84.852 370.902,90.322 367.449 C 91.785 366.526,118.685 339.652,180.990 276.870 C 197.452 260.282,197.777 260.000,200.464 260.000 C 202.163 260.000,202.209 260.040,213.784 271.560 C 220.173 277.918,228.565 286.243,232.433 290.060 C 236.300 293.877,240.025 297.720,240.710 298.600 C 241.395 299.480,247.501 305.698,254.278 312.417 C 261.055 319.136,276.410 334.368,288.400 346.266 C 304.887 362.626,310.931 368.373,313.200 369.849 L 316.200 371.800 319.800 371.765 C 323.464 371.729,328.282 370.686,331.924 369.140 C 333.140 368.623,336.157 365.939,342.163 360.027 C 347.269 355.002,351.103 351.539,351.739 351.379 C 353.707 350.886,352.903 349.777,344.700 341.677 C 333.095 330.217,253.876 251.019,225.092 222.100 C 211.679 208.625,200.491 197.600,200.230 197.600 C 199.968 197.600,165.643 231.755,123.953 273.500 M132.800 404.374 C 96.170 441.061,65.974 471.330,65.698 471.639 C 64.916 472.514,59.063 478.416,58.463 478.935 C 57.946 479.382,57.022 480.312,50.763 486.682 C 48.162 489.329,47.640 490.400,48.951 490.400 C 51.837 490.400,53.760 491.683,59.977 497.755 C 72.441 509.928,77.697 511.702,87.389 507.009 C 90.780 505.367,84.364 511.631,145.334 450.443 C 198.997 396.587,197.088 398.399,200.156 398.401 C 203.228 398.404,203.358 398.517,223.125 418.409 C 281.120 476.770,310.921 506.215,314.104 508.300 C 317.843 510.749,319.204 510.921,324.614 509.624 C 331.648 507.937,331.862 507.800,340.004 499.762 C 347.092 492.763,350.171 490.421,352.300 490.404 C 353.205 490.397,352.824 489.500,351.294 488.039 C 350.466 487.247,349.251 485.957,348.594 485.172 C 347.937 484.386,347.085 483.627,346.700 483.484 C 346.315 483.342,346.000 482.993,346.000 482.710 C 346.000 482.164,343.844 480.040,342.188 478.955 C 341.645 478.599,341.200 478.086,341.200 477.814 C 341.200 477.298,336.932 473.200,336.394 473.200 C 336.128 473.200,265.320 402.329,216.801 353.500 C 206.033 342.664,200.746 337.611,200.201 337.635 C 199.694 337.657,174.947 362.162,132.800 404.374 " stroke="none" fill="#fbfbfb" fill-rule="evenodd"></path><path id="path3" d="M200.154 54.686 C 200.933 54.886,207.917 61.833,266.129 120.313 C 285.010 139.281,300.550 154.800,300.662 154.800 C 300.774 154.800,278.396 132.211,250.933 104.602 C 216.051 69.534,200.759 54.417,200.200 54.448 C 199.455 54.490,199.452 54.506,200.154 54.686 M197.796 56.004 C 197.166 56.662,196.782 57.200,196.943 57.200 C 197.356 57.200,199.322 55.188,199.113 54.980 C 199.019 54.886,198.426 55.346,197.796 56.004 M194.059 59.883 C 192.881 61.075,191.991 62.125,192.082 62.215 C 192.172 62.305,193.310 61.304,194.610 59.990 C 195.911 58.675,196.801 57.626,196.587 57.657 C 196.374 57.689,195.236 58.690,194.059 59.883 M190.434 63.753 L 189.469 65.000 190.613 63.912 C 191.243 63.314,191.677 62.753,191.579 62.665 C 191.480 62.577,190.965 63.067,190.434 63.753 M176.921 77.100 C 170.278 83.755,164.968 89.195,165.121 89.189 C 165.518 89.172,189.421 65.274,189.190 65.124 C 189.086 65.056,183.565 70.445,176.921 77.100 M160.856 93.071 C 159.897 94.047,159.188 94.922,159.281 95.014 C 159.373 95.106,160.331 94.286,161.409 93.191 C 162.488 92.096,163.197 91.222,162.985 91.248 C 162.773 91.274,161.815 92.095,160.856 93.071 M154.778 99.500 L 153.400 101.000 154.900 99.622 C 155.725 98.863,156.400 98.188,156.400 98.122 C 156.400 97.816,156.062 98.104,154.778 99.500 M143.589 110.615 C 140.625 113.593,138.116 116.158,138.014 116.315 C 137.912 116.472,140.387 114.082,143.514 111.005 C 146.641 107.928,149.200 105.363,149.200 105.305 C 149.200 105.013,148.579 105.601,143.589 110.615 M125.185 128.615 C 118.486 135.317,113.138 140.800,113.301 140.800 C 113.684 140.800,137.701 116.768,137.510 116.576 C 137.430 116.496,131.883 121.914,125.185 128.615 M196.778 117.955 C 195.800 118.590,187.171 127.005,177.602 136.655 C 91.853 223.128,90.612 224.329,85.061 226.192 C 76.393 229.102,71.270 227.136,60.383 216.722 C 53.761 210.387,51.910 208.976,49.668 208.551 C 48.128 208.260,47.669 207.453,48.357 206.247 C 48.766 205.529,48.714 205.544,48.020 206.344 C 46.830 207.714,46.986 208.214,49.041 209.628 C 50.053 210.325,53.755 213.751,57.266 217.242 C 65.366 225.293,69.270 228.400,71.287 228.400 C 71.480 228.400,72.305 228.715,73.119 229.100 C 74.867 229.926,83.202 230.055,84.652 229.279 C 85.121 229.028,86.340 228.539,87.362 228.192 C 91.702 226.719,96.408 222.159,165.393 152.594 C 198.626 119.080,199.625 118.134,200.974 118.890 C 202.088 119.513,238.800 156.323,238.800 156.816 C 238.800 157.302,264.086 182.695,265.600 183.730 C 266.150 184.105,276.324 194.130,288.208 206.006 C 300.093 217.883,310.050 227.600,310.334 227.600 C 310.619 227.600,311.785 228.020,312.926 228.534 C 316.595 230.185,318.552 230.538,322.524 230.265 C 330.810 229.695,333.265 228.286,343.602 218.165 C 348.115 213.746,352.211 209.915,352.704 209.651 C 353.631 209.155,353.948 207.462,353.200 207.000 C 352.980 206.864,352.800 207.099,352.800 207.522 C 352.800 208.072,352.258 208.497,350.900 209.011 C 349.406 209.578,347.419 211.277,341.598 216.966 C 333.618 224.764,332.153 225.797,326.988 227.254 C 320.217 229.164,315.962 228.473,311.067 224.667 C 309.001 223.061,260.682 175.013,222.600 136.695 C 201.220 115.183,201.138 115.124,196.778 117.955 M110.609 143.391 C 109.735 144.140,109.105 144.832,109.209 144.930 C 109.314 145.029,110.120 144.411,111.000 143.557 C 112.970 141.647,112.754 141.556,110.609 143.391 M91.784 162.016 C 82.995 170.807,75.923 178.000,76.070 178.000 C 76.437 178.000,108.097 146.363,107.913 146.180 C 107.831 146.098,100.574 153.224,91.784 162.016 M304.996 159.596 C 305.626 160.254,306.219 160.714,306.313 160.620 C 306.522 160.412,304.556 158.400,304.143 158.400 C 303.982 158.400,304.366 158.938,304.996 159.596 M306.800 160.953 C 306.800 161.184,315.733 170.114,316.625 170.774 C 317.051 171.090,315.063 168.975,312.206 166.074 C 307.210 161.001,306.800 160.613,306.800 160.953 M321.515 175.988 C 322.088 176.642,322.625 177.108,322.708 177.025 C 322.908 176.825,321.139 174.800,320.764 174.800 C 320.603 174.800,320.941 175.335,321.515 175.988 M72.593 181.207 C 71.737 182.083,71.170 182.800,71.332 182.800 C 71.740 182.800,74.519 179.986,74.314 179.781 C 74.223 179.689,73.448 180.331,72.593 181.207 M66.261 187.867 C 65.854 188.410,65.605 188.938,65.707 189.040 C 65.808 189.142,66.200 188.754,66.578 188.178 C 67.467 186.821,67.222 186.581,66.261 187.867 M335.233 189.721 C 335.325 189.788,335.940 190.158,336.600 190.545 L 337.800 191.247 336.856 190.424 C 336.336 189.971,335.721 189.600,335.489 189.600 C 335.257 189.600,335.142 189.654,335.233 189.721 M61.840 192.243 C 60.762 193.429,59.996 194.400,60.138 194.400 C 60.490 194.400,63.995 190.676,63.998 190.300 C 64.001 189.867,63.989 189.878,61.840 192.243 M339.307 192.934 C 340.136 193.740,340.933 194.400,341.077 194.400 C 341.492 194.400,339.486 192.372,338.600 191.897 C 338.160 191.661,338.478 192.128,339.307 192.934 M341.200 195.191 C 341.200 195.406,341.695 195.897,342.300 196.282 C 342.905 196.667,343.985 197.606,344.700 198.369 C 345.415 199.132,346.000 199.562,346.000 199.325 C 346.000 199.087,345.235 198.243,344.300 197.447 C 343.365 196.652,342.285 195.731,341.900 195.401 C 341.515 195.070,341.200 194.976,341.200 195.191 M56.039 198.000 C 54.868 199.100,54.094 200.000,54.319 200.000 C 54.544 200.000,55.150 199.505,55.664 198.900 C 56.179 198.295,57.119 197.395,57.754 196.900 C 58.389 196.405,58.742 196.000,58.539 196.000 C 58.336 196.000,57.211 196.900,56.039 198.000 M133.800 263.285 C 97.500 299.631,68.250 328.980,68.800 328.506 C 69.350 328.031,99.050 298.379,134.800 262.613 C 170.550 226.847,200.013 197.633,200.273 197.692 C 200.533 197.751,202.198 199.203,203.973 200.918 C 205.748 202.632,207.200 203.879,207.200 203.687 C 207.200 203.122,200.942 197.200,200.345 197.200 C 200.045 197.200,170.099 226.938,133.800 263.285 M346.800 200.767 C 347.763 201.552,348.400 201.808,348.400 201.410 C 348.400 201.306,347.815 200.935,347.100 200.586 L 345.800 199.952 346.800 200.767 M52.700 201.614 C 51.406 203.025,51.232 203.657,52.437 202.566 C 53.181 201.893,54.211 200.388,53.914 200.408 C 53.851 200.412,53.305 200.955,52.700 201.614 M207.600 204.167 C 207.600 204.588,208.805 205.728,209.021 205.512 C 209.122 205.411,208.844 205.002,208.402 204.602 C 207.961 204.203,207.600 204.007,207.600 204.167 M214.586 211.586 C 217.212 214.219,219.410 216.323,219.471 216.263 C 219.636 216.097,210.428 206.800,210.098 206.800 C 209.941 206.800,211.961 208.954,214.586 211.586 M221.600 218.132 C 221.600 218.540,224.414 221.319,224.619 221.114 C 224.711 221.023,224.069 220.248,223.193 219.393 C 222.317 218.537,221.600 217.970,221.600 218.132 M238.854 235.900 C 270.618 267.811,307.383 304.647,307.261 304.438 C 307.184 304.307,290.153 287.100,269.414 266.200 C 248.675 245.300,230.977 227.435,230.085 226.500 C 229.193 225.565,228.315 224.800,228.134 224.800 C 227.953 224.800,232.777 229.795,238.854 235.900 M197.400 260.757 C 196.740 261.172,189.265 268.506,180.790 277.056 C 124.322 334.016,91.784 366.526,90.322 367.449 C 84.852 370.902,77.923 371.768,72.595 369.665 C 68.664 368.114,67.572 367.284,60.265 360.296 C 52.297 352.674,51.712 352.181,49.433 351.173 C 47.186 350.180,47.102 350.560,50.239 347.540 C 51.691 346.143,53.444 344.280,54.135 343.400 C 54.826 342.520,53.549 343.673,51.296 345.962 C 46.502 350.833,46.638 350.413,49.300 352.131 C 50.455 352.876,54.564 356.542,58.431 360.276 C 71.785 373.173,77.641 374.893,89.437 369.383 C 91.559 368.391,97.256 362.806,145.200 314.722 C 198.496 261.271,198.603 261.166,200.195 261.183 C 201.763 261.200,202.115 261.528,221.089 280.700 C 271.549 331.684,309.033 368.631,312.465 370.768 C 317.206 373.720,321.566 373.817,329.873 371.156 L 333.793 369.901 342.396 361.421 C 347.128 356.756,351.585 352.600,352.300 352.184 C 354.142 351.112,353.837 349.892,351.200 347.775 L 349.800 346.652 351.300 348.243 C 353.072 350.123,353.197 351.014,351.739 351.379 C 351.103 351.539,347.269 355.002,342.163 360.027 C 336.157 365.939,333.140 368.623,331.924 369.140 C 328.282 370.686,323.464 371.729,319.800 371.765 L 316.200 371.800 313.200 369.849 C 310.931 368.373,304.887 362.626,288.400 346.266 C 276.410 334.368,261.055 319.136,254.278 312.417 C 247.501 305.698,241.395 299.480,240.710 298.600 C 240.025 297.720,236.300 293.877,232.433 290.060 C 228.565 286.243,220.173 277.918,213.784 271.560 L 202.169 260.000 200.384 260.001 C 199.329 260.002,198.110 260.311,197.400 260.757 M308.000 305.140 C 308.000 305.407,333.187 330.427,339.424 336.355 C 341.134 337.980,342.157 338.790,341.697 338.155 C 340.601 336.639,336.610 332.800,336.130 332.800 C 335.924 332.800,329.510 326.515,321.878 318.832 C 314.245 311.150,308.000 304.988,308.000 305.140 M64.567 332.636 L 63.000 334.073 64.700 332.803 C 66.217 331.669,66.676 331.200,66.267 331.200 C 66.193 331.200,65.428 331.846,64.567 332.636 M61.992 335.010 C 61.244 335.911,61.678 336.015,62.570 335.148 C 62.993 334.737,63.151 334.400,62.919 334.400 C 62.687 334.400,62.270 334.674,61.992 335.010 M57.800 339.308 C 55.573 341.574,55.535 341.643,57.269 340.253 C 58.732 339.080,60.879 336.664,60.309 336.832 C 60.249 336.850,59.120 337.964,57.800 339.308 M186.421 350.186 C 179.283 357.344,173.592 363.200,173.773 363.200 C 173.955 363.200,179.820 357.440,186.806 350.400 C 194.435 342.712,199.806 337.600,200.255 337.600 C 200.706 337.600,207.254 343.893,216.801 353.500 C 255.658 392.606,334.907 472.000,335.083 472.000 C 335.717 472.000,200.992 337.383,200.262 337.286 C 199.597 337.197,196.438 340.142,186.421 350.186 M344.200 340.800 C 345.059 341.680,345.852 342.400,345.962 342.400 C 346.072 342.400,345.459 341.680,344.600 340.800 C 343.741 339.920,342.948 339.200,342.838 339.200 C 342.728 339.200,343.341 339.920,344.200 340.800 M347.742 344.530 C 348.810 345.558,349.786 346.400,349.912 346.400 C 350.300 346.400,348.264 344.366,347.000 343.491 C 346.304 343.009,346.616 343.445,347.742 344.530 M158.203 378.401 C 151.824 384.781,146.743 390.000,146.911 390.000 C 147.079 390.000,152.420 384.780,158.780 378.400 C 165.139 372.020,170.220 366.801,170.071 366.801 C 169.922 366.802,164.581 372.022,158.203 378.401 M145.400 391.200 C 145.002 391.640,144.856 392.000,145.076 392.000 C 145.296 392.000,145.802 391.640,146.200 391.200 C 146.598 390.760,146.744 390.400,146.524 390.400 C 146.304 390.400,145.798 390.760,145.400 391.200 M142.885 393.820 C 141.972 394.601,140.832 395.816,140.351 396.520 C 139.587 397.638,139.671 397.598,141.017 396.200 C 141.864 395.320,143.107 394.108,143.779 393.506 C 145.576 391.897,144.823 392.161,142.885 393.820 M124.877 411.734 C 117.135 419.497,110.800 425.947,110.800 426.068 C 110.800 426.189,117.184 419.887,124.987 412.064 C 132.790 404.242,139.125 397.791,139.064 397.731 C 139.003 397.670,132.619 403.972,124.877 411.734 M196.690 399.365 C 195.908 399.896,172.797 422.881,145.334 450.443 C 84.364 511.631,90.780 505.367,87.389 507.009 C 77.697 511.702,72.441 509.928,59.977 497.755 C 53.760 491.683,51.837 490.400,48.951 490.400 C 47.628 490.400,48.173 489.314,50.864 486.591 C 54.149 483.267,54.800 482.540,54.800 482.196 C 54.800 482.066,53.225 483.614,51.300 485.637 C 47.142 490.006,46.970 490.676,49.800 491.494 C 52.383 492.241,52.922 492.670,60.932 500.344 C 72.255 511.191,77.881 512.816,87.985 508.155 C 90.980 506.773,91.346 506.416,143.756 453.763 C 172.772 424.613,197.018 400.501,197.636 400.181 C 199.197 399.374,201.579 399.460,202.964 400.372 C 204.634 401.474,237.881 434.743,241.365 438.800 C 242.971 440.670,249.636 447.420,256.176 453.800 C 262.716 460.180,277.637 474.884,289.334 486.475 C 316.576 513.471,316.072 513.130,325.258 510.785 C 332.129 509.031,332.162 509.010,340.940 500.553 C 347.338 494.390,349.424 492.618,351.096 491.925 C 352.704 491.259,353.193 490.858,353.168 490.226 C 353.151 489.772,353.046 489.625,352.935 489.900 C 352.824 490.175,352.523 490.402,352.267 490.404 C 350.171 490.421,347.059 492.796,340.004 499.762 C 331.862 507.800,331.648 507.937,324.614 509.624 C 319.204 510.921,317.843 510.749,314.104 508.300 C 310.921 506.215,281.120 476.770,223.125 418.409 C 213.074 408.294,204.254 399.655,203.525 399.211 C 201.611 398.044,198.534 398.113,196.690 399.365 M92.490 444.119 C 82.760 453.865,74.800 461.930,74.800 462.043 C 74.800 462.156,82.765 454.263,92.500 444.504 C 112.679 424.275,110.584 426.400,110.356 426.400 C 110.259 426.400,102.219 434.374,92.490 444.119 M72.574 464.107 L 71.000 465.799 72.596 464.399 C 73.473 463.630,74.268 462.955,74.362 462.900 C 74.456 462.845,74.447 462.713,74.341 462.607 C 74.235 462.501,73.440 463.176,72.574 464.107 M63.369 473.434 C 61.372 475.505,59.861 477.200,60.010 477.200 C 60.160 477.200,61.283 476.165,62.506 474.900 C 63.729 473.635,65.286 472.075,65.965 471.433 C 66.644 470.792,67.200 470.117,67.200 469.933 C 67.200 469.448,67.308 469.349,63.369 473.434 M337.400 473.879 C 338.688 475.194,341.281 477.243,340.400 476.250 C 339.850 475.629,338.860 474.750,338.200 474.296 C 337.540 473.842,337.180 473.654,337.400 473.879 M58.379 478.622 C 57.851 479.184,57.688 479.541,58.018 479.414 C 58.539 479.215,59.834 477.600,59.473 477.600 C 59.400 477.600,58.907 478.060,58.379 478.622 M343.413 479.844 C 345.335 481.675,346.317 482.298,345.000 480.850 C 344.340 480.125,343.440 479.341,343.000 479.110 C 342.526 478.860,342.694 479.159,343.413 479.844 M56.000 480.800 C 55.530 481.460,55.236 482.000,55.346 482.000 C 55.456 482.000,55.930 481.460,56.400 480.800 C 56.870 480.140,57.164 479.600,57.054 479.600 C 56.944 479.600,56.470 480.140,56.000 480.800 M347.600 483.822 C 347.600 483.944,348.162 484.619,348.850 485.322 L 350.100 486.600 349.002 485.100 C 347.950 483.661,347.600 483.342,347.600 483.822 " stroke="none" fill="#969696" fill-rule="evenodd"></path><path id="path4" d="M200.100 51.476 C 200.485 51.576,201.115 51.576,201.500 51.476 C 201.885 51.375,201.570 51.293,200.800 51.293 C 200.030 51.293,199.715 51.375,200.100 51.476 M184.200 65.863 C 177.160 72.976,164.920 85.321,157.000 93.298 C 149.080 101.274,154.975 95.470,170.100 80.401 C 185.225 65.332,197.600 52.957,197.600 52.901 C 197.600 52.420,195.366 54.580,184.200 65.863 M207.200 57.000 C 209.060 58.870,210.672 60.400,210.782 60.400 C 210.892 60.400,209.460 58.870,207.600 57.000 C 205.740 55.130,204.128 53.600,204.018 53.600 C 203.908 53.600,205.340 55.130,207.200 57.000 M199.423 54.363 C 199.300 54.562,199.578 54.626,200.040 54.505 C 200.730 54.325,203.770 57.155,216.941 70.243 L 233.000 86.200 217.002 70.100 C 202.304 55.308,200.073 53.311,199.423 54.363 M217.400 67.600 C 220.752 70.968,222.025 72.083,220.749 70.534 C 219.506 69.024,214.413 64.000,214.126 64.000 C 213.956 64.000,215.429 65.620,217.400 67.600 M177.997 75.900 L 167.400 86.600 178.100 76.003 C 188.043 66.155,188.980 65.200,188.697 65.200 C 188.641 65.200,183.826 70.015,177.997 75.900 M221.600 71.417 C 221.600 71.537,222.075 72.122,222.656 72.717 L 223.712 73.800 222.829 72.500 C 221.994 71.272,221.600 70.925,221.600 71.417 M224.100 74.174 C 224.369 74.642,270.143 120.391,270.242 120.291 C 270.349 120.184,224.960 74.651,224.300 74.203 C 224.135 74.092,224.045 74.078,224.100 74.174 M262.800 116.600 C 279.409 133.210,293.088 146.800,293.198 146.800 C 293.308 146.800,279.809 133.210,263.200 116.600 C 246.591 99.990,232.912 86.400,232.802 86.400 C 232.692 86.400,246.191 99.990,262.800 116.600 M154.187 99.700 L 151.800 102.200 154.300 99.813 C 156.622 97.595,156.983 97.200,156.687 97.200 C 156.626 97.200,155.501 98.325,154.187 99.700 M146.391 107.500 L 143.000 111.000 146.500 107.609 C 149.751 104.459,150.182 104.000,149.891 104.000 C 149.831 104.000,148.256 105.575,146.391 107.500 M105.799 144.499 L 69.800 180.598 103.800 146.799 C 135.947 114.842,142.349 108.400,141.963 108.400 C 141.872 108.400,125.599 124.645,105.799 144.499 M139.988 113.900 L 137.400 116.600 140.100 114.012 C 141.585 112.588,142.800 111.373,142.800 111.312 C 142.800 111.017,142.393 111.392,139.988 113.900 M128.796 124.700 L 120.600 133.000 128.900 124.804 C 133.465 120.296,137.200 116.561,137.200 116.504 C 137.200 116.219,136.412 116.988,128.796 124.700 M198.969 119.165 C 198.326 119.561,183.130 134.685,165.200 152.774 C 96.804 221.777,91.704 226.718,87.362 228.192 C 86.340 228.539,85.121 229.028,84.652 229.279 C 83.202 230.055,74.867 229.926,73.119 229.100 C 72.305 228.715,71.480 228.400,71.287 228.400 C 69.270 228.400,65.366 225.293,57.266 217.242 C 53.755 213.751,50.053 210.325,49.041 209.628 C 46.933 208.178,46.791 207.573,48.223 206.141 C 48.785 205.578,49.010 205.195,48.723 205.290 C 48.204 205.461,46.400 207.869,46.400 208.391 C 46.400 208.542,47.255 209.270,48.300 210.011 C 49.345 210.751,53.350 214.436,57.200 218.199 C 65.023 225.845,67.219 227.587,70.642 228.860 C 71.939 229.342,73.270 229.936,73.600 230.180 C 74.363 230.743,83.760 230.690,84.481 230.118 C 84.766 229.891,85.990 229.385,87.200 228.994 C 91.413 227.629,93.153 225.973,146.576 172.463 C 175.822 143.168,199.952 119.200,200.198 119.200 C 200.831 119.200,238.397 156.616,238.415 157.265 C 238.423 157.559,244.461 163.740,251.833 171.000 C 259.204 178.260,275.194 194.087,287.366 206.170 C 302.819 221.512,309.777 228.161,310.427 228.209 C 310.981 228.250,312.127 229.113,313.254 230.339 C 315.347 232.616,315.670 232.697,319.776 231.972 C 325.268 231.003,326.380 230.745,330.342 229.520 L 334.484 228.240 344.142 218.829 C 355.421 207.840,355.414 207.853,351.444 204.766 C 349.827 203.508,349.831 203.518,351.700 205.357 C 353.837 207.461,354.166 208.869,352.704 209.651 C 352.211 209.915,348.115 213.746,343.602 218.165 C 333.265 228.286,330.810 229.695,322.524 230.265 C 318.552 230.538,316.595 230.185,312.926 228.534 C 311.785 228.020,310.619 227.600,310.334 227.600 C 310.050 227.600,300.093 217.883,288.208 206.006 C 276.324 194.130,266.150 184.105,265.600 183.730 C 264.086 182.695,238.800 157.302,238.800 156.816 C 238.800 156.303,202.015 119.450,200.915 118.861 C 200.324 118.545,199.856 118.618,198.969 119.165 M217.890 140.094 C 227.630 149.826,235.614 158.061,235.632 158.394 C 235.656 158.870,235.710 158.882,235.881 158.451 C 236.070 157.976,201.048 122.400,200.391 122.400 C 200.275 122.400,208.149 130.362,217.890 140.094 M274.000 124.348 C 274.000 124.520,274.450 125.083,275.000 125.600 C 275.550 126.117,276.000 126.426,276.000 126.288 C 276.000 126.150,275.550 125.586,275.000 125.036 C 274.450 124.486,274.000 124.177,274.000 124.348 M284.460 135.000 C 288.029 138.630,291.050 141.602,291.174 141.604 C 291.298 141.606,288.501 138.636,284.959 135.004 C 281.416 131.372,278.395 128.400,278.245 128.400 C 278.094 128.400,280.891 131.370,284.460 135.000 M190.114 132.242 C 189.627 132.769,189.371 133.200,189.545 133.200 C 189.718 133.200,190.283 132.750,190.800 132.200 C 191.317 131.650,191.573 131.219,191.370 131.242 C 191.166 131.265,190.601 131.715,190.114 132.242 M117.200 136.200 C 115.561 137.850,114.310 139.200,114.420 139.200 C 114.530 139.200,115.961 137.850,117.600 136.200 C 119.239 134.550,120.490 133.200,120.380 133.200 C 120.270 133.200,118.839 134.550,117.200 136.200 M186.863 135.527 C 185.907 136.557,184.385 138.165,183.479 139.100 C 182.574 140.035,181.920 140.800,182.025 140.800 C 182.130 140.800,183.829 139.180,185.800 137.200 C 187.771 135.220,189.207 133.612,188.992 133.627 C 188.776 133.643,187.818 134.498,186.863 135.527 M300.484 150.987 C 305.260 155.815,309.220 159.683,309.284 159.583 C 309.348 159.482,305.440 155.532,300.600 150.805 L 291.800 142.209 300.484 150.987 M148.399 174.300 L 117.000 205.800 148.500 174.401 C 177.783 145.212,180.179 142.800,179.899 142.800 C 179.844 142.800,165.669 156.975,148.399 174.300 M94.598 158.900 L 82.200 171.400 94.700 159.002 C 106.317 147.481,107.380 146.400,107.098 146.400 C 107.041 146.400,101.416 152.025,94.598 158.900 M297.583 151.300 C 298.564 152.345,299.419 153.200,299.483 153.200 C 299.784 153.200,299.466 152.841,297.700 151.183 L 295.800 149.400 297.583 151.300 M236.004 159.230 C 236.116 159.323,242.326 165.428,249.804 172.794 L 263.400 186.189 250.800 173.468 C 243.870 166.472,237.660 160.368,237.000 159.903 C 236.340 159.439,235.892 159.136,236.004 159.230 M312.912 163.403 C 314.184 164.671,315.304 165.630,315.400 165.533 C 315.497 165.436,314.457 164.399,313.088 163.227 L 310.600 161.097 312.912 163.403 M313.183 166.900 C 314.841 168.666,315.200 168.984,315.200 168.683 C 315.200 168.619,314.345 167.764,313.300 166.783 L 311.400 165.000 313.183 166.900 M318.315 168.600 C 318.548 169.040,319.602 170.210,320.657 171.200 L 322.575 173.000 320.411 170.600 C 319.221 169.280,318.167 168.110,318.069 168.000 C 317.972 167.890,318.082 168.160,318.315 168.600 M316.434 170.247 C 316.965 170.933,317.480 171.423,317.579 171.335 C 317.677 171.247,317.243 170.686,316.613 170.088 L 315.469 169.000 316.434 170.247 M79.381 174.100 L 77.800 175.800 79.500 174.219 C 81.081 172.748,81.384 172.400,81.081 172.400 C 81.016 172.400,80.251 173.165,79.381 174.100 M330.000 180.600 C 334.066 184.670,337.478 188.000,337.584 188.000 C 337.930 188.000,323.411 173.321,323.004 173.260 C 322.786 173.227,325.934 176.530,330.000 180.600 M72.175 181.300 L 71.000 182.600 72.300 181.425 C 73.015 180.779,73.600 180.194,73.600 180.125 C 73.600 179.816,73.270 180.088,72.175 181.300 M67.278 182.919 C 66.575 183.645,66.000 184.356,66.000 184.501 C 66.000 184.771,67.373 183.468,68.349 182.273 C 69.278 181.135,68.627 181.527,67.278 182.919 M68.985 184.900 L 67.000 187.000 69.100 185.015 C 71.051 183.171,71.383 182.800,71.085 182.800 C 71.022 182.800,70.077 183.745,68.985 184.900 M59.904 190.444 C 59.301 191.300,58.887 192.000,58.983 192.000 C 59.269 192.000,61.326 189.192,61.156 189.033 C 61.070 188.954,60.507 189.588,59.904 190.444 M339.600 189.169 C 339.600 189.315,340.410 190.228,341.400 191.200 C 342.390 192.172,343.200 192.863,343.200 192.736 C 343.200 192.609,342.390 191.695,341.400 190.705 C 340.410 189.715,339.600 189.024,339.600 189.169 M59.201 194.598 C 58.686 195.148,58.339 195.664,58.432 195.746 C 58.524 195.828,59.019 195.378,59.530 194.747 C 60.676 193.335,60.474 193.244,59.201 194.598 M54.967 195.429 L 53.400 196.858 55.100 195.562 C 56.653 194.378,57.032 194.000,56.667 194.000 C 56.593 194.000,55.828 194.643,54.967 195.429 M203.200 195.800 C 203.946 196.570,204.647 197.200,204.757 197.200 C 204.867 197.200,204.346 196.570,203.600 195.800 C 202.854 195.030,202.153 194.400,202.043 194.400 C 201.933 194.400,202.454 195.030,203.200 195.800 M346.800 196.589 C 349.576 199.588,352.407 202.210,352.376 201.751 C 352.362 201.558,351.569 200.770,350.614 200.000 C 349.658 199.230,348.657 198.240,348.389 197.800 C 348.121 197.360,347.159 196.373,346.251 195.606 C 344.836 194.411,344.915 194.552,346.800 196.589 M200.600 197.262 C 201.040 197.502,202.750 198.982,204.400 200.549 L 207.400 203.400 204.209 200.100 C 202.455 198.285,200.745 196.805,200.409 196.812 C 199.973 196.821,200.028 196.949,200.600 197.262 M186.198 210.500 L 173.000 223.800 186.300 210.602 C 198.661 198.337,199.780 197.200,199.498 197.200 C 199.441 197.200,193.456 203.185,186.198 210.500 M223.400 216.400 C 233.738 226.740,242.287 235.200,242.397 235.200 C 242.507 235.200,234.138 226.740,223.800 216.400 C 213.462 206.060,204.913 197.600,204.803 197.600 C 204.693 197.600,213.062 206.060,223.400 216.400 M49.583 201.023 C 48.602 202.026,46.855 203.578,45.700 204.472 C 44.545 205.366,43.600 206.240,43.600 206.415 C 43.600 206.589,44.271 206.162,45.091 205.466 C 47.274 203.613,51.836 199.215,51.583 199.207 C 51.464 199.203,50.564 200.021,49.583 201.023 M354.475 204.600 C 354.953 205.150,355.406 205.600,355.481 205.600 C 355.557 205.600,355.324 205.150,354.963 204.600 C 354.603 204.050,354.150 203.600,353.957 203.600 C 353.763 203.600,353.997 204.050,354.475 204.600 M115.123 207.809 C 114.091 208.794,113.379 209.600,113.540 209.600 C 113.701 209.600,114.628 208.790,115.600 207.800 C 117.877 205.480,117.558 205.486,115.123 207.809 M213.200 209.493 C 213.200 209.686,213.873 210.463,214.696 211.222 C 215.988 212.412,216.056 212.438,215.196 211.418 C 213.546 209.461,213.200 209.127,213.200 209.493 M103.197 219.900 L 93.400 229.800 103.300 220.003 C 108.745 214.615,113.200 210.160,113.200 210.103 C 113.200 209.820,112.301 210.701,103.197 219.900 M45.200 211.418 C 45.750 211.804,46.875 212.759,47.700 213.541 C 48.525 214.323,49.191 214.791,49.180 214.581 C 49.157 214.134,45.511 211.092,44.732 210.869 C 44.440 210.786,44.650 211.033,45.200 211.418 M351.458 215.700 L 346.932 220.200 351.366 216.027 C 353.805 213.732,355.971 211.707,356.180 211.527 C 356.389 211.347,356.430 211.200,356.271 211.200 C 356.113 211.200,353.947 213.225,351.458 215.700 M217.600 214.200 C 218.346 214.970,219.047 215.600,219.157 215.600 C 219.267 215.600,218.746 214.970,218.000 214.200 C 217.254 213.430,216.553 212.800,216.443 212.800 C 216.333 212.800,216.854 213.430,217.600 214.200 M49.800 215.053 C 50.020 215.263,52.990 218.122,56.400 221.406 L 62.600 227.377 57.200 221.861 C 54.230 218.827,51.260 215.968,50.600 215.508 C 49.940 215.047,49.580 214.843,49.800 215.053 M170.908 222.200 C 170.226 222.970,169.812 223.600,169.987 223.600 C 170.162 223.600,170.786 222.970,171.373 222.200 C 171.960 221.430,172.375 220.800,172.294 220.800 C 172.213 220.800,171.589 221.430,170.908 222.200 M158.398 238.300 L 144.200 252.600 158.500 238.402 C 166.365 230.593,172.800 224.158,172.800 224.102 C 172.800 223.820,171.593 225.010,158.398 238.300 M305.800 228.400 C 306.883 229.500,307.860 230.400,307.970 230.400 C 308.080 230.400,307.283 229.500,306.200 228.400 C 305.117 227.300,304.140 226.400,304.030 226.400 C 303.920 226.400,304.717 227.300,305.800 228.400 M338.400 228.200 C 337.883 228.750,337.590 229.200,337.748 229.200 C 337.907 229.200,338.486 228.750,339.036 228.200 C 339.586 227.650,339.880 227.200,339.688 227.200 C 339.496 227.200,338.917 227.650,338.400 228.200 M244.800 241.400 C 252.388 248.990,258.686 255.200,258.796 255.200 C 258.906 255.200,252.788 248.990,245.200 241.400 C 237.612 233.810,231.314 227.600,231.204 227.600 C 231.094 227.600,237.212 233.810,244.800 241.400 M309.000 230.867 C 309.440 231.110,310.205 231.676,310.700 232.124 C 311.639 232.974,311.979 232.722,311.092 231.835 C 310.484 231.227,308.984 230.395,308.526 230.412 C 308.347 230.419,308.560 230.623,309.000 230.867 M73.036 233.169 C 73.325 233.458,84.819 233.493,84.997 233.205 C 85.082 233.067,82.384 232.959,79.000 232.967 C 75.616 232.974,72.932 233.065,73.036 233.169 M313.917 234.872 C 314.293 235.021,316.760 235.144,319.400 235.144 C 322.040 235.144,324.509 235.021,324.886 234.872 C 325.264 234.722,322.796 234.600,319.403 234.600 C 316.010 234.600,313.541 234.722,313.917 234.872 M249.211 242.172 C 250.905 244.178,254.450 247.683,254.617 247.516 C 254.704 247.429,253.301 245.927,251.499 244.179 C 249.696 242.430,248.667 241.527,249.211 242.172 M277.200 270.600 C 287.868 281.270,296.673 290.000,296.765 290.000 C 296.972 290.000,299.758 292.822,277.440 270.426 C 266.902 259.852,258.173 251.200,258.042 251.200 C 257.910 251.200,266.532 259.930,277.200 270.600 M141.586 255.100 L 139.400 257.400 141.700 255.214 C 143.837 253.182,144.183 252.800,143.886 252.800 C 143.824 252.800,142.789 253.835,141.586 255.100 M104.799 291.900 L 70.600 326.200 104.900 292.001 C 136.786 260.208,139.379 257.600,139.099 257.600 C 139.044 257.600,123.609 273.035,104.799 291.900 M145.200 314.722 C 97.256 362.806,91.559 368.391,89.437 369.383 C 77.641 374.893,71.785 373.173,58.431 360.276 C 54.564 356.542,50.455 352.876,49.300 352.131 C 46.963 350.623,46.942 350.581,47.832 349.189 L 48.464 348.200 47.632 349.144 C 46.438 350.499,46.585 351.471,48.100 352.237 C 48.815 352.598,52.730 356.172,56.800 360.179 C 66.301 369.532,66.456 369.650,72.754 372.247 C 74.505 372.969,83.227 373.372,84.200 372.776 C 84.420 372.641,85.680 372.109,87.000 371.594 C 91.908 369.679,92.792 368.838,146.754 314.730 C 189.589 271.780,199.985 261.552,200.510 261.846 C 201.651 262.484,237.646 298.524,238.813 300.196 C 239.428 301.078,245.711 307.470,252.774 314.400 C 259.837 321.330,275.559 336.855,287.713 348.900 C 299.866 360.945,310.081 370.800,310.412 370.800 C 310.743 370.800,311.677 371.250,312.486 371.800 C 313.295 372.350,314.147 372.800,314.379 372.800 C 314.610 372.800,314.800 372.955,314.800 373.145 C 314.800 373.891,322.141 374.060,325.389 373.390 C 332.829 371.853,333.322 371.528,344.144 361.013 C 348.865 356.425,353.014 352.512,353.364 352.316 C 354.051 351.931,354.227 350.587,353.637 350.223 C 353.438 350.100,353.357 350.315,353.458 350.701 C 353.583 351.180,353.222 351.647,352.321 352.172 C 351.594 352.594,347.128 356.756,342.396 361.421 L 333.793 369.901 329.873 371.156 C 321.566 373.817,317.206 373.720,312.465 370.768 C 309.033 368.631,271.549 331.684,221.089 280.700 C 202.115 261.528,201.763 261.200,200.195 261.183 C 198.603 261.166,198.496 261.271,145.200 314.722 M267.600 264.386 C 267.600 264.725,277.555 274.589,277.686 274.380 C 277.749 274.281,275.505 271.941,272.700 269.180 C 269.895 266.419,267.600 264.262,267.600 264.386 M165.000 300.400 C 145.861 319.540,130.304 335.200,130.428 335.200 C 130.552 335.200,146.212 319.620,165.227 300.577 C 204.809 260.937,200.178 265.600,199.966 265.600 C 199.874 265.600,184.139 281.260,165.000 300.400 M200.400 265.725 C 200.400 265.794,200.985 266.379,201.700 267.025 L 203.000 268.200 201.825 266.900 C 200.730 265.688,200.400 265.416,200.400 265.725 M123.387 269.700 L 121.000 272.200 123.500 269.813 C 125.822 267.595,126.183 267.200,125.887 267.200 C 125.826 267.200,124.701 268.325,123.387 269.700 M207.400 272.800 C 208.928 274.340,210.269 275.600,210.379 275.600 C 210.489 275.600,209.328 274.340,207.800 272.800 C 206.272 271.260,204.931 270.000,204.821 270.000 C 204.711 270.000,205.872 271.260,207.400 272.800 M280.488 277.413 C 281.086 278.043,281.647 278.477,281.735 278.379 C 281.823 278.280,281.333 277.765,280.647 277.234 L 279.400 276.269 280.488 277.413 M294.800 291.800 C 301.947 298.950,307.883 304.800,307.991 304.800 C 308.338 304.800,282.614 278.928,282.202 278.863 C 281.984 278.828,287.653 284.650,294.800 291.800 M104.370 288.760 L 98.540 294.600 103.970 289.423 C 106.957 286.576,109.659 284.015,109.976 283.733 C 110.293 283.450,110.473 283.152,110.376 283.070 C 110.279 282.987,107.577 285.548,104.370 288.760 M223.402 288.802 C 223.802 289.244,224.211 289.522,224.312 289.421 C 224.528 289.205,223.388 288.000,222.967 288.000 C 222.807 288.000,223.003 288.361,223.402 288.802 M232.000 296.899 C 232.000 297.164,233.112 298.327,234.737 299.762 C 236.270 301.116,235.653 300.218,233.800 298.400 C 232.810 297.428,232.000 296.753,232.000 296.899 M88.995 304.100 L 83.400 309.800 89.100 304.205 C 92.235 301.128,94.800 298.563,94.800 298.505 C 94.800 298.219,94.192 298.805,88.995 304.100 M309.800 303.200 C 310.659 304.080,311.452 304.800,311.562 304.800 C 311.672 304.800,311.059 304.080,310.200 303.200 C 309.341 302.320,308.548 301.600,308.438 301.600 C 308.328 301.600,308.941 302.320,309.800 303.200 M249.200 314.960 C 255.690 321.539,261.540 327.375,262.200 327.930 C 262.860 328.486,273.575 339.078,286.012 351.470 C 298.448 363.861,308.876 374.000,309.186 374.000 C 309.495 374.000,310.210 374.405,310.774 374.900 L 311.800 375.800 310.830 374.700 C 310.297 374.095,309.581 373.600,309.239 373.600 C 308.896 373.600,298.443 363.476,286.008 351.101 C 273.574 338.727,257.550 322.842,250.400 315.801 L 237.400 303.000 249.200 314.960 M310.600 307.600 C 311.459 308.480,312.252 309.200,312.362 309.200 C 312.472 309.200,311.859 308.480,311.000 307.600 C 310.141 306.720,309.348 306.000,309.238 306.000 C 309.128 306.000,309.741 306.720,310.600 307.600 M314.800 308.200 C 315.546 308.970,316.247 309.600,316.357 309.600 C 316.467 309.600,315.946 308.970,315.200 308.200 C 314.454 307.430,313.753 306.800,313.643 306.800 C 313.533 306.800,314.054 307.430,314.800 308.200 M314.600 311.600 C 315.459 312.480,316.252 313.200,316.362 313.200 C 316.472 313.200,315.859 312.480,315.000 311.600 C 314.141 310.720,313.348 310.000,313.238 310.000 C 313.128 310.000,313.741 310.720,314.600 311.600 M77.578 315.500 L 76.200 317.000 77.700 315.622 C 79.096 314.338,79.384 314.000,79.078 314.000 C 79.012 314.000,78.337 314.675,77.578 315.500 M317.200 314.125 C 317.200 314.194,317.785 314.779,318.500 315.425 L 319.800 316.600 318.625 315.300 C 317.530 314.088,317.200 313.816,317.200 314.125 M327.800 324.800 C 332.196 329.200,335.882 332.800,335.992 332.800 C 336.102 332.800,332.596 329.200,328.200 324.800 C 323.804 320.400,320.118 316.800,320.008 316.800 C 319.898 316.800,323.404 320.400,327.800 324.800 M71.800 321.295 C 68.388 324.747,68.241 324.943,70.800 322.631 C 73.337 320.338,76.369 317.142,75.929 317.224 C 75.858 317.237,74.000 319.069,71.800 321.295 M335.470 329.209 C 336.609 330.304,337.779 331.195,338.070 331.188 C 338.363 331.181,338.243 330.969,337.800 330.714 C 337.360 330.460,336.339 329.565,335.531 328.726 C 334.724 327.887,333.914 327.204,333.731 327.209 C 333.549 327.213,334.332 328.113,335.470 329.209 M62.167 331.029 L 60.600 332.458 62.300 331.162 C 63.853 329.978,64.232 329.600,63.867 329.600 C 63.793 329.600,63.028 330.243,62.167 331.029 M57.000 336.185 C 55.240 337.952,54.160 339.132,54.600 338.806 C 55.803 337.914,60.542 333.201,60.359 333.078 C 60.272 333.019,58.760 334.417,57.000 336.185 M198.624 334.613 C 198.196 334.936,198.025 335.200,198.244 335.200 C 198.462 335.200,198.811 335.033,199.020 334.829 C 199.229 334.624,200.030 334.383,200.800 334.293 L 202.200 334.128 200.800 334.077 C 200.030 334.049,199.051 334.290,198.624 334.613 M339.800 336.000 C 340.659 336.880,341.452 337.600,341.562 337.600 C 341.672 337.600,341.059 336.880,340.200 336.000 C 339.341 335.120,338.548 334.400,338.438 334.400 C 338.328 334.400,338.941 335.120,339.800 336.000 M60.200 336.635 L 59.000 337.666 60.300 336.806 C 61.015 336.333,61.600 335.868,61.600 335.773 C 61.600 335.473,61.431 335.578,60.200 336.635 M196.232 336.713 L 195.464 337.800 196.532 336.830 C 197.654 335.811,197.793 335.592,197.300 335.613 C 197.135 335.619,196.654 336.114,196.232 336.713 M210.415 342.961 C 214.037 346.679,228.970 361.720,243.600 376.386 C 258.230 391.051,261.647 394.398,251.192 383.825 C 240.738 373.251,225.805 358.210,218.008 350.400 C 210.210 342.590,206.794 339.242,210.415 342.961 M200.200 337.079 C 200.640 337.181,208.200 344.406,217.000 353.133 L 233.000 369.000 217.002 352.900 C 205.937 341.765,200.756 336.814,200.202 336.846 C 199.402 336.893,199.402 336.893,200.200 337.079 M191.396 344.900 L 183.800 352.600 191.500 345.004 C 198.654 337.946,199.381 337.200,199.096 337.200 C 199.039 337.200,195.574 340.665,191.396 344.900 M182.978 349.867 C 176.586 356.320,171.457 361.600,171.581 361.600 C 171.704 361.600,177.113 356.290,183.600 349.800 C 190.087 343.310,195.216 338.030,194.997 338.067 C 194.779 338.104,189.370 343.414,182.978 349.867 M341.800 338.273 C 343.358 339.843,346.054 342.015,345.000 340.852 C 344.340 340.123,343.260 339.154,342.600 338.699 C 341.940 338.243,341.580 338.052,341.800 338.273 M56.001 340.598 C 55.486 341.148,55.139 341.664,55.232 341.746 C 55.324 341.828,55.819 341.378,56.330 340.747 C 57.476 339.335,57.274 339.244,56.001 340.598 M47.600 345.564 C 45.290 347.882,44.120 349.212,45.000 348.519 C 46.980 346.960,52.724 341.172,52.190 341.275 C 51.975 341.316,49.910 343.246,47.600 345.564 M348.400 341.322 C 348.400 341.392,348.963 341.979,349.650 342.625 C 350.525 343.448,350.747 343.548,350.391 342.959 C 349.951 342.233,348.400 340.957,348.400 341.322 M347.600 343.725 C 347.600 343.794,348.185 344.379,348.900 345.025 L 350.200 346.200 349.025 344.900 C 347.930 343.688,347.600 343.416,347.600 343.725 M50.786 346.300 L 48.600 348.600 50.900 346.414 C 52.165 345.211,53.200 344.176,53.200 344.114 C 53.200 343.817,52.818 344.163,50.786 346.300 M352.400 345.746 C 352.400 345.856,352.940 346.330,353.600 346.800 C 354.260 347.270,354.800 347.564,354.800 347.454 C 354.800 347.344,354.260 346.870,353.600 346.400 C 352.940 345.930,352.400 345.636,352.400 345.746 M105.800 359.897 C 99.200 366.592,93.440 372.222,93.000 372.409 C 92.412 372.659,92.368 372.756,92.835 372.775 C 93.414 372.798,117.623 348.888,117.933 347.987 C 118.147 347.367,118.337 347.180,105.800 359.897 M179.785 356.500 L 177.800 358.600 179.900 356.615 C 181.055 355.523,182.000 354.578,182.000 354.515 C 182.000 354.217,181.629 354.549,179.785 356.500 M47.983 356.500 C 49.641 358.266,50.000 358.584,50.000 358.283 C 50.000 358.219,49.145 357.364,48.100 356.383 L 46.200 354.600 47.983 356.500 M345.197 364.700 L 336.200 373.800 345.300 364.803 C 353.756 356.444,354.580 355.600,354.297 355.600 C 354.240 355.600,350.145 359.695,345.197 364.700 M56.229 364.085 C 62.247 369.927,66.800 373.804,66.800 373.086 C 66.800 372.997,65.675 372.094,64.300 371.080 C 62.925 370.067,60.090 367.506,58.000 365.390 C 55.910 363.274,53.300 360.797,52.200 359.887 C 51.100 358.977,52.913 360.866,56.229 364.085 M120.399 412.699 C 81.005 452.171,77.861 455.382,106.200 427.199 C 144.305 389.304,171.523 362.000,171.193 362.000 C 171.086 362.000,148.229 384.815,120.399 412.699 M160.996 375.291 C 157.258 379.081,156.000 380.476,158.200 378.391 C 162.369 374.440,168.274 368.400,167.968 368.400 C 167.871 368.400,164.733 371.501,160.996 375.291 M266.799 403.322 C 285.609 422.175,301.087 437.600,301.196 437.600 C 301.474 437.600,237.047 372.998,234.600 370.822 C 233.500 369.844,247.990 384.469,266.799 403.322 M84.800 375.648 C 84.030 376.061,83.626 376.399,83.901 376.399 C 84.177 376.400,85.075 376.040,85.896 375.600 C 86.716 375.160,87.121 374.822,86.794 374.849 C 86.467 374.876,85.570 375.236,84.800 375.648 M72.576 375.778 C 73.004 376.120,73.634 376.386,73.976 376.368 C 74.515 376.341,74.518 376.307,74.000 376.114 C 73.670 375.992,73.040 375.726,72.600 375.524 C 71.813 375.162,71.812 375.166,72.576 375.778 M76.200 375.980 C 75.742 376.165,76.598 376.216,78.200 376.099 C 79.740 375.986,81.075 375.828,81.167 375.747 C 81.500 375.453,76.978 375.665,76.200 375.980 M328.562 376.500 C 327.806 377.393,327.807 377.395,328.600 376.741 C 329.040 376.379,329.760 375.995,330.200 375.888 C 330.969 375.700,330.968 375.691,330.162 375.646 C 329.701 375.621,328.981 376.005,328.562 376.500 M313.400 377.600 C 313.840 377.789,314.470 377.944,314.800 377.944 C 315.178 377.944,315.104 377.817,314.600 377.600 C 314.160 377.411,313.530 377.256,313.200 377.256 C 312.822 377.256,312.896 377.383,313.400 377.600 M325.505 377.483 C 326.002 377.579,326.722 377.575,327.105 377.475 C 327.487 377.375,327.080 377.296,326.200 377.301 C 325.320 377.305,325.007 377.387,325.505 377.483 M318.300 377.895 C 319.455 377.976,321.345 377.976,322.500 377.895 C 323.655 377.814,322.710 377.748,320.400 377.748 C 318.090 377.748,317.145 377.814,318.300 377.895 M151.188 385.100 L 148.600 387.800 151.300 385.212 C 153.808 382.807,154.183 382.400,153.888 382.400 C 153.827 382.400,152.612 383.615,151.188 385.100 M143.800 392.480 C 142.456 393.865,142.212 394.241,143.057 393.627 C 144.088 392.877,146.310 390.374,145.912 390.410 C 145.850 390.416,144.900 391.347,143.800 392.480 M124.798 411.500 L 111.400 425.000 124.900 411.602 C 132.325 404.233,138.400 398.158,138.400 398.102 C 138.400 397.820,137.249 398.953,124.798 411.500 M197.400 400.336 C 196.740 400.740,172.530 424.851,143.600 453.917 C 91.344 506.419,90.980 506.774,87.985 508.155 C 77.881 512.815,72.255 511.191,60.932 500.344 C 52.922 492.669,52.382 492.241,49.800 491.495 C 47.664 490.878,47.127 490.060,48.065 488.851 C 48.359 488.471,48.195 488.585,47.700 489.103 C 46.357 490.508,46.573 490.992,49.100 492.246 C 50.768 493.074,53.158 495.103,57.800 499.632 C 70.418 511.944,76.866 514.353,86.716 510.436 C 91.798 508.416,83.257 516.731,175.542 423.957 C 198.092 401.287,198.684 400.760,201.200 401.124 C 201.895 401.225,207.937 407.059,221.000 420.245 C 274.102 473.843,309.217 508.513,312.338 510.426 C 317.504 513.592,321.340 513.761,329.398 511.180 C 333.852 509.753,333.533 510.003,343.704 500.017 C 347.172 496.613,350.814 493.372,351.799 492.814 C 354.552 491.255,354.421 489.773,351.328 487.455 L 349.800 486.311 351.500 487.939 C 353.787 490.130,353.715 490.839,351.096 491.925 C 349.424 492.618,347.338 494.390,340.940 500.553 C 332.162 509.010,332.129 509.031,325.258 510.785 C 316.072 513.130,316.576 513.471,289.334 486.475 C 277.637 474.884,262.716 460.180,256.176 453.800 C 249.636 447.420,242.971 440.670,241.365 438.800 C 237.881 434.743,204.634 401.474,202.964 400.372 C 201.487 399.399,198.961 399.382,197.400 400.336 M217.890 422.894 C 227.630 432.626,235.614 440.861,235.632 441.194 C 235.656 441.670,235.710 441.682,235.881 441.251 C 236.070 440.776,201.048 405.200,200.391 405.200 C 200.275 405.200,208.149 413.162,217.890 422.894 M192.995 412.100 L 186.600 418.600 193.100 412.205 C 196.675 408.687,199.600 405.762,199.600 405.705 C 199.600 405.419,198.937 406.061,192.995 412.100 M280.001 412.996 C 280.770 413.873,281.445 414.668,281.500 414.762 C 281.555 414.856,281.687 414.847,281.793 414.741 C 281.899 414.635,281.224 413.840,280.293 412.974 L 278.601 411.400 280.001 412.996 M287.685 420.993 C 289.601 422.957,291.223 424.482,291.289 424.382 C 291.355 424.282,289.786 422.675,287.804 420.811 L 284.200 417.422 287.685 420.993 M184.475 420.524 C 183.554 421.462,182.800 422.365,182.800 422.530 C 182.800 422.696,183.617 421.990,184.615 420.963 C 185.613 419.936,186.367 419.033,186.290 418.956 C 186.213 418.880,185.396 419.585,184.475 420.524 M178.588 426.413 C 176.624 428.386,175.156 430.000,175.325 430.000 C 175.678 430.000,182.453 423.119,182.275 422.941 C 182.211 422.877,180.552 424.439,178.588 426.413 M292.000 425.121 C 292.000 425.424,308.321 441.685,309.963 443.019 C 310.492 443.448,307.460 440.381,303.225 436.202 C 298.990 432.022,294.732 427.755,293.763 426.719 C 292.793 425.682,292.000 424.963,292.000 425.121 M92.598 443.700 L 75.400 461.000 92.700 443.802 C 102.215 434.343,110.000 426.558,110.000 426.502 C 110.000 426.220,108.583 427.620,92.598 443.700 M164.288 440.978 C 162.577 442.750,151.237 454.190,139.089 466.400 C 117.104 488.497,117.119 488.482,142.384 463.316 C 156.344 449.411,167.684 437.970,167.583 437.894 C 167.482 437.818,166.000 439.205,164.288 440.978 M313.200 449.800 C 319.687 456.290,325.085 461.600,325.195 461.600 C 325.305 461.600,320.087 456.290,313.600 449.800 C 307.113 443.310,301.715 438.000,301.605 438.000 C 301.495 438.000,306.713 443.310,313.200 449.800 M249.400 455.130 C 256.220 462.019,262.880 468.458,264.200 469.439 C 265.520 470.421,265.885 470.633,265.012 469.912 C 264.138 469.190,257.478 462.751,250.212 455.603 L 237.000 442.606 249.400 455.130 M312.000 445.400 C 312.746 446.170,313.447 446.800,313.557 446.800 C 313.667 446.800,313.146 446.170,312.400 445.400 C 311.654 444.630,310.953 444.000,310.843 444.000 C 310.733 444.000,311.254 444.630,312.000 445.400 M320.486 453.801 C 321.523 454.879,322.433 455.680,322.507 455.581 C 322.581 455.481,321.733 454.599,320.621 453.620 L 318.600 451.840 320.486 453.801 M323.200 456.238 C 323.200 456.441,326.485 459.846,330.500 463.804 L 337.800 471.000 330.600 463.615 C 326.640 459.553,323.355 456.148,323.300 456.048 C 323.245 455.948,323.200 456.034,323.200 456.238 M73.971 462.363 C 73.195 463.003,71.698 464.578,70.644 465.863 C 69.159 467.673,69.097 467.794,70.369 466.400 C 71.272 465.410,72.858 463.835,73.894 462.900 C 76.040 460.964,76.089 460.617,73.971 462.363 M67.206 465.794 C 66.463 466.561,65.932 467.250,66.027 467.325 C 66.122 467.400,66.806 466.773,67.546 465.931 C 69.229 464.018,69.012 463.931,67.206 465.794 M62.600 470.400 C 61.940 470.837,61.580 471.192,61.800 471.188 C 62.201 471.182,64.376 469.623,64.000 469.612 C 63.890 469.608,63.260 469.963,62.600 470.400 M339.600 471.860 C 339.600 472.334,342.990 475.600,343.482 475.600 C 343.647 475.600,343.114 475.049,342.297 474.375 C 341.479 473.702,340.538 472.762,340.205 472.286 C 339.872 471.811,339.600 471.619,339.600 471.860 M339.747 475.701 C 340.656 476.636,341.478 477.353,341.574 477.294 C 341.798 477.154,338.726 474.000,338.366 474.000 C 338.216 474.000,338.838 474.765,339.747 475.701 M51.427 481.737 C 48.772 484.452,45.925 487.173,45.100 487.784 C 44.275 488.395,43.600 489.038,43.600 489.213 C 43.600 489.388,44.275 488.963,45.100 488.268 C 46.972 486.692,56.787 476.800,56.480 476.800 C 56.356 476.800,54.082 479.021,51.427 481.737 M344.800 477.325 C 344.800 477.394,345.385 477.979,346.100 478.625 L 347.400 479.800 346.225 478.500 C 345.130 477.288,344.800 477.016,344.800 477.325 M342.838 478.900 C 342.932 478.955,343.727 479.630,344.604 480.400 L 346.200 481.800 344.822 480.300 C 344.063 479.475,343.268 478.800,343.055 478.800 C 342.841 478.800,342.744 478.845,342.838 478.900 M277.800 482.800 C 279.106 484.120,280.265 485.200,280.375 485.200 C 280.485 485.200,279.506 484.120,278.200 482.800 C 276.894 481.480,275.735 480.400,275.625 480.400 C 275.515 480.400,276.494 481.480,277.800 482.800 M348.400 481.090 C 348.400 481.261,349.030 481.903,349.800 482.517 C 351.602 483.955,351.602 483.695,349.800 482.055 C 349.030 481.354,348.400 480.920,348.400 481.090 M354.475 487.400 C 354.953 487.950,355.406 488.400,355.481 488.400 C 355.557 488.400,355.324 487.950,354.963 487.400 C 354.603 486.850,354.150 486.400,353.957 486.400 C 353.763 486.400,353.997 486.850,354.475 487.400 M115.381 490.500 L 113.800 492.200 115.500 490.619 C 117.081 489.148,117.384 488.800,117.081 488.800 C 117.016 488.800,116.251 489.565,115.381 490.500 M43.600 492.264 C 43.600 492.482,44.095 493.097,44.700 493.630 L 45.800 494.600 44.800 493.400 C 44.250 492.740,43.755 492.125,43.700 492.033 C 43.645 491.942,43.600 492.045,43.600 492.264 M103.197 502.700 L 93.400 512.600 103.300 502.803 C 112.499 493.699,113.380 492.800,113.097 492.800 C 113.040 492.800,108.585 497.255,103.197 502.700 M46.000 494.502 C 46.000 494.613,47.035 495.559,48.300 496.606 C 50.155 498.142,50.290 498.209,49.000 496.955 C 47.147 495.155,46.000 494.216,46.000 494.502 M352.609 497.012 C 351.554 498.009,350.771 498.904,350.869 499.003 C 350.968 499.101,351.931 498.286,353.009 497.191 C 355.460 494.703,355.184 494.579,352.609 497.012 M52.600 500.400 C 53.683 501.500,54.660 502.400,54.770 502.400 C 54.880 502.400,54.083 501.500,53.000 500.400 C 51.917 499.300,50.940 498.400,50.830 498.400 C 50.720 498.400,51.517 499.300,52.600 500.400 M294.046 499.100 C 294.295 499.485,295.061 500.237,295.749 500.771 C 296.797 501.584,296.744 501.471,295.419 500.071 C 293.711 498.266,293.335 498.000,294.046 499.100 M341.981 507.500 C 338.361 511.169,335.558 514.049,335.752 513.900 C 336.855 513.051,348.838 501.105,348.713 500.980 C 348.630 500.897,345.601 503.831,341.981 507.500 M57.600 505.400 C 59.017 506.830,60.267 508.000,60.377 508.000 C 60.487 508.000,59.417 506.830,58.000 505.400 C 56.583 503.970,55.333 502.800,55.223 502.800 C 55.113 502.800,56.183 503.970,57.600 505.400 M61.600 509.175 C 64.525 511.616,65.756 512.506,65.000 511.632 C 64.560 511.123,63.390 510.174,62.400 509.524 C 61.410 508.873,61.050 508.716,61.600 509.175 M307.801 512.802 C 307.940 513.027,308.745 513.564,309.590 513.995 C 310.435 514.426,311.219 514.968,311.333 515.199 C 311.447 515.431,311.495 515.395,311.440 515.120 C 311.385 514.846,310.487 514.120,309.444 513.507 C 308.402 512.894,307.662 512.577,307.801 512.802 M84.657 515.656 C 84.248 515.894,83.168 515.986,82.257 515.862 C 81.120 515.706,80.851 515.746,81.400 515.990 C 82.592 516.517,84.075 516.443,85.200 515.800 C 85.750 515.486,86.020 515.227,85.800 515.226 C 85.580 515.225,85.065 515.419,84.657 515.656 M73.315 516.080 C 73.908 516.456,75.543 516.445,76.526 516.058 C 76.952 515.890,76.338 515.771,75.041 515.771 C 73.825 515.771,73.048 515.910,73.315 516.080 M314.139 517.694 C 314.714 518.061,323.552 518.042,324.487 517.672 C 324.865 517.522,322.587 517.400,319.426 517.400 C 316.265 517.400,313.886 517.532,314.139 517.694 " stroke="none" fill="#747474" fill-rule="evenodd"></path></g></svg>